<svg xmlns="http://www.w3.org/2000/svg" width="25" height="25" viewBox="0 0 25 25" fill="none">
    <g clip-path="url(#clip0_2933_3411)">
      <path fill-rule="evenodd" clip-rule="evenodd" d="M12.3144 0C8.37097 0.00034341 7.88081 0.0158258 6.29212 0.0879941C4.80512 0.155994 3.99712 0.402994 3.46112 0.612994C2.79789 0.856776 2.19806 1.24675 1.70612 1.75399C1.20065 2.24681 0.811235 2.84597 0.56612 3.50799C0.35812 4.04599 0.10912 4.85299 0.0411197 6.33899C-0.0295171 7.91753 -0.0462543 8.41038 -0.0468628 12.2745L2.43535 12.0856H2.43536C5.63338 11.8423 7.23238 11.7206 8.479 11.0369C9.5777 10.4344 10.4815 9.53063 11.084 8.43193C11.7677 7.18531 11.8893 5.5863 12.1327 2.38828L12.3144 0ZM-0.046875 12.632C-0.0465509 16.5825 -0.0310847 17.0723 0.0421197 18.662C0.11012 20.149 0.35712 20.957 0.56712 21.494C0.810723 22.1565 1.20036 22.7556 1.70712 23.247C2.19953 23.753 2.7988 24.1425 3.46112 24.387C3.99812 24.596 4.80612 24.844 6.29312 24.912C7.88164 24.9852 8.37245 24.9997 12.3215 25L12.1327 22.5182C11.8893 19.3202 11.7677 17.7212 11.084 16.4746C10.4815 15.3759 9.5777 14.4721 8.479 13.8696C7.23238 13.1859 5.63337 13.0642 2.43535 12.8209L-0.046875 12.632ZM12.6791 25C16.5427 24.9994 17.0374 24.9836 18.6141 24.912C20.1011 24.844 20.9091 24.597 21.4461 24.387C22.1085 24.1427 22.7079 23.7531 23.2001 23.247C23.7062 22.7551 24.0957 22.1561 24.3401 21.494C24.5481 20.957 24.7971 20.149 24.8651 18.662C24.9373 17.0715 24.9528 16.5813 24.9531 12.6392L22.5653 12.8209C19.3673 13.0642 17.7683 13.1859 16.5216 13.8696C15.4229 14.4721 14.5192 15.3759 13.9166 16.4746C13.233 17.7212 13.1113 19.3202 12.868 22.5182L12.6791 25ZM24.9531 12.2673C24.9525 8.40989 24.9367 7.91583 24.8651 6.33899C24.7971 4.85199 24.5501 4.04399 24.3401 3.50699C24.096 2.84445 23.7065 2.24508 23.2001 1.75299C22.6661 1.21999 22.1581 0.888994 21.4461 0.612994C20.9071 0.404994 20.1011 0.155994 18.6141 0.0879941C17.0375 0.0173979 16.5433 0.000639301 12.6862 1.26391e-05L12.868 2.38828V2.38829C13.1113 5.5863 13.233 7.18531 13.9166 8.43193C14.5192 9.53063 15.4229 10.4344 16.5216 11.0369C17.7683 11.7206 19.3673 11.8423 22.5653 12.0856L24.9531 12.2673Z" fill="white"/>
    </g>
    <defs>
      <clipPath id="clip0_2933_3411">
        <rect width="25" height="25" fill="white"/>
      </clipPath>
    </defs>
  </svg>