<svg xmlns="http://www.w3.org/2000/svg" width="25" height="25" viewBox="0 0 25 25" fill="none">
    <g clip-path="url(#clip0_2933_3407)">
      <path fill-rule="evenodd" clip-rule="evenodd" d="M3.508 24.387C4.045 24.596 4.853 24.844 6.34 24.912C7.946 24.986 8.43 25 12.5 25C16.571 25 17.054 24.985 18.661 24.912C20.148 24.844 20.956 24.597 21.493 24.387C22.1554 24.1427 22.7547 23.7531 23.247 23.247C23.7531 22.7551 24.1426 22.1561 24.387 21.494C24.595 20.957 24.844 20.149 24.912 18.662C24.985 17.053 25 16.57 25 12.5C25 8.429 24.985 7.947 24.912 6.339C24.844 4.852 24.597 4.044 24.387 3.507C24.1429 2.84446 23.7534 2.24508 23.247 1.753C22.713 1.22 22.205 0.889 21.493 0.613C20.954 0.405 20.148 0.156 18.661 0.088C17.053 0.016 16.571 0 12.499 0C8.429 0 7.946 0.015 6.339 0.088C4.852 0.156 4.044 0.403 3.508 0.613C2.84477 0.856782 2.24494 1.24676 1.753 1.754C1.24753 2.24681 0.858115 2.84597 0.613 3.508C0.405 4.046 0.156 4.853 0.088 6.339C0.016 7.948 0 8.429 0 12.502C0 16.572 0.015 17.055 0.089 18.662C0.157 20.149 0.404 20.957 0.614 21.494C0.857603 22.1565 1.24724 22.7556 1.754 23.247C2.24641 23.753 2.84568 24.1425 3.508 24.387ZM17.2871 7.00155C16.607 7.04481 14.8398 7.77452 7.03533 11.2348C5.48044 11.9242 5.42859 11.9492 5.23032 12.1038C4.9418 12.3287 4.92256 12.6093 5.18272 12.7978C5.35353 12.9216 5.49635 12.9784 6.22232 13.2113C7.60675 13.6556 8.12684 13.7494 8.56865 13.6347C8.92099 13.5432 9.10051 13.4443 9.83924 12.9353C12.4599 11.1294 13.5598 10.38 14.1561 9.99398C14.4899 9.77789 14.5684 9.74523 14.6833 9.77476C14.7729 9.7978 14.8378 9.92837 14.8043 10.0183C14.7608 10.1352 14.317 10.5991 13.2974 11.5935C13.131 11.7559 12.6827 12.1849 12.0239 12.8126C10.7514 14.0251 10.616 14.1898 10.6369 14.5012C10.6554 14.7763 10.8225 14.9568 11.4632 15.394C11.6527 15.5233 12.0917 15.8266 12.4387 16.068C12.7857 16.3094 13.2952 16.6597 13.571 16.8465C13.8468 17.0334 14.1965 17.2754 14.348 17.3845C15.0151 17.8648 15.3028 17.9965 15.6924 18C15.9864 18.0026 16.1616 17.9028 16.3296 17.6374C16.4961 17.3742 16.5731 17.112 16.7139 16.3288C17.2784 13.1876 17.8225 9.65257 17.9829 8.08454C18.03 7.62417 17.9798 7.32309 17.8304 7.17047C17.7217 7.05952 17.4932 6.98845 17.2871 7.00155Z" fill="white"/>
    </g>
    <defs>
      <clipPath id="clip0_2933_3407">
        <rect width="25" height="25" fill="white"/>
      </clipPath>
    </defs>
  </svg>