<svg xmlns="http://www.w3.org/2000/svg" width="25" height="25" viewBox="0 0 25 25" fill="none">
    <g clip-path="url(#clip0_2933_3409)">
      <path fill-rule="evenodd" clip-rule="evenodd" d="M3.508 24.387C4.045 24.596 4.853 24.844 6.34 24.912C7.946 24.986 8.43 25 12.5 25C16.571 25 17.054 24.985 18.661 24.912C20.148 24.844 20.956 24.597 21.493 24.387C22.1554 24.1427 22.7547 23.7531 23.247 23.247C23.7531 22.7551 24.1426 22.1561 24.387 21.494C24.595 20.957 24.844 20.149 24.912 18.662C24.985 17.053 25 16.57 25 12.5C25 8.429 24.985 7.947 24.912 6.339C24.844 4.852 24.597 4.044 24.387 3.507C24.1429 2.84446 23.7534 2.24508 23.247 1.753C22.713 1.22 22.205 0.889 21.493 0.613C20.954 0.405 20.148 0.156 18.661 0.088C17.053 0.016 16.571 0 12.499 0C8.429 0 7.946 0.015 6.339 0.088C4.852 0.156 4.044 0.403 3.508 0.613C2.84477 0.856782 2.24494 1.24676 1.753 1.754C1.24753 2.24681 0.858115 2.84597 0.613 3.508C0.405 4.046 0.156 4.853 0.088 6.339C0.016 7.948 0 8.429 0 12.502C0 16.572 0.015 17.055 0.089 18.662C0.157 20.149 0.404 20.957 0.614 21.494C0.857603 22.1565 1.24724 22.7556 1.754 23.247C2.24641 23.753 2.84568 24.1425 3.508 24.387ZM4.00852 8.23154C4.16595 12.5122 5.91358 15.6264 8.97689 17.0849C10.2575 17.6946 11.7477 17.9995 13.4498 17.9999L13.7016 18V16.2117V14.4233L13.742 14.4295C13.7642 14.4328 13.8272 14.4412 13.8819 14.4481C15.6863 14.6755 17.232 15.9624 17.9155 17.8066L17.985 17.9941L19.4925 17.9971C20.3216 17.9988 21 17.9967 21 17.9925C21 17.9883 20.9751 17.9051 20.9446 17.8078C20.4866 16.3439 19.617 15.0534 18.4074 14.0425C17.9506 13.6608 17.3643 13.2767 16.9001 13.055C16.7505 12.9836 16.7452 12.979 16.7882 12.9575C17.0959 12.8038 17.696 12.3479 18.1281 11.9397C19.3143 10.8191 20.0802 9.47897 20.3579 8.0381L20.3653 8H18.9922H17.6191L17.6054 8.04982C17.5728 8.16918 17.4269 8.56056 17.3509 8.73271C16.5938 10.4481 15.117 11.7693 13.7606 11.9446L13.7016 11.9522V9.9761V8H12.3028H10.9041V11.4584C10.9041 14.5864 10.9022 14.9168 10.8846 14.9168C10.8447 14.9168 10.4872 14.7972 10.3392 14.7343C9.00588 14.1679 7.95406 12.8841 7.39586 11.1419C7.11746 10.2729 6.96944 9.35614 6.91837 8.18464L6.91031 8H5.45516H4L4.00852 8.23154Z" fill="white"/>
    </g>
    <defs>
      <clipPath id="clip0_2933_3409">
        <rect width="25" height="25" fill="white"/>
      </clipPath>
    </defs>
  </svg>