<svg width="60" height="60" viewBox="0 0 60 60" fill="none" xmlns="http://www.w3.org/2000/svg">
    <path d="M59.0143 54.2825L47.6846 42.9862C51.3401 38.3292 53.3235 32.5784 53.3162 26.6581C53.3162 21.3856 51.7527 16.2316 48.8235 11.8477C45.8942 7.46376 41.7308 4.04692 36.8597 2.02924C31.9886 0.0115505 26.6285 -0.516368 21.4574 0.512239C16.2862 1.54085 11.5362 4.07978 7.80798 7.80798C4.07978 11.5362 1.54085 16.2862 0.512239 21.4574C-0.516368 26.6285 0.0115505 31.9886 2.02924 36.8597C4.04692 41.7308 7.46376 45.8942 11.8477 48.8235C16.2315 51.7527 21.3856 53.3162 26.6581 53.3162C32.5784 53.3235 38.3292 51.3401 42.9862 47.6846L54.2825 59.0143C54.5923 59.3266 54.9608 59.5746 55.3669 59.7437C55.773 59.9129 56.2085 60 56.6484 60C57.0883 60 57.5239 59.9129 57.9299 59.7437C58.336 59.5746 58.7045 59.3266 59.0143 59.0143C59.3266 58.7045 59.5746 58.336 59.7437 57.9299C59.9129 57.5239 60 57.0883 60 56.6484C60 56.2085 59.9129 55.773 59.7437 55.3669C59.5746 54.9608 59.3266 54.5923 59.0143 54.2825V54.2825ZM6.66453 26.6581C6.66453 22.7037 7.83713 18.8382 10.0341 15.5503C12.231 12.2623 15.3535 9.69971 19.0069 8.18645C22.6602 6.67318 26.6803 6.27725 30.5586 7.0487C34.437 7.82016 37.9995 9.72436 40.7957 12.5205C43.5918 15.3167 45.496 18.8792 46.2675 22.7575C47.0389 26.6359 46.643 30.6559 45.1297 34.3093C43.6165 37.9626 41.0538 41.0852 37.7659 43.2821C34.478 45.479 30.6124 46.6516 26.6581 46.6516C21.3555 46.6516 16.27 44.5452 12.5205 40.7957C8.77099 37.0461 6.66453 31.9607 6.66453 26.6581Z" fill="white"/>
    </svg>
    