<svg width="18" height="18" viewBox="0 0 18 18" fill="none" xmlns="http://www.w3.org/2000/svg">
    <path d="M1.00049 14.225C1.00049 12.9962 1.99666 12 3.22549 12V12C4.45432 12 5.45049 12.9962 5.45049 14.225V14.225C5.45049 15.4538 4.45432 16.45 3.22549 16.45V16.45C1.99666 16.45 1.00049 15.4538 1.00049 14.225V14.225Z" fill="#000B7C"/>
    <path d="M12.0005 3.225C12.0005 1.99617 12.9967 1 14.2255 1V1C15.4543 1 16.4505 1.99617 16.4505 3.225V3.225C16.4505 4.45383 15.4543 5.45 14.2255 5.45V5.45C12.9967 5.45 12.0005 4.45383 12.0005 3.225V3.225Z" fill="#000B7C"/>
    <path d="M1.00049 3.225C1.00049 1.99617 1.99666 1 3.22549 1V1C4.45432 1 5.45049 1.99617 5.45049 3.225V3.225C5.45049 4.45383 4.45432 5.45 3.22549 5.45V5.45C1.99666 5.45 1.00049 4.45383 1.00049 3.225V3.225Z" fill="#000B7C"/>
    <path d="M12.0005 14.225C12.0005 12.9962 12.9967 12 14.2255 12V12C15.4543 12 16.4505 12.9962 16.4505 14.225V14.225C16.4505 15.4538 15.4543 16.45 14.2255 16.45V16.45C12.9967 16.45 12.0005 15.4538 12.0005 14.225V14.225Z" fill="#000B7C"/>
</svg>
    