<svg width="18" height="18" viewBox="0 0 18 18" fill="none" xmlns="http://www.w3.org/2000/svg">
    <path d="M4.79841 15.7988C3.9295 16.6677 2.5207 16.6677 1.65179 15.7988V15.7988C0.782869 14.9298 0.782869 13.521 1.65178 12.6521L12.6917 1.61224C13.5606 0.74332 14.9694 0.743318 15.8383 1.61223V1.61223C16.7072 2.48115 16.7072 3.88994 15.8383 4.75886L4.79841 15.7988Z" fill="#000B7C"/>
    <path d="M15.7939 12.6484C16.6628 13.5173 16.6628 14.9261 15.7939 15.795V15.795C14.925 16.6639 13.5162 16.6639 12.6473 15.795L1.65506 4.8028C0.786146 3.93389 0.786146 2.5251 1.65506 1.65618V1.65618C2.52398 0.787263 3.93277 0.787263 4.80169 1.65618L15.7939 12.6484Z" fill="#000B7C"/>
    </svg>
    