<svg xmlns="http://www.w3.org/2000/svg" width="32" height="32" viewBox="0 0 32 32" fill="none">
    <path d="M25.4766 23.6486L21.6094 19.7927C22.8571 18.2031 23.5341 16.2402 23.5316 14.2194C23.5316 12.4197 22.9979 10.6605 21.9981 9.16412C20.9982 7.66775 19.5771 6.50147 17.9144 5.81276C16.2518 5.12406 14.4222 4.94386 12.6571 5.29496C10.892 5.64606 9.27069 6.51268 7.99813 7.78524C6.72557 9.0578 5.85895 10.6791 5.50785 12.4442C5.15675 14.2093 5.33695 16.0389 6.02565 17.7016C6.71436 19.3642 7.88064 20.7853 9.37701 21.7852C10.8734 22.785 12.6326 23.3187 14.4323 23.3187C16.4531 23.3212 18.416 22.6442 20.0056 21.3965L23.8614 25.2637C23.9672 25.3703 24.093 25.4549 24.2316 25.5126C24.3702 25.5704 24.5188 25.6001 24.669 25.6001C24.8192 25.6001 24.9678 25.5704 25.1064 25.5126C25.245 25.4549 25.3708 25.3703 25.4766 25.2637C25.5832 25.1579 25.6678 25.0321 25.7255 24.8935C25.7833 24.7549 25.813 24.6063 25.813 24.4561C25.813 24.306 25.7833 24.1573 25.7255 24.0187C25.6678 23.8801 25.5832 23.7543 25.4766 23.6486ZM7.60783 14.2194C7.60783 12.8697 8.00808 11.5502 8.75796 10.4279C9.50785 9.30566 10.5737 8.43095 11.8207 7.91442C13.0677 7.3979 14.4399 7.26275 15.7637 7.52607C17.0875 7.7894 18.3035 8.43936 19.2579 9.39378C20.2123 10.3482 20.8623 11.5642 21.1256 12.888C21.389 14.2118 21.2538 15.584 20.7373 16.831C20.2208 18.078 19.346 19.1439 18.2238 19.8937C17.1015 20.6436 15.7821 21.0439 14.4323 21.0439C12.6223 21.0439 10.8865 20.3249 9.60667 19.045C8.32684 17.7652 7.60783 16.0294 7.60783 14.2194Z" fill="#050081"/>
  </svg>