<svg width="90" height="59" viewBox="0 0 90 59" fill="none" xmlns="http://www.w3.org/2000/svg">
<g clip-path="url(#clip0_2002_80972)">
<path d="M67.664 0.619686C67.664 0.553584 67.6105 0.5 67.5444 0.5C67.519 0.5 67.4943 0.508059 67.4738 0.523015L67.2745 0.668524C62.0005 3.99504 54.0861 5.90742 45.5223 5.90742C36.9585 5.90742 29.0368 3.99504 23.8061 0.668524L23.5768 0.519732C23.557 0.506853 23.5338 0.5 23.5102 0.5C23.4425 0.5 23.3877 0.554832 23.3877 0.622471V35.3799C23.3877 36.9796 25.2081 37.9803 26.6585 37.3054C31.7014 34.9591 38.43 33.6113 45.5223 33.6113C52.617 33.6113 59.3479 34.96 64.3951 37.3079C65.8451 37.9824 67.664 36.9819 67.664 35.3828V0.619686Z" fill="#000B7C"/>
<path d="M67.664 33.0486C67.664 34.5931 65.9698 35.5831 64.5523 34.9698C59.3051 32.6997 52.5637 31.4058 45.5223 31.4058C38.4784 31.4058 31.7496 32.6956 26.4986 34.9695C25.0814 35.5832 23.3877 34.5936 23.3877 33.0492V6.47114C23.3877 4.9248 25.0854 3.93556 26.5034 4.55243C31.7522 6.83584 38.4428 8.10555 45.5223 8.10555C52.5982 8.10555 59.3004 6.83712 64.545 4.55587C65.9639 3.93868 67.664 4.9284 67.664 6.47575V33.0486Z" fill="#000B7C"/>
<path d="M38.8197 21.5504H38.7259L36.7419 13.835H34.5775L32.5863 21.5358H32.4997L30.6888 13.835H28.1709L31.2948 24.9136H33.5386L35.6164 17.667H35.703L37.7808 24.9136H40.0246L43.1485 13.835H40.6306L38.8197 21.5504Z" fill="#FFFFFF"/>
<path d="M44.382 24.9142H48.249C49.2517 24.9504 50.2464 24.7206 51.1349 24.2474C51.9251 23.8178 52.5671 23.1531 52.9747 22.3424C53.4051 21.4137 53.608 20.3931 53.5663 19.3676C53.5932 18.3401 53.3727 17.3214 52.9241 16.4001C52.5152 15.5929 51.8767 14.9291 51.0916 14.495C50.2174 14.033 49.2413 13.806 48.2563 13.8356H44.3604L44.382 24.9142ZM46.6907 15.8432H48.1336C48.7291 15.8214 49.3209 15.9472 49.8579 16.2096C50.3343 16.4547 50.7137 16.8581 50.9329 17.3526C51.1923 17.988 51.3129 18.6729 51.2864 19.3602C51.3122 20.0499 51.1916 20.737 50.9329 21.3752C50.7204 21.8707 50.3492 22.2787 49.8796 22.5329C49.3411 22.7909 48.7504 22.9164 48.1553 22.8992H46.7123L46.6907 15.8432Z" fill="#FFFFFF"/>
<path d="M57.5999 21.0156H59.2881L61.3515 24.9429H63.8983L61.5824 20.6346L61.6834 20.598C62.2459 20.3407 62.7187 19.9167 63.0397 19.3816C63.3664 18.8055 63.5287 18.1484 63.5087 17.4839C63.5259 16.816 63.3664 16.1556 63.0469 15.5715C62.7388 15.0232 62.2731 14.5835 61.7122 14.3113C61.0519 13.9958 60.3277 13.8427 59.5983 13.8643H55.2695V24.9136H57.5782L57.5999 21.0156ZM59.1582 15.7767C59.5357 15.7649 59.9114 15.8323 60.2621 15.9745C60.5378 16.0886 60.7687 16.2921 60.9186 16.5534C61.0709 16.8385 61.1456 17.1597 61.135 17.4839C61.1459 17.8035 61.0711 18.12 60.9186 18.3998C60.7646 18.6508 60.5341 18.8438 60.2621 18.9493C59.912 19.0833 59.5393 19.1455 59.1654 19.1325H57.5999V15.7474L59.1582 15.7767Z" fill="#FFFFFF"/>
<path d="M32.002 39.9157V41.9893L34.4982 40.3993H34.5632V49.2578H36.8718V38.1719H34.7002L32.002 39.9157Z" fill="#000B7C"/>
<path d="M46.0989 38.6921C45.5816 38.3303 44.9904 38.0921 44.3697 37.9953C43.7489 37.8985 43.1145 37.9456 42.5142 38.133C41.9139 38.3205 41.3631 38.6435 40.9031 39.0779C40.4432 39.5122 40.086 40.0467 39.8582 40.6411C39.4821 41.6235 39.3031 42.6722 39.3316 43.7258C39.3006 44.7892 39.4797 45.848 39.8582 46.8399C40.1621 47.6375 40.6918 48.3259 41.3805 48.8182C42.0905 49.2638 42.9087 49.4998 43.7433 49.4998C44.578 49.4998 45.3961 49.2638 46.1061 48.8182C46.7907 48.3265 47.3176 47.641 47.6212 46.8472C47.9964 45.8518 48.1754 44.7913 48.1479 43.7258C48.1799 42.672 48.0007 41.6225 47.6212 40.6411C47.3173 39.8513 46.787 39.1723 46.0989 38.6921ZM45.2404 46.6054C45.1015 46.8896 44.8877 47.1292 44.6228 47.2973C44.3578 47.4655 44.0521 47.5557 43.7397 47.5579C43.3386 47.563 42.9509 47.4108 42.6575 47.1329C42.3083 46.7818 42.059 46.3413 41.936 45.858C41.753 45.163 41.668 44.4451 41.6835 43.7258C41.6282 42.7464 41.8246 41.7693 42.2535 40.8902C42.3909 40.6085 42.6026 40.371 42.865 40.2042C43.1273 40.0373 43.4301 39.9476 43.7397 39.945C44.1432 39.9388 44.5335 40.0911 44.8291 40.37C45.1761 40.7171 45.4252 41.1523 45.5506 41.6303C45.7334 42.3129 45.8185 43.0186 45.8031 43.7258C45.8636 44.7189 45.6697 45.711 45.2404 46.6054Z" fill="#000B7C"/>
<path d="M56.1928 42.3855C55.6598 42.0674 55.0506 41.9051 54.4324 41.9165C53.9851 41.9077 53.5414 42.0003 53.1338 42.1876C52.7874 42.3303 52.4857 42.5658 52.2608 42.869H52.2031L52.4845 40.0921H57.2534V38.1797H50.5798L50.0604 44.0414L52.1165 44.4151C52.3037 44.1707 52.5532 43.9832 52.838 43.8729C53.1294 43.7351 53.4473 43.6651 53.7687 43.6677C54.1096 43.6674 54.4449 43.7557 54.7427 43.9242C55.0223 44.0895 55.2538 44.3272 55.4136 44.6129C55.5766 44.9317 55.6584 45.2869 55.6517 45.646C55.6585 45.9982 55.5765 46.3462 55.4136 46.6572C55.2634 46.9452 55.0357 47.1841 54.7571 47.3459C54.4211 47.5383 54.0369 47.6263 53.6522 47.5989C53.2674 47.5716 52.899 47.4301 52.5927 47.1921C52.433 47.07 52.3022 46.9132 52.2099 46.7332C52.1175 46.5531 52.0659 46.3545 52.0588 46.1516H49.8223C49.8281 46.7576 50.0142 47.3476 50.3562 47.8442C50.7135 48.3509 51.1964 48.7528 51.7558 49.0092C52.3869 49.3022 53.0748 49.4474 53.7687 49.4341C54.5198 49.4538 55.2638 49.2825 55.9331 48.9359C56.5293 48.6264 57.0289 48.1545 57.376 47.5731C57.7238 46.9721 57.8987 46.2842 57.881 45.5874C57.8983 44.9292 57.7466 44.2777 57.4409 43.697C57.1468 43.1551 56.716 42.7025 56.1928 42.3855Z" fill="#000B7C"/>
<path d="M21.6993 0.5V39.1286L21.2375 39.4363C20.5249 39.9454 19.5349 39.436 19.5349 38.5602V21.0159L5.0262 21.1259L14.7998 31.0587C15.2182 31.4838 15.2205 32.1653 14.805 32.5933C14.3759 33.0352 13.6673 33.0377 13.2352 32.5988L2.28073 21.4736C1.51436 20.6953 1.51419 19.4461 2.28034 18.6675L13.2463 7.52452C13.6732 7.09072 14.3727 7.09062 14.7997 7.52431C15.2173 7.94843 15.2174 8.62915 14.8 9.05341L5.06227 18.9497L19.5349 18.8178V2.5C19.5349 1.39543 20.4303 0.5 21.5349 0.5H21.6993Z" fill="#D12C1E"/>
<path d="M77.5521 7.52439C77.1253 7.09066 76.4259 7.09056 75.9989 7.52418C75.5813 7.94833 75.5813 8.62914 75.9989 9.05329L85.7795 18.9863L71.2708 19.0962V2.5C71.2708 1.39543 70.3754 0.5 69.2708 0.5H69.1064V2.97657V36.5348V39.1286L69.561 39.4363C70.2776 39.9461 71.2708 39.4338 71.2708 38.5543V21.2944L85.7434 21.1845L75.999 31.0808C75.5813 31.505 75.5813 32.1859 75.999 32.6101C76.426 33.0437 77.1253 33.0437 77.5522 32.6101L88.5178 21.4736C89.2841 20.6953 89.2843 19.4461 88.5182 18.6675L77.5521 7.52439Z" fill="#D12C1E"/>
</g>
<defs>
<clipPath id="clip0_2002_80972">
<rect width="89" height="58" fill="#000B7C" transform="translate(0.899414 0.5)"/>
</clipPath>
</defs>
</svg>
