<svg width="60" height="60" viewBox="0 0 60 60" fill="none" xmlns="http://www.w3.org/2000/svg">
    <path fill-rule="evenodd" clip-rule="evenodd" d="M46.0226 7.15235L49.1234 18.5976L37.5931 15.4443L40.5463 12.5386C37.5506 10.8332 34.0822 9.8555 30.3838 9.8555C19.0411 9.8555 9.84638 19.0502 9.84638 30.393C9.84638 41.7357 19.0411 50.9304 30.3838 50.9304C36.9979 50.9304 42.8819 47.8022 46.6378 42.946L49.9361 43.8487C45.655 50.0577 38.4958 54.1287 30.3838 54.1287C17.2757 54.1262 6.6506 43.5011 6.6506 30.3905C6.6506 17.2823 17.2757 6.65723 30.3838 6.65723C34.9774 6.65723 39.266 7.96254 42.8994 10.2231L46.0226 7.15235Z" fill="#000B7C" stroke="#000B7C"/>
    <path d="M15.0606 37V35.0057L19.7204 30.6911C20.1167 30.3075 20.4491 29.9624 20.7176 29.6555C20.9903 29.3487 21.197 29.0483 21.3376 28.7543C21.4782 28.456 21.5485 28.1342 21.5485 27.7891C21.5485 27.4055 21.4612 27.0753 21.2865 26.7983C21.1117 26.517 20.8731 26.3018 20.5706 26.1527C20.268 25.9993 19.925 25.9226 19.5414 25.9226C19.1409 25.9226 18.7914 26.0036 18.4931 26.1655C18.1948 26.3274 17.9647 26.5597 17.8028 26.8622C17.6409 27.1648 17.5599 27.5249 17.5599 27.9425H14.9328C14.9328 27.0859 15.1267 26.3423 15.5144 25.7116C15.9022 25.081 16.4455 24.593 17.1444 24.2479C17.8433 23.9027 18.6487 23.7301 19.5606 23.7301C20.4981 23.7301 21.3142 23.8963 22.0088 24.2287C22.7076 24.5568 23.2509 25.0128 23.6387 25.5966C24.0265 26.1804 24.2204 26.8494 24.2204 27.6037C24.2204 28.098 24.1224 28.5859 23.9264 29.0675C23.7346 29.549 23.3916 30.0838 22.8973 30.6719C22.4029 31.2557 21.7062 31.9567 20.8071 32.7749L18.8958 34.6477V34.7372H24.393V37H15.0606ZM31.135 23.7301C31.8083 23.7301 32.456 23.843 33.0782 24.0689C33.7046 24.2947 34.2628 24.6548 34.7529 25.1491C35.2472 25.6435 35.6371 26.2997 35.9226 27.1179C36.2124 27.9318 36.3594 28.9311 36.3637 30.1158C36.3637 31.228 36.238 32.2209 35.9866 33.0945C35.7394 33.9638 35.3836 34.7031 34.9191 35.3125C34.4546 35.9219 33.8942 36.3864 33.238 36.706C32.5817 37.0213 31.8488 37.179 31.0391 37.179C30.1655 37.179 29.3942 37.0107 28.7252 36.674C28.0562 36.3331 27.5171 35.8707 27.108 35.2869C26.7032 34.6989 26.4582 34.0384 26.3729 33.3054H29.1023C29.2089 33.7827 29.4326 34.1534 29.7735 34.4176C30.1144 34.6776 30.5363 34.8075 31.0391 34.8075C31.8914 34.8075 32.5391 34.4368 32.9823 33.6953C33.4255 32.9496 33.6492 31.929 33.6535 30.6335H33.564C33.368 31.017 33.1038 31.3473 32.7714 31.6243C32.439 31.897 32.0576 32.108 31.6272 32.2571C31.2011 32.4062 30.7472 32.4808 30.2657 32.4808C29.4944 32.4808 28.8062 32.2997 28.2011 31.9375C27.5959 31.5753 27.1187 31.0767 26.7692 30.4418C26.4198 29.8068 26.2451 29.0824 26.2451 28.2685C26.2408 27.3906 26.4432 26.6087 26.8523 25.9226C27.2614 25.2365 27.8324 24.6996 28.5654 24.3118C29.3026 23.9197 30.1592 23.7259 31.135 23.7301ZM31.1542 25.9034C30.7238 25.9034 30.3403 26.0057 30.0036 26.2102C29.6712 26.4148 29.407 26.6896 29.211 27.0348C29.0192 27.38 28.9255 27.7656 28.9297 28.1918C28.9297 28.6222 29.0235 29.0099 29.211 29.3551C29.4028 29.696 29.6627 29.9687 29.9908 30.1733C30.3232 30.3736 30.7025 30.4737 31.1286 30.4737C31.4482 30.4737 31.7444 30.4141 32.0171 30.2947C32.2898 30.1754 32.5263 30.0114 32.7266 29.8026C32.9312 29.5895 33.091 29.3445 33.206 29.0675C33.3211 28.7905 33.3786 28.4964 33.3786 28.1854C33.3743 27.772 33.2763 27.3928 33.0846 27.0476C32.8928 26.7024 32.6286 26.4254 32.292 26.2166C31.9553 26.0078 31.5761 25.9034 31.1542 25.9034ZM43.4141 37.2876C42.3147 37.2834 41.3687 37.0128 40.5761 36.4759C39.7877 35.9389 39.1805 35.1612 38.7543 34.1428C38.3324 33.1243 38.1236 31.8991 38.1279 30.4673C38.1279 29.0398 38.3388 27.8232 38.7607 26.8175C39.1868 25.8118 39.7941 25.0469 40.5824 24.5227C41.3751 23.9943 42.319 23.7301 43.4141 23.7301C44.5093 23.7301 45.4511 23.9943 46.2394 24.5227C47.032 25.0511 47.6414 25.8182 48.0675 26.8239C48.4937 27.8253 48.7046 29.0398 48.7003 30.4673C48.7003 31.9034 48.4873 33.1307 48.0611 34.1491C47.6393 35.1676 47.0342 35.9453 46.2458 36.4822C45.4574 37.0192 44.5136 37.2876 43.4141 37.2876ZM43.4141 34.9929C44.1641 34.9929 44.7628 34.6158 45.2103 33.8615C45.6577 33.1072 45.8793 31.9759 45.8751 30.4673C45.8751 29.4744 45.7728 28.6477 45.5682 27.9872C45.368 27.3267 45.0824 26.8303 44.7117 26.4979C44.3452 26.1655 43.9127 25.9993 43.4141 25.9993C42.6684 25.9993 42.0718 26.3722 41.6243 27.1179C41.1769 27.8636 40.9511 28.9801 40.9468 30.4673C40.9468 31.473 41.0469 32.3125 41.2472 32.9858C41.4518 33.6548 41.7394 34.1577 42.1101 34.4943C42.4809 34.8267 42.9155 34.9929 43.4141 34.9929Z" fill="#D12C1E"/>
    </svg>
    