<svg width="54" height="53" viewBox="0 0 54 53" fill="none" xmlns="http://www.w3.org/2000/svg">
<g clip-path="url(#clip0_2002_80905)">
<path d="M14.9141 0V22.018H31.2815V38.3855H53.2995V0H14.9141Z" fill="#000B7C"/>
<path d="M29.5289 23.7705H0.299805V52.9996H29.5289V23.7705Z" fill="#F15446"/>
<path d="M33.5576 4.19336H48.8183V19.4472" stroke="#FFFFFF" stroke-width="3" stroke-miterlimit="10"/>
<path d="M29.5293 23.7711L48.8183 4.19336" stroke="#FFFFFF" stroke-width="3" stroke-miterlimit="10"/>
<path d="M3.95208 42.2314V40.1208L8.8837 35.5545C9.30312 35.1486 9.6549 34.7833 9.93903 34.4586C10.2277 34.1338 10.4464 33.8159 10.5952 33.5047C10.7441 33.189 10.8185 32.8485 10.8185 32.4832C10.8185 32.0773 10.726 31.7278 10.5411 31.4346C10.3562 31.137 10.1036 30.9092 9.78343 30.7514C9.46323 30.589 9.10018 30.5078 8.69428 30.5078C8.27035 30.5078 7.90053 30.5935 7.58484 30.7649C7.26914 30.9363 7.0256 31.1821 6.85423 31.5023C6.68285 31.8225 6.59716 32.2036 6.59716 32.6456H3.81678C3.81678 31.7391 4.02198 30.9521 4.43239 30.2846C4.84279 29.6171 5.41781 29.1007 6.15744 28.7354C6.89707 28.3701 7.74945 28.1875 8.71458 28.1875C9.70676 28.1875 10.5704 28.3634 11.3055 28.7151C12.0452 29.0624 12.6202 29.545 13.0306 30.1628C13.441 30.7807 13.6462 31.4888 13.6462 32.287C13.6462 32.8102 13.5425 33.3266 13.335 33.8362C13.1321 34.3458 12.769 34.9118 12.2459 35.5342C11.7227 36.152 10.9853 36.8939 10.0337 37.7598L8.01103 39.742V39.8367H13.8289V42.2314H3.95208Z" fill="#FFFFFF"/>
<path d="M19.7248 15.2414V12.9346L25.5088 3.82221H27.4977V7.01525H26.3206L22.6743 12.7857V12.894H30.8937V15.2414H19.7248ZM26.3747 17.6768V14.5378L26.4288 13.5163V3.82221H29.1754V17.6768H26.3747Z" fill="#FFFFFF"/>
</g>
<defs>
<clipPath id="clip0_2002_80905">
<rect width="53" height="53" fill="#000B7C" transform="translate(0.299805)"/>
</clipPath>
</defs>
</svg>
