<svg width="64" height="65" viewBox="0 0 64 65" fill="none" xmlns="http://www.w3.org/2000/svg">
<g clip-path="url(#clip0_2002_80844)">
<path d="M23.9883 0.5V19.3341H43.7871V39.7166H63.3V0.5H23.9883Z" fill="#000B7C"/>
<path d="M19.7718 43.9219H0.299805V63.3427H19.7718V43.9219Z" fill="#000B7C"/>
<path d="M43.7871 6.38379H57.8498V19.3337" stroke="#FFFFFF" stroke-width="3" stroke-miterlimit="10"/>
<path d="M40.0771 23.0011L57.8495 6.38379" stroke="#FFFFFF" stroke-width="3" stroke-miterlimit="10"/>
<path d="M11.6582 21.5996V41.3628H22.3298V51.3707H41.5158V21.5996H11.6582Z" fill="#F15446"/>
<path d="M5.41887 62.0117V59.9011L10.3505 55.3347C10.7699 54.9289 11.1217 54.5635 11.4058 54.2388C11.6945 53.9141 11.9132 53.5962 12.062 53.285C12.2108 52.9693 12.2853 52.6288 12.2853 52.2635C12.2853 51.8576 12.1928 51.5081 12.0079 51.2149C11.823 50.9173 11.5704 50.6895 11.2502 50.5317C10.93 50.3693 10.567 50.2881 10.1611 50.2881C9.73714 50.2881 9.36733 50.3738 9.05163 50.5452C8.73594 50.7166 8.4924 50.9624 8.32102 51.2826C8.14964 51.6028 8.06396 51.9839 8.06396 52.4258H5.28358C5.28358 51.5193 5.48878 50.7324 5.89918 50.0649C6.30959 49.3974 6.88461 48.881 7.62424 48.5157C8.36387 48.1504 9.21625 47.9678 10.1814 47.9678C11.1736 47.9678 12.0372 48.1436 12.7723 48.4954C13.512 48.8427 14.087 49.3252 14.4974 49.9431C14.9078 50.561 15.113 51.269 15.113 52.0673C15.113 52.5904 15.0093 53.1068 14.8018 53.6165C14.5989 54.1261 14.2358 54.6921 13.7127 55.3145C13.1895 55.9323 12.4521 56.6742 11.5005 57.5401L9.47782 59.5222V59.6169H15.2957V62.0117H5.41887Z" fill="#FFFFFF"/>
<path d="M32.8783 18.8603C31.8365 18.8603 30.9097 18.6912 30.0979 18.3529C29.2906 18.0102 28.657 17.5434 28.197 16.9526C27.7369 16.3618 27.5069 15.6921 27.5069 14.9434C27.5069 14.3662 27.6377 13.8362 27.8993 13.3537C28.1654 12.8666 28.5262 12.463 28.9817 12.1428C29.4372 11.818 29.9468 11.6106 30.5106 11.5204V11.4257C29.7709 11.2768 29.1711 10.9183 28.7111 10.3501C28.2511 9.77729 28.0211 9.11207 28.0211 8.3544C28.0211 7.63732 28.2308 6.99917 28.6502 6.43993C29.0696 5.87619 29.6447 5.43422 30.3753 5.11401C31.1104 4.78929 31.9447 4.62694 32.8783 4.62694C33.8118 4.62694 34.6439 4.78929 35.3745 5.11401C36.1097 5.43873 36.6869 5.88295 37.1064 6.4467C37.5258 7.00593 37.7377 7.64183 37.7423 8.3544C37.7377 9.11658 37.5032 9.7818 37.0387 10.3501C36.5742 10.9183 35.9789 11.2768 35.2528 11.4257V11.5204C35.8075 11.6106 36.3104 11.818 36.7613 12.1428C37.2168 12.463 37.5776 12.8666 37.8437 13.3537C38.1143 13.8362 38.2519 14.3662 38.2564 14.9434C38.2519 15.6921 38.0196 16.3618 37.5596 16.9526C37.0996 17.5434 36.4637 18.0102 35.6519 18.3529C34.8446 18.6912 33.9201 18.8603 32.8783 18.8603ZM32.8783 16.7091C33.3428 16.7091 33.7487 16.6256 34.096 16.4588C34.4432 16.2874 34.7138 16.0529 34.9078 15.7552C35.1062 15.4531 35.2054 15.1058 35.2054 14.7134C35.2054 14.312 35.1039 13.958 34.901 13.6513C34.698 13.3401 34.4229 13.0966 34.0757 12.9207C33.7284 12.7403 33.3293 12.6501 32.8783 12.6501C32.4318 12.6501 32.0327 12.7403 31.6809 12.9207C31.3291 13.0966 31.0518 13.3401 30.8488 13.6513C30.6504 13.958 30.5512 14.312 30.5512 14.7134C30.5512 15.1058 30.6481 15.4531 30.842 15.7552C31.036 16.0529 31.3088 16.2874 31.6606 16.4588C32.0124 16.6256 32.4183 16.7091 32.8783 16.7091ZM32.8783 10.5192C33.2661 10.5192 33.6112 10.4403 33.9133 10.2824C34.2155 10.1246 34.4523 9.90582 34.6236 9.62621C34.795 9.34659 34.8807 9.02413 34.8807 8.65882C34.8807 8.29803 34.795 7.98233 34.6236 7.71174C34.4523 7.43663 34.2177 7.22241 33.9201 7.06907C33.6224 6.91122 33.2752 6.8323 32.8783 6.8323C32.4859 6.8323 32.1387 6.91122 31.8365 7.06907C31.5343 7.22241 31.2975 7.43663 31.1262 7.71174C30.9593 7.98233 30.8759 8.29803 30.8759 8.65882C30.8759 9.02413 30.9616 9.34659 31.1329 9.62621C31.3043 9.90582 31.5411 10.1246 31.8433 10.2824C32.1454 10.4403 32.4904 10.5192 32.8783 10.5192Z" fill="#FFFFFF"/>
<path d="M19.9986 39.1533C19.0425 39.1533 18.1901 38.9774 17.4414 38.6256C16.6973 38.2738 16.1065 37.789 15.669 37.1712C15.2316 36.5533 15.0038 35.8452 14.9858 35.047H17.827C17.8586 35.5837 18.0841 36.0189 18.5035 36.3526C18.9229 36.6863 19.4213 36.8532 19.9986 36.8532C20.4586 36.8532 20.8645 36.7517 21.2162 36.5488C21.5725 36.3413 21.8499 36.055 22.0483 35.6896C22.2513 35.3198 22.3528 34.8959 22.3528 34.4178C22.3528 33.9308 22.249 33.5023 22.0416 33.1325C21.8386 32.7627 21.5567 32.4741 21.196 32.2666C20.8352 32.0591 20.4225 31.9532 19.958 31.9487C19.5521 31.9487 19.1575 32.0321 18.7741 32.199C18.3953 32.3658 18.0999 32.5936 17.8879 32.8822L15.2834 32.4154L15.9396 25.1093H24.4093V27.5041H18.3547L17.9961 30.9745H18.0773C18.3209 30.6317 18.6884 30.3476 19.18 30.1221C19.6716 29.8966 20.2218 29.7839 20.8306 29.7839C21.665 29.7839 22.4091 29.9801 23.0631 30.3724C23.717 30.7648 24.2334 31.3037 24.6122 31.9892C24.9911 32.6702 25.1782 33.455 25.1737 34.3434C25.1782 35.277 24.9618 36.1068 24.5243 36.8329C24.0913 37.5545 23.4847 38.1228 22.7045 38.5377C21.9288 38.9481 21.0268 39.1533 19.9986 39.1533Z" fill="#FFFFFF"/>
</g>
<defs>
<clipPath id="clip0_2002_80844">
<rect width="63" height="64" fill="#000B7C" transform="translate(0.299805 0.5)"/>
</clipPath>
</defs>
</svg>
