<svg width="60" height="60" viewBox="0 0 60 60" fill="none" xmlns="http://www.w3.org/2000/svg">
    <path fill-rule="evenodd" clip-rule="evenodd" d="M46.0224 7.15235L49.1231 18.5976L37.5929 15.4443L40.5461 12.5386C37.5504 10.8332 34.082 9.8555 30.3836 9.8555C19.0409 9.8555 9.84616 19.0502 9.84616 30.393C9.84616 41.7357 19.0409 50.9304 30.3836 50.9304C36.9977 50.9304 42.8816 47.8022 46.6375 42.946L49.9358 43.8487C45.6548 50.0577 38.4956 54.1287 30.3836 54.1287C17.2755 54.1262 6.65039 43.5011 6.65039 30.3905C6.65039 17.2823 17.2755 6.65723 30.3836 6.65723C34.9772 6.65723 39.2658 7.96254 42.8991 10.2231L46.0224 7.15235Z" fill="#000B7C" stroke="#000B7C"/>
    <path d="M19.8994 37.179C18.9448 37.179 18.0947 37.0149 17.3489 36.6868C16.6075 36.3544 16.0215 35.8984 15.5911 35.3189C15.165 34.7351 14.9455 34.0618 14.9328 33.299H17.7197C17.7367 33.6186 17.8411 33.8999 18.0329 34.1428C18.2289 34.3814 18.4889 34.5668 18.8127 34.6989C19.1366 34.831 19.5009 34.897 19.9058 34.897C20.3276 34.897 20.7005 34.8224 21.0244 34.6733C21.3482 34.5241 21.6018 34.3175 21.785 34.0533C21.9683 33.7891 22.0599 33.4844 22.0599 33.1392C22.0599 32.7898 21.9619 32.4808 21.7658 32.2124C21.5741 31.9396 21.2971 31.7266 20.9349 31.5732C20.5769 31.4197 20.1508 31.343 19.6565 31.343H18.4356V29.3104H19.6565C20.0741 29.3104 20.4427 29.2379 20.7623 29.093C21.0862 28.9482 21.3376 28.7479 21.5166 28.4922C21.6955 28.2322 21.785 27.9297 21.785 27.5845C21.785 27.2564 21.7062 26.9688 21.5485 26.7216C21.3951 26.4702 21.1778 26.2741 20.8965 26.1335C20.6195 25.9929 20.2957 25.9226 19.9249 25.9226C19.5499 25.9226 19.2069 25.9908 18.8958 26.1271C18.5847 26.2592 18.3354 26.4489 18.1479 26.696C17.9604 26.9432 17.8603 27.233 17.8475 27.5653H15.1948C15.2076 26.8111 15.4228 26.1463 15.8404 25.571C16.258 24.9957 16.8205 24.5462 17.5279 24.2223C18.2396 23.8942 19.0428 23.7301 19.9377 23.7301C20.8411 23.7301 21.6316 23.8942 22.3092 24.2223C22.9867 24.5504 23.513 24.9936 23.888 25.5518C24.2673 26.1058 24.4548 26.728 24.4505 27.4183C24.4548 28.1513 24.2268 28.7628 23.7666 29.2528C23.3106 29.7429 22.7161 30.054 21.9832 30.1861V30.2884C22.9462 30.4119 23.6792 30.7464 24.182 31.2919C24.6891 31.8331 24.9406 32.5107 24.9363 33.3246C24.9406 34.0703 24.7254 34.733 24.2907 35.3125C23.8603 35.892 23.2658 36.348 22.5073 36.6804C21.7488 37.0128 20.8795 37.179 19.8994 37.179ZM31.95 37.179C31.2767 37.1747 30.6268 37.0618 30.0004 36.8402C29.3782 36.6186 28.82 36.2585 28.3257 35.7599C27.8314 35.2614 27.4393 34.6009 27.1495 33.7784C26.864 32.956 26.7213 31.946 26.7213 30.7486C26.7255 29.6491 26.8513 28.6669 27.0984 27.8018C27.3498 26.9325 27.7078 26.1953 28.1723 25.5902C28.641 24.9851 29.2014 24.5249 29.8534 24.2095C30.5054 23.8899 31.2362 23.7301 32.0459 23.7301C32.9194 23.7301 33.6907 23.9006 34.3598 24.2415C35.0288 24.5781 35.5657 25.0362 35.9706 25.6158C36.3797 26.1953 36.6268 26.8452 36.712 27.5653H33.9826C33.8761 27.1094 33.6524 26.7514 33.3115 26.4915C32.9706 26.2315 32.5487 26.1016 32.0459 26.1016C31.1936 26.1016 30.5459 26.4723 30.1027 27.2138C29.6638 27.9553 29.44 28.9631 29.4315 30.2372H29.521C29.717 29.8494 29.9812 29.5192 30.3136 29.2464C30.6503 28.9695 31.0316 28.7585 31.4578 28.6136C31.8882 28.4645 32.342 28.3899 32.8193 28.3899C33.5949 28.3899 34.2852 28.5732 34.8903 28.9396C35.4954 29.3018 35.9727 29.8004 36.3221 30.4354C36.6716 31.0703 36.8463 31.7969 36.8463 32.6151C36.8463 33.5014 36.6396 34.2898 36.2263 34.9801C35.8172 35.6705 35.244 36.2116 34.5068 36.6037C33.7738 36.9915 32.9216 37.1832 31.95 37.179ZM31.9372 35.0057C32.3633 35.0057 32.7447 34.9034 33.0814 34.6989C33.418 34.4943 33.6822 34.2173 33.874 33.8679C34.0657 33.5185 34.1616 33.1264 34.1616 32.6918C34.1616 32.2571 34.0657 31.8672 33.874 31.522C33.6865 31.1768 33.4265 30.902 33.0941 30.6974C32.7618 30.4929 32.3825 30.3906 31.9564 30.3906C31.6368 30.3906 31.3406 30.4503 31.0679 30.5696C30.7994 30.6889 30.5629 30.8551 30.3584 31.0682C30.1581 31.2812 30.0004 31.5284 29.8853 31.8097C29.7703 32.0866 29.7128 32.3828 29.7128 32.6982C29.7128 33.12 29.8086 33.5057 30.0004 33.8551C30.1964 34.2045 30.4606 34.4837 30.793 34.6925C31.1297 34.9013 31.5111 35.0057 31.9372 35.0057ZM43.5899 37.179C42.6865 37.179 41.8811 37.0128 41.1737 36.6804C40.4706 36.348 39.9123 35.8899 39.499 35.3061C39.0856 34.7223 38.8704 34.0533 38.8534 33.299H41.538C41.5679 33.8061 41.7809 34.2173 42.1772 34.5327C42.5736 34.848 43.0444 35.0057 43.5899 35.0057C44.0245 35.0057 44.4081 34.9098 44.7405 34.718C45.0771 34.522 45.3392 34.2514 45.5267 33.9062C45.7184 33.5568 45.8143 33.1562 45.8143 32.7045C45.8143 32.2443 45.7163 31.8395 45.5203 31.4901C45.3285 31.1406 45.0622 30.8679 44.7213 30.6719C44.3804 30.4759 43.9905 30.3757 43.5515 30.3714C43.168 30.3714 42.7951 30.4503 42.4329 30.608C42.075 30.7656 41.7959 30.9808 41.5956 31.2536L39.1346 30.8125L39.7547 23.9091H47.7575V26.1719H42.0366L41.6978 29.451H41.7745C42.0047 29.1271 42.352 28.8587 42.8165 28.6456C43.2809 28.4325 43.8008 28.326 44.3761 28.326C45.1645 28.326 45.8676 28.5114 46.4855 28.8821C47.1034 29.2528 47.5913 29.7621 47.9493 30.4098C48.3072 31.0533 48.4841 31.7947 48.4798 32.6342C48.4841 33.5163 48.2795 34.3004 47.8662 34.9865C47.4571 35.6683 46.8839 36.2053 46.1467 36.5973C45.4138 36.9851 44.5615 37.179 43.5899 37.179Z" fill="#D12C1E"/>
    </svg>
    