<svg xmlns="http://www.w3.org/2000/svg" width="60" height="60" viewBox="0 0 60 60" fill="none">
    <path fill-rule="evenodd" clip-rule="evenodd" d="M46.0224 7.15235L49.1231 18.5976L37.5929 15.4443L40.5461 12.5386C37.5504 10.8332 34.082 9.8555 30.3836 9.8555C19.0409 9.8555 9.84616 19.0502 9.84616 30.393C9.84616 41.7357 19.0409 50.9304 30.3836 50.9304C36.9977 50.9304 42.8816 47.8022 46.6375 42.946L49.9358 43.8487C45.6548 50.0577 38.4956 54.1287 30.3836 54.1287C17.2755 54.1262 6.65039 43.5011 6.65039 30.3905C6.65039 17.2823 17.2755 6.65723 30.3836 6.65723C34.9772 6.65723 39.2658 7.96254 42.8991 10.2231L46.0224 7.15235Z" fill="#000B7C" stroke="#000B7C"/>
    <path d="M24.39 24.0001C25.0633 24.0001 25.711 24.113 26.3332 24.3388C26.9596 24.5647 27.5178 24.9248 28.0079 25.4191C28.5022 25.9134 28.8921 26.5697 29.1776 27.3879C29.4674 28.2018 29.6144 29.2011 29.6187 30.3857C29.6187 31.4979 29.493 32.4908 29.2415 33.3644C28.9944 34.2337 28.6386 34.9731 28.1741 35.5825C27.7096 36.1918 27.1492 36.6563 26.493 36.9759C25.8367 37.2913 25.1038 37.4489 24.2941 37.4489C23.4205 37.4489 22.6492 37.2806 21.9802 36.944C21.3111 36.6031 20.7721 36.1407 20.363 35.5569C19.9582 34.9688 19.7131 34.3083 19.6279 33.5754H22.3573C22.4638 34.0526 22.6876 34.4234 23.0285 34.6876C23.3694 34.9475 23.7913 35.0775 24.2941 35.0775C25.1464 35.0775 25.7941 34.7067 26.2373 33.9653C26.6805 33.2195 26.9042 32.1989 26.9084 30.9035H26.819C26.6229 31.287 26.3587 31.6173 26.0263 31.8942C25.694 32.167 25.3126 32.3779 24.8822 32.5271C24.456 32.6762 24.0022 32.7508 23.5207 32.7508C22.7494 32.7508 22.0611 32.5697 21.456 32.2075C20.8509 31.8452 20.3736 31.3467 20.0242 30.7117C19.6748 30.0768 19.5001 29.3523 19.5001 28.5384C19.4958 27.6606 19.6982 26.8786 20.1073 26.1925C20.5164 25.5065 21.0874 24.9695 21.8204 24.5817C22.5576 24.1897 23.4141 23.9958 24.39 24.0001ZM24.4092 26.1734C23.9788 26.1734 23.5952 26.2756 23.2586 26.4802C22.9262 26.6847 22.662 26.9596 22.466 27.3048C22.2742 27.6499 22.1805 28.0356 22.1847 28.4617C22.1847 28.8921 22.2785 29.2799 22.466 29.6251C22.6577 29.966 22.9177 30.2387 23.2458 30.4433C23.5782 30.6435 23.9575 30.7437 24.3836 30.7437C24.7032 30.7437 24.9994 30.684 25.2721 30.5647C25.5448 30.4454 25.7813 30.2813 25.9816 30.0725C26.1861 29.8594 26.3459 29.6144 26.461 29.3374C26.5761 29.0604 26.6336 28.7664 26.6336 28.4553C26.6293 28.042 26.5313 27.6627 26.3396 27.3175C26.1478 26.9724 25.8836 26.6954 25.5469 26.4866C25.2103 26.2778 24.831 26.1734 24.4092 26.1734Z" fill="#D12C1E"/>
    <path d="M36.6691 37.5576C35.5697 37.5533 34.6236 37.2827 33.831 36.7458C33.0427 36.2089 32.4354 35.4312 32.0093 34.4127C31.5874 33.3942 31.3786 32.1691 31.3829 30.7373C31.3829 29.3097 31.5938 28.0931 32.0157 27.0874C32.4418 26.0817 33.0491 25.3168 33.8374 24.7927C34.63 24.2643 35.5739 24.0001 36.6691 24.0001C37.7643 24.0001 38.706 24.2643 39.4944 24.7927C40.287 25.3211 40.8964 26.0881 41.3225 27.0938C41.7486 28.0952 41.9596 29.3097 41.9553 30.7373C41.9553 32.1734 41.7423 33.4006 41.3161 34.4191C40.8942 35.4376 40.2891 36.2153 39.5008 36.7522C38.7124 37.2891 37.7685 37.5576 36.6691 37.5576ZM36.6691 35.2629C37.4191 35.2629 38.0178 34.8857 38.4653 34.1315C38.9127 33.3772 39.1343 32.2458 39.13 30.7373C39.13 29.7444 39.0278 28.9177 38.8232 28.2572C38.6229 27.5967 38.3374 27.1002 37.9667 26.7678C37.6002 26.4354 37.1677 26.2692 36.6691 26.2692C35.9234 26.2692 35.3268 26.6421 34.8793 27.3879C34.4319 28.1336 34.206 29.2501 34.2018 30.7373C34.2018 31.743 34.3019 32.5825 34.5022 33.2558C34.7067 33.9248 34.9944 34.4276 35.3651 34.7643C35.7359 35.0967 36.1705 35.2629 36.6691 35.2629Z" fill="#D12C1E"/>
  </svg>