<svg width="185" height="12" viewBox="0 0 185 12" fill="none" xmlns="http://www.w3.org/2000/svg">
<path d="M0 6C0 8.20914 1.79086 10 4 10C6.20914 10 8 8.20914 8 6C8 3.79086 6.20914 2 4 2C1.79086 2 0 3.79086 0 6ZM184.53 6.53033C184.823 6.23744 184.823 5.76256 184.53 5.46967L179.757 0.696699C179.464 0.403806 178.99 0.403806 178.697 0.696699C178.404 0.989592 178.404 1.46447 178.697 1.75736L182.939 6L178.697 10.2426C178.404 10.5355 178.404 11.0104 178.697 11.3033C178.99 11.5962 179.464 11.5962 179.757 11.3033L184.53 6.53033ZM7 6.75C7.41421 6.75 7.75 6.41421 7.75 6C7.75 5.58579 7.41421 5.25 7 5.25V6.75ZM13 5.25C12.5858 5.25 12.25 5.58579 12.25 6C12.25 6.41421 12.5858 6.75 13 6.75V5.25ZM19 6.75C19.4142 6.75 19.75 6.41421 19.75 6C19.75 5.58579 19.4142 5.25 19 5.25V6.75ZM25 5.25C24.5858 5.25 24.25 5.58579 24.25 6C24.25 6.41421 24.5858 6.75 25 6.75V5.25ZM31 6.75C31.4142 6.75 31.75 6.41421 31.75 6C31.75 5.58579 31.4142 5.25 31 5.25V6.75ZM37 5.25C36.5858 5.25 36.25 5.58579 36.25 6C36.25 6.41421 36.5858 6.75 37 6.75V5.25ZM43 6.75C43.4142 6.75 43.75 6.41421 43.75 6C43.75 5.58579 43.4142 5.25 43 5.25V6.75ZM49 5.25C48.5858 5.25 48.25 5.58579 48.25 6C48.25 6.41421 48.5858 6.75 49 6.75V5.25ZM55 6.75C55.4142 6.75 55.75 6.41421 55.75 6C55.75 5.58579 55.4142 5.25 55 5.25V6.75ZM61 5.25C60.5858 5.25 60.25 5.58579 60.25 6C60.25 6.41421 60.5858 6.75 61 6.75V5.25ZM67 6.75C67.4142 6.75 67.75 6.41421 67.75 6C67.75 5.58579 67.4142 5.25 67 5.25V6.75ZM73 5.25C72.5858 5.25 72.25 5.58579 72.25 6C72.25 6.41421 72.5858 6.75 73 6.75V5.25ZM79 6.75C79.4142 6.75 79.75 6.41421 79.75 6C79.75 5.58579 79.4142 5.25 79 5.25V6.75ZM85 5.25C84.5858 5.25 84.25 5.58579 84.25 6C84.25 6.41421 84.5858 6.75 85 6.75V5.25ZM91 6.75C91.4142 6.75 91.75 6.41421 91.75 6C91.75 5.58579 91.4142 5.25 91 5.25V6.75ZM97 5.25C96.5858 5.25 96.25 5.58579 96.25 6C96.25 6.41421 96.5858 6.75 97 6.75V5.25ZM103 6.75C103.414 6.75 103.75 6.41421 103.75 6C103.75 5.58579 103.414 5.25 103 5.25V6.75ZM109 5.25C108.586 5.25 108.25 5.58579 108.25 6C108.25 6.41421 108.586 6.75 109 6.75V5.25ZM115 6.75C115.414 6.75 115.75 6.41421 115.75 6C115.75 5.58579 115.414 5.25 115 5.25V6.75ZM121 5.25C120.586 5.25 120.25 5.58579 120.25 6C120.25 6.41421 120.586 6.75 121 6.75V5.25ZM127 6.75C127.414 6.75 127.75 6.41421 127.75 6C127.75 5.58579 127.414 5.25 127 5.25V6.75ZM133 5.25C132.586 5.25 132.25 5.58579 132.25 6C132.25 6.41421 132.586 6.75 133 6.75V5.25ZM139 6.75C139.414 6.75 139.75 6.41421 139.75 6C139.75 5.58579 139.414 5.25 139 5.25V6.75ZM145 5.25C144.586 5.25 144.25 5.58579 144.25 6C144.25 6.41421 144.586 6.75 145 6.75V5.25ZM151 6.75C151.414 6.75 151.75 6.41421 151.75 6C151.75 5.58579 151.414 5.25 151 5.25V6.75ZM157 5.25C156.586 5.25 156.25 5.58579 156.25 6C156.25 6.41421 156.586 6.75 157 6.75V5.25ZM163 6.75C163.414 6.75 163.75 6.41421 163.75 6C163.75 5.58579 163.414 5.25 163 5.25V6.75ZM169 5.25C168.586 5.25 168.25 5.58579 168.25 6C168.25 6.41421 168.586 6.75 169 6.75V5.25ZM175 6.75C175.414 6.75 175.75 6.41421 175.75 6C175.75 5.58579 175.414 5.25 175 5.25V6.75ZM181 5.25C180.586 5.25 180.25 5.58579 180.25 6C180.25 6.41421 180.586 6.75 181 6.75V5.25ZM4 6.75H7V5.25H4V6.75ZM13 6.75H19V5.25H13V6.75ZM25 6.75H31V5.25H25V6.75ZM37 6.75H43V5.25H37V6.75ZM49 6.75H55V5.25H49V6.75ZM61 6.75H67V5.25H61V6.75ZM73 6.75H79V5.25H73V6.75ZM85 6.75H91V5.25H85V6.75ZM97 6.75H103V5.25H97V6.75ZM109 6.75H115V5.25H109V6.75ZM121 6.75H127V5.25H121V6.75ZM133 6.75H139V5.25H133V6.75ZM145 6.75H151V5.25H145V6.75ZM157 6.75H163V5.25H157V6.75ZM169 6.75H175V5.25H169V6.75ZM181 6.75H184V5.25H181V6.75Z" fill="#000B7C"/>
</svg>
