<svg xmlns="http://www.w3.org/2000/svg" width="12" height="55" viewBox="0 0 12 55" fill="none">
    <path d="M6 0C3.79086 0 2 1.79086 2 4C2 6.20914 3.79086 8 6 8C8.20914 8 10 6.20914 10 4C10 1.79086 8.20914 0 6 0ZM5.46967 54.5303C5.76256 54.8232 6.23744 54.8232 6.53033 54.5303L11.3033 49.7574C11.5962 49.4645 11.5962 48.9896 11.3033 48.6967C11.0104 48.4038 10.5355 48.4038 10.2426 48.6967L6 52.9393L1.75736 48.6967C1.46447 48.4038 0.989593 48.4038 0.696699 48.6967C0.403806 48.9896 0.403806 49.4645 0.696699 49.7574L5.46967 54.5303ZM5.25 7.125C5.25 7.53921 5.58579 7.875 6 7.875C6.41421 7.875 6.75 7.53921 6.75 7.125H5.25ZM6.75 13.375C6.75 12.9608 6.41421 12.625 6 12.625C5.58579 12.625 5.25 12.9608 5.25 13.375H6.75ZM5.25 19.625C5.25 20.0392 5.58579 20.375 6 20.375C6.41421 20.375 6.75 20.0392 6.75 19.625H5.25ZM6.75 25.875C6.75 25.4608 6.41421 25.125 6 25.125C5.58579 25.125 5.25 25.4608 5.25 25.875H6.75ZM5.25 32.125C5.25 32.5392 5.58579 32.875 6 32.875C6.41421 32.875 6.75 32.5392 6.75 32.125H5.25ZM6.75 38.375C6.75 37.9608 6.41421 37.625 6 37.625C5.58579 37.625 5.25 37.9608 5.25 38.375H6.75ZM5.25 44.625C5.25 45.0392 5.58579 45.375 6 45.375C6.41421 45.375 6.75 45.0392 6.75 44.625H5.25ZM6.75 50.875C6.75 50.4608 6.41421 50.125 6 50.125C5.58579 50.125 5.25 50.4608 5.25 50.875H6.75ZM5.25 4V7.125H6.75V4H5.25ZM5.25 13.375V19.625H6.75V13.375H5.25ZM5.25 25.875V32.125H6.75V25.875H5.25ZM5.25 38.375L5.25 44.625H6.75L6.75 38.375H5.25ZM5.25 50.875L5.25 54H6.75L6.75 50.875H5.25Z" fill="#000B7C"/>
  </svg>