<svg xmlns="http://www.w3.org/2000/svg" width="80" height="80" viewBox="0 0 80 80" fill="none">
    <path d="M39.6587 77C39.6587 77 12.3175 53 12.3175 31.3787C12.3175 16.268 24.6023 4 39.6587 4C54.7152 4 67 16.268 67 31.3039C67 53 39.6587 77 39.6587 77ZM39.6587 15.6696C31.0446 15.6696 24.003 22.7014 24.003 31.3039C24.003 39.9067 31.0445 47.0129 39.6587 47.0129C48.273 47.0129 55.3144 39.9811 55.3144 31.3039C55.3144 22.6269 48.3483 15.6696 39.6587 15.6696Z" fill="#000B7C"/>
    <path d="M40.1742 40.1105C35.0157 40.1105 30.8888 35.9836 30.8888 30.8248C30.8888 25.6661 35.0156 21.5391 40.1742 21.5391C40.7639 21.5391 41.3535 21.6126 41.8691 21.6866C41.1319 22.5708 40.7639 23.6766 40.7639 24.9294C40.7639 27.877 43.1224 30.2356 46.0699 30.2356C47.3227 30.2356 48.4285 29.7935 49.3127 29.1304C49.3862 29.6465 49.4602 30.2356 49.4602 30.8253C49.4597 35.91 45.3329 40.1105 40.1743 40.1105L40.1742 40.1105Z" fill="#D12C1E"/>
  </svg>