<svg xmlns="http://www.w3.org/2000/svg" width="32" height="32" viewBox="0 0 32 32" fill="none">
    <path d="M17 22.6667V21.6667H15V22.6667H17ZM15 27C15 27.5523 15.4477 28 16 28C16.5523 28 17 27.5523 17 27H15ZM12 26C11.4477 26 11 26.4477 11 27C11 27.5523 11.4477 28 12 28V26ZM20 28C20.5523 28 21 27.5523 21 27C21 26.4477 20.5523 26 20 26V28ZM15 22.6667V27H17V22.6667H15ZM12 28H20V26H12V28Z" fill="#D12C1E"/>
    <path d="M4 4H28H4ZM5.33333 4V17.3333C5.33333 18.0406 5.61428 18.7189 6.11438 19.219C6.61448 19.719 7.29276 20 8 20H24C24.7072 20 25.3855 19.719 25.8856 19.219C26.3857 18.7189 26.6667 18.0406 26.6667 17.3333V4" fill="#000B7C"/>
    <path d="M4 4H28M5.33333 4V17.3333C5.33333 18.0406 5.61428 18.7189 6.11438 19.219C6.61448 19.719 7.29276 20 8 20H24C24.7072 20 25.3855 19.719 25.8856 19.219C26.3857 18.7189 26.6667 18.0406 26.6667 17.3333V4" stroke="#000B7C" stroke-width="2" stroke-linecap="round" stroke-linejoin="round"/>
    <path d="M12 14.6666V9.33331M20 14.6666V12M16 14.6666V13.3333" stroke="white" stroke-width="2" stroke-linecap="round" stroke-linejoin="round"/>
  </svg>