<svg width="262" height="80" viewBox="0 0 262 80" fill="none" xmlns="http://www.w3.org/2000/svg">
<path fill-rule="evenodd" clip-rule="evenodd" d="M252.121 55.1084C257.706 50.1641 261.236 42.9517 261.236 34.944C261.236 20.028 249.109 7.91797 234.247 7.91797C219.384 7.91797 207.258 20.028 207.258 34.8702C207.258 42.9409 210.808 50.1901 216.421 55.144L210.009 65.1406C208.108 68.1255 210.228 72.0809 213.665 72.0809H254.756C258.266 72.0809 260.386 68.1255 258.485 65.1406L252.121 55.1084ZM249.701 34.8702C249.701 26.3785 242.75 19.4373 234.247 19.4373C225.669 19.4373 218.793 26.3049 218.793 34.8702C218.793 43.4357 225.744 50.3769 234.247 50.3769C242.75 50.3769 249.701 43.3622 249.701 34.8702Z" fill="#000B7C"/>
<path d="M233.737 43.5627C238.829 43.5627 242.903 39.489 242.903 34.3966C242.903 29.3044 238.829 25.2305 233.737 25.2305C233.155 25.2305 232.573 25.303 232.064 25.3761C232.791 26.2489 233.155 27.3404 233.155 28.5772C233.155 31.4868 230.826 33.815 227.917 33.815C226.68 33.815 225.589 33.3786 224.716 32.724C224.643 33.2335 224.57 33.815 224.57 34.3971C224.571 39.4163 228.644 43.5627 233.737 43.5627L233.737 43.5627Z" fill="#D12C1E"/>
<g clip-path="url(#clip0_955_31036)">
<path d="M97.2578 59.1719H164.029V65.5019C164.029 66.2329 163.244 66.8676 162.36 66.8676H98.9271C98.0425 66.8676 97.2578 66.2329 97.2578 65.5019V59.1719Z" fill="#D12C1E"/>
<path d="M145.666 34.1641H155.682V45.7077H145.666V34.1641Z" fill="#D12C1E"/>
<path d="M167.242 29.7193V61.694L174.115 64.6646C175.601 65.3067 177.258 64.2176 177.258 62.5993V28.8134C177.258 27.1951 175.6 26.106 174.115 26.7481L167.242 29.7193ZM162.36 24.5436H98.9271C98.0053 24.5436 97.2578 25.4051 97.2578 26.4675V55.3265H164.029V26.4675C164.029 25.9574 163.853 25.4678 163.54 25.107C163.227 24.7463 162.802 24.5436 162.36 24.5436ZM105.604 47.6308C105.604 48.6933 104.857 49.5547 103.935 49.5547C103.013 49.5547 102.266 48.6933 102.266 47.6308V32.2393C102.266 31.1769 103.013 30.3154 103.935 30.3154C104.857 30.3154 105.604 31.1769 105.604 32.2393V47.6308ZM159.021 47.6308C159.021 48.141 158.845 48.6306 158.532 48.9913C158.219 49.352 157.794 49.5547 157.352 49.5547H143.998C143.076 49.5547 142.328 48.6933 142.328 47.6308V32.2393C142.328 31.1769 143.076 30.3154 143.998 30.3154H157.352C157.794 30.3154 158.219 30.5181 158.532 30.8788C158.845 31.2396 159.021 31.7292 159.021 32.2393V47.6308ZM116.201 13C114.958 13 113.951 14.0074 113.951 15.25V18.4457C113.951 19.6884 114.958 20.6957 116.201 20.6957H145.086C146.329 20.6957 147.336 19.6884 147.336 18.4457V15.25C147.336 14.0074 146.329 13 145.086 13H116.201Z" fill="#000B7C"/>
</g>
<path d="M12.7207 46.6709C12.7207 46.8758 12.7207 47.1218 12.7207 47.3268C12.7207 59.0506 22.2555 68.5608 34.0095 68.5608C45.7636 68.5608 55.2984 59.0506 55.2984 47.3268C55.2984 47.1218 55.2984 46.8758 55.2984 46.6709V34.5781H12.7207V46.6709ZM39.3744 42.0797C45.1282 42.0797 49.8545 46.7529 49.8545 52.5328C49.8545 58.2717 45.1693 62.9859 39.3744 62.9859C33.6207 62.9859 28.8944 58.3127 28.8944 52.5328C28.8944 46.7529 33.6207 42.0797 39.3744 42.0797Z" fill="#D12C1E"/>
<path d="M5.18506 11.4414C2.92801 11.4414 1.26287 13.5489 1.78502 15.7448L3.80298 24.231C4.87153 28.7402 8.89915 31.9376 13.5432 31.9376H54.477C59.1211 31.9376 63.1487 28.7402 64.2173 24.231L66.2352 15.7448C66.7574 13.5489 65.0922 11.4414 62.8352 11.4414H5.18506Z" fill="#000B7C"/>
<defs>
<clipPath id="clip0_955_31036">
<rect width="80" height="80" fill="white" transform="translate(97.2578)"/>
</clipPath>
</defs>
</svg>
