<svg xmlns="http://www.w3.org/2000/svg" width="81" height="80" viewBox="0 0 81 80" fill="none">
    <g clip-path="url(#clip0_784_37216)">
      <path d="M0.333374 59.1719H67.1044V65.5019C67.1044 66.2329 66.3197 66.8676 65.4351 66.8676H2.00265C1.11809 66.8676 0.333374 66.2329 0.333374 65.5019V59.1719Z" fill="#F15446"/>
      <path d="M48.7421 34.1641H58.7577V45.7077H48.7421V34.1641Z" fill="#F15446"/>
      <path d="M70.3177 29.7193V61.694L77.1907 64.6646C78.6762 65.3067 80.3334 64.2176 80.3334 62.5993V28.8134C80.3334 27.1951 78.676 26.106 77.1905 26.7481L70.3177 29.7193ZM65.4351 24.5436H2.00265C1.08083 24.5436 0.333374 25.4051 0.333374 26.4675V55.3265H67.1044V26.4675C67.1044 25.9574 66.9285 25.4678 66.6155 25.107C66.3025 24.7463 65.8777 24.5436 65.4351 24.5436ZM8.67975 47.6308C8.67975 48.6933 7.93229 49.5547 7.01047 49.5547C6.08865 49.5547 5.3412 48.6933 5.3412 47.6308V32.2393C5.3412 31.1769 6.08865 30.3154 7.01047 30.3154C7.93229 30.3154 8.67975 31.1769 8.67975 32.2393V47.6308ZM62.0965 47.6308C62.0965 48.141 61.9207 48.6306 61.6077 48.9913C61.2947 49.352 60.8699 49.5547 60.4273 49.5547H47.0731C46.1512 49.5547 45.4038 48.6933 45.4038 47.6308V32.2393C45.4038 31.1769 46.1512 30.3154 47.0731 30.3154H60.4273C60.8699 30.3154 61.2947 30.5181 61.6077 30.8788C61.9207 31.2396 62.0965 31.7292 62.0965 32.2393V47.6308ZM19.2761 13C18.0335 13 17.0261 14.0074 17.0261 15.25V18.4457C17.0261 19.6884 18.0335 20.6957 19.2761 20.6957H48.1616C49.4043 20.6957 50.4116 19.6884 50.4116 18.4457V15.25C50.4116 14.0074 49.4043 13 48.1616 13H19.2761Z" fill="white"/>
    </g>
    <defs>
      <clipPath id="clip0_784_37216">
        <rect width="80" height="80" fill="white" transform="translate(0.333374)"/>
      </clipPath>
    </defs>
  </svg>