<svg xmlns="http://www.w3.org/2000/svg" width="60" height="60" viewBox="0 0 60 60" fill="none">
    <path d="M0 44.3789H50.0782V49.1265C50.0782 49.6746 49.4897 50.1507 48.8263 50.1507H1.25196C0.588534 50.1507 0 49.6746 0 49.1265V44.3789Z" fill="#D12C1E"/>
    <path d="M36.3066 25.623H43.8184V34.2807H36.3066V25.623Z" fill="#D12C1E"/>
    <path d="M52.4883 22.2895V46.2705L56.8573 48.1589C58.3428 48.8009 60 47.7118 60 46.0935V22.466C60 20.8477 58.3427 19.7586 56.8572 20.4008L52.4883 22.2895ZM48.8263 18.4077H1.25196C0.56059 18.4077 0 19.0538 0 19.8507V41.4949H50.0782V19.8507C50.0782 19.468 49.9463 19.1008 49.7116 18.8303C49.4769 18.5597 49.1583 18.4077 48.8263 18.4077ZM6.25978 35.7231C6.25978 36.5199 5.69919 37.1661 5.00782 37.1661C4.31646 37.1661 3.75587 36.5199 3.75587 35.7231V24.1795C3.75587 23.3827 4.31646 22.7366 5.00782 22.7366C5.69919 22.7366 6.25978 23.3827 6.25978 24.1795V35.7231ZM46.3224 35.7231C46.3224 36.1057 46.1905 36.4729 45.9557 36.7435C45.721 37.014 45.4024 37.1661 45.0704 37.1661H35.0548C34.3634 37.1661 33.8028 36.5199 33.8028 35.7231V24.1795C33.8028 23.3827 34.3634 22.7366 35.0548 22.7366H45.0704C45.4024 22.7366 45.721 22.8886 45.9557 23.1591C46.1905 23.4297 46.3224 23.7969 46.3224 24.1795V35.7231ZM14.7696 9.75C13.5269 9.75 12.5196 10.7574 12.5196 12V13.2718C12.5196 14.5144 13.5269 15.5218 14.7696 15.5218H35.3087C36.5513 15.5218 37.5587 14.5144 37.5587 13.2718V12C37.5587 10.7574 36.5513 9.75 35.3087 9.75H14.7696Z" fill="#000B7C"/>
  </svg>