<svg xmlns="http://www.w3.org/2000/svg" width="60" height="60" viewBox="0 0 60 60" fill="none">
    <path d="M11.8696 9.85629C11.7901 8.8238 10.8888 8.05119 9.85629 8.13061C8.8238 8.21004 8.05119 9.11141 8.13061 10.1439L9.83649 32.3203C9.95734 33.8915 10.0551 35.162 10.2035 36.1955C10.3565 37.2607 10.5783 38.1981 11.0048 39.0802C12.0327 41.2068 13.8255 42.8669 16.0246 43.7287C16.9368 44.0862 17.8885 44.2356 18.9623 44.3064C20.0041 44.3751 21.2783 44.3751 22.8541 44.3751L37.676 44.3752C39.8349 44.376 41.323 44.3765 42.6711 43.9631C44.4624 43.4137 46.048 42.3402 47.2234 40.881C48.108 39.7829 48.6601 38.401 49.4612 36.3962L50.5991 33.5512C51.491 31.3214 52.2004 29.548 52.6552 28.102C53.1156 26.6383 53.3847 25.3075 53.2434 23.9959C52.9102 20.903 51.0644 18.1767 48.3165 16.7186C47.1512 16.1004 45.8156 15.856 44.2856 15.7398C42.774 15.6251 40.864 15.6251 38.4623 15.6251H12.3133L11.8696 9.85629Z" fill="#000B7C"/>
    <path fill-rule="evenodd" clip-rule="evenodd" d="M3.125 10C3.125 8.96447 3.96447 8.125 5 8.125H10C11.0355 8.125 11.875 8.96447 11.875 10C11.875 11.0355 11.0355 11.875 10 11.875H5C3.96447 11.875 3.125 11.0355 3.125 10Z" fill="#000B7C"/>
    <path fill-rule="evenodd" clip-rule="evenodd" d="M13.75 48.125C12.0241 48.125 10.625 49.5241 10.625 51.25C10.625 52.9759 12.0241 54.375 13.75 54.375C15.4759 54.375 16.875 52.9759 16.875 51.25C16.875 49.5241 15.4759 48.125 13.75 48.125Z" fill="#D12C1E"/>
    <path fill-rule="evenodd" clip-rule="evenodd" d="M43.75 48.125C42.0241 48.125 40.625 49.5241 40.625 51.25C40.625 52.9759 42.0241 54.375 43.75 54.375C45.4759 54.375 46.875 52.9759 46.875 51.25C46.875 49.5241 45.4759 48.125 43.75 48.125Z" fill="#D12C1E"/>
  </svg>