<svg xmlns="http://www.w3.org/2000/svg" width="80" height="60" viewBox="0 0 80 60" fill="none">
    <mask id="mask0_745_27118" style="mask-type:alpha" maskUnits="userSpaceOnUse" x="9" y="13" width="63" height="47">
      <rect width="61.5141" height="46.488" transform="matrix(1 0 0 -1 9.625 60)" fill="#D9D9D9"/>
    </mask>
    <g mask="url(#mask0_745_27118)">
      <path d="M64.652 13.5205H52.5846V7.38622C52.5846 3.9817 49.8996 1.25195 46.5509 1.25195H34.4834C31.1347 1.25195 28.4497 3.9817 28.4497 7.38622V13.5205H16.3823C13.0336 13.5205 10.3788 16.2502 10.3788 19.6547L10.3486 53.3932C10.3486 56.7977 13.0336 59.5275 16.3823 59.5275H64.652C68.0007 59.5275 70.6857 56.7977 70.6857 53.3932V19.6547C70.6857 16.2502 68.0007 13.5205 64.652 13.5205ZM46.5509 13.5205H34.4834V7.38622H46.5509V13.5205Z" fill="#000B7C"/>
    </g>
    <mask id="mask1_745_27118" style="mask-type:alpha" maskUnits="userSpaceOnUse" x="23" y="0" width="38" height="12">
      <rect width="36.2284" height="11.1859" transform="matrix(1 0 0 -1 23.918 11.1855)" fill="#D9D9D9"/>
    </mask>
    <g mask="url(#mask1_745_27118)">
      <path d="M64.651 13.5205H52.5836V7.38622C52.5836 3.9817 49.8986 1.25195 46.5499 1.25195H34.4825C31.1338 1.25195 28.4488 3.9817 28.4488 7.38622V13.5205H16.3814C13.0327 13.5205 10.3778 16.2502 10.3778 19.6547L10.3477 53.3932C10.3477 56.7977 13.0327 59.5275 16.3814 59.5275H64.651C67.9997 59.5275 70.6847 56.7977 70.6847 53.3932V19.6547C70.6847 16.2502 67.9997 13.5205 64.651 13.5205ZM46.5499 13.5205H34.4825V7.38622H46.5499V13.5205Z" fill="#E20000"/>
    </g>
  </svg>