<svg xmlns="http://www.w3.org/2000/svg" width="60" height="60" viewBox="0 0 60 60" fill="none">
    <path d="M52.094 50.0848C52.094 51.194 51.1948 52.0933 50.0855 52.0933H9.91597C8.8067 52.0933 7.90747 51.194 7.90747 50.0848C7.90747 48.9755 8.8067 48.0763 9.91597 48.0763H50.0855C51.1948 48.0763 52.094 48.9755 52.094 50.0848ZM19.9582 32.0083H11.9245C11.3919 32.0083 10.8808 32.2201 10.5042 32.5967C10.1276 32.9733 9.91615 33.4841 9.91615 34.017V46.0676H21.9669V34.017C21.9669 33.4841 21.755 32.9733 21.3785 32.5967C21.0019 32.2201 20.4911 32.0083 19.9582 32.0083ZM34.0171 23.9747H25.9834C25.4508 23.9747 24.94 24.1862 24.5635 24.5631C24.1865 24.9397 23.975 25.4505 23.975 25.983V46.0679H36.0258V25.983C36.0258 25.4504 35.8143 24.9397 35.4373 24.5631C35.0608 24.1862 34.5496 23.9747 34.0171 23.9747ZM48.0759 15.9411H40.0426C39.5097 15.9411 38.9989 16.1525 38.6223 16.5291C38.2457 16.9057 38.0339 17.4167 38.0339 17.9494V46.0678H50.0846V17.9494C50.0846 17.4168 49.8731 16.9057 49.4966 16.5291C49.12 16.1525 48.6086 15.9411 48.0759 15.9411ZM21.9664 25.9827V19.9574H34.0171C34.5497 19.9574 35.0604 19.7459 35.437 19.3693C35.8139 18.9927 36.0254 18.4817 36.0254 17.949V11.9237H48.0758C49.185 11.9237 50.0843 11.0245 50.0843 9.91523C50.0843 8.80597 49.185 7.90674 48.0758 7.90674H34.0172C33.4843 7.90674 32.9736 8.11856 32.597 8.49514C32.2204 8.87173 32.0086 9.3825 32.0086 9.9154V15.9407H19.9578C19.4252 15.9407 18.9145 16.1522 18.5379 16.5288C18.161 16.9054 17.9495 17.4164 17.9495 17.949V23.9743H11.9243C10.8151 23.9743 9.91582 24.8736 9.91582 25.9828C9.91582 27.0921 10.8151 27.9913 11.9243 27.9913H19.9575C20.4904 27.9913 21.0012 27.7795 21.3778 27.4029C21.7544 27.0263 21.9664 26.5156 21.9664 25.9827Z" fill="#050081"/>
    <path d="M21.9483 26.023V19.9843H34.0261C34.5599 19.9843 35.0718 19.7723 35.4492 19.3949C35.827 19.0175 36.0389 18.5053 36.0389 17.9715V11.9327H48.1165C49.2282 11.9327 50.1294 11.0315 50.1294 9.91972C50.1294 8.80798 49.2282 7.90674 48.1165 7.90674H34.0262C33.4921 7.90674 32.9802 8.11904 32.6028 8.49646C32.2254 8.87388 32.013 9.38579 32.013 9.91988V15.9586H19.9352C19.4014 15.9586 18.8895 16.1706 18.5121 16.548C18.1343 16.9254 17.9224 17.4376 17.9224 17.9714V24.0102H11.8836C10.7718 24.0102 9.87061 24.9114 9.87061 26.0232C9.87061 27.1349 10.7718 28.0362 11.8836 28.0362H19.9349C20.469 28.0362 20.9809 27.8239 21.3583 27.4464C21.7358 27.069 21.9483 26.5571 21.9483 26.023Z" fill="#E20000"/>
  </svg>