<svg width="76" height="62" viewBox="0 0 76 62" fill="none" xmlns="http://www.w3.org/2000/svg">
<g clip-path="url(#clip0_2003_81104)">
<path d="M38.3951 61.492C46.9543 61.492 53.8928 54.4806 53.8928 45.8315C53.8928 37.1824 46.9543 30.1709 38.3951 30.1709C29.836 30.1709 22.8975 37.1824 22.8975 45.8315C22.8975 54.4806 29.836 61.492 38.3951 61.492Z" fill="#F15446"/>
<path d="M35.1602 52.2826V40.1108C35.1629 39.6569 35.2979 39.2138 35.5483 38.8369C35.7987 38.46 36.1535 38.166 36.5682 37.9917C36.983 37.8173 37.4395 37.7703 37.8805 37.8565C38.3216 37.9427 38.7277 38.1583 39.0482 38.4764L45.0669 44.5662C45.2792 44.7801 45.4477 45.0342 45.5626 45.314C45.6775 45.5938 45.7367 45.8938 45.7367 46.1967C45.7367 46.4996 45.6775 46.7996 45.5626 47.0794C45.4477 47.3592 45.2792 47.6133 45.0669 47.8272L39.0638 53.9327C38.7431 54.2571 38.3342 54.4777 37.889 54.5665C37.4439 54.6553 36.9826 54.6083 36.564 54.4313C36.1454 54.2544 35.7884 53.9555 35.5384 53.5729C35.2884 53.1902 35.1568 52.7411 35.1602 52.2826Z" fill="#FFFFFF"/>
<path d="M65.7435 18.6746C65.7435 18.5096 65.7435 18.3446 65.7435 18.1795C65.7438 14.1042 64.3509 10.154 61.8005 6.99711C59.25 3.84024 55.6987 1.67065 51.7473 0.855426C47.7959 0.0402054 43.6871 0.629419 40.1162 2.52337C36.5453 4.41732 33.7315 7.4997 32.1509 11.249C30.208 10.3607 28.0881 9.93893 25.957 10.0166C23.8259 10.0943 21.7416 10.6693 19.8671 11.6967C17.9926 12.7241 16.3788 14.176 15.1521 15.9386C13.9255 17.7013 13.1192 19.7269 12.7963 21.857C9.83706 21.8806 6.99082 23.0085 4.80454 25.024C2.61827 27.0394 1.24622 29.8003 0.952034 32.7759C0.657853 35.7516 1.4623 38.7321 3.2108 41.1448C4.95929 43.5575 7.52847 45.2321 10.4246 45.8468C11.2022 46.0118 12.8819 46.1926 12.8819 46.1926H20.1058C20.1058 46.0747 20.1058 45.9568 20.1058 45.8311C20.2045 40.9924 22.176 36.3855 25.5974 32.9987C29.0187 29.6119 33.6173 27.7151 38.4068 27.7151C43.1962 27.7151 47.7948 29.6119 51.2161 32.9987C54.6375 36.3855 56.609 40.9924 56.7077 45.8311C56.7077 45.9568 56.7077 46.0747 56.7077 46.1926H62.0965C62.0965 46.1926 63.8694 46.0118 64.717 45.8468C67.7779 45.2486 70.5487 43.622 72.5791 41.2313C74.6095 38.8406 75.7802 35.8263 75.9009 32.6782C76.0216 29.5302 75.0853 26.4334 73.2441 23.8911C71.4029 21.3488 68.765 19.5103 65.759 18.6746H65.7435Z" fill="#000B7C"/>
</g>
<defs>
<clipPath id="clip0_2003_81104">
<rect width="75" height="61" fill="#000B7C" transform="translate(0.899414 0.5)"/>
</clipPath>
</defs>
</svg>
