<svg xmlns="http://www.w3.org/2000/svg" width="60" height="60" viewBox="0 0 60 60" fill="none">
    <path fill-rule="evenodd" clip-rule="evenodd" d="M16.7423 16.7425C19.3079 14.1768 22.5628 12.4106 26.1122 11.6581C29.6617 10.9055 33.3532 11.1991 36.7392 12.503C40.1251 13.8069 43.06 16.0653 45.1879 19.0042C47.3158 21.943 48.5453 25.4362 48.7273 29.06C51.0811 29.67 53.1323 31.1163 54.4972 33.1286C55.8622 35.1409 56.4477 37.5815 56.1441 39.9941C55.8405 42.4066 54.6688 44.6261 52.8478 46.2375C51.0269 47.8489 48.6814 48.7421 46.2498 48.75H16.2498C13.2998 48.7518 10.4443 47.7102 8.18828 45.8095C5.93226 43.9088 4.42116 41.2714 3.92227 38.364C3.42337 35.4565 3.96884 32.4662 5.46218 29.9222C6.95552 27.3781 9.30049 25.4442 12.0823 24.4625C12.9817 21.5471 14.5817 18.8965 16.7423 16.7425ZM39.2673 29.2675C39.7227 28.796 39.9747 28.1645 39.969 27.509C39.9633 26.8535 39.7004 26.2264 39.2369 25.7629C38.7733 25.2994 38.1463 25.0365 37.4908 25.0308C36.8353 25.0251 36.2038 25.2771 35.7323 25.7325L27.4998 33.965L24.2673 30.7325C23.7958 30.2771 23.1643 30.0251 22.5088 30.0308C21.8533 30.0365 21.2263 30.2994 20.7628 30.7629C20.2992 31.2264 20.0363 31.8535 20.0306 32.509C20.0249 33.1645 20.2769 33.796 20.7323 34.2675L25.7323 39.2675C26.2011 39.7361 26.8369 39.9994 27.4998 39.9994C28.1627 39.9994 28.7985 39.7361 29.2673 39.2675L39.2673 29.2675Z" fill="#000B7C"/>
  </svg>