<svg xmlns="http://www.w3.org/2000/svg" width="60" height="60" viewBox="0 0 60 60" fill="none">
    <path d="M4.2435 26.9049L48.0715 26.905L48.0715 19.6288L4.24352 19.6286L4.2435 26.9049Z" fill="#050081"/>
    <path d="M26.6578 30.0073H8.90747V33.2654H26.6578V30.0073Z" fill="#050081"/>
    <path d="M53.503 27.5095L43.0939 39.7814L35.2048 36.632L32.7943 40.5417L44.5183 49.0125L57.4475 30.5504L53.503 27.5095Z" fill="#E20000"/>
    <path d="M44.9563 11.6539H7.37381C4.74413 11.6539 2.55273 13.826 2.55273 16.4324V39.4558C2.55273 42.0622 4.74413 44.2343 7.37381 44.2343H32.3558L27.8634 40.9762H7.37381C6.49725 40.9762 5.83983 40.216 5.83983 39.4558V16.4324C5.83983 15.5636 6.49725 14.912 7.37381 14.912H44.9563C45.7233 14.912 46.3807 15.5636 46.3807 16.4324V30.7677L49.6678 26.8581V16.4324C49.6678 13.826 47.586 11.6539 44.9563 11.6539Z" fill="#050081"/>
  </svg>