<svg xmlns="http://www.w3.org/2000/svg" width="60" height="60" viewBox="0 0 60 60" fill="none">
    <path d="M52.5 17.5C52.5 23.025 42.425 27.5 30 27.5C17.575 27.5 7.5 23.025 7.5 17.5C7.5 11.975 17.575 7.5 30 7.5C42.425 7.5 52.5 11.975 52.5 17.5Z" fill="#000B7C"/>
    <path d="M52.5 17.5C52.5 23.025 42.425 27.5 30 27.5C17.575 27.5 7.5 23.025 7.5 17.5M52.5 17.5C52.5 11.975 42.425 7.5 30 7.5C17.575 7.5 7.5 11.975 7.5 17.5M52.5 17.5V30M7.5 17.5V30M52.5 30C52.5 35.525 42.425 40 30 40C17.575 40 7.5 35.525 7.5 30M52.5 30V42.5C52.5 48.025 42.425 52.5 30 52.5C17.575 52.5 7.5 48.025 7.5 42.5V30" stroke="#000B7C" stroke-width="4" stroke-linecap="round" stroke-linejoin="round"/>
  </svg>