<svg width="80" height="80" fill="none" xmlns="http://www.w3.org/2000/svg"><g clip-path="url(#a)"><path d="M16.027 10.109c12.27-8.746 29.806-8.031 41.15 1.695 11.544 9.89 13.12 26.056 3.627 37.63-8.946 10.902-25.072 14.495-38.5 8.871l-.73-.32L7.802 60.93l-.236.041L7.22 61l-.356-.013-.138-.016-.346-.063-.33-.107-.316-.14-.239-.132-.34-.244-.255-.234-.23-.262-.166-.238-.205-.363-.132-.336-.098-.357-.04-.237L4 57.91l.013-.358.015-.139.063-.348.07-.227 3.62-10.916-.07-.113c-6.956-11.852-3.805-26.544 7.59-35.166l.723-.531.003-.003Z" fill="#050081"/><path d="m68.178 36.866.138.097.013.012.414.3.012.01.012.008c9.038 6.754 11.794 18.279 6.595 27.813l2.414 7.19.008.024.008.025.051.167.035.113.021.115.047.257.012.066.008.067.012.102.009.078.002.078.01.264.004.118-.01.117-.02.257-.008.09-.016.09-.03.174-.017.096-.026.093-.073.263-.03.107-.04.102-.099.247-.05.128-.07.12-.152.268-.05.088-.058.083-.125.174-.062.087-.07.08-.172.193-.072.082-.081.073-.19.173-.09.081-.099.07-.253.18-.094.065-.1.055-.178.098-.08.043-.081.037-.235.102-.093.04-.096.031-.246.08-.127.04-.13.024-.258.046-.066.012-.066.007-.103.012-.077.009-.077.002-.265.01-.116.004-.116-.01-.259-.02-.089-.008L73 77.95l-.176-.03-.037-.007-.037-.007-9.652-2.039c-10.76 4.445-23.739 1.645-31.014-7.112-7.808-9.4-6.469-22.559 2.952-30.531 9.168-7.764 23.256-8.318 33.142-1.358Z" fill="#E20000" stroke="#F5F6FA" stroke-width="4"/></g><defs><clipPath id="a"><path fill="#fff" d="M0 0h80v80H0z"/></clipPath></defs></svg>