<svg width="60" height="63" viewBox="0 0 60 63" fill="none" xmlns="http://www.w3.org/2000/svg">
<g clip-path="url(#clip0_2002_80855)">
<path d="M36.3296 48.5708V53.0247H38.4198V48.5708L42.8929 53.0247H43.8753L44.8647 52.0411L37.3747 44.5947L29.8848 52.0411L30.8672 53.0247H31.8496L36.3296 48.5708Z" fill="#000B7C"/>
<path d="M22.8764 46.832H20.7861V53.0247H22.8764V46.832Z" fill="#000B7C"/>
<path d="M58.7022 48.6542L30.8743 0.734019C30.7456 0.510956 30.5599 0.325627 30.336 0.196747C30.1121 0.067867 29.858 0 29.5993 0C29.3406 0 29.0865 0.067867 28.8626 0.196747C28.6387 0.325627 28.453 0.510956 28.3243 0.734019L0.496449 48.6542C0.240041 49.0971 0.105212 49.5993 0.105469 50.1103C0.105727 50.6213 0.241062 51.1234 0.497917 51.566C0.754771 52.0087 1.12413 52.3765 1.56898 52.6326C2.01383 52.8886 2.51855 53.024 3.03258 53.0251H13.9226L14.3337 52.6164L15.8178 51.1409L17.2949 52.6441L17.7059 53.0528H18.6953V44.7544H24.966V53.0251H25.9484L26.3595 52.6164L26.9308 52.0484L28.4009 50.566L35.8978 43.1265L37.3749 41.658L38.852 43.1265L46.342 50.566L47.8191 52.0345L46.8297 53.0181H56.166C56.679 53.0164 57.1826 52.8809 57.6265 52.6252C58.0704 52.3694 58.439 52.0025 58.6957 51.5608C58.9524 51.1192 59.088 50.6184 59.0891 50.1084C59.0903 49.5983 58.9568 49.0969 58.7022 48.6542Z" fill="#000B7C"/>
<path d="M32.1493 28.116L33.1526 16.0979C33.1846 15.7459 33.1424 15.3912 33.0287 15.0564C32.915 14.7215 32.7324 14.4139 32.4924 14.1532C32.2525 13.8925 31.9605 13.6844 31.6351 13.5421C31.3096 13.3999 30.958 13.3267 30.6025 13.3272H28.5959C28.2408 13.3277 27.8896 13.4017 27.5647 13.5442C27.2398 13.6868 26.9482 13.895 26.7085 14.1555C26.4688 14.416 26.2861 14.7231 26.172 15.0575C26.0579 15.3919 26.015 15.7462 26.0458 16.0979L27.0492 28.116C27.0968 28.7561 27.3861 29.3545 27.8591 29.7912C28.3321 30.228 28.9537 30.4707 29.5992 30.4707C30.2447 30.4707 30.8664 30.228 31.3394 29.7912C31.8123 29.3545 32.1017 28.7561 32.1493 28.116Z" fill="#FFFFFF"/>
<path d="M29.5996 39.1371C31.1158 39.1371 32.3448 37.9152 32.3448 36.4079C32.3448 34.9006 31.1158 33.6787 29.5996 33.6787C28.0835 33.6787 26.8545 34.9006 26.8545 36.4079C26.8545 37.9152 28.0835 39.1371 29.5996 39.1371Z" fill="#FFFFFF"/>
<path d="M22.876 59.0233V46.832H20.7858V59.0233L15.818 54.0845L14.334 55.553L21.8309 62.9994L29.3209 55.553L27.8438 54.0845L22.876 59.0233Z" fill="#F15446"/>
<path d="M44.8647 52.0206L37.3747 44.5742L29.8848 52.0206L31.3619 53.4891L36.3296 48.5502V62.8127H38.4198V48.5502L43.3876 53.4891L44.8647 52.0206Z" fill="#F15446"/>
</g>
<defs>
<clipPath id="clip0_2002_80855">
<rect width="59" height="63" fill="#000B7C" transform="translate(0.0996094)"/>
</clipPath>
</defs>
</svg>
