<svg xmlns="http://www.w3.org/2000/svg" width="60" height="60" viewBox="0 0 60 60" fill="none">
  <path d="M51.7504 9.59961H9.45039C5.56446 9.59961 2.40039 12.7607 2.40039 16.6496V20.8799H58.8004V16.6496C58.8004 12.7607 55.6363 9.59961 51.7504 9.59961Z" fill="#D12C1E"/>
  <path d="M2.40039 47.6692C2.40039 51.5582 5.56446 54.7192 9.45039 54.7192H51.7504C55.6363 54.7192 58.8004 51.5582 58.8004 47.6692V23.6992H2.40039V47.6692ZM32.0104 43.4395H37.6505C38.429 43.4395 39.0604 44.0714 39.0604 44.8493C39.0604 45.6278 38.4285 46.2592 37.6505 46.2592H32.0104C31.2319 46.2592 30.6005 45.6273 30.6005 44.8493C30.6005 44.0709 31.2324 43.4395 32.0104 43.4395ZM20.7306 43.4395H26.3708C27.1492 43.4395 27.7806 44.0714 27.7806 44.8493C27.7806 45.6278 27.1487 46.2592 26.3708 46.2592H20.7306C19.9522 46.2592 19.3208 45.6273 19.3208 44.8493C19.3203 44.0709 19.9522 43.4395 20.7306 43.4395ZM9.45039 43.4395H15.0905C15.869 43.4395 16.5004 44.0714 16.5004 44.8493C16.5004 45.6273 15.8685 46.2592 15.0905 46.2592H9.45039C8.67192 46.2592 8.04052 45.6273 8.04052 44.8493C8.04052 44.0709 8.67195 43.4395 9.45039 43.4395Z" fill="#000B7C"/>
</svg>