<svg xmlns="http://www.w3.org/2000/svg" width="32" height="32" viewBox="0 0 32 32" fill="none">
    <g clip-path="url(#clip0_2675_14324)">
      <path d="M27.4312 7.49334C27.3219 7.12573 27.0966 6.80331 26.7891 6.57423C26.4815 6.34514 26.1081 6.22167 25.7245 6.22223H6.27564C5.88601 6.22194 5.50708 6.34966 5.19712 6.58574C4.88716 6.82182 4.66334 7.1532 4.56009 7.5289L2.03564 17.7778H29.9645L27.4312 7.49334Z" fill="#D12C1E"/>
      <path d="M1.77783 19.5555V25.7778C1.77783 26.2493 1.96513 26.7014 2.29853 27.0348C2.63193 27.3682 3.08411 27.5555 3.55561 27.5555H28.4445C28.916 27.5555 29.3682 27.3682 29.7016 27.0348C30.035 26.7014 30.2223 26.2493 30.2223 25.7778V19.5555H1.77783ZM26.6667 24H23.1112V22.2222H26.6667V24Z" fill="#000B7C"/>
    </g>
    <defs>
      <clipPath id="clip0_2675_14324">
        <rect width="32" height="32" fill="white"/>
      </clipPath>
    </defs>
  </svg>