<svg xmlns="http://www.w3.org/2000/svg" width="60" height="60" viewBox="0 0 60 60" fill="none">
  <path d="M55.4391 4.44612C54.8287 3.86799 54.0083 3.56588 53.1687 3.60964C52.3703 3.66799 51.6243 4.03037 51.085 4.62236C50.5457 5.21431 50.2539 5.99054 50.27 6.79128V18.4083C50.2693 19.1492 49.6689 19.7496 48.928 19.7503C48.5925 19.75 48.3207 19.4782 48.3203 19.1423V8.01072C48.3203 7.17039 47.9752 6.36688 47.3656 5.78883C46.756 5.21078 45.9352 4.90858 45.0964 4.95311C44.2976 5.01146 43.5516 5.37384 43.0123 5.96583C42.473 6.55778 42.1816 7.33401 42.1977 8.13475V19.1425C42.1969 19.478 41.9252 19.7502 41.5896 19.7506C40.8487 19.7498 40.2487 19.1494 40.2476 18.4085V6.79148C40.2637 5.99109 39.9723 5.21447 39.433 4.62256C38.8936 4.03062 38.1478 3.66823 37.3489 3.60985C36.5097 3.56532 35.6893 3.86743 35.0797 4.44595C34.4701 5.02408 34.125 5.82719 34.125 6.66744V20.6106C34.1246 22.3731 34.7484 24.079 35.8867 25.4249C37.0245 26.7708 38.6027 27.6703 40.3409 27.9627L39.0138 48.5375C38.9021 50.2642 39.5101 51.9594 40.6933 53.2217C41.8764 54.4839 43.5294 55.1998 45.2592 55.1998C46.9893 55.1998 48.642 54.4839 49.8251 53.2217C51.0083 51.9594 51.6164 50.2642 51.5047 48.5375L50.1772 27.9618C51.9154 27.6692 53.4935 26.7702 54.6314 25.4243C55.7696 24.0784 56.3934 22.3724 56.393 20.61V6.66685C56.3915 5.82691 56.0472 5.02459 55.4391 4.44565L55.4391 4.44612Z" fill="#D12C1E"/>
  <path d="M24.4604 5.89341C22.0603 4.19169 19.1351 3.39468 16.2038 3.6446C13.272 3.89413 10.5238 5.17395 8.44618 7.25737C7.75173 7.95719 7.1406 8.73532 6.62466 9.57566V9.57643C5.4319 11.53 4.80078 13.7746 4.80078 16.0637V18.7149C4.80539 21.1633 5.52862 23.5569 6.88106 25.5979C8.23351 27.6391 10.1556 29.2379 12.409 30.1965L11.2148 48.7488C11.0973 50.4187 11.6846 52.0617 12.834 53.279C13.9811 54.5021 15.5827 55.197 17.2594 55.1996C18.9351 55.2004 20.5363 54.5078 21.683 53.2859C22.8296 52.0644 23.4193 50.4225 23.3122 48.7503L22.1099 30.1971C24.3629 29.2385 26.285 27.6397 27.6374 25.5985C28.9903 23.5574 29.7135 21.1639 29.7181 18.7155V16.0643C29.7146 12.0232 27.7557 8.23302 24.4604 5.89389V5.89341Z" fill="#000B7C"/>
</svg>