<svg xmlns="http://www.w3.org/2000/svg" width="60" height="60" viewBox="0 0 60 60" fill="none">
    <path fill-rule="evenodd" clip-rule="evenodd" d="M4.19637 22.9493C4 23.7978 4 24.7096 4 26.5333V47.0574C4 50.6102 4 52.3866 4.58042 53.7879C5.35431 55.6562 6.8387 57.1406 8.70704 57.9145C10.1083 58.4949 11.8847 58.4949 15.4375 58.4949L21.333 58.4949V44.0505C21.333 43.0831 21.333 42.5994 21.3768 42.1923C21.7608 38.6274 24.5766 35.8116 28.1414 35.4277C28.5485 35.3838 29.0323 35.3838 29.9997 35.3838C30.9671 35.3838 31.4508 35.3838 31.8579 35.4277C35.4228 35.8116 38.2385 38.6274 38.6225 42.1923C38.6663 42.5994 38.6663 43.0831 38.6663 44.0505V58.4949L44.5625 58.4949C48.1153 58.4949 49.8917 58.4949 51.293 57.9145C53.1613 57.1406 54.6457 55.6562 55.4196 53.7879C56 52.3866 56 50.6102 56 47.0574V26.5333C56 24.7096 56 23.7978 55.8036 22.9493C55.5418 21.8181 55.0251 20.7616 54.2929 19.8604C53.7437 19.1845 53.024 18.6247 51.5845 17.505L37.0219 6.17865C34.7923 4.44447 33.6775 3.57739 32.4746 3.16467C30.8708 2.61438 29.1293 2.61438 27.5254 3.16467C26.3225 3.57739 25.2077 4.44447 22.9781 6.17865L8.41555 17.505L8.41554 17.505C6.97604 18.6247 6.25628 19.1845 5.70712 19.8604C4.97491 20.7616 4.45819 21.8181 4.19637 22.9493Z" fill="#050081"/>
  </svg>