<svg width="90" height="80" fill="none" xmlns="http://www.w3.org/2000/svg"><path fill-rule="evenodd" clip-rule="evenodd" d="M3.574 62C2.704 62 2 62.716 2 63.6V66c0 4.418 3.524 8 7.87 8h69.26c4.346 0 7.87-3.582 7.87-8v-2.4c0-.884-.705-1.6-1.574-1.6H3.574Zm36.204 4c-.87 0-1.574.716-1.574 1.6 0 .884.704 1.6 1.574 1.6h9.444c.87 0 1.574-.716 1.574-1.6 0-.884-.704-1.6-1.574-1.6h-9.444Z" fill="#E20000"/><path fill-rule="evenodd" clip-rule="evenodd" d="M7.132 9a2 2 0 0 0-2 2v46.12a2 2 0 0 0 2 2h74.314a2 2 0 0 0 2-2V11a2 2 0 0 0-2-2H7.132Zm28.934 18.012v10.572a1.175 1.175 0 1 0 2.35 0v-7.736l12.09 12.09a1.175 1.175 0 0 0 1.662-1.66L40.077 28.187h7.736a1.175 1.175 0 0 0 0-2.35H37.241c-.649 0-1.175.526-1.175 1.175Z" fill="#050081"/></svg>