<svg xmlns="http://www.w3.org/2000/svg" width="32" height="34" viewBox="0 0 32 34" fill="none">
    <path d="M21.4905 8.25045C20.6708 8.25045 19.8849 7.92448 19.3052 7.34437C18.7258 6.76403 18.4002 5.97721 18.4002 5.15653V0H7.06887C6.24913 0 5.46324 0.325963 4.88355 0.906076C4.3041 1.48642 3.97852 2.27323 3.97852 3.09392V25.7826C3.97852 26.6033 4.3041 27.3901 4.88355 27.9705C5.46322 28.5506 6.24913 28.8766 7.06887 28.8766H23.5508C24.3705 28.8766 25.1564 28.5506 25.7361 27.9705C26.3155 27.3901 26.6411 26.6033 26.6411 25.7826V8.25045H21.4905ZM13.2496 6.18784H15.3098C15.678 6.18784 16.018 6.38443 16.202 6.70349C16.3859 7.02255 16.3859 7.41574 16.202 7.73479C16.018 8.05385 15.6779 8.25045 15.3098 8.25045H13.2496C12.8815 8.25045 12.5414 8.05386 12.3574 7.73479C12.1735 7.41573 12.1735 7.02254 12.3574 6.70349C12.5414 6.38443 12.8815 6.18784 13.2496 6.18784ZM9.12911 23.72C8.85595 23.72 8.59381 23.6114 8.40067 23.418C8.20753 23.2246 8.09899 22.9622 8.09899 22.6887C8.09899 22.4152 8.20753 22.1528 8.40067 21.9594C8.59381 21.7661 8.85595 21.6574 9.12911 21.6574C9.40228 21.6574 9.66441 21.7661 9.85755 21.9594C10.0507 22.1528 10.1592 22.4152 10.1592 22.6887C10.1592 22.9622 10.0507 23.2246 9.85755 23.418C9.66441 23.6114 9.40228 23.72 9.12911 23.72ZM9.12911 18.5635C8.85595 18.5635 8.59381 18.4548 8.40067 18.2615C8.20753 18.0681 8.09899 17.8057 8.09899 17.5322C8.09899 17.2587 8.20753 16.9963 8.40067 16.8029C8.59381 16.6096 8.85595 16.5009 9.12911 16.5009C9.40228 16.5009 9.66441 16.6096 9.85755 16.8029C10.0507 16.9963 10.1592 17.2587 10.1592 17.5322C10.1592 17.8057 10.0507 18.0681 9.85755 18.2615C9.66441 18.4548 9.40228 18.5635 9.12911 18.5635ZM9.12911 13.407C8.85595 13.407 8.59381 13.2983 8.40067 13.105C8.20753 12.9116 8.09899 12.6491 8.09899 12.3757C8.09899 12.1022 8.20753 11.8398 8.40067 11.6464C8.59381 11.453 8.85595 11.3444 9.12911 11.3444C9.40228 11.3444 9.66441 11.453 9.85755 11.6464C10.0507 11.8398 10.1592 12.1022 10.1592 12.3757C10.1592 12.6491 10.0507 12.9116 9.85755 13.105C9.66441 13.2983 9.40228 13.407 9.12911 13.407ZM9.12911 8.25045C8.85595 8.25045 8.59381 8.14179 8.40067 7.94842C8.20753 7.75505 8.09899 7.49262 8.09899 7.21914C8.09899 6.94566 8.20753 6.68323 8.40067 6.48986C8.59381 6.29649 8.85595 6.18784 9.12911 6.18784C9.40228 6.18784 9.66441 6.29649 9.85755 6.48986C10.0507 6.68323 10.1592 6.94566 10.1592 7.21914C10.1592 7.49262 10.0507 7.75505 9.85755 7.94842C9.66441 8.14179 9.40228 8.25045 9.12911 8.25045ZM17.3784 23.72H13.2496C12.8815 23.72 12.5414 23.5234 12.3574 23.2044C12.1735 22.8853 12.1735 22.4921 12.3574 22.1731C12.5414 21.854 12.8815 21.6574 13.2496 21.6574H17.3784C17.7465 21.6574 18.0866 21.854 18.2705 22.1731C18.4545 22.4921 18.4545 22.8853 18.2705 23.2044C18.0866 23.5234 17.7465 23.72 17.3784 23.72ZM20.4625 18.5635H13.2496C12.8815 18.5635 12.5414 18.3669 12.3574 18.0479C12.1735 17.7288 12.1735 17.3356 12.3574 17.0165C12.5414 16.6975 12.8815 16.5009 13.2496 16.5009H20.4625C20.8306 16.5009 21.1707 16.6975 21.3546 17.0165C21.5386 17.3356 21.5386 17.7288 21.3546 18.0479C21.1707 18.3669 20.8306 18.5635 20.4625 18.5635ZM21.4905 13.407H13.2496C12.8815 13.407 12.5414 13.2104 12.3574 12.8913C12.1735 12.5723 12.1735 12.1791 12.3574 11.86C12.5414 11.541 12.8815 11.3444 13.2496 11.3444H21.4905C21.8587 11.3444 22.1987 11.541 22.3827 11.86C22.5666 12.1791 22.5666 12.5723 22.3827 12.8913C22.1987 13.2104 21.8587 13.407 21.4905 13.407ZM20.4604 5.15653V0.598039L26.0438 6.18784H21.4905C21.2174 6.18784 20.9552 6.07918 20.7621 5.88581C20.569 5.69244 20.4604 5.43001 20.4604 5.15653Z" fill="white"/>
    <path fill-rule="evenodd" clip-rule="evenodd" d="M25.0421 20.4453C25.535 20.4453 25.9345 20.8377 25.9345 21.3218V28.6079L27.9807 26.5983C28.3292 26.256 28.8942 26.256 29.2427 26.5983C29.5912 26.9405 29.5912 27.4955 29.2427 27.8378L25.6731 31.3437C25.3246 31.6859 24.7596 31.6859 24.4111 31.3437L20.8415 27.8378C20.493 27.4955 20.493 26.9405 20.8415 26.5983C21.19 26.256 21.755 26.256 22.1035 26.5983L24.1497 28.6079V21.3218C24.1497 20.8377 24.5492 20.4453 25.0421 20.4453Z" fill="white"/>
    <path fill-rule="evenodd" clip-rule="evenodd" d="M24.1511 28.6093V21.3232C24.1511 20.8391 24.5506 20.4467 25.0435 20.4467C25.5363 20.4467 25.9359 20.8391 25.9359 21.3232V28.6093L27.9821 26.5997C28.3306 26.2574 28.8956 26.2574 29.2441 26.5997C29.5926 26.9419 29.5926 27.4969 29.2441 27.8392L25.6745 31.345C25.326 31.6873 24.761 31.6873 24.4125 31.345L20.8428 27.8392C20.4943 27.4969 20.4943 26.9419 20.8428 26.5997C21.1913 26.2574 21.7564 26.2574 22.1049 26.5997L24.1511 28.6093ZM22.4778 24.8723C21.5478 24.4797 20.4322 24.6576 19.6704 25.4059C18.6541 26.4039 18.6541 28.0349 19.6704 29.0329L23.24 32.5388C24.2394 33.5204 25.8475 33.5204 26.847 32.5388L30.4166 29.0329C31.4328 28.0349 31.4328 26.4039 30.4166 25.4059C29.6547 24.6576 28.5392 24.4797 27.6091 24.8723V21.3232C27.6091 19.8867 26.4319 18.7734 25.0435 18.7734C23.6551 18.7734 22.4778 19.8867 22.4778 21.3232V24.8723Z" fill="#000B7C"/>
    <path d="M20.459 5.15615V0.597656L26.0423 6.18745H21.4891C21.2159 6.18745 20.9538 6.07879 20.7607 5.88543C20.5675 5.69206 20.459 5.42962 20.459 5.15615Z" fill="#D12C1E"/>
  </svg>