<svg width="56" height="57" viewBox="0 0 56 57" fill="none" xmlns="http://www.w3.org/2000/svg">
<g clip-path="url(#clip0_2002_80872)">
<path d="M1.04297 18.7696V1.05566H18.5434" stroke="#F15446" stroke-width="3" stroke-miterlimit="10"/>
<path d="M37.4561 1.05566H54.9565V18.7696" stroke="#F15446" stroke-width="3" stroke-miterlimit="10"/>
<path d="M54.9565 38.2295V55.9434H37.4561" stroke="#F15446" stroke-width="3" stroke-miterlimit="10"/>
<path d="M18.5434 55.9434H1.04297V38.2295" stroke="#F15446" stroke-width="3" stroke-miterlimit="10"/>
<path d="M42.6447 13.6797H13.3613V43.3202H42.6447V13.6797Z" fill="#000B7C"/>
<path d="M28.0029 5.76562V21.5927" stroke="#F15446" stroke-width="3" stroke-miterlimit="10"/>
<path d="M28.0029 35.4062V51.2333" stroke="#F15446" stroke-width="3" stroke-miterlimit="10"/>
<path d="M50.4555 28.5H34.8262" stroke="#F15446" stroke-width="3" stroke-miterlimit="10"/>
<path d="M21.1793 28.5H5.54297" stroke="#F15446" stroke-width="3" stroke-miterlimit="10"/>
<path d="M42.6376 28.5H28.0029" stroke="#FFFFFF" stroke-width="3" stroke-miterlimit="10"/>
<path d="M27.4048 28.5H13.3613" stroke="#FFFFFF" stroke-width="3" stroke-miterlimit="10"/>
<path d="M28.0029 43.3203V28.5" stroke="#FFFFFF" stroke-width="3" stroke-miterlimit="10"/>
<path d="M28.0029 27.8945V13.6797" stroke="#FFFFFF" stroke-width="3" stroke-miterlimit="10"/>
<path d="M28.0033 35.3575C31.7449 35.3575 34.7781 32.2873 34.7781 28.5C34.7781 24.7128 31.7449 21.6426 28.0033 21.6426C24.2617 21.6426 21.2285 24.7128 21.2285 28.5C21.2285 32.2873 24.2617 35.3575 28.0033 35.3575Z" fill="#FFFFFF"/>
</g>
<defs>
<clipPath id="clip0_2002_80872">
<rect width="56" height="57" fill="#000B7C"/>
</clipPath>
</defs>
</svg>
