<svg width="57" height="64" viewBox="0 0 57 64" fill="none" xmlns="http://www.w3.org/2000/svg">
<g clip-path="url(#clip0_2003_81089)">
<path d="M37.8596 54.0368V58.8245C37.8596 60.1958 37.3152 61.5111 36.3459 62.4815C35.3767 63.4519 34.0618 63.998 32.69 64H5.97684C4.6038 64 3.28701 63.4547 2.31612 62.4841C1.34524 61.5135 0.799805 60.1971 0.799805 58.8245L0.799805 5.17548C0.799805 3.80286 1.34524 2.48646 2.31612 1.51586C3.28701 0.545273 4.6038 0 5.97684 0H32.69C34.0618 0.00197598 35.3767 0.548121 36.3459 1.5185C37.3152 2.48888 37.8596 3.80415 37.8596 5.17548V15.8173" fill="#000B7C"/>
<path d="M0.799805 8.6582H37.8596" stroke="#FFFFFF" stroke-width="3" stroke-miterlimit="10"/>
<path d="M10.6689 59.1826H27.7517" stroke="#FFFFFF" stroke-width="3" stroke-miterlimit="10"/>
<path d="M55.6809 38.8456V30.7244C55.6809 30.5266 55.6023 30.3369 55.4624 30.1971C55.3226 30.0572 55.1328 29.9787 54.935 29.9787H52.2719C52.1198 29.9771 51.9719 29.9291 51.8479 29.8411C51.7239 29.7532 51.6298 29.6294 51.5781 29.4865C51.4364 29.1136 51.2872 28.7407 51.1231 28.3977C51.0584 28.2589 51.038 28.1036 51.0647 27.9528C51.0914 27.8021 51.1639 27.6632 51.2723 27.555L53.1446 25.6832C53.2146 25.6138 53.2701 25.5314 53.3079 25.4405C53.3458 25.3496 53.3653 25.2521 53.3653 25.1537C53.3653 25.0552 53.3458 24.9578 53.3079 24.8669C53.2701 24.776 53.2146 24.6935 53.1446 24.6242L47.4007 18.882C47.3313 18.8121 47.2488 18.7566 47.1579 18.7187C47.067 18.6809 46.9695 18.6614 46.871 18.6614C46.7725 18.6614 46.675 18.6809 46.5841 18.7187C46.4932 18.7566 46.4107 18.8121 46.3414 18.882L44.469 20.7612C44.36 20.8684 44.2206 20.9394 44.0698 20.9647C43.9191 20.9901 43.7642 20.9685 43.6261 20.9029C43.268 20.7389 42.8801 20.5897 42.5444 20.4555C42.3988 20.4046 42.2726 20.3099 42.1831 20.1844C42.0936 20.0588 42.0452 19.9086 42.0446 19.7545V17.1071C42.0446 16.9093 41.966 16.7196 41.8261 16.5798C41.6862 16.4399 41.4965 16.3613 41.2986 16.3613H33.1825C32.9846 16.3613 32.7949 16.4399 32.655 16.5798C32.5151 16.7196 32.4365 16.9093 32.4365 17.1071V19.7545C32.4364 19.9077 32.3891 20.0573 32.301 20.1827C32.2129 20.3081 32.0883 20.4034 31.9442 20.4555C31.5712 20.5897 31.1982 20.7389 30.855 20.9029C30.7169 20.9685 30.562 20.9901 30.4113 20.9647C30.2605 20.9394 30.1211 20.8684 30.0121 20.7612L28.1397 18.882C28.0704 18.8121 27.9879 18.7566 27.897 18.7187C27.806 18.6809 27.7085 18.6614 27.6101 18.6614C27.5116 18.6614 27.4141 18.6809 27.3232 18.7187C27.2323 18.7566 27.1498 18.8121 27.0804 18.882L21.3365 24.6093C21.2665 24.6786 21.211 24.7611 21.1732 24.852C21.1353 24.9428 21.1158 25.0403 21.1158 25.1388C21.1158 25.2372 21.1353 25.3347 21.1732 25.4256C21.211 25.5164 21.2665 25.5989 21.3365 25.6682L23.2163 27.5923C23.3235 27.7013 23.3945 27.8406 23.4199 27.9913C23.4452 28.142 23.4236 28.2969 23.358 28.435C23.1939 28.7929 23.0447 29.1807 22.9105 29.5238C22.8583 29.6679 22.7631 29.7925 22.6376 29.8805C22.5121 29.9686 22.3626 30.0159 22.2092 30.016H19.5536C19.3557 30.016 19.166 30.0945 19.0261 30.2344C18.8862 30.3742 18.8076 30.5639 18.8076 30.7617V38.8456C18.8076 39.0434 18.8862 39.2331 19.0261 39.3729C19.166 39.5128 19.3557 39.5913 19.5536 39.5913H22.2092C22.3634 39.592 22.5137 39.6403 22.6392 39.7298C22.7648 39.8193 22.8596 39.9455 22.9105 40.091C23.0447 40.4564 23.1939 40.8367 23.358 41.1723C23.4236 41.3104 23.4452 41.4653 23.4199 41.616C23.3945 41.7667 23.3235 41.906 23.2163 42.015L21.3365 43.8943C21.1975 44.034 21.1195 44.223 21.1195 44.4201C21.1195 44.6171 21.1975 44.8061 21.3365 44.9458L27.0804 50.6881C27.1498 50.758 27.2323 50.8134 27.3232 50.8513C27.4141 50.8892 27.5116 50.9087 27.6101 50.9087C27.7085 50.9087 27.806 50.8892 27.897 50.8513C27.9879 50.8134 28.0704 50.758 28.1397 50.6881L30.0121 48.8162C30.1203 48.7079 30.2592 48.6354 30.41 48.6087C30.5608 48.5821 30.7162 48.6024 30.855 48.6671C31.2131 48.8312 31.601 48.9803 31.9442 49.122C32.0871 49.1737 32.2109 49.2678 32.2989 49.3917C32.3869 49.5157 32.4349 49.6636 32.4365 49.8155V52.4704C32.4365 52.6682 32.5151 52.8579 32.655 52.9977C32.7949 53.1376 32.9846 53.2161 33.1825 53.2161H41.3061C41.5039 53.2161 41.6937 53.1376 41.8336 52.9977C41.9735 52.8579 42.0521 52.6682 42.0521 52.4704V49.8155C42.0542 49.6627 42.1033 49.5141 42.1927 49.3901C42.2821 49.266 42.4075 49.1724 42.5519 49.122C42.9174 48.9803 43.2978 48.8312 43.6335 48.6671C43.7723 48.6024 43.9277 48.5821 44.0785 48.6087C44.2293 48.6354 44.3683 48.7079 44.4765 48.8162L46.3488 50.7104C46.4182 50.7803 46.5007 50.8358 46.5916 50.8737C46.6825 50.9115 46.78 50.931 46.8785 50.931C46.977 50.931 47.0745 50.9115 47.1654 50.8737C47.2563 50.8358 47.3388 50.7803 47.4081 50.7104L53.1521 44.9682C53.291 44.8285 53.369 44.6394 53.369 44.4424C53.369 44.2454 53.291 44.0564 53.1521 43.9167L51.2797 42.0374C51.1713 41.9292 51.0989 41.7903 51.0722 41.6396C51.0455 41.4888 51.0658 41.3335 51.1305 41.1947C51.2946 40.8367 51.4438 40.449 51.5856 40.1134C51.636 39.969 51.7296 39.8437 51.8537 39.7543C51.9778 39.6649 52.1264 39.6159 52.2793 39.6137H54.935C55.0348 39.6138 55.1337 39.5938 55.2257 39.5549C55.3177 39.516 55.4009 39.4591 55.4705 39.3874C55.5401 39.3158 55.5946 39.2309 55.6307 39.1379C55.6668 39.0448 55.6839 38.9454 55.6809 38.8456ZM42.1117 39.83C34.9131 45.177 26.8492 37.1155 32.1978 29.919C32.2499 29.8545 32.3101 29.7968 32.3768 29.7475C39.5904 24.393 47.6394 32.4545 42.2908 39.651C42.2388 39.7179 42.1787 39.778 42.1117 39.83Z" fill="#F15446" stroke="#FFFFFF" stroke-width="3" stroke-miterlimit="10"/>
</g>
<defs>
<clipPath id="clip0_2003_81089">
<rect width="56" height="64" fill="#000B7C" transform="translate(0.799805)"/>
</clipPath>
</defs>
</svg>
