<svg width="47" height="64" viewBox="0 0 47 64" fill="none" xmlns="http://www.w3.org/2000/svg">
<g clip-path="url(#clip0_2003_81096)">
<path d="M12.9302 49.6378C12.529 49.6378 12.1317 49.5575 11.7612 49.4013C11.3906 49.2451 11.054 49.0162 10.7706 48.7277C10.4872 48.4392 10.2627 48.0967 10.1097 47.7199C9.95678 47.3431 9.87849 46.9394 9.87933 46.5318V24.4111C9.87933 23.5891 10.2008 22.8007 10.7729 22.2194C11.345 21.6381 12.121 21.3116 12.9302 21.3116H32.1086V12.5285C32.1086 11.3286 31.6399 10.1778 30.8053 9.32869C29.9708 8.47961 28.8387 8.00173 27.6576 8H4.65761C3.47543 8 2.34167 8.47711 1.50574 9.32638C0.669814 10.1756 0.200195 11.3275 0.200195 12.5285L0.200195 59.4714C0.200195 60.6725 0.669814 61.8244 1.50574 62.6736C2.34167 63.5229 3.47543 64 4.65761 64H27.6576C28.8387 63.9983 29.9708 63.5204 30.8053 62.6713C31.6399 61.8222 32.1086 60.6714 32.1086 59.4714V49.6378H12.9302Z" fill="#000B7C"/>
<path d="M0.200195 15.5762H32.1086" stroke="#FFFFFF" stroke-width="3" stroke-miterlimit="10"/>
<path d="M8.69727 59.7842H23.4054" stroke="#FFFFFF" stroke-width="3" stroke-miterlimit="10"/>
<path d="M43.1495 23.8955H15.4737C13.7888 23.8955 12.4229 25.2832 12.4229 26.995V43.9542C12.4229 45.666 13.7888 47.0537 15.4737 47.0537H43.1495C44.8344 47.0537 46.2003 45.666 46.2003 43.9542V26.995C46.2003 25.2832 44.8344 23.8955 43.1495 23.8955Z" fill="#F15446"/>
<path d="M26.1166 40.6262V30.3032C26.1156 29.915 26.2284 29.5352 26.4404 29.2122C26.6525 28.8892 26.9543 28.6375 27.3075 28.4892C27.6607 28.3409 28.0493 28.3027 28.424 28.3794C28.7986 28.4561 29.1423 28.6442 29.4115 28.9199L34.4983 34.101C34.6779 34.2828 34.8205 34.4989 34.9177 34.7369C35.015 34.9748 35.065 35.2299 35.065 35.4876C35.065 35.7452 35.015 36.0003 34.9177 36.2383C34.8205 36.4762 34.6779 36.6923 34.4983 36.8742L29.4115 42.0422C29.1404 42.32 28.7937 42.5089 28.416 42.5846C28.0383 42.6603 27.647 42.6194 27.2924 42.467C26.9378 42.3146 26.6363 42.0578 26.4267 41.7297C26.2172 41.4016 26.1091 41.0173 26.1166 40.6262Z" fill="#FFFFFF"/>
</g>
<defs>
<clipPath id="clip0_2003_81096">
<rect width="46" height="64" fill="#000B7C" transform="translate(0.200195)"/>
</clipPath>
</defs>
</svg>
