<svg width="57" height="55" viewBox="0 0 57 55" fill="none" xmlns="http://www.w3.org/2000/svg">
<g clip-path="url(#clip0_2003_81223)">
<path d="M54.3994 45.1308C55.504 45.1308 56.3994 44.2354 56.3994 43.1308V10.5C56.3994 9.39543 55.504 8.5 54.3994 8.5H2.39941C1.29484 8.5 0.399414 9.39543 0.399414 10.5V43.1308C0.399414 44.2354 1.29484 45.1308 2.39941 45.1308H21.4334L20.4334 49.1253H15.9287C14.8241 49.1253 13.9287 50.0207 13.9287 51.1253V52.5C13.9287 53.6046 14.8241 54.5 15.9287 54.5H40.8765C41.9811 54.5 42.8765 53.6046 42.8765 52.5V51.1253C42.8765 50.0207 41.9811 49.1253 40.8765 49.1253H36.3654L35.3654 45.1308H54.3994ZM35.5413 36.3532C35.359 36.3527 35.1776 36.3271 35.0024 36.2768L30.6532 35.0047C30.1701 34.8596 29.7641 34.5278 29.5247 34.0824C29.3505 33.7642 28.95 33.6428 28.6308 33.8153C28.3529 33.9683 28.0412 34.0492 27.7242 34.0506C27.5395 34.0486 27.356 34.0207 27.179 33.9679L23.69 32.9139C23.0083 32.708 22.2775 32.8928 21.7051 33.3165C19.9678 34.6023 17.8573 35.3047 15.6785 35.3037C14.2357 35.2823 12.814 34.9524 11.5084 34.3359C10.2028 33.7195 9.04327 32.8306 8.10733 31.7288C7.17139 30.6269 6.48053 29.3374 6.08089 27.9463C5.68126 26.5552 5.58204 25.0946 5.78986 23.662C5.99768 22.2294 6.50777 20.8578 7.28605 19.6387C8.06433 18.4196 9.0929 17.3812 10.3031 16.5927C11.5132 15.8042 12.8772 15.2838 14.3037 15.0663C15.7303 14.8488 17.1868 14.9391 18.5758 15.3313C20.3187 15.8409 21.8925 16.8122 23.132 18.143C24.1029 19.1855 24.8405 20.4185 25.3014 21.759C25.538 22.4472 26.0522 23.0233 26.7496 23.2314L44.4171 28.5041C44.8991 28.6478 45.3049 28.9771 45.5456 29.4201L47.6694 33.3573C47.7887 33.5778 47.8634 33.8197 47.8894 34.0692C47.9154 34.3186 47.8921 34.5708 47.8209 34.8113C47.7496 35.0517 47.6318 35.2757 47.4742 35.4704C47.3166 35.6651 47.1222 35.8268 46.9023 35.9461L42.9779 38.0769C42.6994 38.2277 42.3878 38.3064 42.0713 38.3059C41.8885 38.3064 41.7067 38.2785 41.5324 38.2232L38.4703 37.3136C37.9871 37.1685 37.5812 36.8367 37.3418 36.3913C37.1701 36.0715 36.768 35.9531 36.4479 36.1242C36.1694 36.275 35.8577 36.3537 35.5413 36.3532Z" fill="#000B7C"/>
<path d="M43.872 30.3301L23.9268 24.402C23.7605 22.4966 22.941 20.708 21.6078 19.3408C20.2746 17.9736 18.5102 17.1124 16.6152 16.9038C14.7201 16.6952 12.8116 17.1522 11.2147 18.1969C9.6178 19.2416 8.43126 20.8094 7.85717 22.6333C7.28309 24.4572 7.35698 26.4243 8.06626 28.1997C8.77553 29.975 10.0763 31.4488 11.7471 32.37C13.4178 33.2911 15.3552 33.6027 17.2292 33.2516C19.1033 32.9006 20.798 31.9085 22.0249 30.4446L27.7307 32.1428L29.9814 30.9152L31.205 33.1733L35.5478 34.4454L37.8048 33.2241L39.022 35.4822L42.0779 36.3981L46.0022 34.2673L43.872 30.3301ZM15.1398 24.9363C14.7299 24.8142 14.3654 24.5729 14.0922 24.243C13.819 23.913 13.6494 23.5092 13.6049 23.0826C13.5605 22.656 13.6431 22.2257 13.8423 21.8462C14.0415 21.4667 14.3485 21.155 14.7243 20.9505C15.1001 20.7459 15.5279 20.6578 15.9536 20.6972C16.3794 20.7366 16.7839 20.9017 17.1161 21.1718C17.4483 21.4418 17.6932 21.8046 17.8199 22.2142C17.9466 22.6239 17.9494 23.0621 17.8279 23.4733C17.6634 24.0241 17.2884 24.4871 16.7847 24.7612C16.281 25.0354 15.6896 25.0983 15.1398 24.9363Z" fill="#F15446"/>
</g>
<defs>
<clipPath id="clip0_2003_81223">
<rect x="0.399414" y="0.5" width="56" height="54" rx="2" fill="#000B7C"/>
</clipPath>
</defs>
</svg>
