<svg width="60" height="60" viewBox="0 0 60 60" fill="none" xmlns="http://www.w3.org/2000/svg">
<g clip-path="url(#clip0_2003_81056)">
<path d="M5.02 8.05978H54.98V38.861H5.02V8.05978ZM56.7 44.5012C58.52 44.5012 60 43.0211 60 41.201V6.89974C60 5.07967 58.52 3.59961 56.7 3.59961H3.3C1.48 3.59961 0 5.07967 0 6.89974V41.201C0 43.0211 1.48 44.5012 3.3 44.5012H22.94L21.76 50.0214H19.1C17.48 50.0214 16.16 51.3414 16.16 52.9615C16.16 54.5816 17.48 55.9016 19.1 55.9016H41.38C43 55.9016 44.32 54.5816 44.32 52.9615C44.32 51.3414 43 50.0214 41.38 50.0214H38.72L37.54 44.5012H56.7Z" fill="#000B7C"/>
<path d="M45.7405 15.8392H40.8405V21.4794H37.0405V20.2594H32.1405V23.3795H27.8005V25.1595H23.4405V27.7796H19.1005V31.5398H15.0005V12.5391H12.0605V34.4799H48.5605V31.5398H45.7405V15.8392Z" fill="#F15446"/>
</g>
<defs>
<clipPath id="clip0_2003_81056">
<rect width="60" height="60" fill="#000B7C"/>
</clipPath>
</defs>
</svg>
