<svg xmlns="http://www.w3.org/2000/svg" width="60" height="60" viewBox="0 0 60 60" fill="none">
    <path d="M48.0174 7.79482H4.99125V34.0012H10.9125V38.8H3.50997C1.94256 38.8 0.667969 37.5407 0.667969 35.9922V6.80782C0.667969 5.25927 1.94256 4 3.50997 4H49.4987C51.0661 4 52.3407 5.25927 52.3407 6.80782V11.5428H48.0174V7.79482Z" fill="#000B7C"/>
    <path d="M11.3184 14.1943H54.3446V40.8987H11.3184V14.1943ZM55.8258 45.7888C57.3932 45.7888 58.6678 44.5056 58.6678 42.9276V13.1886C58.6678 11.6106 57.3932 10.3274 55.8258 10.3274H9.83712C8.26971 10.3274 6.99512 11.6106 6.99512 13.1886V42.9276C6.99512 44.5056 8.26971 45.7888 9.83712 45.7888H26.7513L25.7351 50.5747H23.4443C22.0491 50.5747 20.9123 51.7192 20.9123 53.1238C20.9123 54.5284 22.0491 55.6728 23.4443 55.6728H42.6321C44.0272 55.6728 45.164 54.5284 45.164 53.1238C45.164 51.7192 44.0272 50.5747 42.6321 50.5747H40.3413L39.325 45.7888H55.8258Z" fill="#000B7C"/>
  </svg>