<svg xmlns="http://www.w3.org/2000/svg" width="60" height="60" viewBox="0 0 60 60" fill="none">
    <path d="M7.96096 10.6135H52.039V37.7884H7.96096V10.6135ZM53.5565 42.7645C55.1622 42.7645 56.468 41.4587 56.468 39.8529V9.59006C56.468 7.98427 55.1622 6.67847 53.5565 6.67847H6.44346C4.83774 6.67847 3.53198 7.98427 3.53198 9.59006V39.8529C3.53198 41.4587 4.83774 42.7645 6.44346 42.7645H23.7712L22.7301 47.6348H20.3833C18.954 47.6348 17.7894 48.7995 17.7894 50.2288C17.7894 51.6581 18.954 52.8228 20.3833 52.8228H40.0402C41.4694 52.8228 42.634 51.6581 42.634 50.2288C42.634 48.7995 41.4694 47.6348 40.0402 47.6348H37.6933L36.6523 42.7645H53.5565Z" fill="#000B7C"/>
    <path d="M43.8871 17.4775H39.564V22.4537H36.2114V21.3773H31.8883V24.13H28.0592V25.7005H24.2126V28.0122H20.3835V31.3296H16.7662V14.5659H14.1724V33.9236H46.3751V31.3296H43.8871V17.4775Z" fill="#D12C1E"/>
  </svg>