<svg width="307" height="80" viewBox="0 0 307 80" fill="none" xmlns="http://www.w3.org/2000/svg">
<g clip-path="url(#clip0_955_31054)">
<path d="M21.9717 18.4688L0.667969 21.2702V38.9827H21.9717V18.4688ZM0.667969 58.8338L21.9717 61.866V41.0173H0.667969V58.8338ZM24.3215 41.2838L24.406 62.0122L52.668 66V41.2838H24.3215Z" fill="#000B7C"/>
<path d="M24.4902 18.043L52.6677 14V38.8885H24.4902V18.043Z" fill="#D12C1E"/>
</g>
<path d="M79.209 55.2488C79.5902 50.7162 80.978 46.5436 83.3722 42.7311C85.7665 38.9186 88.9537 35.8898 92.934 33.6447L88.2319 25.5113C87.9777 25.1301 87.9142 24.7276 88.0413 24.304C88.1684 23.8804 88.4437 23.5627 88.8673 23.3509C89.2062 23.1391 89.5875 23.0967 90.0111 23.2238C90.4347 23.3509 90.7736 23.6051 91.0277 23.9863L95.7298 32.1197C99.3729 30.5947 103.185 29.8322 107.167 29.8322C111.149 29.8322 114.962 30.5947 118.605 32.1197L123.307 23.9863C123.561 23.6051 123.9 23.3509 124.324 23.2238C124.747 23.0967 125.128 23.1391 125.467 23.3509C125.891 23.5627 126.166 23.8804 126.293 24.304C126.42 24.7276 126.357 25.1301 126.103 25.5113L121.401 33.6447C125.383 35.8898 128.57 38.9186 130.962 42.7311C133.355 46.5436 134.743 50.7162 135.126 55.2488H79.209ZM94.459 48.2592C95.3486 48.2592 96.1009 47.9517 96.716 47.3366C97.3311 46.7215 97.6378 45.9701 97.6361 45.0822C97.6361 44.1926 97.3285 43.4402 96.7134 42.8252C96.0984 42.2101 95.3469 41.9034 94.459 41.9051C93.5694 41.9051 92.8171 42.2126 92.202 42.8277C91.5869 43.4428 91.2802 44.1943 91.2819 45.0822C91.2819 45.9717 91.5894 46.7241 92.2045 47.3392C92.8196 47.9542 93.5711 48.2609 94.459 48.2592ZM119.876 48.2592C120.765 48.2592 121.518 47.9517 122.133 47.3366C122.748 46.7215 123.054 45.9701 123.053 45.0822C123.053 44.1926 122.745 43.4402 122.13 42.8252C121.515 42.2101 120.764 41.9034 119.876 41.9051C118.986 41.9051 118.234 42.2126 117.619 42.8277C117.004 43.4428 116.697 44.1943 116.699 45.0822C116.699 45.9717 117.006 46.7241 117.621 47.3392C118.236 47.9542 118.988 48.2609 119.876 48.2592Z" fill="#000B7C"/>
<g clip-path="url(#clip1_955_31054)">
<path d="M164.464 24.8789C162.903 24.8789 161.668 26.0989 161.668 27.6239C161.668 27.9887 161.741 28.3499 161.882 28.6862C162.023 29.0226 162.23 29.3275 162.49 29.5831C162.75 29.8387 163.059 30.0398 163.398 30.1747C163.737 30.3096 164.099 30.3757 164.464 30.3689C166.04 30.3689 167.285 29.1489 167.285 27.6239C167.285 26.0989 166.04 24.8789 164.464 24.8789ZM183.806 24.9297C175.266 24.9297 169.928 30.7502 169.928 40.0018C169.928 49.3297 175.266 55.1247 183.806 55.1247C192.295 55.1247 197.658 49.3297 197.658 40.0018C197.658 30.7502 192.295 24.9297 183.806 24.9297ZM211.358 24.9297C205.003 24.9297 200.479 28.4372 200.479 33.6477C200.479 37.7906 203.046 40.3831 208.435 41.6285L212.222 42.5435C215.907 43.3822 217.407 44.6022 217.407 46.7118C217.407 49.1518 214.941 50.8802 211.434 50.8802C207.85 50.8802 205.156 49.1264 204.876 46.4322H199.793C199.996 51.8206 204.419 55.1247 211.129 55.1247C218.22 55.1247 222.668 51.6427 222.668 46.1018C222.668 41.7556 220.126 39.2902 214.23 37.9431L210.849 37.1806C207.265 36.3164 205.791 35.1727 205.791 33.241C205.791 30.801 208.028 29.1743 211.332 29.1743C214.662 29.1743 216.949 30.8264 217.203 33.546H222.185C222.058 28.4118 217.813 24.9297 211.358 24.9297ZM183.806 29.3777C188.991 29.3777 192.32 33.5206 192.32 40.0018C192.32 46.5339 188.991 50.6768 183.806 50.6768C178.57 50.6768 175.266 46.5339 175.266 40.0018C175.266 33.5206 178.57 29.3777 183.806 29.3777ZM161.95 33.1647V54.6418H167.005V33.1647H161.948H161.95Z" fill="#D12C1E"/>
</g>
<path d="M296.471 51.835C297.038 52.0621 297.527 52.4491 297.877 52.9488C298.192 53.4175 298.414 53.9838 298.552 54.6475C298.627 55.0375 298.717 55.3975 298.815 55.735C298.999 56.3674 299.276 56.969 299.636 57.52C299.812 57.7938 300.049 58.0938 300.341 58.4275C300.592 58.7013 300.817 59.0538 301.016 59.4813C301.199 59.8658 301.298 60.2853 301.305 60.7113C301.319 61.1207 301.197 61.5233 300.956 61.855C300.712 62.1771 300.413 62.4549 300.075 62.6763C299.625 62.9875 299.156 63.2613 298.669 63.4975C298.181 63.73 297.694 63.9738 297.206 64.2288C296.477 64.5761 295.781 64.9877 295.125 65.4588C294.54 65.89 293.951 66.4338 293.366 67.1013C292.684 67.8652 291.895 68.5259 291.022 69.0625C290.577 69.3451 290.093 69.5623 289.586 69.7075C289.099 69.8425 288.611 69.9325 288.124 69.97C286.991 69.97 286.054 69.775 285.311 69.385C284.569 68.995 283.924 68.2825 283.376 67.2475C283.219 66.9513 283.065 66.7675 282.907 66.6888C282.664 66.5857 282.408 66.5163 282.146 66.4825L279.18 66.25C278.205 66.175 277.211 66.1338 276.195 66.1338C275.351 66.1349 274.508 66.2026 273.675 66.3363C272.816 66.475 271.965 66.64 271.125 66.835C270.952 66.8725 270.776 67.0225 270.6 67.2738C270.381 67.5786 270.135 67.8635 269.865 68.125C269.5 68.4729 269.074 68.7512 268.609 68.9463C267.946 69.2052 267.239 69.3338 266.527 69.325C265.882 69.325 265.189 69.2575 264.446 69.1225C263.752 69.0017 263.08 68.774 262.455 68.4475C261.328 67.8709 260.125 67.4568 258.881 67.2175C257.707 67.0038 256.47 66.805 255.161 66.6325C254.727 66.576 254.297 66.4971 253.871 66.3963C253.478 66.3073 253.108 66.1375 252.784 65.8975C252.486 65.6776 252.239 65.3979 252.056 65.0763C251.856 64.6666 251.755 64.2158 251.76 63.76C251.76 63.1525 251.839 62.5675 251.996 62.0013C252.154 61.4388 252.24 60.8388 252.259 60.2163C252.259 59.785 252.229 59.365 252.172 58.9563C252.11 58.5185 252.07 58.078 252.052 57.6363C252.052 56.6425 252.289 55.9113 252.757 55.4388C253.226 54.97 253.909 54.5988 254.809 54.325C255.209 54.204 255.585 54.0163 255.922 53.77C256.232 53.5365 256.525 53.2822 256.8 53.0088C257.079 52.7284 257.334 52.4248 257.561 52.1013C257.797 51.7675 258.06 51.4338 258.352 51.1038C258.411 51.0287 258.442 50.9363 258.442 50.8413C258.442 50.605 258.431 50.38 258.412 50.1663L258.352 49.4613C258.352 48.1338 258.559 46.7988 258.967 45.4488C259.38 44.0988 259.916 42.7863 260.58 41.4925C261.243 40.2064 261.987 38.9639 262.807 37.7725C263.625 36.5838 264.439 35.4775 265.237 34.4613C266.322 33.103 267.183 31.58 267.787 29.95C268.35 28.39 268.646 26.6875 268.665 24.85C268.665 24.0738 268.627 23.3013 268.549 22.54C268.47 21.7612 268.431 20.979 268.432 20.1963C268.432 18.6325 268.609 17.2263 268.957 15.9775C269.31 14.725 269.857 13.6525 270.6 12.7525C271.342 11.8525 272.31 11.1813 273.499 10.7313C274.695 10.2812 276.12 10.0375 277.777 10C279.754 10 281.325 10.39 282.499 11.1738C283.669 11.9538 284.569 12.9775 285.191 14.2488C285.817 15.5163 286.219 16.9338 286.391 18.4975C286.571 20.0575 286.669 21.64 286.687 23.2413V23.74C286.687 24.5425 286.695 25.255 286.717 25.8775C286.752 27.1431 287.041 28.3889 287.565 29.5413C287.839 30.145 288.247 30.8013 288.795 31.5025C289.732 32.7363 290.692 33.9775 291.667 35.2263C292.642 36.475 293.531 37.765 294.33 39.0888C295.132 40.42 295.789 41.8075 296.295 43.2513C296.805 44.6987 297.067 46.2588 297.086 47.9388C297.091 49.2633 296.884 50.5763 296.471 51.835ZM271.894 21.31C272.164 21.31 272.389 21.3775 272.569 21.5125C272.752 21.6597 272.893 21.8524 272.977 22.0713C273.072 22.2965 273.14 22.5318 273.18 22.7725C273.217 23.0088 273.24 23.2525 273.24 23.5075C273.246 23.6686 273.215 23.8289 273.15 23.9763C273.086 24.1008 272.996 24.2106 272.887 24.2988L272.535 24.5913C272.409 24.6977 272.293 24.8143 272.186 24.94C272.046 25.1589 271.854 25.3404 271.627 25.4688C271.395 25.6036 271.17 25.75 270.952 25.9075C270.745 26.0582 270.549 26.225 270.367 26.4063C270.277 26.5041 270.207 26.6194 270.161 26.7451C270.116 26.8707 270.097 27.0042 270.105 27.1375C270.105 27.3138 270.191 27.46 270.367 27.5763C270.805 27.8517 271.152 28.2493 271.365 28.72C271.56 29.17 271.777 29.6088 272.01 30.04C272.242 30.4675 272.546 30.8275 272.917 31.1238C273.289 31.4163 273.866 31.5625 274.642 31.5625H274.822C275.602 31.525 276.345 31.3188 277.05 30.9475C277.751 30.5763 278.456 30.1863 279.157 29.7738C279.28 29.7051 279.408 29.6473 279.54 29.6013C279.676 29.5527 279.804 29.4831 279.919 29.395L282.056 27.7263C282.093 27.6006 282.123 27.4728 282.146 27.3438C282.169 27.2067 282.189 27.0691 282.206 26.9313C282.213 26.7448 282.16 26.5611 282.056 26.4063C281.96 26.2702 281.842 26.1511 281.707 26.0538C281.558 25.9515 281.387 25.8825 281.209 25.8513C281.03 25.8154 280.854 25.7652 280.684 25.7013C280.216 25.6052 279.769 25.4274 279.364 25.1763C278.961 24.9261 278.527 24.7295 278.074 24.5913C277.999 24.5688 277.939 24.5125 277.897 24.415C277.853 24.2995 277.814 24.1819 277.781 24.0625C277.743 23.9389 277.732 23.8081 277.751 23.68C277.773 23.5818 277.762 23.4793 277.721 23.3875C277.721 23.155 277.74 22.9113 277.781 22.6563C277.822 22.3981 277.911 22.15 278.044 21.925C278.158 21.7167 278.318 21.5371 278.512 21.4C278.744 21.2651 279.006 21.1927 279.274 21.19C279.881 21.19 280.32 21.415 280.594 21.865C280.867 22.315 281.014 22.8025 281.032 23.3275C281.037 23.5609 280.987 23.7921 280.886 24.0025C280.786 24.2027 280.735 24.4237 280.736 24.6475C280.736 24.805 280.789 24.91 280.886 24.97C281.004 25.0348 281.135 25.0743 281.269 25.0863C281.719 25.0863 282.007 24.9813 282.146 24.7675C282.304 24.4698 282.384 24.1369 282.379 23.8C282.379 23.35 282.341 22.8513 282.266 22.3038C282.192 21.7741 282.032 21.2599 281.794 20.7813C281.575 20.3318 281.266 19.9322 280.886 19.6075C280.479 19.2842 279.969 19.119 279.45 19.1425C278.437 19.1425 277.702 19.3938 277.252 19.9038C276.802 20.41 276.57 21.1713 276.551 22.1875C276.551 22.48 276.57 22.7725 276.607 23.065C276.645 23.3613 276.667 23.6538 276.667 23.9463C276.667 24.0438 276.656 24.0925 276.637 24.0925C276.577 24.0793 276.517 24.0591 276.461 24.0325C276.344 23.9851 276.228 23.9364 276.112 23.8863C275.969 23.8257 275.821 23.7768 275.67 23.74C275.421 23.6795 275.162 23.6693 274.909 23.71C274.753 23.7297 274.597 23.7397 274.44 23.74C274.166 23.74 274.027 23.6913 274.027 23.5938C274.027 23.3013 274.012 22.93 273.971 22.48C273.934 22.03 273.836 21.58 273.679 21.13C273.548 20.7296 273.35 20.3543 273.094 20.02C272.857 19.7275 272.509 19.57 272.04 19.5513C271.725 19.544 271.42 19.6597 271.189 19.8738C270.948 20.0965 270.741 20.3529 270.574 20.635C270.394 20.9397 270.284 21.2803 270.251 21.6325C270.22 21.9459 270.181 22.2584 270.135 22.57C270.15 23.0874 270.238 23.6 270.397 24.0925C270.495 24.4038 270.604 24.6775 270.72 24.9138C270.836 25.1463 270.975 25.2625 271.132 25.2625C271.226 25.2625 271.357 25.195 271.511 25.06C271.669 24.9213 271.747 24.7975 271.747 24.6775C271.747 24.6175 271.717 24.58 271.657 24.5613C271.601 24.5417 271.541 24.5316 271.481 24.5313C271.346 24.5313 271.226 24.4638 271.129 24.325C271.028 24.1812 270.95 24.0232 270.896 23.8563C270.835 23.6721 270.776 23.4871 270.72 23.3013C270.603 22.7953 270.677 22.2641 270.926 21.8088C271.102 21.4938 271.425 21.3288 271.894 21.31ZM265.504 66.925C265.972 66.925 266.434 66.8875 266.884 66.805C267.329 66.7284 267.756 66.5694 268.144 66.3363C268.515 66.1214 268.819 65.8071 269.021 65.4288C269.235 64.9894 269.355 64.5106 269.374 64.0225C269.374 63.6737 269.314 63.3275 269.197 62.9988C269.078 62.6634 268.91 62.3475 268.699 62.0613C268.467 61.6944 268.213 61.3425 267.937 61.0075C267.662 60.6713 267.408 60.3181 267.176 59.95C266.811 59.414 266.449 58.8765 266.089 58.3375C265.74 57.8125 265.387 57.2575 265.039 56.6688C264.73 56.1698 264.436 55.6621 264.157 55.1463C263.871 54.6196 263.537 54.1201 263.16 53.6538C262.922 53.3566 262.647 53.0907 262.342 52.8625C262.029 52.6272 261.647 52.5031 261.255 52.51C260.846 52.504 260.45 52.6511 260.145 52.9225C259.796 53.2268 259.472 53.5591 259.177 53.9163C258.832 54.3215 258.46 54.7036 258.064 55.06C257.651 55.4313 257.126 55.7238 256.481 55.9375C256.045 56.0546 255.643 56.2759 255.311 56.5825C255.037 56.8563 254.899 57.2763 254.899 57.8425C254.899 58.2325 254.929 58.6225 254.989 59.0125C255.045 59.4025 255.086 59.7963 255.105 60.1863C255.105 60.7113 255.03 61.21 254.869 61.6788C254.717 62.122 254.639 62.5867 254.636 63.055C254.636 63.5838 254.824 63.955 255.191 64.1688C255.566 64.3863 255.982 64.5325 256.451 64.6075C257.04 64.7088 257.595 64.7838 258.124 64.8438C258.649 64.9038 259.166 64.9938 259.676 65.1063C260.182 65.2263 260.689 65.35 261.199 65.4888C261.705 65.6238 262.245 65.8413 262.811 66.1338C262.924 66.19 263.104 66.2613 263.336 66.3363L264.127 66.5988C264.42 66.7 264.694 66.7788 264.949 66.835C265.13 66.8837 265.316 66.9138 265.504 66.925ZM276.229 63.4075C276.776 63.4075 277.361 63.3513 277.987 63.2313C279.262 62.9923 280.496 62.5678 281.647 61.9713C282.184 61.6979 282.693 61.3752 283.17 61.0075C283.217 60.9541 283.258 60.8949 283.29 60.8313C283.327 60.7559 283.356 60.6767 283.376 60.595V60.565C283.492 60.1375 283.59 59.665 283.669 59.1588C283.75 58.643 283.819 58.1253 283.875 57.6063C283.932 57.0872 284 56.5696 284.081 56.0538C284.156 55.5475 284.227 55.0488 284.284 54.5613C284.362 54.0363 284.46 53.5263 284.576 53.0388C284.696 52.5513 284.85 52.09 285.045 51.6588C285.238 51.2341 285.506 50.8479 285.836 50.5188C286.221 50.1481 286.655 49.8326 287.126 49.5813V49.5213L287.096 49.435C287.103 49.2361 287.164 49.0429 287.272 48.8763C287.404 48.661 287.55 48.4555 287.711 48.2613C287.867 48.064 288.056 47.8953 288.27 47.7625C288.465 47.6455 288.671 47.5476 288.885 47.47C288.767 46.9988 288.639 46.5299 288.502 46.0638C288.367 45.5998 288.249 45.1307 288.15 44.6575C288.054 44.0587 287.938 43.4634 287.801 42.8725C287.693 42.4142 287.555 41.9633 287.389 41.5225C287.221 41.0929 286.994 40.689 286.714 40.3225C286.425 39.9325 286.061 39.46 285.634 38.9163C285.47 38.7337 285.322 38.5381 285.191 38.3313C285.089 38.0988 285.031 37.8497 285.019 37.5963C284.972 37.3399 284.913 37.0858 284.842 36.835C284.579 35.8853 284.276 34.947 283.935 34.0225C283.755 33.5288 283.539 33.0488 283.29 32.5863C283.091 32.2158 282.876 31.8542 282.645 31.5025C282.45 31.21 282.244 31.0638 282.03 31.0638C281.561 31.0638 281.002 31.2513 280.357 31.6225C279.716 31.9938 279.03 32.4025 278.31 32.8525C277.586 33.3025 276.885 33.7225 276.199 34.1125C275.516 34.5025 274.901 34.6863 274.354 34.6675C273.769 34.6671 273.202 34.4718 272.741 34.1125C272.245 33.7341 271.792 33.3014 271.391 32.8225C270.982 32.335 270.641 31.915 270.367 31.5625C270.094 31.21 269.891 31.015 269.752 30.9775C269.599 30.9775 269.509 31.0938 269.49 31.3263C269.469 31.5895 269.459 31.8535 269.46 32.1175V32.6163C269.46 32.7363 269.441 32.8113 269.4 32.8525C269.186 33.3025 268.95 33.7413 268.699 34.1688C268.444 34.6 268.192 35.0388 267.937 35.4888C267.432 36.3535 267.15 37.3303 267.116 38.3313C267.116 38.6238 267.135 38.9163 267.176 39.2088C267.214 39.5013 267.311 39.7863 267.469 40.06L267.409 40.1725C267.258 40.3815 267.091 40.5784 266.91 40.7613C266.725 40.9495 266.559 41.1555 266.415 41.3763C265.698 42.4359 265.18 43.6179 264.889 44.8638C264.596 46.1125 264.439 47.3838 264.42 48.67C264.42 49.0038 264.442 49.3375 264.48 49.6675C264.517 50.0013 264.54 50.3313 264.54 50.665C264.539 50.7731 264.529 50.881 264.51 50.9875C264.491 51.094 264.481 51.2019 264.48 51.31C264.897 51.357 265.298 51.4967 265.654 51.7188C266.104 51.9738 266.591 52.2963 267.116 52.6863C267.641 53.0763 268.144 53.5263 268.612 54.0363C269.081 54.5425 269.527 55.0375 269.959 55.5288C270.39 56.0163 270.701 56.5038 270.896 56.9913C271.091 57.4788 271.219 57.88 271.275 58.1913C271.285 58.418 271.249 58.6444 271.168 58.8566C271.087 59.0687 270.964 59.2622 270.806 59.425C270.47 59.753 270.072 60.0117 269.636 60.1863C269.97 60.7713 270.379 61.27 270.866 61.6788C271.354 62.0913 271.882 62.4213 272.449 62.6763C273.015 62.9313 273.63 63.115 274.294 63.2313C274.957 63.3513 275.606 63.4075 276.229 63.4075ZM287.977 67.57C288.386 67.57 288.787 67.51 289.177 67.3938C289.768 67.2243 290.331 66.9678 290.846 66.6325C291.356 66.2988 291.821 65.89 292.252 65.3988C293.271 64.2234 294.518 63.2666 295.916 62.5863L296.884 62.1475C297.216 62.0028 297.538 61.8362 297.847 61.6488C298.071 61.507 298.279 61.341 298.466 61.1538C298.561 61.0625 298.635 60.9528 298.686 60.8316C298.736 60.7103 298.761 60.58 298.759 60.4488C298.759 60.2979 298.728 60.1486 298.669 60.01C298.599 59.8539 298.511 59.7067 298.406 59.5713C298.139 59.1992 297.885 58.8177 297.645 58.4275C297.428 58.0726 297.241 57.7 297.086 57.3138L296.617 56.1438C296.448 55.7143 296.311 55.2731 296.205 54.8238C296.164 54.6849 296.095 54.556 296.002 54.445C295.814 54.1632 295.557 53.9342 295.255 53.78C294.953 53.6258 294.616 53.5513 294.277 53.5638C293.928 53.5625 293.584 53.653 293.28 53.8263L292.282 54.385C291.935 54.5776 291.584 54.7626 291.229 54.94C290.883 55.1138 290.502 55.2038 290.115 55.2025C289.769 55.2176 289.428 55.1159 289.147 54.9138C288.878 54.6996 288.658 54.4297 288.502 54.1225C288.336 53.8097 288.189 53.4865 288.064 53.155L287.711 52.1875C287.558 52.4383 287.383 52.6743 287.186 52.8925C286.985 53.116 286.827 53.3739 286.717 53.6538C286.462 54.2388 286.305 54.8913 286.249 55.615C286.151 56.7475 286.024 57.85 285.866 58.9263C285.706 60.0236 285.442 61.1034 285.079 62.1513C284.975 62.4863 284.896 62.8284 284.842 63.175C284.784 63.534 284.744 63.8957 284.722 64.2588C284.722 65.215 285.019 66.0063 285.604 66.6325C286.189 67.255 286.98 67.57 287.977 67.57Z" fill="#000B7C"/>
<defs>
<clipPath id="clip0_955_31054">
<rect width="52" height="52" fill="white" transform="translate(0.667969 14)"/>
</clipPath>
<clipPath id="clip1_955_31054">
<rect width="61" height="61" fill="white" transform="translate(161.668 9.5)"/>
</clipPath>
</defs>
</svg>
