<svg xmlns="http://www.w3.org/2000/svg" width="41" height="54" viewBox="0 0 41 54" fill="none">
    <g clip-path="url(#clip0_955_31163)">
      <path d="M32.2305 1.58594V7.73139C32.2305 8.11022 32.5377 8.41749 32.9166 8.41749H38.9947L32.2305 1.58594Z" fill="white"/>
      <path d="M9.64314 22.2969H7.92578V26.4724H9.64314C10.7965 26.4724 11.7309 25.538 11.7309 24.3846C11.7309 23.2313 10.7965 22.2969 9.64314 22.2969Z" fill="white"/>
      <path d="M38.8889 10.2494H32.1752C31.1524 10.2494 30.3274 9.42022 30.3274 8.40159V2.06251C30.3274 0.926027 29.4056 0 28.2649 0H2.06251C0.921818 0 0 0.921818 0 2.06251V51.9375C0 53.074 0.921818 54 2.06251 54H38.5185C39.655 54 40.581 53.0782 40.581 51.9375V11.9415C40.5768 11.0071 39.8192 10.2494 38.8889 10.2494ZM14.3197 24.6744C14.3197 26.8927 12.5224 28.69 10.3042 28.69H7.92595V33.7621H5.49723V28.69V20.2379H7.92595H10.3042C12.5224 20.2379 14.3197 22.0352 14.3197 24.2535V24.6744ZM26.1266 28.3322C26.1266 31.3292 23.6979 33.7621 20.6967 33.7621H16.1928V20.2379H20.6967C23.6937 20.2379 26.1266 22.6666 26.1266 25.6678V28.3322ZM35.9299 22.4014H30.8283V25.7562H35.9256V27.9492H30.8283V33.7621H28.2649V20.2379H28.8457H30.8283H35.9256V22.4014H35.9299Z" fill="white"/>
      <path d="M19.812 22.2969H18.625V31.5445H19.812C21.8998 31.5445 23.5877 29.8524 23.5877 27.7689V26.0767C23.5919 23.989 21.8998 22.2969 19.812 22.2969Z" fill="white"/>
    </g>
    <defs>
      <clipPath id="clip0_955_31163">
        <rect width="40.5768" height="54" fill="white"/>
      </clipPath>
    </defs>
  </svg>