<svg width="80" height="80" viewBox="0 0 80 80" fill="none" xmlns="http://www.w3.org/2000/svg">
    <path d="M66.6421 63.1758H47.6612C45.8093 63.1758 44.3031 64.7058 44.3031 66.587C44.3031 68.4718 45.8093 69.9983 47.6612 69.9983H66.6421C68.494 69.9983 70.0002 68.4718 70.0002 66.587C70.0002 64.7058 68.494 63.1758 66.6421 63.1758Z" fill="#D12C1E"/>
    <path d="M34.3634 23.0114L52.3496 37.545C52.7835 37.8926 52.8576 38.5304 52.5189 38.9747L31.1958 66.7592C29.8554 68.4756 27.8801 69.4466 25.7636 69.4825L14.1232 69.6258C13.5024 69.6329 12.9592 69.203 12.8181 68.5866L10.1725 57.0844C9.71395 54.9703 10.1725 52.7845 11.5129 51.1004L32.9419 23.1834C33.2876 22.7355 33.926 22.6566 34.3634 23.0114Z" fill="#000B7C"/>
    <path d="M60.4031 28.8848L56.9357 33.2134C56.5865 33.6541 55.9586 33.7258 55.5247 33.3746C51.3095 29.9634 40.5157 21.2095 37.5209 18.7836C37.0835 18.4253 37.0235 17.7875 37.3763 17.3432L40.7203 13.1902C43.7538 9.28446 49.0449 8.92613 53.3131 12.3302L58.2162 16.2359C60.2268 17.8126 61.5672 19.8909 62.0257 22.0766C62.5548 24.481 61.9905 26.8423 60.4031 28.8848Z" fill="#D12C1E"/>
    </svg>
    