<svg xmlns="http://www.w3.org/2000/svg" width="185" height="154" viewBox="0 0 185 154" fill="none">
    <path d="M85.7861 0V40.5263C85.7861 52.8343 83.5286 65.9678 79.0135 79.9269C74.649 93.7359 68.1774 107.17 59.5988 120.228C51.1707 133.136 40.9365 144.394 28.8964 154L0 130.585C9.48163 117.076 17.684 103.042 24.6071 88.4825C28.29 80.8237 31.0142 72.9005 32.7796 64.7128H9.00443V0H85.7861Z" fill="#F0F4FD"/>
    <path d="M185 0V40.5263C185 52.8343 182.742 65.9678 178.227 79.9269C173.863 93.7359 167.391 107.17 158.813 120.228C150.385 133.136 140.15 144.394 128.11 154L99.2139 130.585C108.695 117.076 116.898 103.042 123.821 88.4825C127.504 80.8237 130.228 72.9005 131.993 64.7128H108.053V0H185Z" fill="#F0F4FD"/>
  </svg>