<svg xmlns="http://www.w3.org/2000/svg" width="81" height="80" viewBox="0 0 81 80" fill="none">
    <path fill-rule="evenodd" clip-rule="evenodd" d="M63.3968 7.7452L67.7701 23.8877L51.5077 19.4403L55.673 15.3421C51.4478 12.9368 46.556 11.5577 41.3398 11.5577C25.3419 11.5577 12.3736 24.5261 12.3736 40.5239C12.3736 56.5218 25.3419 69.4901 41.3398 69.4901C50.6683 69.4901 58.9671 65.078 64.2644 58.2288L68.9164 59.502C62.8784 68.2593 52.7809 74.001 41.3398 74.001C22.8519 73.9975 7.86621 59.0118 7.86621 40.5204C7.86621 22.0326 22.8519 7.04688 41.3398 7.04688C47.8186 7.04688 53.8672 8.8879 58.9917 12.0762L63.3968 7.7452Z" fill="#000B7C" stroke="#000B7C" stroke-width="3.375"/>
    <path fill-rule="evenodd" clip-rule="evenodd" d="M20.6667 34.9771L23.5158 36.8416L25.0891 35.3762C27.4475 33.178 30.3031 36.4098 28.262 38.549L21.4649 45.8826L20.9644 46.3831V49.1798H33.2699V45.6275H26.4924C28.4812 43.5439 32.1022 39.7757 32.4914 38.3037C34.2414 31.6341 24.8569 28.7295 20.6667 34.9771Z" fill="#D12C1E"/>
    <path fill-rule="evenodd" clip-rule="evenodd" d="M50.4098 52.3139L46.7822 52.2779L57.3934 29.1094L60.8247 29.1454L50.4098 52.3139Z" fill="#D12C1E"/>
    <path fill-rule="evenodd" clip-rule="evenodd" d="M38.5655 41.5274L44.4337 31.6719L40.2239 31.6882L34.3819 41.5241L34.3884 41.5274H34.3721V45.1255H41.2641V48.9853H44.8622V45.1255H46.8542V41.5274H44.8622V38.5802H41.2641V41.5274H38.5655Z" fill="#D12C1E"/>
    <path fill-rule="evenodd" clip-rule="evenodd" d="M60.877 32.0234H73.6666V34.686L66.4573 49.5331H62.2442L69.0937 35.1571H64.5372V37.1393H60.877V32.0234Z" fill="#D12C1E"/>
  </svg>