<svg xmlns="http://www.w3.org/2000/svg" width="60" height="60" viewBox="0 0 60 60" fill="none">
    <path d="M45 5H27.075C25.75 5 24.475 5.525 23.525 6.475L11.5 18.55C10.575 19.475 10 20.75 10 22.05V50C10 52.75 12.25 55 15 55H45C47.75 55 50 52.75 50 50V10C50 7.25 47.75 5 45 5ZM27.5 20C26.125 20 25 18.875 25 17.5V12.5C25 11.125 26.125 10 27.5 10C28.875 10 30 11.125 30 12.5V17.5C30 18.875 28.875 20 27.5 20ZM35 20C33.625 20 32.5 18.875 32.5 17.5V12.5C32.5 11.125 33.625 10 35 10C36.375 10 37.5 11.125 37.5 12.5V17.5C37.5 18.875 36.375 20 35 20ZM42.5 20C41.125 20 40 18.875 40 17.5V12.5C40 11.125 41.125 10 42.5 10C43.875 10 45 11.125 45 12.5V17.5C45 18.875 43.875 20 42.5 20Z" fill="#000B7C"/>
  </svg>