<svg xmlns="http://www.w3.org/2000/svg" width="60" height="60" viewBox="0 0 60 60" fill="none">
    <path fill-rule="evenodd" clip-rule="evenodd" d="M12.5 5H47.5C48.163 5 48.7989 5.26339 49.2678 5.73223C49.7366 6.20107 50 6.83696 50 7.5V52.5C50 53.163 49.7366 53.7989 49.2678 54.2678C48.7989 54.7366 48.163 55 47.5 55H12.5C11.837 55 11.2011 54.7366 10.7322 54.2678C10.2634 53.7989 10 53.163 10 52.5V7.5C10 6.83696 10.2634 6.20107 10.7322 5.73223C11.2011 5.26339 11.837 5 12.5 5ZM21.25 35.5C20.1454 35.5 19.25 36.3954 19.25 37.5C19.25 38.6046 20.1454 39.5 21.25 39.5H38.75C39.8546 39.5 40.75 38.6046 40.75 37.5C40.75 36.3954 39.8546 35.5 38.75 35.5H21.25ZM21.25 43C20.1454 43 19.25 43.8954 19.25 45C19.25 46.1046 20.1454 47 21.25 47H30C31.1046 47 32 46.1046 32 45C32 43.8954 31.1046 43 30 43H21.25Z" fill="#000B7C"/>
    <path d="M37.5 16.25L27.5 26.25L22.5 21.25" stroke="#F15446" stroke-width="4" stroke-linecap="round" stroke-linejoin="round"/>
  </svg>