<svg xmlns="http://www.w3.org/2000/svg" width="60" height="60" viewBox="0 0 60 60" fill="none">
    <path fill-rule="evenodd" clip-rule="evenodd" d="M15.1921 25.047H44.8072C45.1511 25.047 45.409 25.3112 45.409 25.6634V34.3366C45.409 34.6888 45.1511 34.953 44.8072 34.953H15.1921C14.8482 34.953 14.5903 34.6448 14.5903 34.3366V25.6634C14.5903 25.3112 14.8482 25.047 15.1921 25.047ZM16.4386 27.6005C16.4386 27.1162 16.8254 26.72 17.2982 26.72C17.7711 26.72 18.1579 27.1162 18.1579 27.6005C18.1579 28.0848 17.7711 28.4811 17.2982 28.4811C16.8254 28.4811 16.4386 28.0848 16.4386 27.6005ZM20.6079 26.72C20.1351 26.72 19.7483 27.1162 19.7483 27.6005C19.7483 28.0848 20.1351 28.4811 20.6079 28.4811C21.0807 28.4811 21.4676 28.0848 21.4676 27.6005C21.5106 27.1162 21.0807 26.72 20.6079 26.72ZM23.0579 27.6005C23.0579 27.1162 23.4448 26.72 23.9176 26.72C24.4334 26.72 24.8202 27.1162 24.7772 27.6005C24.7772 28.0848 24.3904 28.4811 23.9176 28.4811C23.4448 28.4811 23.0579 28.0848 23.0579 27.6005ZM27.2702 26.72C26.7974 26.72 26.4106 27.1162 26.4106 27.6005C26.4106 28.0848 26.7974 28.4811 27.2702 28.4811C27.7431 28.4811 28.1299 28.0848 28.1299 27.6005C28.1299 27.1162 27.7431 26.72 27.2702 26.72ZM18.1149 30.022C18.1149 29.5377 18.5018 29.1415 18.9746 29.1415C19.4474 29.1415 19.8342 29.5377 19.8342 30.022C19.8342 30.5063 19.4474 30.9025 18.9746 30.9025C18.5018 30.9025 18.1149 30.5063 18.1149 30.022ZM22.2842 29.1415C21.8114 29.1415 21.4246 29.5377 21.4246 30.022C21.4246 30.5063 21.8114 30.9025 22.2842 30.9025C22.7571 30.9025 23.1439 30.5063 23.1439 30.022C23.1439 29.5377 22.7571 29.1415 22.2842 29.1415ZM24.7343 30.022C24.7343 29.5377 25.1211 29.1415 25.5939 29.1415C26.1097 29.1415 26.4966 29.5377 26.4536 30.022C26.4536 30.5063 26.0667 30.9025 25.5939 30.9025C25.1211 30.9025 24.7343 30.5063 24.7343 30.022ZM28.9466 29.1415C28.4738 29.1415 28.0869 29.5377 28.0869 30.022C28.0869 30.5063 28.4738 30.9025 28.9466 30.9025C29.4194 30.9025 29.8062 30.5063 29.8062 30.022C29.8062 29.5377 29.4194 29.1415 28.9466 29.1415ZM26.4106 32.4435C26.4106 31.9592 26.7974 31.5629 27.2702 31.5629C27.7431 31.5629 28.1299 31.9592 28.1299 32.4435C28.1299 32.9278 27.7431 33.324 27.2702 33.324C26.7974 33.324 26.4106 32.9278 26.4106 32.4435ZM23.9176 31.5629C23.4448 31.5629 23.0579 31.9592 23.0579 32.4435C23.0579 32.9278 23.4448 33.324 23.9176 33.324C24.3904 33.324 24.7772 32.9278 24.7772 32.4435C24.8202 31.9592 24.4334 31.5629 23.9176 31.5629ZM19.7483 32.4435C19.7483 31.9592 20.1351 31.5629 20.6079 31.5629C21.0807 31.5629 21.5106 31.9592 21.4676 32.4435C21.4676 32.9278 21.0807 33.324 20.6079 33.324C20.1351 33.324 19.7483 32.9278 19.7483 32.4435ZM17.2982 31.5629C16.8254 31.5629 16.4386 31.9592 16.4386 32.4435C16.4386 32.9278 16.8254 33.324 17.2982 33.324C17.7711 33.324 18.1579 32.9278 18.1579 32.4435C18.1579 31.9592 17.7711 31.5629 17.2982 31.5629ZM39.7782 28.7893C39.7782 28.6132 39.9072 28.4811 40.0791 28.4811H42.4002C42.5721 28.4811 42.701 28.6132 42.701 28.7893V31.1667C42.701 31.3428 42.5721 31.4749 42.4002 31.4749H40.0791C39.9072 31.4749 39.7782 31.3428 39.7782 31.1667V28.7893Z" fill="#D12C1E"/>
    <path d="M49.2364 18.7047L46.1357 7.2594L43.0124 10.3301C39.379 8.0696 35.0905 6.76428 30.4969 6.76428C17.3887 6.76428 6.76367 17.3893 6.76367 30.4975L9.95944 30.5C9.95944 19.1573 19.1542 9.96255 30.4969 9.96255C34.1953 9.96255 37.6636 10.9403 40.6594 12.6457L37.7061 15.5514L49.2364 18.7047Z" fill="#000B7C" stroke="#000B7C"/>
    <path d="M10.7636 41.2953L13.8643 52.7406L16.9876 49.6699C20.621 51.9304 24.9095 53.2357 29.5031 53.2357C42.6113 53.2357 53.2363 42.6107 53.2363 29.5025L50.0406 29.5C50.0406 40.8427 40.8458 50.0374 29.5031 50.0374C25.8047 50.0374 22.3364 49.0597 19.3406 47.3543L22.2939 44.4486L10.7636 41.2953Z" fill="#000B7C" stroke="#000B7C"/>
  </svg>