<svg xmlns="http://www.w3.org/2000/svg" width="81" height="80" viewBox="0 0 81 80" fill="none">
<path fill-rule="evenodd" clip-rule="evenodd" d="M8.42466 5.83984H72.0018C72.74 5.83984 73.2937 6.39349 73.2937 7.13169V25.2175C73.2937 25.9557 72.74 26.5093 72.0018 26.5093H8.42466C7.68646 26.5093 7.13281 25.9557 7.13281 25.2175V7.13169C7.13281 6.39349 7.68646 5.83984 8.42466 5.83984ZM16.5448 14.4214C15.5298 14.4214 14.6993 15.2518 14.6993 16.2669C14.6993 17.2819 15.5298 18.1124 16.5448 18.1124C17.5598 18.1124 18.3903 17.2819 18.3903 16.2669C18.3903 15.2518 17.5598 14.4214 16.5448 14.4214ZM23.65 14.4214C22.6349 14.4214 21.8045 15.2518 21.8045 16.2669C21.8045 17.2819 22.6349 18.1124 23.65 18.1124C24.665 18.1124 25.4955 17.2819 25.4955 16.2669C25.4955 15.2518 24.665 14.4214 23.65 14.4214ZM30.7551 14.4214C29.7401 14.4214 28.9096 15.2518 28.9096 16.2669C28.9096 17.2819 29.7401 18.1124 30.7551 18.1124C31.7701 18.1124 32.6006 17.2819 32.6006 16.2669C32.6929 15.2518 31.8624 14.4214 30.7551 14.4214ZM37.9525 14.4214C36.9375 14.4214 36.107 15.2518 36.107 16.2669C36.107 17.2819 36.9375 18.1124 37.9525 18.1124C38.9675 18.1124 39.798 17.2819 39.798 16.2669C39.798 15.2518 38.9675 14.4214 37.9525 14.4214ZM12.9461 19.4965C11.9311 19.4965 11.1006 20.3269 11.1006 21.342C11.1006 22.357 11.9311 23.1875 12.9461 23.1875C13.9611 23.1875 14.7916 22.357 14.7916 21.342C14.7916 20.3269 13.9611 19.4965 12.9461 19.4965ZM20.0513 19.4965C19.0362 19.4965 18.2058 20.3269 18.2058 21.342C18.2058 22.357 19.0362 23.1875 20.0513 23.1875C21.0663 23.1875 21.8967 22.357 21.8967 21.342C21.989 20.3269 21.0663 19.4965 20.0513 19.4965ZM27.1564 19.4965C26.1414 19.4965 25.3109 20.3269 25.3109 21.342C25.3109 22.357 26.1414 23.1875 27.1564 23.1875C28.1714 23.1875 29.0019 22.357 29.0019 21.342C29.0942 20.3269 28.2637 19.4965 27.1564 19.4965ZM34.3538 19.4965C33.3388 19.4965 32.5083 20.3269 32.5083 21.342C32.5083 22.357 33.3388 23.1875 34.3538 23.1875C35.3688 23.1875 36.1993 22.357 36.1993 21.342C36.1993 20.3269 35.3688 19.4965 34.3538 19.4965ZM12.9461 9.34628C11.9311 9.34628 11.1006 10.1767 11.1006 11.1918C11.1006 12.2068 11.9311 13.0373 12.9461 13.0373C13.9611 13.0373 14.7916 12.2068 14.7916 11.1918C14.7916 10.1767 13.9611 9.34628 12.9461 9.34628ZM20.0513 9.34628C19.0362 9.34628 18.2058 10.1767 18.2058 11.1918C18.2058 12.2068 19.0362 13.0373 20.0513 13.0373C21.0663 13.0373 21.8967 12.2068 21.8967 11.1918C21.989 10.1767 21.0663 9.34628 20.0513 9.34628ZM27.1564 9.34628C26.1414 9.34628 25.3109 10.1767 25.3109 11.1918C25.3109 12.2068 26.1414 13.0373 27.1564 13.0373C28.1714 13.0373 29.0019 12.2068 29.0019 11.1918C29.0942 10.1767 28.2637 9.34628 27.1564 9.34628ZM34.3538 9.34628C33.3388 9.34628 32.5083 10.1767 32.5083 11.1918C32.5083 12.2068 33.3388 13.0373 34.3538 13.0373C35.3688 13.0373 36.1993 12.2068 36.1993 11.1918C36.1993 10.1767 35.3688 9.34628 34.3538 9.34628ZM61.8516 13.0373C61.4825 13.0373 61.2057 13.3141 61.2057 13.6832V18.666C61.2057 19.0351 61.4825 19.3119 61.8516 19.3119H66.8345C67.2036 19.3119 67.4804 19.0351 67.4804 18.666V13.6832C67.4804 13.3141 67.2036 13.0373 66.8345 13.0373H61.8516ZM8.42466 53.6381H72.0018C72.74 53.6381 73.2937 54.1917 73.2937 54.9299V73.108C73.2937 73.8462 72.74 74.3998 72.0018 74.3998H8.42466C7.68646 74.3998 7.13281 73.8462 7.13281 73.108V54.9299C7.13281 54.284 7.68646 53.6381 8.42466 53.6381ZM16.5448 62.2196C15.5298 62.2196 14.6993 63.0501 14.6993 64.0651C14.6993 65.0801 15.5298 65.9106 16.5448 65.9106C17.5598 65.9106 18.3903 65.0801 18.3903 64.0651C18.3903 63.0501 17.5598 62.2196 16.5448 62.2196ZM23.65 62.2196C22.6349 62.2196 21.8045 63.0501 21.8045 64.0651C21.8045 65.0801 22.6349 65.9106 23.65 65.9106C24.665 65.9106 25.4955 65.0801 25.4955 64.0651C25.4955 63.0501 24.665 62.2196 23.65 62.2196ZM30.7551 62.2196C29.7401 62.2196 28.9096 63.0501 28.9096 64.0651C28.9096 65.0801 29.7401 65.9106 30.7551 65.9106C31.7701 65.9106 32.6006 65.0801 32.6006 64.0651C32.6929 63.0501 31.8624 62.2196 30.7551 62.2196ZM37.9525 62.2196C36.9375 62.2196 36.107 63.0501 36.107 64.0651C36.107 65.0801 36.9375 65.9106 37.9525 65.9106C38.9675 65.9106 39.798 65.0801 39.798 64.0651C39.798 63.0501 38.9675 62.2196 37.9525 62.2196ZM12.9461 67.2947C11.9311 67.2947 11.1006 68.1252 11.1006 69.1402C11.1006 70.1552 11.9311 70.9857 12.9461 70.9857C13.9611 70.9857 14.7916 70.1552 14.7916 69.1402C14.7916 68.2174 13.9611 67.2947 12.9461 67.2947ZM20.0513 67.2947C19.0362 67.2947 18.2058 68.1252 18.2058 69.1402C18.2058 70.1552 19.0362 70.9857 20.0513 70.9857C21.0663 70.9857 21.8967 70.1552 21.8967 69.1402C21.989 68.2174 21.0663 67.2947 20.0513 67.2947ZM27.1564 67.2947C26.1414 67.2947 25.3109 68.1252 25.3109 69.1402C25.3109 70.1552 26.1414 70.9857 27.1564 70.9857C28.1714 70.9857 29.0019 70.1552 29.0019 69.1402C29.0942 68.2174 28.2637 67.2947 27.1564 67.2947ZM34.3538 67.2947C33.3388 67.2947 32.5083 68.1252 32.5083 69.1402C32.5083 70.1552 33.3388 70.9857 34.3538 70.9857C35.3688 70.9857 36.1993 70.1552 36.1993 69.1402C36.1993 68.2174 35.3688 67.2947 34.3538 67.2947ZM12.9461 57.1445C11.9311 57.1445 11.1006 57.975 11.1006 58.99C11.1006 60.005 11.9311 60.8355 12.9461 60.8355C13.9611 60.8355 14.7916 60.005 14.7916 58.99C14.7916 57.975 13.9611 57.1445 12.9461 57.1445ZM20.0513 57.1445C19.0362 57.1445 18.2058 57.975 18.2058 58.99C18.2058 60.005 19.0362 60.8355 20.0513 60.8355C21.0663 60.8355 21.8967 60.005 21.8967 58.99C21.989 57.975 21.0663 57.1445 20.0513 57.1445ZM27.1564 57.1445C26.1414 57.1445 25.3109 57.975 25.3109 58.99C25.3109 60.005 26.1414 60.8355 27.1564 60.8355C28.1714 60.8355 29.0019 60.005 29.0019 58.99C29.0942 57.975 28.2637 57.1445 27.1564 57.1445ZM34.3538 57.1445C33.3388 57.1445 32.5083 57.975 32.5083 58.99C32.5083 60.005 33.3388 60.8355 34.3538 60.8355C35.3688 60.8355 36.1993 60.005 36.1993 58.99C36.1993 57.975 35.3688 57.1445 34.3538 57.1445ZM61.8516 60.9278C61.4825 60.9278 61.2057 61.2046 61.2057 61.5737V66.5565C61.2057 66.9256 61.4825 67.2024 61.8516 67.2024H66.8345C67.2036 67.2024 67.4804 66.9256 67.4804 66.5565V61.5737C67.4804 61.2046 67.2036 60.9278 66.8345 60.9278H61.8516Z" fill="#000B7C"/>
<path fill-rule="evenodd" clip-rule="evenodd" d="M8.42466 29.7383H72.0018C72.74 29.7383 73.2937 30.2919 73.2937 31.0301V49.2082C73.2937 49.9464 72.74 50.5001 72.0018 50.5001H8.42466C7.68646 50.5001 7.13281 49.8541 7.13281 49.2082V31.0301C7.13281 30.2919 7.68646 29.7383 8.42466 29.7383ZM11.1006 35.0902C11.1006 34.0752 11.9311 33.2447 12.9461 33.2447C13.9611 33.2447 14.7916 34.0752 14.7916 35.0902C14.7916 36.1052 13.9611 36.9357 12.9461 36.9357C11.9311 36.9357 11.1006 36.1052 11.1006 35.0902ZM20.0513 33.2447C19.0362 33.2447 18.2058 34.0752 18.2058 35.0902C18.2058 36.1052 19.0362 36.9357 20.0513 36.9357C21.0663 36.9357 21.8967 36.1052 21.8967 35.0902C21.989 34.0752 21.0663 33.2447 20.0513 33.2447ZM25.3109 35.0902C25.3109 34.0752 26.1414 33.2447 27.1564 33.2447C28.2637 33.2447 29.0942 34.0752 29.0019 35.0902C29.0019 36.1052 28.1714 36.9357 27.1564 36.9357C26.1414 36.9357 25.3109 36.1052 25.3109 35.0902ZM34.3538 33.2447C33.3388 33.2447 32.5083 34.0752 32.5083 35.0902C32.5083 36.1052 33.3388 36.9357 34.3538 36.9357C35.3688 36.9357 36.1993 36.1052 36.1993 35.0902C36.1993 34.0752 35.3688 33.2447 34.3538 33.2447ZM14.6993 40.1653C14.6993 39.1503 15.5298 38.3198 16.5448 38.3198C17.5598 38.3198 18.3903 39.1503 18.3903 40.1653C18.3903 41.1803 17.5598 42.0108 16.5448 42.0108C15.5298 42.0108 14.6993 41.1803 14.6993 40.1653ZM23.65 38.3198C22.6349 38.3198 21.8045 39.1503 21.8045 40.1653C21.8045 41.1803 22.6349 42.0108 23.65 42.0108C24.665 42.0108 25.4955 41.1803 25.4955 40.1653C25.4955 39.1503 24.665 38.3198 23.65 38.3198ZM28.9096 40.1653C28.9096 39.1503 29.7401 38.3198 30.7551 38.3198C31.8624 38.3198 32.6929 39.1503 32.6006 40.1653C32.6006 41.1803 31.7701 42.0108 30.7551 42.0108C29.7401 42.0108 28.9096 41.1803 28.9096 40.1653ZM37.9525 38.3198C36.9375 38.3198 36.107 39.1503 36.107 40.1653C36.107 41.1803 36.9375 42.0108 37.9525 42.0108C38.9675 42.0108 39.798 41.1803 39.798 40.1653C39.798 39.1503 38.9675 38.3198 37.9525 38.3198ZM32.5083 45.2404C32.5083 44.2254 33.3388 43.3949 34.3538 43.3949C35.3688 43.3949 36.1993 44.2254 36.1993 45.2404C36.1993 46.2554 35.3688 47.0859 34.3538 47.0859C33.3388 47.0859 32.5083 46.2554 32.5083 45.2404ZM27.1564 43.3949C26.1414 43.3949 25.3109 44.2254 25.3109 45.2404C25.3109 46.2554 26.1414 47.0859 27.1564 47.0859C28.1714 47.0859 29.0019 46.2554 29.0019 45.2404C29.0942 44.2254 28.2637 43.3949 27.1564 43.3949ZM18.2058 45.2404C18.2058 44.2254 19.0362 43.3949 20.0513 43.3949C21.0663 43.3949 21.989 44.2254 21.8967 45.2404C21.8967 46.2554 21.0663 47.0859 20.0513 47.0859C19.0362 47.0859 18.2058 46.2554 18.2058 45.2404ZM12.9461 43.3949C11.9311 43.3949 11.1006 44.2254 11.1006 45.2404C11.1006 46.2554 11.9311 47.0859 12.9461 47.0859C13.9611 47.0859 14.7916 46.2554 14.7916 45.2404C14.7916 44.2254 13.9611 43.3949 12.9461 43.3949ZM61.2057 37.5816C61.2057 37.2125 61.4825 36.9357 61.8516 36.9357H66.8345C67.2036 36.9357 67.4804 37.2125 67.4804 37.5816V42.5644C67.4804 42.9335 67.2036 43.2104 66.8345 43.2104H61.8516C61.4825 43.2104 61.2057 42.9335 61.2057 42.5644V37.5816Z" fill="#D12C1E"/>
</svg>