<svg width="80" height="80" fill="none" xmlns="http://www.w3.org/2000/svg"><circle cx="40" cy="40" r="8" fill="#E20000"/><path fill-rule="evenodd" clip-rule="evenodd" d="M46.069 6.6A2.438 2.438 0 0 0 43.773 5h-7.329a2.436 2.436 0 0 0-2.296 1.606l-2.31 6.444c-1.207.43-2.166.83-2.884 1.21-.602.32-1.267.715-2.002 1.205L20.31 12.72a2.457 2.457 0 0 0-2.625.483l-4.914 4.64a2.39 2.39 0 0 0-.525 2.766l2.849 6.02a31.48 31.48 0 0 0-1.099 2.492c-.235.633-.5 1.501-.805 2.618l-6.573 3.157a2.408 2.408 0 0 0-1.372 2.079l-.245 6.723a2.415 2.415 0 0 0 1.715 2.39l6.265 1.908c.322.956.672 1.903 1.05 2.838.324.765.677 1.517 1.057 2.254l-2.86 6.23a2.39 2.39 0 0 0 .543 2.74l4.92 4.617a2.458 2.458 0 0 0 2.643.466l6.65-2.842c.71.366 1.43.708 2.163 1.025.896.364 1.801.703 2.716 1.015l2.68 7.095a2.44 2.44 0 0 0 2.342 1.564l6.65-.15a2.437 2.437 0 0 0 2.24-1.6l2.275-6.3 2.562-.959c.97-.37 1.917-.798 2.835-1.284l5.865 3.108a2.46 2.46 0 0 0 2.786-.336l5.691-5.082a2.39 2.39 0 0 0 .588-2.776l-2.992-6.615c.39-.886.738-1.79 1.043-2.709.189-.594.367-1.298.539-2.12l5.956-2.118a2.415 2.415 0 0 0 1.61-2.117l.462-7.263a2.405 2.405 0 0 0-1.466-2.359l-6.29-2.695a45.646 45.646 0 0 0-1.091-2.66 37.712 37.712 0 0 0-1.078-2.114l2.698-6.324a2.39 2.39 0 0 0-.483-2.604l-5.06-5.233a2.457 2.457 0 0 0-2.913-.458l-5.753 3.045c-1.12-.522-2.027-.903-2.73-1.155a24.184 24.184 0 0 0-2.29-.672l-2.47-6.85ZM40 55c8.284 0 15-6.716 15-15 0-8.284-6.716-15-15-15-8.284 0-15 6.716-15 15 0 8.284 6.716 15 15 15Z" fill="#050081"/></svg>