<svg width="49" height="62" viewBox="0 0 49 62" fill="none" xmlns="http://www.w3.org/2000/svg">
<g clip-path="url(#clip0_2003_81126)">
<path d="M43.3734 32.4538C43.3772 35.3391 42.6847 38.1827 41.3547 40.743C40.0248 43.3034 38.0968 45.5049 35.7343 47.1606L24.5998 54.9485L13.4653 47.1339C11.1028 45.4782 9.17475 43.2767 7.84483 40.7163C6.51491 38.1559 5.82242 35.3123 5.82619 32.427V14.6785C11.5654 14.5119 17.1171 12.5971 21.7393 9.19019L24.5931 7.10449L27.0392 8.95622C31.7611 12.5077 37.468 14.5069 43.3734 14.6785V32.4538Z" fill="#000B7C"/>
<path d="M19.7995 18.9333C18.6527 19.5299 17.69 20.4353 17.0172 21.5502C16.3247 22.741 15.973 24.1039 16.0016 25.486H19.4795C19.4607 24.6851 19.6401 23.8921 20.0012 23.1795C20.3343 22.5173 20.8584 21.9735 21.5037 21.6207C22.2041 21.2467 22.9869 21.0598 23.7782 21.0776C24.5471 21.0651 25.3086 21.2316 26.0041 21.5643C26.6592 21.8771 27.2094 22.3781 27.5865 23.005C27.9636 23.6318 28.1511 24.3572 28.1256 25.091C28.1298 25.7958 27.9851 26.4932 27.7013 27.1366C27.3595 27.8682 26.9245 28.5511 26.4075 29.168C25.8371 29.8733 25.1137 30.6986 24.2304 31.6438L16.0016 40.2985V43H32V39.8047H21.0585V39.6284L25.9276 34.4934C27.1542 33.2591 28.3151 31.9594 29.4055 30.5999C30.1225 29.715 30.7126 28.7319 31.1583 27.6797C31.4881 26.8256 31.658 25.9166 31.6592 24.9993C31.6777 23.7355 31.3346 22.4934 30.6714 21.4232C29.9987 20.3546 29.0544 19.4896 27.9378 18.9192C26.6835 18.2871 25.2968 17.9725 23.8965 18.0022C22.4765 17.97 21.0701 18.2896 19.7995 18.9333Z" fill="#FFFFFF"/>
<path d="M47.4835 9.8589C40.697 9.85312 34.0955 7.64584 28.6698 3.56838L24.6063 0.5L20.0616 3.84247C14.7113 7.77334 8.24063 9.88231 1.60212 9.8589H0.599609V32.6946C0.600765 36.3934 1.49232 40.0374 3.19889 43.3187C4.90546 46.6 7.37686 49.422 10.4041 51.5461L24.5996 61.5L38.7951 51.5461C41.8224 49.422 44.2938 46.6 46.0003 43.3187C47.7069 40.0374 48.5985 36.3934 48.5996 32.6946V9.8589H47.4835ZM46.5946 32.6946C46.5938 36.0707 45.7801 39.397 44.2224 42.392C42.6648 45.3871 40.4089 47.9629 37.6456 49.9016L24.5996 59.0466L11.5537 49.9016C8.79035 47.9629 6.53446 45.3871 4.97678 42.392C3.4191 39.397 2.60544 36.0707 2.60462 32.6946V11.8644C9.3268 11.6763 15.8308 9.43706 21.2446 5.44685L24.5862 2.99348L27.4601 5.17945C32.9926 9.33539 39.6783 11.6712 46.5946 11.8644V32.6946Z" fill="#F15446"/>
</g>
<defs>
<clipPath id="clip0_2003_81126">
<rect width="48" height="61" fill="#000B7C" transform="translate(0.599609 0.5)"/>
</clipPath>
</defs>
</svg>
