<svg width="49" height="61" viewBox="0 0 49 61" fill="none" xmlns="http://www.w3.org/2000/svg">
<g clip-path="url(#clip0_2003_81228)">
<path d="M42.974 31.9538C42.9777 34.8391 42.2853 37.6827 40.9553 40.243C39.6254 42.8034 37.6973 45.0049 35.3349 46.6606L24.2004 54.4485L13.0659 46.6339C10.7034 44.9782 8.77534 42.7767 7.44542 40.2163C6.11549 37.6559 5.42301 34.8123 5.42677 31.927V14.1785C11.166 14.0119 16.7177 12.0971 21.3399 8.69019L24.1937 6.60449L26.6398 8.45622C31.3617 12.0077 37.0686 14.0069 42.974 14.1785V31.9538Z" fill="#000B7C"/>
<path d="M24.0332 42.7831C22.5598 42.8082 21.0998 42.4997 19.7625 41.8806C18.5704 41.3428 17.5402 40.5014 16.7751 39.4406C16.0371 38.3819 15.6301 37.1278 15.6055 35.8374H19.8962C19.927 36.3147 20.0585 36.7801 20.2819 37.2029C20.5054 37.6258 20.8158 37.9965 21.1928 38.2908C22.0005 38.9279 23.0049 39.2635 24.0332 39.2401C24.8435 39.2537 25.6425 39.0482 26.3457 38.6451C27.0181 38.247 27.5701 37.6741 27.943 36.9872C28.3253 36.2307 28.5246 35.3949 28.5246 34.5472C28.5246 33.6996 28.3253 32.8637 27.943 32.1072C27.5606 31.4076 26.9974 30.8235 26.3122 30.416C25.5871 29.9997 24.7621 29.7893 23.9263 29.8076C23.1874 29.7993 22.4541 29.9355 21.7675 30.2087C21.133 30.4431 20.5595 30.8179 20.09 31.305L16.08 30.6366L17.3565 18.0488H31.5186V21.7255H21.019L20.3106 28.2032H20.4576C20.9842 27.6143 21.641 27.1565 22.3757 26.8663C23.2368 26.5062 24.1626 26.3264 25.0959 26.3381C26.4882 26.3224 27.8576 26.6926 29.0524 27.4077C30.2099 28.0962 31.1574 29.0878 31.7926 30.2756C32.4772 31.5577 32.8223 32.9937 32.7951 34.447C32.8264 35.9629 32.4428 37.4585 31.6857 38.7721C30.9452 40.0278 29.875 41.0566 28.5913 41.7469C27.184 42.4724 25.6157 42.829 24.0332 42.7831Z" fill="#FFFFFF"/>
<path d="M47.0841 9.3589C40.2976 9.35312 33.6961 7.14584 28.2704 3.06838L24.2069 0L19.6622 3.34247C14.3119 7.27334 7.84122 9.38231 1.2027 9.3589H0.200195V32.1946C0.201351 35.8934 1.09291 39.5374 2.79947 42.8187C4.50604 46.1 6.97744 48.922 10.0047 51.0461L24.2002 61L38.3957 51.0461C41.423 48.922 43.8944 46.1 45.6009 42.8187C47.3075 39.5374 48.199 35.8934 48.2002 32.1946V9.3589H47.0841ZM46.1952 32.1946C46.1944 35.5707 45.3807 38.897 43.823 41.892C42.2653 44.8871 40.0095 47.4629 37.2461 49.4016L24.2002 58.5466L11.1542 49.4016C8.39094 47.4629 6.13505 44.8871 4.57736 41.892C3.01968 38.897 2.20602 35.5707 2.20521 32.1946V11.3644C8.92739 11.1763 15.4314 8.93706 20.8451 4.94685L24.1868 2.49348L27.0607 4.67945C32.5931 8.83539 39.2789 11.1712 46.1952 11.3644V32.1946Z" fill="#F15446"/>
</g>
<defs>
<clipPath id="clip0_2003_81228">
<rect width="48" height="61" fill="#000B7C" transform="translate(0.200195)"/>
</clipPath>
</defs>
</svg>
