<svg xmlns="http://www.w3.org/2000/svg" width="60" height="60" viewBox="0 0 60 60" fill="none">
    <path d="M7.74374 6H51.1339C53.7549 6 55.8796 8.62099 55.8796 10.7457V20.2375C55.8796 22.8585 53.7549 24.9832 51.1339 24.9832H7.74374C5.12275 24.9832 2.99805 22.3622 2.99805 20.2375V10.7457C2.99805 8.12471 5.12275 6 7.74374 6Z" fill="#D12C1E"/>
    <path d="M7.74477 27.695C7.38156 27.6959 7.01927 27.6687 6.66016 27.6133V49.2543C6.66606 50.511 7.16773 51.715 8.05671 52.6035C8.94519 53.4924 10.1492 53.9941 11.4058 54H47.4751C48.7317 53.9941 49.9358 53.4925 50.8242 52.6035C51.7131 51.715 52.2148 50.511 52.2208 49.2543V27.6133C51.8616 27.6687 51.4993 27.6959 51.1361 27.695H7.74477ZM36.2198 37.4579H22.6599H22.6604C21.9335 37.4579 21.262 37.0702 20.8988 36.4409C20.5356 35.8117 20.5356 35.0362 20.8988 34.407C21.262 33.7777 21.9335 33.39 22.6604 33.39H36.2203H36.2198C36.9467 33.39 37.6181 33.7777 37.9813 34.407C38.3445 35.0362 38.3445 35.8117 37.9813 36.4409C37.6181 37.0702 36.9467 37.4579 36.2198 37.4579Z" fill="white"/>
  </svg>