<svg xmlns="http://www.w3.org/2000/svg" width="81" height="80" viewBox="0 0 81 80" fill="none">
    <path d="M65.4734 70.1613L57.9678 65.9915C56.0218 67.9374 52.686 68.2154 50.74 66.2695C50.1841 65.7135 49.6281 65.1575 49.3501 64.3236L42.9564 64.8795C42.4004 69.3274 38.5085 72.9412 33.7827 72.9412C28.7789 72.9412 24.6091 68.7714 24.6091 63.7676C24.6091 61.8217 25.1651 60.1537 25.999 58.7638L19.0493 50.9801C17.9374 51.5361 16.5474 51.8141 15.1575 51.8141C10.1537 51.8141 6.26184 47.6442 6.26184 42.6404C6.26184 37.6366 10.4317 33.4668 15.4355 33.4668C16.8254 33.4668 18.2154 33.7448 19.3273 34.3008L25.999 26.7951C25.1651 25.4051 24.6091 23.7372 24.6091 21.7913C24.6091 16.7875 28.7789 12.6177 33.7827 12.6177C36.5626 12.6177 38.7865 13.7296 40.4545 15.6755L49.0721 11.5057C48.7941 10.9497 48.5161 10.1158 48.5161 9.28179C48.5161 6.22391 51.018 4 53.7979 4C56.8558 4 59.0797 6.5019 59.0797 9.28179C59.0797 12.3397 56.5778 14.5636 53.7979 14.5636C52.408 14.5636 51.018 14.0076 49.9061 12.8956L41.2884 16.7875C42.1224 18.1774 42.4004 19.5674 42.4004 21.2353C42.4004 23.4592 41.5664 25.4051 40.1765 27.0731L48.7941 30.9649C49.6281 29.297 51.574 27.907 53.5199 27.907C56.5778 27.907 58.8017 30.4089 58.8017 33.1888C58.8017 36.2467 56.2998 38.4706 53.5199 38.4706C50.4621 38.4706 48.2381 35.9687 48.2381 33.1888C48.2381 32.9108 48.2381 32.9108 48.2381 32.6328L38.7865 28.185C37.1186 29.297 35.4507 30.1309 33.2268 30.1309C31.2808 30.1309 29.3349 29.575 27.945 28.463L21.5512 35.6907C23.2192 37.3587 24.0531 39.5826 24.0531 42.0845C24.0531 44.5864 22.9412 46.8103 21.2732 48.4782L27.667 55.7059C29.0569 54.594 31.0028 54.038 32.9488 54.038C37.6746 54.038 41.5664 57.6518 42.1224 62.3776L47.9602 62.0997C47.9602 60.7097 48.2381 59.5977 49.3501 58.4858C51.018 56.2619 54.0759 55.9839 56.2998 57.6518L62.4156 51.2581C60.1917 49.3122 60.1917 45.9763 61.8596 43.7524C63.8055 41.5285 67.1414 41.2505 69.3653 43.1964C71.5892 45.1423 71.8672 48.4782 69.9213 50.7021C68.2533 52.37 66.0294 52.926 63.8055 52.0921L57.4118 58.7638C58.5237 60.1537 58.8017 62.3776 57.9678 64.0456L65.1955 67.9374C66.5854 65.4355 69.6433 64.3236 72.1452 65.7135C74.9251 67.1035 75.759 70.1613 74.6471 72.9412C73.2571 75.7211 70.1993 76.5551 67.4194 75.4431C66.3074 74.6091 65.1955 72.3852 65.4734 70.1613Z" fill="#050081"/>
  </svg>