<svg xmlns="http://www.w3.org/2000/svg" width="32" height="32" viewBox="0 0 32 32" fill="none">
    <path d="M11.7706 2.94934C11.9057 2.85779 12.0611 2.8007 12.2234 2.78304C12.3856 2.76537 12.5497 2.78768 12.7013 2.848C14.0084 3.36639 15.139 4.24953 15.9585 5.39226C16.778 6.535 17.2517 7.88917 17.3234 9.29353C17.395 10.6979 17.0615 12.0932 16.3626 13.3134C15.6637 14.5336 14.6289 15.5273 13.3813 16.176V25.952C13.3813 26.8488 13.025 27.7088 12.3909 28.343C11.7568 28.9771 10.8967 29.3333 9.99994 29.3333C9.10316 29.3333 8.2431 28.9771 7.60898 28.343C6.97486 27.7088 6.61861 26.8488 6.61861 25.952V16.176C5.37101 15.5273 4.33615 14.5336 3.63725 13.3134C2.93835 12.0932 2.60487 10.6979 2.67652 9.29353C2.74817 7.88917 3.22194 6.535 4.04139 5.39226C4.86085 4.24953 5.99147 3.36639 7.29861 2.848C7.45024 2.78799 7.61424 2.76597 7.77632 2.78386C7.93841 2.80176 8.09366 2.85901 8.22855 2.95065C8.36343 3.04228 8.47387 3.16551 8.55022 3.3096C8.62657 3.45369 8.66653 3.61427 8.66661 3.77734V8.66667C8.66661 9.02029 8.80709 9.35943 9.05714 9.60948C9.30718 9.85953 9.64632 10 9.99994 10C10.3536 10 10.6927 9.85953 10.9428 9.60948C11.1928 9.35943 11.3333 9.02029 11.3333 8.66667V3.77734C11.3333 3.61434 11.3731 3.45381 11.4494 3.30973C11.5256 3.16565 11.6359 3.04238 11.7706 2.95067V2.94934Z" fill="#000B7C"/>
    <path d="M21.8094 2.81662C21.6517 2.91434 21.5242 3.05404 21.4413 3.22008L20.1066 5.88675C20.0332 6.03395 19.9972 6.19699 20.0019 6.36142C20.0065 6.52586 20.0517 6.6866 20.1333 6.82942L21.3346 8.93341V16.0001H19.668C19.4028 16.0001 19.1484 16.1054 18.9609 16.293C18.7733 16.4805 18.668 16.7349 18.668 17.0001V19.3334H28.0013V17.0001C28.0013 16.7349 27.8959 16.4805 27.7084 16.293C27.5209 16.1054 27.2665 16.0001 27.0013 16.0001H25.3346V8.93341L26.536 6.82942C26.6174 6.68649 26.6623 6.52569 26.6667 6.36126C26.6711 6.19682 26.6349 6.03384 26.5613 5.88675L25.228 3.22008C25.1451 3.05404 25.0176 2.91434 24.8598 2.81662C24.7021 2.71889 24.5202 2.667 24.3346 2.66675H22.3346C22.1491 2.667 21.9672 2.71889 21.8094 2.81662Z" fill="#D12C1E"/>
    <path d="M18.668 24.6667V21.3334H28.0013V24.6667C28.0013 25.9044 27.5096 27.0914 26.6345 27.9666C25.7593 28.8418 24.5723 29.3334 23.3346 29.3334C22.097 29.3334 20.91 28.8418 20.0348 27.9666C19.1596 27.0914 18.668 25.9044 18.668 24.6667Z" fill="#D12C1E"/>
  </svg>