<svg xmlns="http://www.w3.org/2000/svg" width="80" height="60" viewBox="0 0 80 60" fill="none">
  <path d="M39.8139 39.5234C27.2684 39.5234 16.6831 41.6376 16.6831 49.797C16.6831 57.9598 27.3368 59.9997 39.8139 59.9997C52.3593 59.9997 62.9447 57.8855 62.9447 49.7261C62.9447 41.5633 52.291 39.5234 39.8139 39.5234Z" fill="#000B7C"/>
  <path d="M39.8129 31.7528C48.3078 31.7528 55.1194 24.6876 55.1194 15.8764C55.1194 7.06181 48.3078 0 39.8129 0C31.3179 0 24.5063 7.06181 24.5063 15.8764C24.5063 24.6876 31.3179 31.7528 39.8129 31.7528Z" fill="#000B7C"/>
  <path d="M73.0458 19.5757C75.2437 10.6598 68.8 2.65234 60.5948 2.65234C59.7027 2.65234 58.8496 2.75366 58.016 2.9259C57.9053 2.95292 57.7816 3.01033 57.7165 3.11165C57.6416 3.23998 57.697 3.41222 57.7784 3.52367C60.2432 7.1103 61.6595 11.4771 61.6595 16.1647C61.6595 20.6564 60.3604 24.8442 58.0812 28.3194C57.8467 28.6774 58.0551 29.1603 58.4686 29.2346C59.0417 29.3393 59.6278 29.3933 60.2269 29.4102C66.2017 29.5723 71.5643 25.5838 73.0458 19.5757Z" fill="#D12C1E"/>
  <path d="M79.3062 40.564C78.2121 38.1459 75.5715 36.4877 71.5568 35.6737C69.6618 35.1942 64.5336 34.5187 59.7635 34.6099C59.6919 34.62 59.6528 34.6707 59.6463 34.7045C59.6365 34.7518 59.6561 34.8328 59.7505 34.8835C61.9548 36.0148 70.4758 40.9355 69.4046 51.3138C69.359 51.7629 69.7074 52.1513 70.1405 52.0838C72.2373 51.7731 77.6326 50.5708 79.3062 46.8254C80.2309 44.8463 80.2309 42.5464 79.3062 40.564Z" fill="#D12C1E"/>
  <path d="M21.9808 2.92395C21.1505 2.74833 20.2942 2.65039 19.4021 2.65039C11.1969 2.65039 4.75321 10.6578 6.95428 19.5737C8.43251 25.5819 13.7952 29.5704 19.77 29.4083C20.3691 29.3914 20.9584 29.334 21.5282 29.2327C21.9418 29.1584 22.1501 28.6754 21.9157 28.3174C19.6365 24.8389 18.3373 20.6545 18.3373 16.1627C18.3373 11.4717 19.757 7.10497 22.2218 3.52172C22.2999 3.41027 22.3585 3.23803 22.2804 3.1097C22.2153 3.005 22.0948 2.95097 21.9808 2.92395Z" fill="#D12C1E"/>
  <path d="M8.44206 35.671C4.42738 36.4849 1.79 38.1431 0.695975 40.5612C-0.231992 42.5437 -0.231992 44.8436 0.695975 46.826C2.36957 50.568 7.7648 51.7737 9.86168 52.081C10.2947 52.1485 10.6399 51.7635 10.5943 51.311C9.52306 40.9361 18.0441 36.0154 20.2517 34.8841C20.3428 34.83 20.3624 34.7524 20.3526 34.7017C20.3461 34.6679 20.3103 34.6173 20.2386 34.6105C15.4653 34.5159 10.3403 35.1914 8.44206 35.671Z" fill="#D12C1E"/>
</svg>