<svg xmlns="http://www.w3.org/2000/svg" width="89" height="68" viewBox="0 0 89 68" fill="none">
    <rect x="35.688" y="9.19336" width="53.0487" height="36.9517" rx="5" fill="#D12C1E"/>
    <rect width="56.0488" height="5.38879" rx="2.6944" transform="matrix(1 0 0 -1 32.688 54.8457)" fill="#D12C1E"/>
    <mask id="path-3-outside-1_745_27096" maskUnits="userSpaceOnUse" x="0" y="38.3477" width="58" height="30" fill="black">
      <rect fill="white" y="38.3477" width="58" height="30"/>
      <path d="M28.8546 43.3477C15.9166 43.3477 5 45.3561 5 53.1075C5 60.8622 15.9871 62.8001 28.8546 62.8001C41.7927 62.8001 52.7093 60.7916 52.7093 53.0402C52.7093 45.2855 41.7222 43.3477 28.8546 43.3477Z"/>
    </mask>
    <path d="M28.8546 43.3477C15.9166 43.3477 5 45.3561 5 53.1075C5 60.8622 15.9871 62.8001 28.8546 62.8001C41.7927 62.8001 52.7093 60.7916 52.7093 53.0402C52.7093 45.2855 41.7222 43.3477 28.8546 43.3477Z" fill="#000B7C"/>
    <path d="M28.8546 38.3477C22.2718 38.3477 15.6274 38.8401 10.4726 40.5847C7.86986 41.4656 5.28108 42.7844 3.29865 44.8521C1.19961 47.0415 0 49.8528 0 53.1075H10C10 52.4866 10.165 52.14 10.5171 51.7727C10.9858 51.2838 11.9348 50.647 13.6785 50.0569C17.2165 48.8595 22.4994 48.3477 28.8546 48.3477V38.3477ZM0 53.1075C0 56.3734 1.21194 59.1873 3.32472 61.3706C5.31756 63.4299 7.91556 64.7356 10.5188 65.6045C15.6764 67.3262 22.3154 67.8001 28.8546 67.8001V57.8001C22.5263 57.8001 17.238 57.305 13.6851 56.1191C11.9332 55.5343 10.9802 54.9015 10.5109 54.4165C10.1614 54.0554 10 53.719 10 53.1075H0ZM28.8546 67.8001C35.4374 67.8001 42.0819 67.3076 47.2366 65.563C49.8394 64.6821 52.4282 63.3633 54.4106 61.2956C56.5096 59.1062 57.7093 56.2949 57.7093 53.0402H47.7093C47.7093 53.6612 47.5443 54.0077 47.1922 54.375C46.7234 54.8639 45.7744 55.5007 44.0308 56.0908C40.4928 57.2883 35.2099 57.8001 28.8546 57.8001V67.8001ZM57.7093 53.0402C57.7093 49.7743 56.4973 46.9605 54.3845 44.7772C52.3917 42.7178 49.7937 41.4122 47.1904 40.5432C42.0329 38.8216 35.3938 38.3477 28.8546 38.3477V48.3477C35.1829 48.3477 40.4712 48.8427 44.0241 50.0287C45.7761 50.6135 46.7291 51.2463 47.1984 51.7313C47.5478 52.0923 47.7093 52.4287 47.7093 53.0402H57.7093Z" fill="white" mask="url(#path-3-outside-1_745_27096)"/>
    <mask id="path-5-outside-2_745_27096" maskUnits="userSpaceOnUse" x="8.06836" y="0.800781" width="42" height="41" fill="black">
      <rect fill="white" x="8.06836" y="0.800781" width="42" height="41"/>
      <path d="M28.8539 35.9659C37.6147 35.9659 44.6395 29.254 44.6395 20.8834C44.6395 12.5095 37.6147 5.80078 28.8539 5.80078C20.0931 5.80078 13.0684 12.5095 13.0684 20.8834C13.0684 29.254 20.0931 35.9659 28.8539 35.9659Z"/>
    </mask>
    <path d="M28.8539 35.9659C37.6147 35.9659 44.6395 29.254 44.6395 20.8834C44.6395 12.5095 37.6147 5.80078 28.8539 5.80078C20.0931 5.80078 13.0684 12.5095 13.0684 20.8834C13.0684 29.254 20.0931 35.9659 28.8539 35.9659Z" fill="#000B7C"/>
    <path d="M28.8539 40.9659C40.159 40.9659 49.6395 32.2276 49.6395 20.8834H39.6395C39.6395 26.2804 35.0704 30.9659 28.8539 30.9659V40.9659ZM49.6395 20.8834C49.6395 9.53519 40.1583 0.800781 28.8539 0.800781V10.8008C35.0711 10.8008 39.6395 15.4838 39.6395 20.8834H49.6395ZM28.8539 0.800781C17.5495 0.800781 8.06836 9.53519 8.06836 20.8834H18.0684C18.0684 15.4838 22.6367 10.8008 28.8539 10.8008V0.800781ZM8.06836 20.8834C8.06836 32.2276 17.5488 40.9659 28.8539 40.9659V30.9659C22.6374 30.9659 18.0684 26.2804 18.0684 20.8834H8.06836Z" fill="white" mask="url(#path-5-outside-2_745_27096)"/>
  </svg>