<svg xmlns="http://www.w3.org/2000/svg" width="60" height="60" viewBox="0 0 60 60" fill="none">
    <path d="M54.375 48.75C54.375 49.2473 54.1775 49.7242 53.8258 50.0758C53.4742 50.4275 52.9973 50.625 52.5 50.625H7.5C7.00272 50.625 6.52581 50.4275 6.17417 50.0758C5.82254 49.7242 5.625 49.2473 5.625 48.75C5.625 48.2527 5.82254 47.7758 6.17417 47.4242C6.52581 47.0725 7.00272 46.875 7.5 46.875H52.5C52.9973 46.875 53.4742 47.0725 53.8258 47.4242C54.1775 47.7758 54.375 48.2527 54.375 48.75ZM54.375 13.125V39.375C54.375 40.3696 53.9799 41.3234 53.2766 42.0266C52.5734 42.7299 51.6196 43.125 50.625 43.125H9.375C8.38044 43.125 7.42661 42.7299 6.72335 42.0266C6.02009 41.3234 5.625 40.3696 5.625 39.375V13.125C5.625 12.1304 6.02009 11.1766 6.72335 10.4733C7.42661 9.77009 8.38044 9.375 9.375 9.375H50.625C51.6196 9.375 52.5734 9.77009 53.2766 10.4733C53.9799 11.1766 54.375 12.1304 54.375 13.125ZM38.4375 26.25C38.4374 25.9344 38.3577 25.624 38.2057 25.3474C38.0537 25.0709 37.8343 24.8372 37.568 24.668L27.2555 18.1055C26.972 17.9254 26.6454 17.8247 26.3097 17.814C25.9741 17.8033 25.6417 17.883 25.3474 18.0446C25.053 18.2063 24.8075 18.4441 24.6364 18.7331C24.4654 19.022 24.3751 19.3517 24.375 19.6875V32.8125C24.3751 33.1483 24.4654 33.478 24.6364 33.7669C24.8075 34.0559 25.053 34.2937 25.3474 34.4554C25.6417 34.617 25.9741 34.6967 26.3097 34.686C26.6454 34.6753 26.972 34.5746 27.2555 34.3945L37.568 27.832C37.8343 27.6628 38.0537 27.4291 38.2057 27.1526C38.3577 26.876 38.4374 26.5656 38.4375 26.25Z" fill="#000B7C"/>
  </svg>