<svg xmlns="http://www.w3.org/2000/svg" width="81" height="80" viewBox="0 0 81 80" fill="none">
    <path d="M58.5634 55.4609C53.4524 59.0898 47.3045 61.1312 40.7124 61.1312C34.1203 61.1312 27.9723 59.0143 22.8615 55.4609L16.1209 65.9698C14.1953 68.9936 16.3431 73.0006 19.8245 73.0006H61.452C65.0072 73.0006 67.1555 68.9936 65.2294 65.9698L58.5634 55.4609Z" fill="#000B7C"/>
    <path d="M40.6746 62.6825C55.7311 62.6825 68.0159 50.4145 68.0159 35.3787C68.0159 20.268 55.7311 8 40.6746 8C25.6182 8 13.3334 20.268 13.3334 35.3039C13.3334 50.4145 25.6182 62.6825 40.6746 62.6825ZM40.6746 19.6696C49.2887 19.6696 56.3303 26.7014 56.3303 35.3039C56.3303 43.9067 49.2889 51.0129 40.6746 51.0129C32.0604 51.0129 25.019 43.9811 25.019 35.3039C25.019 26.6269 31.9851 19.6696 40.6746 19.6696Z" fill="#000B7C"/>
    <path d="M40.159 44.1105C45.3175 44.1105 49.4445 39.9836 49.4445 34.8248C49.4445 29.6661 45.3177 25.5391 40.159 25.5391C39.5694 25.5391 38.9798 25.6126 38.4641 25.6866C39.2013 26.5708 39.5694 27.6766 39.5694 28.9294C39.5694 31.877 37.2109 34.2356 34.2633 34.2356C33.0106 34.2356 31.9048 33.7935 31.0206 33.1304C30.9471 33.6465 30.873 34.2356 30.873 34.8253C30.8736 39.91 35.0004 44.1105 40.1589 44.1105L40.159 44.1105Z" fill="#D12C1E"/>
  </svg>