<svg width="61" height="60" viewBox="0 0 61 60" fill="none" xmlns="http://www.w3.org/2000/svg">
    <path d="M49.1051 52.621L43.4758 49.4936C42.0164 50.9531 39.5145 51.1616 38.0551 49.7021C37.6381 49.2851 37.2211 48.8681 37.0126 48.2427L32.2173 48.6597C31.8003 51.9955 28.8814 54.7059 25.3371 54.7059C21.5842 54.7059 18.4569 51.5785 18.4569 47.8257C18.4569 46.3662 18.8738 45.1153 19.4993 44.0728L14.287 38.2351C13.4531 38.6521 12.4106 38.8605 11.3681 38.8605C7.61529 38.8605 4.69641 35.7332 4.69641 31.9803C4.69641 28.2275 7.82379 25.1001 11.5766 25.1001C12.6191 25.1001 13.6615 25.3086 14.4955 25.7256L19.4993 20.0963C18.8738 19.0539 18.4569 17.8029 18.4569 16.3435C18.4569 12.5906 21.5842 9.46324 25.3371 9.46324C27.422 9.46324 29.0899 10.2972 30.3409 11.7566L36.8041 8.62927C36.5956 8.21229 36.3871 7.58681 36.3871 6.96134C36.3871 4.66793 38.2636 3 40.3485 3C42.6419 3 44.3098 4.87642 44.3098 6.96134C44.3098 9.25475 42.4334 10.9227 40.3485 10.9227C39.306 10.9227 38.2636 10.5057 37.4296 9.67173L30.9664 12.5906C31.5918 13.6331 31.8003 14.6755 31.8003 15.9265C31.8003 17.5944 31.1748 19.0539 30.1324 20.3048L36.5956 23.2237C37.2211 21.9727 38.6805 20.9303 40.14 20.9303C42.4334 20.9303 44.1013 22.8067 44.1013 24.8916C44.1013 27.185 42.2249 28.853 40.14 28.853C37.8466 28.853 36.1786 26.9765 36.1786 24.8916C36.1786 24.6831 36.1786 24.6831 36.1786 24.4746L29.0899 21.1388C27.839 21.9727 26.588 22.5982 24.9201 22.5982C23.4607 22.5982 22.0012 22.1812 20.9588 21.3473L16.1634 26.768C17.4144 28.019 18.0399 29.6869 18.0399 31.5633C18.0399 33.4398 17.2059 35.1077 15.955 36.3586L20.7503 41.7794C21.7927 40.9455 23.2522 40.5285 24.7116 40.5285C28.256 40.5285 31.1748 43.2389 31.5918 46.7832L35.9701 46.5747C35.9701 45.5323 36.1786 44.6983 37.0126 43.8643C38.2636 42.1964 40.557 41.9879 42.2249 43.2389L46.8117 38.4436C45.1438 36.9841 45.1438 34.4822 46.3947 32.8143C47.8542 31.1464 50.3561 30.9379 52.024 32.3973C53.6919 33.8568 53.9004 36.3587 52.441 38.0266C51.19 39.2775 49.5221 39.6945 47.8542 39.069L43.0589 44.0728C43.8928 45.1153 44.1013 46.7832 43.4758 48.0342L48.8966 50.9531C49.9391 49.0766 52.2325 48.2427 54.1089 49.2851C56.1938 50.3276 56.8193 52.621 55.9853 54.7059C54.9429 56.7908 52.6495 57.4163 50.5646 56.5823C49.7306 55.9569 48.8966 54.2889 49.1051 52.621Z" fill="white"></path>
  </svg>