<svg width="61" height="60" viewBox="0 0 61 60" fill="none" xmlns="http://www.w3.org/2000/svg">
    <path fill-rule="evenodd" clip-rule="evenodd" d="M2.88272 44.3333C2.30316 44.3333 1.83334 44.8108 1.83334 45.3999V46.9999C1.83334 49.9454 4.18246 52.3333 7.08025 52.3333H53.2531C56.1509 52.3333 58.5 49.9454 58.5 46.9999V45.3999C58.5 44.8108 58.0302 44.3333 57.4506 44.3333H2.88272ZM27.0185 46.9999C26.439 46.9999 25.9691 47.4775 25.9691 48.0666C25.9691 48.6557 26.439 49.1333 27.0185 49.1333H33.3148C33.8944 49.1333 34.3642 48.6557 34.3642 48.0666C34.3642 47.4775 33.8944 46.9999 33.3148 46.9999H27.0185Z" fill="#D12C1E"></path>
    <path d="M3.92155 10.5C3.92155 9.67157 4.59312 9 5.42155 9H54.6304C55.4588 9 56.1304 9.67157 56.1304 10.5V40.9137C56.1304 41.7421 55.4588 42.4137 54.6304 42.4137H5.42155C4.59312 42.4137 3.92155 41.7421 3.92155 40.9137V10.5Z" fill="white"></path>
  </svg>