<svg width="61" height="60" viewBox="0 0 61 60" fill="none" xmlns="http://www.w3.org/2000/svg">
    <path fill-rule="evenodd" clip-rule="evenodd" d="M22.21 42.5886V49.1351H15.9383C14.0055 49.1351 12.4241 50.3987 12.4241 51.9428V53.6698C12.4241 54.2649 12.9098 54.7505 13.5049 54.7505H47.7617C48.3568 54.7505 48.8425 54.2648 48.8425 53.6698V51.9428C48.8425 50.3987 47.2611 49.1351 45.3283 49.1351H39.0562V42.5886H53.3131C55.5796 42.5886 57.4338 40.7344 57.4338 38.4679V10.1212C57.4338 7.85468 55.5796 6.00049 53.3131 6.00049H7.95412C5.68762 6.00049 3.83344 7.85468 3.83344 10.1212V38.469C3.83344 40.7355 5.68762 42.5897 7.95412 42.5897H22.211L22.21 42.5886ZM32.2955 16.0642C32.9165 16.2227 33.5031 16.4692 34.0406 16.7882L36.2252 15.2064L37.9737 16.9549L36.3919 19.1395C36.7109 19.677 36.9566 20.2636 37.1155 20.8846L39.778 21.3107V23.783L37.1155 24.2091C36.957 24.8301 36.7105 25.4168 36.3915 25.9542L37.9733 28.1388L36.2248 29.8873L34.0402 28.3055C33.5027 28.6245 32.9161 28.8702 32.2951 29.0291L31.869 31.6916H29.3966L28.9706 29.0291C28.3495 28.8706 27.7629 28.6241 27.2255 28.3051L25.0408 29.8869L23.2924 28.1384L24.8742 25.9538C24.5551 25.4163 24.3095 24.8297 24.1506 24.2087L21.4881 23.7826V21.3103L24.1506 20.8842C24.3091 20.2632 24.5555 19.6765 24.8742 19.1391L23.2924 16.9545L25.0408 15.206L27.2255 16.7878C27.7638 16.4688 28.3496 16.2231 28.9706 16.0638L29.3966 13.4013H31.869L32.2955 16.0642ZM30.633 18.8942C32.6505 18.8942 34.2858 20.5299 34.2858 22.547C34.2858 24.5646 32.6501 26.1999 30.633 26.1999C28.6154 26.1999 26.9801 24.5642 26.9801 22.547C26.9801 20.5295 28.6154 18.8942 30.633 18.8942ZM7.84972 9.44641H53.4152C53.7294 9.44641 53.9868 9.70383 53.9868 10.018V35.6489H7.27872V10.018C7.27872 9.70383 7.53555 9.44641 7.84972 9.44641Z" fill="white"></path>
    <path fill-rule="evenodd" clip-rule="evenodd" d="M32.2957 16.0643C32.9168 16.2228 33.5034 16.4693 34.0408 16.7883L36.2254 15.2065L37.9739 16.955L36.3921 19.1396C36.7111 19.6771 36.9568 20.2637 37.1157 20.8847L39.7782 21.3108V23.7831L37.1157 24.2092C36.9572 24.8302 36.7107 25.4169 36.3917 25.9543L37.9735 28.1389L36.225 29.8874L34.0404 28.3056C33.5029 28.6246 32.9163 28.8703 32.2953 29.0292L31.8692 31.6917H29.3969L28.9708 29.0292C28.3498 28.8707 27.7631 28.6242 27.2257 28.3052L25.0411 29.887L23.2926 28.1385L24.8744 25.9539C24.5554 25.4164 24.3097 24.8298 24.1508 24.2088L21.4883 23.7827V21.3103L24.1508 20.8843C24.3093 20.2632 24.5558 19.6766 24.8744 19.1392L23.2926 16.9546L25.0411 15.2061L27.2257 16.7879C27.764 16.4689 28.3498 16.2232 28.9708 16.0639L29.3969 13.4014H31.8692L32.2957 16.0643ZM30.6332 18.8943C32.6507 18.8943 34.2861 20.53 34.2861 22.5471C34.2861 24.5647 32.6503 26.2 30.6332 26.2C28.6157 26.2 26.9803 24.5643 26.9803 22.5471C26.9803 20.5296 28.6157 18.8943 30.6332 18.8943Z" fill="#D12C1E"></path>
  </svg>