<svg width="96" height="60" viewBox="0 0 96 60" fill="none" xmlns="http://www.w3.org/2000/svg">
    <g clip-path="url(#clip0_2412_90677)">
      <path d="M90.0613 27.9636H86.9989V19.7971C86.9989 18.7142 86.5687 17.6756 85.8029 16.9098C85.0372 16.1441 83.9986 15.7139 82.9156 15.7139H74.7491V12.6514C74.7491 11.2977 74.2114 9.99951 73.2542 9.04231C72.297 8.08511 70.9988 7.54736 69.6451 7.54736C68.2914 7.54736 66.9932 8.08511 66.036 9.04231C65.0788 9.99951 64.541 11.2977 64.541 12.6514V15.7139H56.3745C55.2916 15.7139 54.253 16.1441 53.4872 16.9098C52.7215 17.6756 52.2913 18.7142 52.2913 19.7971V27.5553H55.3537C58.4161 27.5553 60.8661 30.0052 60.8661 33.0677C60.8661 36.1301 58.4161 38.5801 55.3537 38.5801H52.2913V46.3383C52.2913 47.4212 52.7215 48.4598 53.4872 49.2256C54.253 49.9913 55.2916 50.4215 56.3745 50.4215H64.1327V47.3591C64.1327 44.2966 66.5826 41.8467 69.6451 41.8467C72.7075 41.8467 75.1575 44.2966 75.1575 47.3591V50.4215H82.9156C83.9986 50.4215 85.0372 49.9913 85.8029 49.2256C86.5687 48.4598 86.9989 47.4212 86.9989 46.3383V38.1718H90.0613C91.415 38.1718 92.7133 37.634 93.6705 36.6768C94.6277 35.7196 95.1654 34.4214 95.1654 33.0677C95.1654 31.714 94.6277 30.4158 93.6705 29.4586C92.7133 28.5014 91.415 27.9636 90.0613 27.9636Z" fill="#D12C1E"></path>
      <path d="M21.1663 15.7133H12.9998C11.9168 15.7133 10.8782 16.1435 10.1125 16.9093C9.3467 17.675 8.9165 18.7136 8.9165 19.7965V27.963H5.85407C4.50038 27.963 3.20214 28.5008 2.24495 29.458C1.28775 30.4152 0.75 31.7134 0.75 33.0671C0.75 34.4208 1.28775 35.719 2.24495 36.6762C3.20214 37.6334 4.50038 38.1712 5.85407 38.1712H8.9165V46.3377C8.9165 47.4206 9.3467 48.4592 10.1125 49.225C10.8502 49.9627 11.8412 50.389 12.881 50.4192C12.9216 50.4204 12.9623 50.421 13.0031 50.421H20.7612V47.3586C20.7612 44.2962 23.2112 41.8462 26.2736 41.8462C26.3299 41.8462 26.386 41.847 26.4418 41.8487C29.4237 41.9381 31.7827 44.3534 31.7827 47.3585V50.4209H31.786L39.5442 50.421C40.6271 50.421 41.6657 49.9908 42.4315 49.2251C43.1973 48.4593 43.6275 47.4207 43.6275 46.3378V38.1713H46.6899C48.0436 38.1713 49.3418 37.6335 50.299 36.6763C51.2562 35.7191 51.794 34.4209 51.794 33.0672C51.794 31.7135 51.2562 30.4153 50.299 29.4581C49.3418 28.5009 48.0436 27.9631 46.6899 27.9631H43.6275V19.7966C43.6275 18.7137 43.1973 17.6751 42.4315 16.9093C41.6938 16.1716 40.7028 15.7453 39.6629 15.7151C39.6223 15.7139 39.5816 15.7133 39.5409 15.7133H31.3777V18.7719C31.3777 20.1256 30.8399 21.4238 29.8828 22.381C28.9607 23.3031 27.7222 23.8359 26.4224 23.8738C26.3718 23.8753 26.3211 23.8761 26.2703 23.8761C24.9166 23.8761 23.6184 23.3383 22.6612 22.3811C21.704 21.4239 21.1663 20.1257 21.1663 18.772V15.7133Z" fill="white"></path>
    </g>
    <defs>
      <clipPath id="clip0_2412_90677">
        <rect width="94.5" height="60" fill="white" transform="translate(0.75)"></rect>
      </clipPath>
    </defs>
  </svg>