<svg width="61" height="60" viewBox="0 0 61 60" fill="none" xmlns="http://www.w3.org/2000/svg">
    <circle cx="30.5" cy="30" r="6" fill="#D12C1E"></circle>
    <path fill-rule="evenodd" clip-rule="evenodd" d="M35.0516 4.94962C34.7918 4.23037 34.1014 3.75 33.3297 3.75H27.8331C27.457 3.74914 27.0898 3.8644 26.7816 4.08004C26.4734 4.29569 26.2393 4.6012 26.1112 4.95487L24.3788 9.78743C23.4732 10.1103 22.7539 10.4095 22.2158 10.6957C21.7644 10.9345 21.2656 11.2312 20.7144 11.5987L15.7323 9.54069C15.4042 9.40494 15.0438 9.36691 14.6945 9.43117C14.3452 9.49544 14.022 9.65926 13.7636 9.90293L10.0783 13.3836C9.80173 13.6432 9.61463 13.9838 9.54388 14.3564C9.47313 14.729 9.52237 15.1145 9.68453 15.4574L11.8212 19.9723C11.5196 20.5831 11.2446 21.2067 10.997 21.8413C10.8211 22.3164 10.6216 22.9674 10.3933 23.8048L5.46367 26.1725C5.16632 26.3139 4.91328 26.5339 4.73192 26.8087C4.55056 27.0835 4.44779 27.4027 4.43471 27.7317L4.25096 32.7743C4.23795 33.1731 4.35697 33.565 4.58955 33.8892C4.82213 34.2134 5.15525 34.4517 5.53717 34.5671L10.2358 35.9977C10.4769 36.7151 10.7395 37.425 11.0232 38.1266C11.2663 38.6998 11.5307 39.2636 11.816 39.8171L9.6714 44.4895C9.51513 44.8315 9.47034 45.214 9.54335 45.5828C9.61636 45.9517 9.80349 46.2882 10.0783 46.5449L13.7689 50.0072C14.0298 50.2513 14.3561 50.4142 14.7079 50.4762C15.0598 50.5382 15.4221 50.4965 15.7507 50.3563L20.738 48.2248C21.2698 48.4997 21.8109 48.7562 22.3602 48.994C23.0319 49.2669 23.7111 49.5207 24.3971 49.7552L26.4078 55.076C26.5434 55.4291 26.785 55.7315 27.0995 55.9417C27.4139 56.1518 27.7858 56.2593 28.1639 56.2494L33.1512 56.1365C33.5195 56.1292 33.877 56.0108 34.1768 55.7967C34.4766 55.5826 34.7047 55.2829 34.8312 54.9369L36.5373 50.2119L38.4588 49.4927C39.1866 49.2155 39.8967 48.8938 40.585 48.5293L44.9843 50.8603C45.3167 51.0363 45.695 51.1064 46.0685 51.0614C46.4419 51.0163 46.7926 50.8583 47.0737 50.6083L51.3418 46.7969C51.628 46.5425 51.8252 46.2031 51.9045 45.8286C51.9839 45.454 51.9412 45.0638 51.7828 44.7153L49.5385 39.7541C49.8311 39.0895 50.0921 38.4115 50.3207 37.7223C50.4625 37.2761 50.5964 36.7485 50.725 36.1316L55.1926 34.5435C55.5272 34.4261 55.82 34.213 56.0347 33.9307C56.2493 33.6484 56.3764 33.3093 56.4 32.9554L56.7465 27.5086C56.7938 26.75 56.3554 26.0412 55.6467 25.7394L50.9297 23.7181C50.6042 22.865 50.3312 22.2035 50.1108 21.7232C49.906 21.2822 49.6383 20.7545 49.3023 20.1377L51.3261 15.3944C51.6096 14.7276 51.4678 13.9638 50.9638 13.4414L47.1682 9.51706C46.8904 9.23123 46.5273 9.04321 46.1336 8.98121C45.7398 8.91921 45.3365 8.98657 44.9843 9.17319L40.669 11.4569C39.829 11.0658 39.1491 10.7797 38.6215 10.5907C38.1385 10.4174 37.5689 10.2521 36.9048 10.0867L35.0516 4.94962ZM30.5 41.25C36.7132 41.25 41.75 36.2132 41.75 30C41.75 23.7868 36.7132 18.75 30.5 18.75C24.2868 18.75 19.25 23.7868 19.25 30C19.25 36.2132 24.2868 41.25 30.5 41.25Z" fill="white"></path>
  </svg>