<svg xmlns="http://www.w3.org/2000/svg" width="75" height="79" viewBox="0 0 75 79" fill="none">
    <g clip-path="url(#clip0_745_28998)">
      <path d="M50.4 37.3996C52.6 35.2996 54.8 31.6996 54.8 27.8996C54.8 26.6996 54.8 25.7996 54.4 24.8996C54.2 24.4996 54 23.9996 53.5 23.7996C53.4 23.6996 53.3 23.6996 53.2 23.6996C53.2 23.6996 53.2 22.6996 53.2 21.9996C52.9 12.2996 47.8 6.09961 37.4 6.09961C27 6.09961 21.9 12.2996 21.6 21.9996C21.6 22.6996 21.6 23.6996 21.6 23.6996C21.5 23.6996 21.4 23.7996 21.3 23.7996C20.9 24.0996 20.6 24.4996 20.4 24.8996C20.1 25.7996 20 26.6996 20 27.8996C20 31.6996 22.2 35.2996 24.4 37.3996C24.5 37.8996 24.7 38.3996 24.9 38.8996C26.8 40.0996 29.2 40.5996 32.3 40.4996C32.8 39.1996 34 38.2996 35.4 38.2996C37.2 38.2996 38.7 39.7996 38.7 41.5996C38.7 43.3996 37.2 44.8996 35.4 44.8996C34.2 44.8996 33.1 44.2996 32.5 43.2996C30.5 43.3996 28.6 43.1996 26.9 42.7996C29.3 46.1996 33 48.3996 37.4 48.3996C43.8 48.3996 48.7 43.6996 50.4 37.3996Z" fill="#000B7C"/>
      <path d="M16.2008 34.2H17.0008C17.2008 34.2 17.4008 34.2 17.6008 34C18.2008 33.9 18.6008 33.3 18.6008 32.7V18.4C18.7008 16.3 19.2008 14.3 20.2008 12.4C20.2008 12.3 20.3008 12.3 20.3008 12.2C20.5008 11.8 20.8008 11.4 21.0008 11C21.1008 10.9 21.2008 10.7 21.3008 10.6C21.5008 10.3 21.7008 10.1 21.9008 9.8C22.0008 9.7 22.1008 9.5 22.3008 9.4C22.5008 9.2 22.7008 8.9 22.9008 8.7C23.0008 8.6 23.1008 8.4 23.3008 8.3C23.6008 8 23.9008 7.7 24.3008 7.4L24.4008 7.3C24.8008 7 25.2008 6.7 25.6008 6.4C25.6008 6.1 25.7008 6 25.9008 6C26.2008 5.8 26.5008 5.6 26.8008 5.4C27.0008 5.3 27.1008 5.2 27.3008 5.1C27.6008 4.9 27.9008 4.8 28.3008 4.6C28.5008 4.5 28.6008 4.4 28.8008 4.4C29.3008 4.2 29.7008 4 30.2008 3.8C30.7008 3.6 31.2008 3.5 31.8008 3.3C32.0008 3.3 32.1008 3.2 32.3008 3.2C32.6008 3.1 33.0008 3 33.4008 2.9C33.6008 2.9 33.8008 2.8 34.0008 2.8C34.4008 2.7 34.8008 2.7 35.2008 2.6C35.4008 2.6 35.5008 2.6 35.7008 2.5C36.3008 2.5 36.9008 2.4 37.4008 2.4C38.0008 2.4 38.6008 2.4 39.1008 2.5C39.3008 2.5 39.5008 2.5 39.6008 2.6C40.0008 2.6 40.4008 2.7 40.8008 2.8C41.0008 2.8 41.2008 2.9 41.4008 2.9C41.8008 3 42.2008 3.1 42.6008 3.2C42.8008 3.2 42.9008 3.3 43.1008 3.3C43.6008 3.4 44.2008 3.6 44.7008 3.8C45.2008 4 45.7008 4.2 46.1008 4.4C46.3008 4.5 46.4008 4.5 46.6008 4.6C46.9008 4.8 47.2008 4.9 47.6008 5.1C47.8008 5.2 47.9008 5.3 48.1008 5.4C48.4008 5.6 48.7008 5.8 49.0008 6C49.1008 6.1 49.3008 6.2 49.4008 6.3C49.8008 6.6 50.2008 6.9 50.6008 7.2L50.7008 7.3C51.0008 7.6 51.4008 7.9 51.7008 8.2C51.8008 8.3 51.9008 8.5 52.1008 8.6C52.3008 8.8 52.5008 9.1 52.7008 9.3C52.8008 9.4 52.9008 9.6 53.1008 9.7C53.3008 10 53.5008 10.2 53.7008 10.5C53.8008 10.6 53.9008 10.8 54.0008 10.9C54.3008 11.3 54.5008 11.7 54.7008 12.1C54.7008 12.2 54.8008 12.2 54.8008 12.3C55.7008 14.1 56.3008 16.2 56.4008 18.3V32.7C56.4008 33.3 56.8008 33.8 57.4008 34C57.6008 34.1 57.8008 34.2 58.0008 34.2H58.8008C60.8008 34.2 62.6008 32.9 62.6008 30.9V20.4C62.6008 18.4 60.8008 17.1 58.8008 17.1C58.6008 15 57.9008 13 57.0008 11.1C56.9008 10.9 56.8008 10.8 56.7008 10.6C56.6008 10.4 56.5008 10.3 56.4008 10.1C56.2008 9.7 55.9008 9.4 55.7008 9C55.6008 8.9 55.6008 8.8 55.5008 8.7C55.2008 8.3 54.8008 7.8 54.5008 7.4C54.4008 7.3 54.3008 7.2 54.3008 7.1C54.0008 6.8 53.7008 6.5 53.4008 6.2C53.3008 6.1 53.2008 6 53.0008 5.9C52.7008 5.6 52.4008 5.3 52.1008 5.1C52.0008 5 51.9008 4.9 51.8008 4.8C50.9008 4.1 50.0008 3.5 49.0008 2.9C48.9008 2.8 48.7008 2.7 48.6008 2.7C48.2008 2.5 47.8008 2.3 47.5008 2.1C47.3008 2 47.2008 2 47.0008 1.9C46.6008 1.7 46.1008 1.5 45.7008 1.4C45.6008 1.4 45.5008 1.3 45.4008 1.3C44.8008 1.1 44.3008 0.9 43.7008 0.8C43.6008 0.8 43.4008 0.7 43.3008 0.7C42.9008 0.6 42.4008 0.5 41.9008 0.4C41.7008 0.4 41.5008 0.3 41.3008 0.3C40.9008 0.2 40.4008 0.2 40.0008 0.1C39.8008 0.1 39.6008 0.1 39.4008 0C38.6008 0 38.0008 0 37.4008 0C36.8008 0 36.2008 0 35.6008 0.1C35.4008 0.1 35.2008 0.1 35.0008 0.2C34.6008 0.2 34.1008 0.3 33.7008 0.4C33.5008 0.4 33.3008 0.5 33.1008 0.5C32.6008 0.6 32.2008 0.7 31.7008 0.8C31.6008 0.8 31.4008 0.9 31.3008 0.9C30.7008 1.1 30.2008 1.2 29.6008 1.4C29.5008 1.4 29.4008 1.5 29.3008 1.5C28.9008 1.7 28.4008 1.8 28.0008 2C27.8008 2.1 27.7008 2.1 27.5008 2.2C27.1008 2.4 26.7008 2.6 26.4008 2.8C26.3008 2.9 26.1008 2.9 26.0008 3C25.0008 3.6 24.1008 4.2 23.2008 4.9C23.1008 5 23.0008 5.1 22.9008 5.2C22.6008 5.5 22.3008 5.7 22.0008 6C21.9008 6.1 21.8008 6.2 21.6008 6.3C21.3008 6.6 21.0008 6.9 20.7008 7.2C20.6008 7.3 20.5008 7.4 20.5008 7.5C20.1008 7.9 19.8008 8.3 19.5008 8.8C19.3008 8.9 19.3008 9 19.2008 9C18.9008 9.4 18.7008 9.7 18.5008 10.1C18.4008 10.2 18.3008 10.4 18.2008 10.6C18.1008 10.8 18.0008 10.9 17.9008 11.1C16.9008 13 16.3008 15 16.1008 17.1C14.2008 17.1 12.3008 18.5 12.3008 20.4V30.9C12.4008 32.9 14.2008 34.2 16.2008 34.2Z" fill="#D12C1E"/>
      <path d="M74.5996 68.4C73.1996 62.3 71.0996 55.5 65.6996 52.6C61.8996 50.6 54.4996 48.5 49.2996 46C49.4996 67.7 42.0996 78.6 42.0996 78.6C47.8996 78.3 56.4996 77.6 61.5996 77C68.3996 76.2 75.9996 74.3 74.5996 68.4Z" fill="#000B7C"/>
      <path d="M25.4995 45.9995C20.2995 48.5995 12.8995 50.5995 9.09951 52.5995C3.69951 55.4995 1.69951 62.2995 0.199515 68.3995C-1.20049 74.2995 6.39951 76.1995 13.1995 77.0995C18.2995 77.6995 26.8995 78.3995 32.6995 78.6995C32.6995 78.5995 25.1995 67.5995 25.4995 45.9995Z" fill="#000B7C"/>
    </g>
    <defs>
      <clipPath id="clip0_745_28998">
        <rect width="74.8" height="78.6" fill="white"/>
      </clipPath>
    </defs>
  </svg>