<svg xmlns="http://www.w3.org/2000/svg" width="71" height="67" viewBox="0 0 71 67" fill="none">
    <g clip-path="url(#clip0_955_34384)">
      <path d="M58.4947 36.1328H0.5V0H58.4947V36.1328ZM5.48681 31.2304H53.3232V4.90244H5.48681V31.2304Z" fill="#050081"/>
      <path d="M1.05371 33.7724V24.5122C6.22521 24.5122 10.4732 28.6884 10.4732 33.7724H1.05371Z" fill="#050081"/>
      <path d="M1.05371 2.54199V11.8022C6.22521 11.8022 10.4732 7.626 10.4732 2.54199H1.05371Z" fill="#050081"/>
      <path d="M55.7242 33.7724V24.5122C50.5527 24.5122 46.3047 28.6884 46.3047 33.7724H55.7242Z" fill="#050081"/>
      <path d="M55.7242 2.54199V11.8022C50.5527 11.8022 46.3047 7.626 46.3047 2.54199H55.7242Z" fill="#050081"/>
      <path d="M36.7008 18.1572C36.7008 12.7101 33.0069 8.17078 28.3895 8.17078C23.7721 8.17078 20.0781 12.7101 20.0781 18.1572C20.0781 23.6044 23.7721 28.1437 28.3895 28.1437C33.0069 28.1437 36.7008 23.6044 36.7008 18.1572Z" fill="#050081"/>
      <path d="M13.0589 14.3441C14.9059 14.3441 16.3835 15.7967 16.3835 17.6124C16.3835 19.4281 14.9059 20.8807 13.0589 20.8807C11.2119 20.8807 9.73438 19.4281 9.73438 17.6124C9.73438 15.7967 11.2119 14.3441 13.0589 14.3441Z" fill="#050081"/>
      <path d="M43.7191 14.3441C45.566 14.3441 47.0436 15.7967 47.0436 17.6124C47.0436 19.4281 45.566 20.8807 43.7191 20.8807C41.8721 20.8807 40.3945 19.4281 40.3945 17.6124C40.3945 15.7967 41.8721 14.3441 43.7191 14.3441Z" fill="#050081"/>
      <path d="M45.1969 39.5826L22.8486 52.2926L44.8275 66.8184V59.9187C53.3236 59.0108 61.2655 54.8347 66.0676 47.9349C72.1626 39.0379 71.7932 27.962 65.8829 19.2466L64.5901 19.6097C66.9911 25.6016 66.6217 32.3197 62.7431 37.7669C58.8645 43.5772 52.2154 46.8455 45.0122 47.2086L45.1969 39.5826Z" fill="#E20000"/>
    </g>
    <defs>
      <clipPath id="clip0_955_34384">
        <rect width="70" height="67" fill="white" transform="translate(0.5)"/>
      </clipPath>
    </defs>
  </svg>