<svg xmlns="http://www.w3.org/2000/svg" width="73" height="49" viewBox="0 0 73 49" fill="none">
    <g clip-path="url(#clip0_955_34372)">
      <path d="M2.71906 20.0034L60.2041 20.0035L60.2041 10.4599L2.71909 10.4598L2.71906 20.0034Z" fill="#050081"/>
      <path d="M32.1174 24.0726H8.83594V28.3459H32.1174V24.0726Z" fill="#050081"/>
      <path d="M67.3277 20.7965L53.675 36.8924L43.3277 32.7616L40.166 37.8895L55.5433 49L72.5013 24.7849L67.3277 20.7965Z" fill="#E20000"/>
      <path d="M56.1178 0H6.82433C3.37523 0 0.500977 2.84884 0.500977 6.26744V36.4651C0.500977 39.8837 3.37523 42.7326 6.82433 42.7326H39.5908L33.6986 38.4593H6.82433C5.67463 38.4593 4.81235 37.4622 4.81235 36.4651V6.26744C4.81235 5.12791 5.67463 4.27326 6.82433 4.27326H56.1178C57.1237 4.27326 57.986 5.12791 57.986 6.26744V25.0698L62.2974 19.9419V6.26744C62.2974 2.84884 59.5669 0 56.1178 0Z" fill="#050081"/>
    </g>
    <defs>
      <clipPath id="clip0_955_34372">
        <rect width="72" height="49" fill="white" transform="translate(0.500977)"/>
      </clipPath>
    </defs>
  </svg>