<svg xmlns="http://www.w3.org/2000/svg" width="80" height="56" viewBox="0 0 80 56" fill="none">
    <g clip-path="url(#clip0_1_8575)">
      <path d="M50 0H6.66667C3 0 0 2.96471 0 6.58824V37.8824C0 41.5059 3 44.4706 6.66667 44.4706H23.3333V49.4118H13.2941C11.4748 49.4118 10 50.8866 10 52.7059V52.7059C10 54.5252 11.4748 56 13.2941 56H43.3725C45.1918 56 46.6667 54.5252 46.6667 52.7059V52.7059C46.6667 50.8866 45.1918 49.4118 43.3725 49.4118H33.3333V44.4706H50C53.6667 44.4706 56.6667 41.5059 56.6667 37.8824V6.58824C56.6667 2.96471 53.6667 0 50 0ZM50 36.2353C50 37.2235 49.3333 37.8824 48.3333 37.8824H8.33333C7.33333 37.8824 6.66667 37.2235 6.66667 36.2353V8.23529C6.66667 7.24706 7.33333 6.58824 8.33333 6.58824H48.3333C49.3333 6.58824 50 7.24706 50 8.23529V36.2353Z" fill="#000B7C"/>
      <path d="M76.6667 0H63.3333C61.5 0 60 1.48235 60 3.29412V52.7059C60 54.5176 61.5 56 63.3333 56H76.6667C78.5 56 80 54.5176 80 52.7059V3.29412C80 1.48235 78.5 0 76.6667 0ZM70 43.1529C68 43.1529 66.3333 41.5059 66.3333 39.5294C66.3333 37.5529 68 35.9059 70 35.9059C72 35.9059 73.6667 37.5529 73.6667 39.5294C73.6667 41.5059 72 43.1529 70 43.1529ZM75.3333 10.0471H64.6667C63.6667 10.0471 62.8333 9.22353 62.8333 8.23529C62.8333 7.24706 63.6667 6.42353 64.6667 6.42353H75.3333C76.3333 6.42353 77.1667 7.24706 77.1667 8.23529C77 9.22353 76.3333 10.0471 75.3333 10.0471Z" fill="#D12C1E"/>
    </g>
    <defs>
      <clipPath id="clip0_1_8575">
        <rect width="80" height="56" fill="white"/>
      </clipPath>
    </defs>
  </svg>