<svg width="183" height="42" viewBox="0 0 183 42" fill="none" xmlns="http://www.w3.org/2000/svg">
    <path fill-rule="evenodd" clip-rule="evenodd" d="M81.3635 8.82742C77.9394 8.82742 74.4401 11.5887 73.5565 15.0078H109.845C110.739 11.5887 108.68 8.82742 105.256 8.82742H81.3635ZM75.1681 32.6701H99.071C102.49 32.6701 105.984 29.9088 106.868 26.4898L107.556 23.8389C108.449 20.4199 106.391 17.6586 102.962 17.6586H72.8686C71.985 21.0776 74.0334 23.8389 77.4575 23.8389H101.36L100.673 26.4898H70.5743C69.6906 29.9038 71.739 32.6701 75.1681 32.6701ZM119.429 8.82742C116.005 8.82742 112.516 11.5887 111.622 15.0078H147.911C148.805 11.5887 146.746 8.82742 143.327 8.82742H119.429ZM113.229 32.6701H137.132C140.556 32.6701 144.045 29.9088 144.939 26.4898L145.627 23.8389C146.51 20.4199 144.452 17.6586 141.038 17.6586H110.94C110.056 21.0776 112.114 23.8389 115.528 23.8389H139.431L138.744 26.4898H108.645C107.757 29.9038 109.815 32.6701 113.229 32.6701ZM151.3 32.6701H175.193C178.617 32.6701 182.106 29.9088 183 26.4898H152.902L157.495 8.83244C154.071 8.83244 150.582 11.5938 149.688 15.0128L146.711 26.4898C145.823 29.9038 147.876 32.6701 151.3 32.6701ZM42.459 15.0078H65.5838L62.5965 26.4848H42.454L36.2787 32.6701H61C64.419 32.6701 67.9133 29.9088 68.797 26.4898L71.7792 15.0128C72.6628 11.5938 70.6144 8.83244 67.1904 8.83244H36.2084L42.459 15.0078Z" fill="#050081"/>
    <path fill-rule="evenodd" clip-rule="evenodd" d="M21.0563 11.1771L10.9047 21.1881L21.0563 31.2041L31.2229 21.1881L21.0563 11.1771Z" fill="#050081"/>
    <path fill-rule="evenodd" clip-rule="evenodd" d="M34.9131 20.7463L28.3763 27.1827H32.8798V31.8468L44.1459 20.7463L32.8798 9.6508V14.3099H28.3864L34.9131 20.7463Z" fill="#050081"/>
    <path fill-rule="evenodd" clip-rule="evenodd" d="M25.7656 29.7532L21.0613 34.3972L7.20453 20.7463L21.0563 7.09533L25.7606 11.7394H30.264L30.2741 7.07023L24.5205 1.41204C22.6127 -0.470679 19.515 -0.470679 17.5971 1.41204L1.43086 17.3423C-0.476955 19.225 -0.476955 22.2776 1.43086 24.1603L17.5971 40.0855C19.515 41.9683 22.6127 41.9683 24.5205 40.0855L30.2791 34.4173L30.2691 29.7532H25.7656Z" fill="#050081"/>
    </svg>
    