<svg xmlns="http://www.w3.org/2000/svg" width="80" height="80" viewBox="0 0 80 80" fill="none">
    <path fill-rule="evenodd" clip-rule="evenodd" d="M28.6261 50.2201C27.4664 49.3689 26.3067 48.5177 25.1899 47.6665C23.8154 46.6451 20.2074 46.3046 16.7712 47.8367L0.105596 54.476C-1.09708 54.8165 8.35249 75.0749 9.21154 74.3939L12.9914 72.0106C15.9121 70.138 17.9739 70.3082 19.8638 71.3297L35.6703 79.3309C37.9039 80.6928 46.6662 80.0118 51.3051 76.9475L76.9048 59.9237C77.9357 59.413 81.0283 55.838 79.6538 54.476C77.1031 51.9487 76.4037 52.423 73.2249 54.5785L73.125 54.6463L55.7722 66.3927C49.7588 70.3082 38.4193 69.457 32.9214 67.7546L28.2825 65.2011C26.7362 64.5201 25.7053 63.4987 27.0798 62.1368C27.9758 61.2489 29.9671 62.4592 31.5304 63.4093C32.3652 63.9167 33.078 64.3499 33.4368 64.3499C40.6528 67.0737 47.1816 66.7332 53.5386 64.3499C57.6621 62.8177 55.944 58.9022 53.5386 58.732C51.2759 58.594 49.4364 58.5539 47.8629 58.5196C41.6702 58.3845 39.5973 58.3393 32.0623 52.7737C30.9456 51.9225 29.7858 51.0713 28.6261 50.2201Z" fill="#000B7C"/>
    <path d="M66.4554 38.1856C62.7155 40.8279 58.217 42.3144 53.3933 42.3144C48.5697 42.3144 44.071 40.7729 40.3312 38.1855L35.399 45.8376C33.9899 48.0395 35.5616 50.9572 38.109 50.9572L68.5691 50.9572C71.1706 50.9572 72.7425 48.0395 71.3332 45.8376L66.4554 38.1856Z" fill="#000B7C"/>
    <path d="M53.3658 43.4443C64.3831 43.4443 73.3723 34.5113 73.3723 23.5629C73.3723 12.56 64.3831 3.62696 53.3658 3.62696C42.3486 3.62695 33.3594 12.56 33.3594 23.5084C33.3594 34.5113 42.3486 43.4443 53.3658 43.4443ZM53.3658 12.1242C59.669 12.1242 64.8216 17.2445 64.8216 23.5084C64.8216 29.7726 59.6691 34.947 53.3658 34.947C47.0625 34.947 41.9101 29.8268 41.9101 23.5084C41.9101 17.1902 47.0074 12.1242 53.3658 12.1242Z" fill="#000B7C"/>
    <path d="M52.9882 29.9213C56.7628 29.9213 59.7826 26.9163 59.7826 23.1599C59.7826 19.4036 56.7629 16.3984 52.9882 16.3984C52.5567 16.3984 52.1253 16.452 51.748 16.5059C52.2874 17.1497 52.5567 17.9549 52.5567 18.8671C52.5567 21.0135 50.8309 22.7309 48.6741 22.7309C47.7574 22.7309 46.9483 22.4089 46.3013 21.9261C46.2475 22.3019 46.1934 22.7309 46.1934 23.1602C46.1937 26.8627 49.2135 29.9213 52.9881 29.9213L52.9882 29.9213Z" fill="#D12C1E"/>
  </svg>