<svg xmlns="http://www.w3.org/2000/svg" width="82" height="81" viewBox="0 0 82 81" fill="none">
    <path d="M46.4822 0C32.9837 0 22 10.9837 22 24.4822C22 38.0137 32.9837 49 46.4822 49C60.0163 49 71 38.0163 71 24.4822C71 10.9837 60.0188 0 46.4822 0ZM58.0426 24.7058C56.8919 25.9428 55.035 26.809 52.5583 27.2205C51.4076 27.4237 50.0054 27.5508 48.4788 27.5508H41.147C40.5947 27.5508 40.147 27.9985 40.147 28.5508V28.8166C40.147 29.3689 40.5947 29.8166 41.147 29.8166H51.5583C52.1106 29.8166 52.5583 30.2643 52.5583 30.8166V32.7767C52.5583 33.329 52.1106 33.7767 51.5583 33.7767H41.147C40.5947 33.7767 40.147 34.2244 40.147 34.7767V39.7851C40.147 40.3374 39.6993 40.7851 39.147 40.7851H36.8592C36.3069 40.7851 35.8592 40.3374 35.8592 39.7851V34.7767C35.8592 34.2244 35.4115 33.7767 34.8592 33.7767H33.2725C32.7202 33.7767 32.2725 33.329 32.2725 32.7767V30.8166C32.2725 30.2643 32.7202 29.8166 33.2725 29.8166H34.8592C35.4115 29.8166 35.8592 29.3689 35.8592 28.8166V28.7184C35.8592 28.1661 35.4115 27.7184 34.8592 27.7184H33.2725C32.7202 27.7184 32.2725 27.2707 32.2725 26.7184V24.7583C32.2725 24.206 32.7202 23.7583 33.2725 23.7583H34.8592C35.4115 23.7583 35.8592 23.3106 35.8592 22.7583V9.21239C35.8592 8.6601 36.3069 8.21239 36.8592 8.21239H48.1054C50.2925 8.21239 51.9817 8.33432 53.0968 8.54515C54.6641 8.79409 56.0257 9.32753 57.0951 10.0693C58.2077 10.811 59.0332 11.8855 59.7318 13.2013C60.3922 14.5654 60.7225 16.0463 60.7225 17.6136C60.725 20.4179 59.8613 22.727 58.0426 24.7058Z" fill="#D12C1E"/>
    <path d="M57 17.8511C57 19.7997 56.3921 21.286 55.1334 22.3465C53.9149 23.4488 51.8234 24 48.9124 24H41C40.4477 24 40 23.5523 40 23V13C40 12.4477 40.4477 12 41 12H48.7839C50.8674 12 52.2626 12.0836 53.0419 12.256C54.2604 12.5982 55.2164 13.2329 55.9127 14.2464C56.6545 15.2233 57 16.4536 57 17.8511Z" fill="#D12C1E"/>
    <path d="M53.5386 65.3499C57.6621 63.8177 55.944 59.9022 53.5386 59.732C51.2759 59.594 49.4364 59.5539 47.8629 59.5196C41.6702 59.3845 39.5973 59.3393 32.0623 53.7737C30.9456 52.9225 29.7858 52.0713 28.6261 51.2201C27.4664 50.3689 26.3067 49.5177 25.1899 48.6665C23.8154 47.6451 20.2074 47.3046 16.7712 48.8367L0.105596 55.476C-1.09708 55.8165 8.35249 76.0749 9.21154 75.3939L12.9914 73.0106C15.9121 71.138 17.9739 71.3082 19.8638 72.3297L35.6703 80.3309C37.9039 81.6928 46.6662 81.0118 51.3051 77.9475L76.9048 60.9237C77.9357 60.413 81.0283 56.838 79.6538 55.476C77.1031 52.9487 76.4037 53.423 73.2249 55.5785L73.125 55.6463L55.7722 67.3927C49.7588 71.3082 38.4193 70.457 32.9214 68.7546L28.2825 66.2011C26.7362 65.5201 25.7053 64.4987 27.0798 63.1368C27.9758 62.2489 29.9671 63.4592 31.5304 64.4093C32.3652 64.9167 33.078 65.3499 33.4368 65.3499C40.6528 68.0737 47.1816 67.7332 53.5386 65.3499Z" fill="#000B7C"/>
  </svg>