<svg xmlns="http://www.w3.org/2000/svg" width="63" height="88" viewBox="0 0 63 88" fill="none">
    <path d="M62.1094 56.9141C62.0832 53.0772 61.8306 52.1519 59.6264 52.1519L56.3419 52.1519C55.6973 52.1519 55.2094 51.6341 55.0351 51.0654C54.7651 50.1656 54.434 49.2742 54.0594 48.4084C53.6935 47.551 53.3014 46.7106 52.8484 45.9042C52.7351 45.7089 52.6654 45.4797 52.6393 45.259C50.7401 47.2284 48.7885 49.1469 46.8283 51.0569C47.7431 53.1027 48.2484 55.3522 48.2484 57.7291C48.2484 66.9818 40.5556 74.4859 31.0594 74.4859C21.5631 74.4859 13.8703 66.9818 13.8703 57.7291C13.8703 55.3352 14.3844 53.0687 15.3166 51.0059C13.4434 49.1554 11.5703 47.3218 9.67109 45.5137C9.60139 45.4628 9.54041 45.4118 9.47071 45.3609C9.43586 45.5561 9.37488 45.7429 9.27904 45.9127C8.8173 46.7361 8.40783 47.5934 8.04193 48.4678C7.67602 49.3252 7.35367 50.1995 7.08359 51.0823C6.90935 51.6511 6.43018 52.1689 5.77677 52.1689L2.4923 52.1689C0.140027 52.1689 0.000629331 53.213 0.000629128 57.7375C0.000628925 62.2621 0.131314 63.3147 2.4923 63.3147L5.77677 63.3147C6.42147 63.3147 6.90935 63.8325 7.08359 64.4012C7.35367 65.2926 7.67602 66.1669 8.04192 67.0243C8.40783 67.8901 8.8173 68.7475 9.27904 69.5624C9.56654 70.0802 9.6101 70.7848 9.14836 71.2262L6.82223 73.4842C5.15821 75.1056 5.82904 75.946 9.1048 79.1378C12.3893 82.3381 13.2343 82.9832 14.9071 81.3618C15.6825 80.6063 16.4578 79.8508 17.2332 79.0953C17.6862 78.6539 18.4094 78.6879 18.9408 78.968C19.7859 79.4179 20.6658 79.8084 21.5631 80.1734C22.4431 80.5299 23.3317 80.8525 24.2378 81.1072C24.8215 81.277 25.3529 81.7438 25.3529 82.372L25.3529 85.5723C25.3529 87.8643 26.4245 88.0001 31.0681 88.0001C35.7029 88.0001 36.7832 87.8727 36.7832 85.5723L36.7832 82.372C36.7832 81.7438 37.3234 81.277 37.9071 81.1072C38.8306 80.844 39.7453 80.513 40.634 80.1479C41.5139 79.7914 42.3764 79.4094 43.2041 78.968C43.7355 78.6879 44.4586 78.6454 44.9116 79.0953L47.2291 81.3618C48.8931 82.9832 49.7556 82.3296 53.0313 79.1378C56.3158 75.9375 56.9779 75.1056 55.3139 73.4842C54.5385 72.7287 53.7632 71.9817 52.9878 71.2262C52.5347 70.7848 52.5696 70.0802 52.8571 69.5624C53.3101 68.756 53.7022 67.9156 54.0681 67.0582C54.4427 66.1839 54.7738 65.3011 55.0438 64.4012C55.2181 63.8325 55.6972 63.3147 56.3507 63.3147L59.6264 63.3147C61.9787 63.3147 62.1094 62.2621 62.1094 57.7375C62.1094 57.4404 62.1094 57.1773 62.1094 56.9141Z" fill="#D12C1E"/>
    <path d="M54.5645 30.1182C54.5645 28.6157 53.972 27.1132 52.7959 25.9587C50.4349 23.6583 46.6277 23.6583 44.258 25.9587L37.0879 32.945L37.0879 5.88273C37.0879 2.62304 34.3959 -8.58996e-07 31.0504 -1.00148e-06C27.705 -1.14397e-06 25.0129 2.62303 25.0129 5.88273L25.0129 32.945L17.8516 25.9587C15.4906 23.6583 11.6747 23.6583 9.31367 25.9587C6.95269 28.2592 6.95269 31.9688 9.31367 34.2777C16.8671 41.6375 22.8697 47.4948 29.8133 54.2518C30.5016 54.9225 31.608 54.9225 32.2963 54.2518L52.7872 34.2777C53.972 33.1233 54.5645 31.6207 54.5645 30.1182Z" fill="#000B7C"/>
  </svg>