<svg xmlns="http://www.w3.org/2000/svg" width="80" height="82" viewBox="0 0 80 82" fill="none">
    <path d="M35.0424 4.84499C37.7986 2.15135 42.2014 2.15135 44.9576 4.84499C46.8014 6.64685 49.4776 7.30648 51.9476 6.56785C55.6399 5.46366 59.5384 7.50972 60.7271 11.1757C61.5223 13.628 63.5855 15.4558 66.1157 15.9496C69.8983 16.6878 72.3994 20.3112 71.7483 24.1097C71.3127 26.6507 72.2902 29.2279 74.3011 30.841C77.3073 33.2525 77.838 37.6232 75.4963 40.684C73.9298 42.7315 73.5975 45.4678 74.6285 47.8307C76.1697 51.363 74.6085 55.4796 71.1125 57.1016C68.7739 58.1866 67.2082 60.455 67.0229 63.0264C66.746 66.8703 63.4505 69.7899 59.6012 69.6014C57.0263 69.4754 54.5857 70.7563 53.2267 72.947C51.1952 76.222 46.9204 77.2757 43.5996 75.3199C41.3782 74.0117 38.6218 74.0117 36.4004 75.3199C33.0796 77.2757 28.8048 76.222 26.7733 72.947C25.4143 70.7563 22.9737 69.4754 20.3988 69.6014C16.5495 69.7899 13.254 66.8703 12.9771 63.0264C12.7918 60.455 11.2261 58.1866 8.8875 57.1016C5.39152 55.4796 3.83028 51.363 5.37149 47.8307C6.40245 45.4678 6.07021 42.7315 4.50373 40.684C2.16196 37.6232 2.69266 33.2525 5.69889 30.841C7.70985 29.2279 8.68726 26.6507 8.25173 24.1097C7.60065 20.3112 10.1017 16.6878 13.8843 15.9496C16.4145 15.4558 18.4777 13.628 19.2729 11.1757C20.4616 7.50972 24.3601 5.46366 28.0524 6.56785C30.5224 7.30648 33.1986 6.64685 35.0424 4.84499Z" fill="#000B7C"/>
    <path d="M31.5197 19.3372C32.072 19.3372 32.5197 19.7849 32.5197 20.3372V43C32.5197 43.5523 32.072 44 31.5197 44H28.9921C28.4398 44 27.9921 43.5523 27.9921 43V23.7981C27.9921 23.7354 27.9412 23.6845 27.8785 23.6845C27.857 23.6845 27.836 23.6906 27.8179 23.702L23.5333 26.4029C22.8674 26.8227 22 26.3441 22 25.557V23.8251C22 23.4826 22.1753 23.1639 22.4646 22.9805L27.9666 19.4926C28.1268 19.3911 28.3124 19.3372 28.502 19.3372H31.5197Z" fill="white"/>
    <path d="M39.8658 44C39.3135 44 38.8658 43.5523 38.8658 43V41.1966C38.8658 40.9256 38.9757 40.6663 39.1705 40.4779L47.5427 32.3791C48.3726 31.5522 49.0641 30.8176 49.6174 30.1753C50.1706 29.5331 50.5855 28.9109 50.8622 28.3088C51.1388 27.7066 51.2771 27.0644 51.2771 26.382C51.2771 25.6032 51.0981 24.9369 50.7401 24.3829C50.3821 23.821 49.8899 23.3874 49.2635 23.0824C48.637 22.7773 47.9251 22.6248 47.1278 22.6248C46.3061 22.6248 45.586 22.7934 44.9677 23.1305C44.3494 23.4597 43.8693 23.9294 43.5276 24.5395C43.3333 24.8949 43.1956 25.2899 43.1145 25.7243C43.0131 26.2672 42.5796 26.7192 42.0273 26.7192H39.7193C39.167 26.7192 38.7124 26.2701 38.7713 25.721C38.8951 24.568 39.2398 23.5399 39.8055 22.6368C40.5296 21.4807 41.5262 20.5856 42.7954 19.9513C44.0727 19.3171 45.5372 19 47.1888 19C48.8648 19 50.3374 19.3091 51.6066 19.9273C52.8758 20.5454 53.8603 21.3924 54.5599 22.4682C55.2678 23.544 55.6217 24.7723 55.6217 26.1532C55.6217 27.0764 55.4427 27.9836 55.0847 28.8748C54.7267 29.7659 54.0962 30.7534 53.1931 31.8372C52.2982 32.921 51.0412 34.2336 49.4221 35.775L45.1489 40.0634C45.1267 40.0857 45.1141 40.116 45.1141 40.1476C45.1141 40.2134 45.1676 40.2669 45.2334 40.2669H55C55.5523 40.2669 56 40.7146 56 41.2669V43C56 43.5523 55.5523 44 55 44H39.8658Z" fill="white"/>
    <path d="M44.6614 56.0097C43.5121 56.7748 43.2005 58.3267 43.9656 59.4761L57.2176 79.3846C58.1976 80.8569 60.3548 80.8738 61.3578 79.4171L64.7609 74.4747L70.6338 73.2426C72.3647 72.8795 73.1816 70.8829 72.2016 69.4106L58.9496 49.5021C58.1845 48.3527 56.6326 48.0412 55.4832 48.8063L44.6614 56.0097Z" fill="#D12C1E" stroke="white" stroke-width="3"/>
    <path d="M36.1101 56.0097C37.2594 56.7748 37.5709 58.3267 36.8059 59.4761L23.5539 79.3846C22.5738 80.8569 20.4167 80.8738 19.4137 79.4171L16.0106 74.4747L10.1377 73.2426C8.40674 72.8795 7.58988 70.8829 8.56991 69.4106L21.8219 49.5021C22.587 48.3527 24.1389 48.0412 25.2883 48.8063L36.1101 56.0097Z" fill="#D12C1E" stroke="white" stroke-width="3"/>
  </svg>