<svg xmlns="http://www.w3.org/2000/svg" width="90" height="90" viewBox="0 0 90 90" fill="none">
    <path d="M69.2066 15V76H37.8144V61.7031C37.8137 60.8612 37.0237 60.1783 36.0484 60.1783H20.7939V15.0001L69.2066 15ZM63.4137 21.1719C63.3583 21.1692 63.3035 21.1692 63.2481 21.1719H28.0773C27.6051 21.166 27.1494 21.324 26.8126 21.6107C26.4764 21.8974 26.2868 22.2883 26.2868 22.6968C26.2868 23.1047 26.4764 23.4962 26.8126 23.7829C27.1494 24.0696 27.6051 24.2275 28.0773 24.2217H63.2481C63.7166 24.2408 64.1741 24.0983 64.5208 23.826C64.8675 23.5531 65.075 23.1728 65.0965 22.7681C65.1187 22.3638 64.9537 21.9681 64.6378 21.6687C64.3225 21.3692 63.8823 21.1905 63.4137 21.1719ZM63.4137 29.3686C63.3583 29.3665 63.3035 29.3665 63.2481 29.3686H28.0773C27.6051 29.3628 27.1494 29.5207 26.8126 29.8074C26.4764 30.0941 26.2868 30.4856 26.2868 30.8935C26.2868 31.302 26.4764 31.6929 26.8126 31.9796C27.1494 32.2663 27.6051 32.4243 28.0773 32.4184H63.2481C63.7166 32.4376 64.1741 32.295 64.5208 32.0227C64.8675 31.7499 65.075 31.3696 65.0965 30.9653C65.1187 30.5606 64.9537 30.1649 64.6378 29.866C64.3225 29.5665 63.8823 29.3872 63.4137 29.3686ZM63.4137 37.5654C63.3583 37.5632 63.3035 37.5632 63.2481 37.5654H28.0773C27.6051 37.5595 27.1494 37.7175 26.8126 38.0042C26.4764 38.2908 26.2868 38.6823 26.2868 39.0903C26.2868 39.4987 26.4764 39.8897 26.8126 40.1764C27.1494 40.463 27.6051 40.621 28.0773 40.6152H63.2481C63.7166 40.6343 64.1741 40.4918 64.5208 40.2195C64.8675 39.9466 65.075 39.5663 65.0965 39.1621C65.1187 38.7573 64.9537 38.3621 64.6378 38.0627C64.3225 37.7633 63.8823 37.5845 63.4137 37.5654ZM63.4137 45.7621C63.3583 45.76 63.3035 45.76 63.2481 45.7621H28.0773C27.6051 45.7562 27.1494 45.9147 26.8126 46.2014C26.4764 46.4876 26.2868 46.8791 26.2868 47.2875C26.2868 47.6955 26.4764 48.0869 26.8126 48.3731C27.1494 48.6598 27.6051 48.8183 28.0773 48.8124H63.2481C63.7166 48.8316 64.1741 48.689 64.5208 48.4162C64.8675 48.1439 65.075 47.763 65.0965 47.3588C65.1187 46.954 64.9537 46.5589 64.6378 46.2594C64.3225 45.96 63.8823 45.7812 63.4137 45.7621ZM63.5793 53.9828C63.5239 53.9807 63.4691 53.9807 63.4137 53.9828C63.3583 53.9807 63.3035 53.9807 63.2481 53.9828H43.2478C42.7755 53.9769 42.3199 54.1355 41.9837 54.4221C41.6468 54.7083 41.4572 55.0998 41.4572 55.5077C41.4572 55.9162 41.6468 56.3071 41.9837 56.5938C42.3199 56.8805 42.7755 57.039 43.2478 57.0331H63.2481C64.2234 57.1119 65.0879 56.4933 65.179 55.6508C65.2708 54.8089 64.554 54.062 63.5793 53.9828Z" fill="#050081"/>
    <path d="M34.2815 63.2285H21.7002L34.2815 74.9789V63.2285Z" fill="#E20000"/>
  </svg>