<svg xmlns="http://www.w3.org/2000/svg" width="45" height="67" viewBox="0 0 45 67" fill="none">
    <g clip-path="url(#clip0_955_34357)">
      <path d="M40.9688 39.8019L25.0799 33.1683L24.9441 33.0356L24.6725 18.5742C24.6725 16.4514 22.9071 14.7267 20.7342 14.7267C18.5614 14.7267 16.7959 16.4514 16.7959 18.5742L15.8453 47.895L15.0305 48.691C14.7589 48.293 14.3515 47.895 13.9441 47.497C12.5861 46.0376 9.87002 41.1287 5.52434 40.4653C1.45026 39.9346 -1.53739 42.0574 3.2157 48.1603C4.57372 49.7524 14.8947 65.6732 15.7095 67L15.8453 67.1326H41.1046C41.2404 67.1326 41.2404 67.1326 41.2404 67L43.0058 63.6831C44.0922 61.4277 44.7712 58.9069 44.7712 56.3861V45.1089C44.4996 42.8534 43.1416 40.7306 40.9688 39.8019Z" fill="#050081"/>
      <path d="M20.87 11.4099C19.7836 11.4099 18.833 10.4812 18.833 9.4198V1.9901C18.833 0.928713 19.6478 0 20.87 0C21.9565 0 22.9071 0.928713 22.9071 1.9901V9.4198C22.9071 10.4812 21.9565 11.4099 20.87 11.4099Z" fill="#E20000"/>
      <path d="M10.5491 21.3604L3.08001 21.2278C1.99359 21.2278 1.04297 20.299 1.04297 19.2377C1.04297 18.1763 1.99359 17.2476 3.08001 17.2476L10.5491 17.3802C11.6356 17.3802 12.5862 18.3089 12.5862 19.3703C12.5862 20.5644 11.6356 21.3604 10.5491 21.3604Z" fill="#E20000"/>
      <path d="M31.0556 21.3604C29.9692 21.3604 29.0186 20.4317 29.0186 19.3703C29.0186 18.3089 29.9692 17.3802 31.0556 17.3802L38.5247 17.2476C39.6111 17.2476 40.5618 18.1763 40.5618 19.2377C40.5618 20.299 39.6111 21.2278 38.5247 21.2278L31.0556 21.3604Z" fill="#E20000"/>
      <path d="M13.537 14.3287C12.9938 14.3287 12.4506 14.0633 12.0431 13.6653L6.74685 8.35839C5.93204 7.56235 5.93204 6.36829 6.74685 5.57225C7.56167 4.77621 8.78389 4.77621 9.5987 5.57225L14.895 10.8792C15.7098 11.6752 15.7098 12.8693 14.895 13.6653C14.6234 14.196 14.0802 14.3287 13.537 14.3287Z" fill="#E20000"/>
      <path d="M28.0678 14.3287C27.5246 14.3287 26.9814 14.196 26.574 13.798C25.7592 13.002 25.7592 11.8079 26.574 11.0119L31.8703 5.70494C32.6851 4.9089 33.9073 4.9089 34.7221 5.70494C35.537 6.50098 35.537 7.69504 34.7221 8.49108L29.4259 13.798C29.1542 14.0634 28.611 14.3287 28.0678 14.3287Z" fill="#E20000"/>
    </g>
    <defs>
      <clipPath id="clip0_955_34357">
        <rect width="44" height="67" fill="white" transform="translate(0.5)"/>
      </clipPath>
    </defs>
  </svg>