<svg xmlns="http://www.w3.org/2000/svg" width="39" height="116" viewBox="0 0 39 116" fill="none">
    <path d="M23.5182 3.89577C23.5211 1.74505 21.7784 9.1565e-07 19.6277 5.89672e-07V5.89672e-07C17.479 2.64005e-07 15.7372 1.74185 15.7372 3.89053V15.2685C6.97244 17.0618 0.380859 24.7678 0.380859 34.0314L0.38086 42.2292C0.38086 43.6639 1.55498 44.8321 2.99689 44.8321H36.2432C37.6851 44.8321 38.8592 43.6639 38.8592 42.2292V34.0314C38.8592 24.7883 32.2676 17.0618 23.5029 15.2685L23.5182 3.89577Z" fill="#D12C1E"/>
    <path d="M30.4661 53.2659C28.9006 53.2659 27.6235 54.5365 27.6132 56.1044L27.6132 71.1884L11.6286 71.1884V56.1044C11.6286 54.5468 10.3515 53.2761 8.77571 53.2659L8.13715 53.2659C6.57165 53.2659 5.29453 54.5365 5.28423 56.1044L5.30483 71.1884H3.01838C1.57647 71.1884 0.402344 72.3566 0.402344 73.7913V81.9891C0.402344 91.2322 6.99392 98.9587 15.7587 100.752L15.7433 112.104C15.7404 114.255 17.4831 116 19.6338 116V116C21.7825 116 23.5244 114.258 23.5244 112.109L23.5244 100.731C32.2891 98.9382 38.8807 91.2322 38.8807 81.9686V73.7708C38.8807 72.3361 37.7066 71.1679 36.2647 71.1679H33.9782V56.0839C33.9782 54.5263 32.7011 53.2556 31.1253 53.2454L30.4661 53.2659Z" fill="#000B7C"/>
  </svg>