<svg xmlns="http://www.w3.org/2000/svg" width="80" height="80" viewBox="0 0 80 80" fill="none">
    <path d="M75.2665 61.5549L56.7872 45.2003C58.9322 39.0053 57.6122 31.9018 52.6624 27.0284C47.7126 22.0725 40.6179 20.7509 34.5131 22.8985C34.4306 22.8985 34.3481 22.9811 34.3481 22.9811C34.1006 23.2289 34.1006 23.6419 34.3481 23.8071L44.4952 33.9668C45.1552 34.6276 45.1552 35.784 44.4952 36.4447L37.483 43.4657C36.823 44.1265 35.668 44.1265 35.0081 43.4657L24.861 33.306C24.6135 33.0582 24.201 33.1408 24.036 33.306C23.9535 33.3886 23.9535 33.3886 23.9535 33.4712C21.8086 39.5835 23.211 46.7696 28.0783 51.643C32.9457 56.5163 40.0404 57.9205 46.1451 55.7729C51.8374 62.2157 57.6122 68.741 62.562 74.1925C65.9444 77.9095 71.8017 77.7443 75.349 74.1925C78.8139 70.806 78.9789 64.8588 75.2665 61.5549ZM74.524 69.8974L70.7292 73.697C70.6467 73.7796 70.3992 73.8621 70.2342 73.8621C70.1517 73.8621 70.0692 73.8621 69.9867 73.8621L64.8719 72.458C64.7894 72.458 64.6244 72.3754 64.5419 72.2928C64.4594 72.2102 64.3769 72.045 64.3769 71.9624L62.9745 66.8412C62.892 66.5934 62.9745 66.263 63.222 66.0152L67.0168 62.2157C67.1818 62.0505 67.5118 61.8853 67.8418 61.9679L72.9566 63.3721C73.2041 63.4547 73.4516 63.7025 73.5341 63.9503L74.9365 69.0714C74.854 69.3192 74.7715 69.6496 74.524 69.8974Z" fill="#000B7C"/>
    <path d="M40.4536 63.0407C27.5016 63.0407 16.942 52.4681 16.942 39.5C16.942 26.5319 27.5016 15.9593 40.4536 15.9593C53.4056 15.9593 63.9651 26.5319 63.9651 39.5C63.9651 42.3084 63.4702 45.0341 62.5627 47.5947C64.2951 49.1641 66.0276 50.6509 67.76 52.1377C67.925 51.7247 68.09 51.3943 68.255 50.9813C68.6675 49.9075 69.0799 48.8337 69.4099 47.7599C69.6574 47.0165 70.2349 46.4383 70.9774 46.4383H74.9372C77.7421 46.4383 77.9071 45.1167 77.9071 39.5C77.9071 33.8833 77.7421 32.5617 74.9372 32.5617H70.9774C70.2349 32.5617 69.6574 31.9009 69.4099 31.2401C69.0799 30.0837 68.6675 29.0099 68.255 27.9361C67.8425 26.8623 67.3475 25.8711 66.77 24.7974C66.4401 24.1366 66.3576 23.3106 66.935 22.7324L69.7399 19.924C71.7198 17.9416 70.9774 16.8678 67.0175 12.9031C66.77 12.6553 66.5225 12.4075 66.2751 12.1597C62.8927 8.77313 61.9027 8.19493 60.0053 10.0947C59.0978 11.0033 58.1079 11.9945 57.2004 12.9031C56.6229 13.5639 55.798 13.5639 55.138 13.2335C54.148 12.6553 53.0756 12.2423 52.0031 11.7467C50.9307 11.3337 49.8582 10.9207 48.7032 10.5903C47.9608 10.3425 47.3833 9.76432 47.3833 9.02092V4.97357C47.3833 2.1652 46.0633 2 40.4536 2C40.1236 2 39.7936 2 39.4636 2C34.6788 2 33.6063 2.3304 33.6063 4.97357V8.93833C33.6063 9.68172 32.9463 10.2599 32.2864 10.5077C31.1314 10.8381 30.059 11.2511 28.9865 11.6641C27.914 12.0771 26.9241 12.5727 25.8516 13.1509C25.1916 13.4813 24.3667 13.5639 23.7892 12.9857L20.9843 10.2599C19.0044 8.27753 17.9319 9.02092 13.9721 12.9857C10.0122 16.9504 9.18726 18.0242 11.2497 20.0066L14.0546 22.815C14.6321 23.3932 14.5496 24.2192 14.2196 24.88C13.6421 25.8711 13.2296 26.9449 12.7346 28.0187C12.3221 29.0925 11.9097 30.1663 11.5797 31.3227C11.3322 32.0661 10.7547 32.6443 10.0122 32.6443H5.96989C3.16499 32.6443 3 33.9659 3 39.5826C3 45.1993 3.16499 46.5209 5.96989 46.5209H9.92973C10.6722 46.5209 11.3322 47.1817 11.4972 47.8425C11.8272 48.9163 12.2396 49.9901 12.6521 51.0639C13.0646 52.1377 13.5596 53.2115 14.1371 54.2026C14.5496 54.8634 14.5496 55.6894 14.0546 56.2676C13.1471 57.1762 12.1571 58.1674 11.2497 59.076C9.26976 61.0584 10.0122 62.1322 13.9721 66.0969C17.9319 70.0617 19.0044 70.8877 20.9843 68.8227L23.7892 66.0143C24.3667 65.4361 25.1916 65.5187 25.8516 65.8491C26.8416 66.4273 27.914 66.9229 28.9865 67.3359C30.059 67.7489 31.1314 68.1619 32.2039 68.4923C32.9463 68.7401 33.5238 69.3183 33.5238 70.0617V74.0264C33.5238 76.8348 34.8438 77 40.4536 77C46.0633 77 47.3833 76.8348 47.3833 74.0264V70.0617C47.3833 69.3183 48.0433 68.6575 48.7032 68.4923C49.7757 68.1619 50.8482 67.7489 51.9206 67.3359C52.2506 67.1707 52.6631 67.0055 52.9931 66.9229C51.5081 65.1883 49.9407 63.4537 48.4557 61.7192C45.9808 62.5452 43.2584 63.0407 40.4536 63.0407Z" fill="#D12C1E"/>
  </svg>