<svg xmlns="http://www.w3.org/2000/svg" width="90" height="90" viewBox="0 0 90 90" fill="none">
    <path d="M20.8188 17.3865L14.779 14.5216C13.601 13.9627 12.7083 13.3359 11.6378 15.6507L1.22671 37.7645C0.669898 38.947 1.17416 40.3595 2.35159 40.9177L8.3914 43.7826C9.56947 44.3415 10.9766 43.8353 11.5326 42.6534L21.9424 20.5396C22.5011 19.3571 21.9982 17.9453 20.8188 17.3865Z" fill="#E20000"/>
    <path d="M75.3286 59.7866C74.1493 61.2479 72.4179 62.0071 70.672 62.0071C70.4252 62.0071 70.179 61.987 69.9328 61.9562C69.8995 63.2619 69.4448 64.511 68.6146 65.5396C67.6155 66.778 66.1886 67.5542 64.5986 67.7232C64.3813 67.7464 64.1647 67.7584 63.9486 67.7584C63.4581 67.7584 62.9765 67.6962 62.5092 67.58C62.378 68.6501 61.9572 69.697 61.2319 70.5963C60.2327 71.8348 58.8059 72.6109 57.2146 72.7799C56.9973 72.8031 56.7806 72.8151 56.5646 72.8151C55.2031 72.8151 53.8968 72.3566 52.8274 71.4938L52.6051 71.3148C52.4192 71.9629 52.1039 72.5865 51.6536 73.1435C50.6275 74.4159 49.1189 75.0771 47.5992 75.0771C46.4857 75.0771 45.3666 74.7229 44.4234 73.9938L44.277 73.9027L43.7759 74.5452C42.4922 76.1898 40.0977 76.485 38.453 75.2027C37.0456 74.1043 36.6305 72.1939 37.3427 70.6339L37.0896 70.958C35.7162 72.7182 33.152 73.0348 31.3918 71.6614C29.9826 70.5617 29.5002 68.6984 30.0686 67.0958C28.6443 68.5296 26.3231 68.7072 24.6928 67.435L24.5728 67.3408C22.9651 66.0866 22.5632 63.8384 23.5517 62.1183C21.993 63.3951 19.6926 63.4767 18.0417 62.1887C16.13 60.6972 15.7859 57.9119 17.2786 55.9997L19.3736 53.3157L13.856 46.1213C13.4742 45.6233 13.402 44.9532 13.6701 44.3848L14.7007 42.1993L20.2378 48.9283L21.6194 50.73C23.1686 49.616 25.3359 49.5959 26.9109 50.8249C28.8226 52.3164 29.1667 55.1016 27.6739 57.0138L27.4498 57.3008C28.8785 56.2464 30.8981 56.2181 32.3627 57.3611L32.4826 57.4553C33.998 58.6379 34.4421 60.7014 33.6608 62.3757C35.092 61.2886 37.1387 61.2484 38.6182 62.4027C40.0796 63.5431 40.5431 65.5024 39.8724 67.1421L40.2825 67.3839C41.5322 66.8087 43.0532 66.9299 44.2075 67.8298C45.1576 68.5708 45.6538 69.6843 45.6588 70.8096L46.2793 71.1965C46.3364 71.2323 46.3923 71.2712 46.4444 71.3145C47.2376 71.9545 48.4032 71.8295 49.0431 71.0363C49.6829 70.2432 49.558 69.0775 48.7649 68.4377C48.7567 68.4307 48.7479 68.4238 48.7398 68.4169L42.0006 62.758C41.9824 62.743 41.9667 62.726 41.9498 62.7109C41.929 62.6921 41.9071 62.6726 41.887 62.6519C41.8681 62.6318 41.8499 62.6117 41.8311 62.591C41.8122 62.5703 41.7921 62.5489 41.7739 62.5257C41.757 62.5049 41.7406 62.483 41.7249 62.4604C41.708 62.4371 41.691 62.4151 41.676 62.3925C41.6609 62.3693 41.6477 62.3454 41.6339 62.3222C41.6201 62.299 41.6056 62.2751 41.5931 62.2512C41.5799 62.2261 41.5692 62.201 41.5579 62.1765C41.5466 62.1526 41.5347 62.1288 41.5246 62.1036C41.5146 62.0779 41.5058 62.0515 41.4963 62.0264C41.4875 62.0013 41.4781 61.9762 41.4712 61.9517C41.4631 61.9259 41.4574 61.8989 41.4511 61.8725C41.4448 61.8468 41.4379 61.8217 41.4329 61.7953C41.4279 61.7683 41.4241 61.7413 41.421 61.7155C41.4172 61.6898 41.4128 61.6628 41.4097 61.6364C41.4065 61.6094 41.4065 61.5837 41.4047 61.5567C41.4034 61.5297 41.4015 61.5026 41.4015 61.4756C41.4015 61.4486 41.4034 61.4229 41.4047 61.3959C41.4059 61.3689 41.4065 61.3419 41.4097 61.3149C41.4128 61.2879 41.4166 61.2621 41.421 61.2351C41.4247 61.2081 41.4279 61.1811 41.4329 61.1554C41.4379 61.1284 41.4448 61.1026 41.4518 61.0762C41.458 61.0505 41.4637 61.0241 41.4719 60.9984C41.48 60.9714 41.4901 60.9456 41.4989 60.9192C41.5076 60.8941 41.5158 60.869 41.5259 60.8445C41.5372 60.8175 41.5497 60.7917 41.5617 60.7654C41.573 60.7415 41.5836 60.7183 41.5956 60.6944C41.6094 60.6674 41.6257 60.6423 41.6414 60.6165C41.6546 60.5946 41.6672 60.5726 41.6816 60.5506C41.6986 60.5248 41.7174 60.5004 41.7369 60.4759C41.7501 60.4589 41.7607 60.4407 41.7739 60.425C41.7771 60.4212 41.7808 60.4181 41.784 60.4137C41.7877 60.4087 41.7909 60.4049 41.7953 60.3999C41.811 60.381 41.8286 60.3641 41.8455 60.3459C41.8637 60.3258 41.8813 60.305 41.9008 60.2856C41.9215 60.2649 41.9435 60.2454 41.9667 60.2253C41.9868 60.2071 42.0057 60.1895 42.027 60.1732C42.0502 60.1543 42.0741 60.138 42.098 60.1204C42.1187 60.1053 42.1401 60.0896 42.1608 60.0752C42.1859 60.0595 42.211 60.0444 42.2368 60.03C42.2587 60.0168 42.2795 60.0042 42.3027 59.9917C42.3285 59.9779 42.3555 59.9659 42.3825 59.9534C42.4057 59.9433 42.4277 59.9326 42.4503 59.9226C42.4773 59.9113 42.5056 59.9025 42.5326 59.8924C42.5558 59.8843 42.5797 59.8755 42.6029 59.8686C42.6299 59.8604 42.6582 59.8548 42.6858 59.8479C42.7109 59.8416 42.7348 59.8347 42.7599 59.8309C42.7869 59.8259 42.8139 59.8221 42.8422 59.8177C42.8679 59.8139 42.8943 59.8095 42.92 59.8064C42.947 59.8033 42.9728 59.8033 42.9998 59.8014C43.0268 59.8001 43.0538 59.7982 43.0808 59.7982C43.1066 59.7982 43.1329 59.8001 43.1587 59.8014C43.1869 59.8026 43.2146 59.8033 43.2416 59.8064C43.2667 59.8083 43.2924 59.8133 43.3176 59.8165C43.3458 59.8202 43.3735 59.8246 43.4017 59.8296C43.4268 59.8347 43.452 59.8416 43.4764 59.8479C43.5047 59.8548 43.5317 59.861 43.5593 59.8686C43.5845 59.8767 43.6096 59.8855 43.6341 59.8943C43.6598 59.9031 43.6868 59.9125 43.7132 59.9232C43.739 59.9333 43.7634 59.9465 43.7892 59.9571C43.8143 59.9691 43.8394 59.9804 43.8633 59.9929C43.8884 60.0061 43.9135 60.0218 43.938 60.0369C43.9613 60.0507 43.9851 60.0639 44.0071 60.079C44.0322 60.0947 44.0548 60.1141 44.0793 60.1317C44.0975 60.1449 44.1151 60.1568 44.1333 60.1707L54.9338 68.8874C55.4751 69.3232 56.1584 69.5235 56.8574 69.4488C57.5564 69.3741 58.1831 69.035 58.6189 68.4936C59.4529 67.4593 59.3694 65.981 58.477 65.0427L49.4087 57.7252C49.334 57.6649 49.2674 57.5989 49.2065 57.5292L46.984 55.7344C46.263 55.1522 46.15 54.096 46.7322 53.3756C47.3143 52.6546 48.3706 52.5416 49.091 53.1238L60.3329 62.1972C60.4729 62.3103 60.6061 62.4296 60.7329 62.5521L62.3168 63.8307C62.8581 64.2678 63.5433 64.4656 64.2404 64.3921C64.9394 64.3174 65.5661 63.9783 66.0019 63.4369C66.9094 62.3128 66.7329 60.6593 65.6088 59.7518L51.6621 48.4904C50.9411 47.9082 50.8281 46.852 51.4103 46.1316C51.9924 45.4106 53.0487 45.2976 53.7691 45.8798L66.0962 55.828L69.0315 58.0725C69.5728 58.5083 70.2542 58.7086 70.9551 58.6339C71.6541 58.5592 72.2808 58.2201 72.7166 57.6787C73.1525 57.1374 73.3528 56.4541 73.2781 55.7551C73.2034 55.0561 72.8642 54.4294 72.3229 53.9936L43.9922 30.7673C41.6943 32.0296 39.9159 34.5605 39.9159 34.5605C34.6671 48.256 28.9265 40.4655 28.9265 40.4655C30.5668 38.3327 32.0427 28.8197 32.0427 28.8197C32.9552 27.1982 35.3497 25.6156 37.946 24.2981L33.1084 24.1021L33.1166 24.0871L23.5351 23.4547L24.4947 21.42C24.7817 20.8096 25.4072 20.4334 26.0804 20.4585L45.4595 21.2429C45.9858 21.0796 46.3701 20.9779 46.561 20.9458C57.8287 19.0631 63.8646 23.8159 63.8646 23.8159L75.3464 47.0245L73.4554 50.5796L74.4439 51.3897C76.9967 53.452 77.4 57.2213 75.33 59.7862L75.3286 59.7866ZM88.0953 40.2821L77.4802 18.2471C76.9118 17.069 75.4963 16.5735 74.3182 17.1418L68.2762 20.0525C67.0981 20.6209 66.6026 22.0364 67.1709 23.2145L77.786 45.2479C78.3543 46.4261 79.7699 46.9215 80.948 46.3532L86.99 43.4425C88.1675 42.8766 88.6623 41.4608 88.0953 40.2821Z" fill="#050081"/>
  </svg>