<svg xmlns="http://www.w3.org/2000/svg" width="93" height="141" viewBox="0 0 93 141" fill="none">
    <path d="M54.8118 119.744C48.618 124.142 41.1677 126.616 33.1789 126.616C25.1902 126.616 17.7397 124.051 11.5461 119.744L3.3775 132.48C1.04383 136.144 3.64674 141 7.86564 141L58.3124 141C62.6208 141 65.2243 136.144 62.8901 132.48L54.8118 119.744Z" fill="#000B7C"/>
    <path d="M33.1338 128.497C51.3801 128.497 66.2676 113.629 66.2676 95.4081C66.2676 77.0962 51.3801 62.229 33.1338 62.229C14.8875 62.229 -2.59946e-06 77.0962 -5.78537e-06 95.3175C-8.98714e-06 113.629 14.8875 128.497 33.1338 128.497ZM33.1338 76.3709C43.5729 76.3709 52.1063 84.8925 52.1063 95.3175C52.1063 105.743 43.573 114.355 33.1338 114.355C22.6945 114.355 14.1613 105.833 14.1613 95.3175C14.1613 84.8022 22.6033 76.3709 33.1338 76.3709V76.3709Z" fill="#000B7C"/>
    <path d="M32.5091 105.991C38.7606 105.991 43.7618 100.989 43.7618 94.7376C43.7618 88.486 38.7607 83.4846 32.5091 83.4846C31.7946 83.4846 31.0801 83.5737 30.4552 83.6634C31.3486 84.735 31.7946 86.075 31.7946 87.5932C31.7946 91.1654 28.9364 94.0236 25.3644 94.0236C23.8462 94.0236 22.5062 93.4879 21.4347 92.6842C21.3456 93.3097 21.2559 94.0236 21.2559 94.7382C21.2565 100.9 26.2576 105.991 32.509 105.991L32.5091 105.991Z" fill="#D12C1E"/>
    <path d="M70.9376 44.3009C72.1566 41.797 75.8328 42.1608 76.5374 44.8551L77.7045 49.3185C77.9261 50.1656 78.5066 50.8736 79.2938 51.2569L83.4419 53.2762C85.9459 54.4952 85.5821 58.1714 82.8877 58.876L78.4243 60.0431C77.5772 60.2647 76.8692 60.8452 76.486 61.6324L74.4666 65.7805C73.2476 68.2845 69.5714 67.9207 68.8668 65.2263L67.6997 60.7629C67.4782 59.9158 66.8976 59.2078 66.1104 58.8246L61.9623 56.8052C59.4584 55.5862 59.8222 51.91 62.5165 51.2054L66.9799 50.0383C67.827 49.8168 68.535 49.2362 68.9183 48.449L70.9376 44.3009Z" fill="#D12C1E"/>
    <path d="M48.7643 12.028C49.8328 8.43984 54.7885 8.11723 56.3131 11.5366L58.8388 17.2012C59.3181 18.2762 60.2432 19.0882 61.3713 19.4241L67.3155 21.1941C70.9037 22.2626 71.2263 27.2183 67.8068 28.7429L62.1423 31.2685C61.0673 31.7479 60.2553 32.6729 59.9193 33.8011L58.1494 39.7452C57.0809 43.3334 52.1252 43.656 50.6006 40.2366L48.075 34.5721C47.5956 33.497 46.6706 32.685 45.5424 32.3491L39.5983 30.5792C36.0101 29.5107 35.6875 24.555 39.1069 23.0304L44.7714 20.5047C45.8465 20.0254 46.6585 19.1003 46.9944 17.9722L48.7643 12.028Z" fill="#D12C1E"/>
  </svg>