<svg xmlns="http://www.w3.org/2000/svg" width="33" height="33" viewBox="0 0 33 33" fill="none">
    <path d="M6.9971 5.75734C6.95474 5.20668 6.47401 4.79462 5.92335 4.83698C5.37269 4.87934 4.96064 5.36007 5.00299 5.91073L5.91279 17.7381C5.97725 18.5761 6.02936 19.2537 6.10853 19.8049C6.19011 20.373 6.30845 20.873 6.53588 21.3434C7.08412 22.4776 8.04025 23.363 9.2131 23.8226C9.69963 24.0133 10.2072 24.0929 10.7799 24.1307C11.3355 24.1674 12.0151 24.1674 12.8555 24.1674L20.7605 24.1674C21.9119 24.1678 22.7056 24.1681 23.4246 23.9476C24.38 23.6546 25.2256 23.0821 25.8525 22.3039C26.3242 21.7182 26.6187 20.9812 27.0459 19.912L27.6528 18.3946C28.1285 17.2054 28.5069 16.2596 28.7494 15.4884C28.995 14.7077 29.1385 13.998 29.0632 13.2985C28.8854 11.6489 27.901 10.1949 26.4354 9.41726C25.814 9.08751 25.1016 8.95718 24.2856 8.89523C23.4795 8.83402 22.4608 8.83403 21.1799 8.83403H7.23377L6.9971 5.75734Z" fill="#000B7C"/>
    <path fill-rule="evenodd" clip-rule="evenodd" d="M2.33203 5.83398C2.33203 5.2817 2.77975 4.83398 3.33203 4.83398H5.9987C6.55098 4.83398 6.9987 5.2817 6.9987 5.83398C6.9987 6.38627 6.55098 6.83398 5.9987 6.83398H3.33203C2.77975 6.83398 2.33203 6.38627 2.33203 5.83398Z" fill="#000B7C"/>
    <path fill-rule="evenodd" clip-rule="evenodd" d="M7.9987 26.166C7.07822 26.166 6.33203 26.9122 6.33203 27.8327C6.33203 28.7532 7.07822 29.4993 7.9987 29.4993C8.91917 29.4993 9.66536 28.7532 9.66536 27.8327C9.66536 26.9122 8.91917 26.166 7.9987 26.166Z" fill="#000B7C"/>
    <path fill-rule="evenodd" clip-rule="evenodd" d="M23.9987 26.166C23.0782 26.166 22.332 26.9122 22.332 27.8327C22.332 28.7532 23.0782 29.4993 23.9987 29.4993C24.9192 29.4993 25.6654 28.7532 25.6654 27.8327C25.6654 26.9122 24.9192 26.166 23.9987 26.166Z" fill="#000B7C"/>
  </svg>