<svg xmlns="http://www.w3.org/2000/svg" width="32" height="33" viewBox="0 0 32 33" fill="none">
    <path d="M27.5993 5.61914H5.0393C2.9668 5.61914 1.2793 7.30503 1.2793 9.37914V11.6353H31.3593V9.37914C31.3593 7.30503 29.6718 5.61914 27.5993 5.61914Z" fill="#000B7C"/>
    <path d="M1.2793 25.9227C1.2793 27.9968 2.9668 29.6827 5.0393 29.6827H27.5993C29.6718 29.6827 31.3593 27.9968 31.3593 25.9227V13.1387H1.2793V25.9227ZM17.0713 23.6668H20.0794C20.4945 23.6668 20.8313 24.0038 20.8313 24.4187C20.8313 24.8339 20.4943 25.1707 20.0794 25.1707H17.0713C16.6561 25.1707 16.3194 24.8336 16.3194 24.4187C16.3194 24.0036 16.6564 23.6668 17.0713 23.6668ZM11.0554 23.6668H14.0635C14.4787 23.6668 14.8154 24.0038 14.8154 24.4187C14.8154 24.8339 14.4784 25.1707 14.0635 25.1707H11.0554C10.6402 25.1707 10.3035 24.8336 10.3035 24.4187C10.3032 24.0036 10.6403 23.6668 11.0554 23.6668ZM5.0393 23.6668H8.04736C8.46255 23.6668 8.7993 24.0038 8.7993 24.4187C8.7993 24.8337 8.46227 25.1707 8.04736 25.1707H5.0393C4.62411 25.1707 4.28736 24.8336 4.28736 24.4187C4.28736 24.0036 4.62413 23.6668 5.0393 23.6668Z" fill="#000B7C"/>
  </svg>