<svg xmlns="http://www.w3.org/2000/svg" width="32" height="33" viewBox="0 0 32 33" fill="none">
    <path fill-rule="evenodd" clip-rule="evenodd" d="M4.19637 14.5096C4 15.3581 4 16.2699 4 18.0936V18.3955C4 21.9483 4 23.7247 4.58042 25.126C5.35431 26.9943 6.8387 28.4787 8.70704 29.2526C9.5602 29.606 10.5524 29.7442 12 29.7983V23.1663C12 20.9572 13.7909 19.1663 16 19.1663C18.2091 19.1663 20 20.9572 20 23.1663V29.7983C21.4476 29.7442 22.4398 29.606 23.293 29.2526C25.1613 28.4787 26.6457 26.9943 27.4196 25.126C28 23.7247 28 21.9483 28 18.3955V18.0936C28 16.2699 28 15.3581 27.8036 14.5096C27.5418 13.3784 27.0251 12.3219 26.2929 11.4207C25.7437 10.7448 25.024 10.185 23.5844 9.06536L23.0219 8.62787C20.7923 6.89369 19.6775 6.02661 18.4746 5.61389C16.8708 5.0636 15.1292 5.0636 13.5254 5.61389C12.3225 6.02661 11.2077 6.89369 8.97805 8.62787L8.41555 9.06536C6.97604 10.185 6.25628 10.7448 5.70712 11.4207C4.97491 12.3219 4.45819 13.3784 4.19637 14.5096ZM16.7603 29.833H15.2397C15.305 29.833 15.371 29.833 15.4375 29.833H16.5625C16.629 29.833 16.695 29.833 16.7603 29.833Z" fill="#000B7C"/>
  </svg>