<svg xmlns="http://www.w3.org/2000/svg" width="33" height="33" viewBox="0 0 33 33" fill="none">
    <path fill-rule="evenodd" clip-rule="evenodd" d="M20.9412 5.72384C19.6506 1.50612 13.6798 1.50612 12.3891 5.72384C12.0094 6.96478 10.7347 7.70075 9.47012 7.40913C5.17215 6.41799 2.18673 11.5889 5.19407 14.8155C6.07889 15.7648 6.07889 17.2367 5.19407 18.1861C2.18673 21.4126 5.17215 26.5836 9.47012 25.5924C10.7347 25.3008 12.0094 26.0368 12.3891 27.2777C13.6798 31.4954 19.6506 31.4954 20.9412 27.2777C21.321 26.0368 22.5957 25.3008 23.8603 25.5924C28.1582 26.5836 31.1437 21.4126 28.1363 18.1861C27.2515 17.2367 27.2515 15.7648 28.1363 14.8155C31.1437 11.5889 28.1582 6.41799 23.8603 7.40913C22.5957 7.70075 21.321 6.96478 20.9412 5.72384ZM16.6652 13.5008C15.0083 13.5008 13.6652 14.844 13.6652 16.5008C13.6652 18.1577 15.0083 19.5008 16.6652 19.5008C18.3221 19.5008 19.6652 18.1577 19.6652 16.5008C19.6652 14.844 18.3221 13.5008 16.6652 13.5008ZM11.6652 16.5008C11.6652 13.7394 13.9038 11.5008 16.6652 11.5008C19.4266 11.5008 21.6652 13.7394 21.6652 16.5008C21.6652 19.2622 19.4266 21.5008 16.6652 21.5008C13.9038 21.5008 11.6652 19.2622 11.6652 16.5008Z" fill="#000B7C"/>
  </svg>