<svg xmlns="http://www.w3.org/2000/svg" width="33" height="33" viewBox="0 0 33 33" fill="none">
    <path d="M29.9007 2.87218C29.5752 2.56384 29.1376 2.40271 28.6899 2.42605C28.264 2.45717 27.8662 2.65044 27.5785 2.96617C27.2909 3.28187 27.1353 3.69586 27.1439 4.12293V10.3187C27.1435 10.7138 26.8233 11.034 26.4281 11.0344C26.2492 11.0342 26.1042 10.8893 26.104 10.7101V4.77329C26.104 4.32512 25.92 3.89658 25.5948 3.58829C25.2697 3.27999 24.832 3.11882 24.3846 3.14257C23.9586 3.17369 23.5607 3.36696 23.2731 3.68269C22.9854 3.99839 22.83 4.41238 22.8386 4.83945V10.7102C22.8382 10.8892 22.6933 11.0343 22.5143 11.0345C22.1192 11.0341 21.7992 10.7139 21.7986 10.3188V4.12304C21.8072 3.69616 21.6518 3.28196 21.3641 2.96628C21.0765 2.65057 20.6787 2.4573 20.2526 2.42616C19.805 2.40241 19.3675 2.56354 19.0424 2.87208C18.7173 3.18042 18.5332 3.60875 18.5332 4.05688V11.4933C18.533 12.4332 18.8657 13.3431 19.4728 14.0609C20.0796 14.7787 20.9213 15.2584 21.8483 15.4144L21.1405 26.3876C21.081 27.3085 21.4053 28.2126 22.0363 28.8858C22.6673 29.559 23.5489 29.9408 24.4714 29.9408C25.3942 29.9408 26.2756 29.559 26.9066 28.8858C27.5376 28.2126 27.8619 27.3085 27.8024 26.3876L27.0944 15.4139C28.0214 15.2578 28.8631 14.7783 29.4699 14.0605C30.077 13.3428 30.4097 12.4329 30.4095 11.4929V4.05657C30.4087 3.6086 30.225 3.18069 29.9007 2.87193L29.9007 2.87218Z" fill="#000B7C"/>
    <path d="M13.3777 3.64328C12.0977 2.7357 10.5376 2.31063 8.97417 2.44392C7.41059 2.577 5.94485 3.25957 4.83679 4.37073C4.46642 4.74396 4.14048 5.15897 3.86531 5.60715V5.60756C3.22917 6.64948 2.89258 7.8466 2.89258 9.06745V10.4814C2.89503 11.7872 3.28076 13.0638 4.00206 14.1524C4.72337 15.241 5.74846 16.0937 6.9503 16.6049L6.31337 26.4995C6.25072 27.3901 6.56397 28.2664 7.17698 28.9156C7.78875 29.5679 8.64292 29.9385 9.5372 29.9399C10.4309 29.9403 11.2849 29.571 11.8964 28.9193C12.508 28.2678 12.8224 27.3921 12.7653 26.5003L12.1241 16.6052C13.3257 16.094 14.3508 15.2413 15.0721 14.1527C15.7936 13.0641 16.1794 11.7875 16.1818 10.4817V9.06777C16.18 6.91249 15.1352 4.89107 13.3777 3.64354V3.64328Z" fill="#000B7C"/>
  </svg>