<svg xmlns="http://www.w3.org/2000/svg" width="33" height="33" viewBox="0 0 33 33" fill="none">
    <path d="M4.46268 3.69922H27.6041C29.002 3.69922 30.1352 5.09708 30.1352 6.23025V11.2926C30.1352 12.6904 29.002 13.8236 27.6041 13.8236H4.46268C3.06482 13.8236 1.93164 12.4257 1.93164 11.2926V6.23025C1.93164 4.8324 3.06482 3.69922 4.46268 3.69922Z" fill="#000B7C"/>
    <path d="M4.46322 15.2701C4.26952 15.2706 4.07629 15.2561 3.88477 15.2266V26.7685C3.88791 27.4387 4.15547 28.0808 4.6296 28.5547C5.10345 29.0288 5.7456 29.2963 6.4158 29.2995H25.6527C26.3229 29.2963 26.9651 29.0288 27.4389 28.5547C27.913 28.0808 28.1806 27.4387 28.1838 26.7685V15.2266C27.9922 15.2561 27.799 15.2706 27.6053 15.2701H4.46322ZM19.6499 20.477H12.418H12.4182C12.0305 20.477 11.6724 20.2702 11.4787 19.9346C11.285 19.599 11.285 19.1855 11.4787 18.8499C11.6724 18.5143 12.0306 18.3075 12.4182 18.3075H19.6502H19.6499C20.0376 18.3075 20.3957 18.5143 20.5894 18.8499C20.7831 19.1855 20.7831 19.599 20.5894 19.9346C20.3957 20.2702 20.0376 20.477 19.6499 20.477Z" fill="#000B7C"/>
  </svg>