<svg width="133" height="29" viewBox="0 0 133 29" fill="none" xmlns="http://www.w3.org/2000/svg">
<path fill-rule="evenodd" clip-rule="evenodd" d="M12.9727 0.31057C12.2114 0.401706 11.9297 0.445757 11.3392 0.565881C6.21427 1.60882 2.08504 5.64995 0.812092 10.8684C0.511159 12.1021 0.44582 12.6913 0.444373 14.1841C0.44302 15.5632 0.477417 15.9469 0.701203 17.0499C1.47272 20.8524 3.87803 24.2435 7.20155 26.2143C11.25 28.6152 16.239 28.7468 20.4268 26.5632C23.3325 25.0481 25.6798 22.419 26.869 19.3472C27.9425 16.5747 28.1331 13.7158 27.4357 10.8478C26.8333 8.37089 25.6761 6.27914 23.8767 4.41474L23.2712 3.78731L23.0573 4.18994C22.7249 4.8158 22.2954 5.3962 21.8173 5.86566C20.6113 7.04981 18.9986 7.71779 16.7063 7.98272C16.2196 8.03899 15.4726 8.06646 14.0461 8.08072L12.0626 8.10047L11.6564 9.69762C11.433 10.576 11.2492 11.3204 11.248 11.3518C11.2468 11.3833 11.4006 11.2963 11.5899 11.1585C11.9819 10.873 12.6365 10.5188 13.1003 10.3412C14.4348 9.83001 16.0512 9.89656 17.3542 10.5163C19.635 11.601 20.9884 14.0823 20.7244 16.6946C20.6143 17.784 20.3767 18.6194 19.9026 19.5851C18.8708 21.6863 16.8752 23.2292 14.5934 23.69C13.905 23.829 12.6212 23.8403 11.9459 23.7133C10.3122 23.4062 8.85061 22.4934 7.89839 21.1858C7.45996 20.5838 6.68882 18.9534 6.79402 18.851C6.83243 18.8137 9.73278 18.0446 9.83517 18.0446C9.86042 18.0446 9.90854 18.1119 9.9421 18.1941C10.1648 18.7399 10.8858 19.5787 11.4094 19.9013C12.5428 20.5996 13.8931 20.5604 15.0473 19.7956C16.2204 19.0184 16.9542 17.6341 16.9548 16.1973C16.9554 14.7143 16.003 13.5027 14.5128 13.0902C14.1009 12.9762 13.2959 12.9762 12.856 13.0901C12.1466 13.2738 11.4073 13.7358 10.8984 14.3133C10.6706 14.5718 10.2017 15.2328 10.1624 15.351C10.15 15.388 7.43415 14.2413 7.36368 14.1693C7.32004 14.1247 9.10095 6.89904 9.28633 6.36847C10.1778 3.81734 12.016 2.24256 14.7575 1.68101C15.7899 1.46951 17.3558 1.33215 18.8532 1.32168L19.3432 1.31827L18.9932 1.17797C18.1876 0.855061 17.1285 0.573081 16.1364 0.417431C15.6616 0.342922 15.2372 0.31668 14.3261 0.305548C13.6716 0.297591 13.0625 0.299818 12.9727 0.31057ZM21.9687 2.81964C21.9538 2.8347 20.8215 2.86577 19.4523 2.8887C18.0832 2.91162 16.753 2.95312 16.4963 2.98088C14.8386 3.16021 13.6561 3.51769 12.7527 4.11268C12.3477 4.37936 11.7662 4.95682 11.4813 5.37512C11.2645 5.69343 10.8725 6.4237 10.8725 6.50925C10.8725 6.528 12.0644 6.53307 13.521 6.52052C16.3021 6.49651 16.6393 6.47462 17.7564 6.24565C19.7996 5.82682 21.1588 4.78506 21.9072 3.06457C22.0188 2.8077 22.032 2.75531 21.9687 2.81964ZM74.4884 8.12387C74.1897 8.20705 74.0026 8.31784 73.7986 8.53242C73.2762 9.08212 73.3204 10.0889 73.8887 10.5826C74.46 11.0789 75.3683 11.0476 75.8784 10.5142C76.2104 10.167 76.3508 9.53528 76.2054 9.04294C76.1121 8.72686 75.8424 8.42096 75.5096 8.2537C75.1422 8.06902 74.8286 8.02913 74.4884 8.12387ZM78.284 8.09886C77.9787 8.1603 77.772 8.26578 77.5497 8.47382C76.8432 9.13474 77.0538 10.4149 77.9341 10.811C78.2554 10.9557 78.7397 10.9726 79.0584 10.8504C79.422 10.7109 79.6369 10.512 79.8106 10.1539C80.2357 9.27732 79.7703 8.29913 78.8344 8.10208C78.5604 8.04439 78.5547 8.04439 78.284 8.09886ZM33.6011 14.7999V21.2656H34.8612H36.1213V16.0315V10.7973H38.7582H41.3951V16.0315V21.2656H42.6552H43.9153V14.7999V8.33423H38.7582H33.6011V14.7999ZM60.0167 11.6351C59.7783 11.6752 59.2853 11.8518 59.0347 11.9869C58.6133 12.214 58.2043 12.591 57.9073 13.026C57.8311 13.1377 57.828 13.1177 57.8256 12.4907L57.8232 11.8394H56.6564H55.4897V16.5525V21.2656H56.6798H57.8699L57.8707 18.5301C57.8716 15.5138 57.8812 15.3899 58.1538 14.8706C58.3445 14.5075 58.677 14.1938 59.0729 14.0034C59.3666 13.8622 59.4197 13.8526 59.901 13.8526C60.3882 13.8526 60.4319 13.8608 60.727 14.0083C61.2061 14.2476 61.5108 14.6392 61.6828 15.2366C61.7521 15.4771 61.7638 15.8602 61.7789 18.388L61.7961 21.2656H62.9833H64.1704L64.1711 18.5064C64.1717 16.2394 64.1841 15.6943 64.2408 15.4503C64.432 14.6271 65.0014 14.0364 65.7637 13.8704C65.8994 13.8409 66.1728 13.828 66.3713 13.8418C67.1763 13.8979 67.7328 14.374 67.9894 15.2262C68.0491 15.4246 68.0636 15.9345 68.0787 18.3643L68.0966 21.2656H69.2859H70.4752L70.4592 18.0091C70.4435 14.8302 70.4407 14.7432 70.3403 14.3585C69.9499 12.8625 68.9024 11.8906 67.4185 11.6476C66.8664 11.5573 65.9676 11.6114 65.4562 11.7658C64.686 11.9983 63.9876 12.4455 63.5897 12.9609C63.4855 13.0957 63.3898 13.2077 63.3769 13.2096C63.3641 13.2115 63.301 13.1118 63.237 12.9881C63.1728 12.8644 62.9812 12.6211 62.8111 12.4475C62.4517 12.0809 61.9078 11.7851 61.3875 11.6732C61.0937 11.61 60.2975 11.5879 60.0167 11.6351ZM75.6437 11.6757C74.978 11.7809 74.2645 12.0606 73.7379 12.4228C73.4302 12.6344 72.8245 13.2415 72.595 13.5684C72.182 14.1564 71.8837 14.9213 71.7761 15.6679C71.6866 16.2896 71.7394 17.3474 71.8888 17.9262C72.2284 19.241 73.0505 20.3205 74.1346 20.8751C74.819 21.2252 75.4936 21.3917 76.4215 21.4394C77.8418 21.5124 79.2235 21.1129 80.2485 20.3328C80.8653 19.8634 80.8595 19.9824 80.3092 19.1018L79.8342 18.3416L79.5402 18.546C78.182 19.4897 76.2051 19.6736 75.1726 18.9524C74.7363 18.6476 74.2951 18.0083 74.1784 17.5117L74.1478 17.3815H77.6244H81.101L81.1288 17.2749C81.1441 17.2163 81.1701 16.9232 81.1865 16.6236C81.2356 15.731 81.083 14.8325 80.7632 14.1299C80.2776 13.0634 79.2937 12.2026 78.1483 11.8424C77.417 11.6124 76.4509 11.5481 75.6437 11.6757ZM87.1324 11.6735C86.4098 11.8211 85.8431 12.1255 85.2664 12.6762L84.8922 13.0335V12.4365V11.8394H83.7021H82.512V18.4709V25.1024H83.7021H84.8922V22.5813V20.0603L85.2072 20.3744C85.9459 21.1109 86.8025 21.4559 87.8889 21.4545C89.6018 21.4522 91.0961 20.4859 91.888 18.8683C92.4787 17.6616 92.5658 16.1127 92.1197 14.7474C91.7763 13.6963 90.9573 12.6868 90.0146 12.1526C89.201 11.6917 88.0116 11.4939 87.1324 11.6735ZM97.1433 11.695C95.7969 11.9839 94.7616 12.7061 94.0058 13.8839C93.5437 14.604 93.3421 15.3006 93.3056 16.3042C93.2774 17.0831 93.3265 17.5122 93.5134 18.1157C93.7387 18.8436 94.0418 19.3629 94.5725 19.93C95.5549 20.9801 96.7029 21.4657 98.2167 21.4715C98.9045 21.4741 99.3245 21.4149 99.8831 21.2365C101.545 20.7057 102.798 19.2947 103.117 17.5946C103.457 15.7795 102.926 14.0626 101.656 12.873C101.072 12.3262 100.412 11.9698 99.5483 11.7346C99.0249 11.5921 97.7228 11.5707 97.1433 11.695ZM126.477 11.6794C125.575 11.8495 124.81 12.2539 124.169 12.8994C123.552 13.5203 123.135 14.241 122.932 15.0368C122.435 16.9858 122.932 18.9776 124.229 20.2347C125.122 21.1013 126.172 21.4916 127.479 21.4438C128.006 21.4245 128.146 21.401 128.54 21.2669C129.083 21.0821 129.573 20.7693 130 20.3364L130.303 20.0288V20.6472V21.2656H131.446H132.59V16.5525V11.8394H131.446H130.303V12.4373V13.0351L129.987 12.7333C129.463 12.232 128.891 11.8953 128.271 11.723C127.864 11.61 126.962 11.5881 126.477 11.6794ZM48.9639 11.892C47.237 12.0956 46.1495 12.8918 45.7963 14.2112C45.696 14.586 45.685 15.4886 45.7761 15.8657C45.9607 16.6299 46.4549 17.2774 47.1473 17.6625C47.3462 17.7732 47.509 17.8744 47.509 17.8875C47.509 17.9006 47.0138 18.6368 46.4084 19.5235C45.8032 20.4102 45.2967 21.1653 45.2831 21.2014C45.2622 21.2567 45.465 21.2651 46.5574 21.2545L47.8566 21.2419L48.8012 19.7498C49.3208 18.9292 49.7729 18.2441 49.8059 18.2274C49.8389 18.2107 50.1284 18.1613 50.4492 18.1176C50.7701 18.074 51.0904 18.0266 51.161 18.0123L51.2893 17.9862V19.6259V21.2656H52.4561H53.6228V16.5525V11.8394L51.4643 11.8456C50.2772 11.849 49.1519 11.8698 48.9639 11.892ZM104.121 13.6276C104.121 15.9007 104.186 16.4019 104.575 17.1581C105.013 18.0092 105.977 18.5358 107.331 18.6637C108.168 18.7427 108.84 18.6272 109.576 18.2778C109.791 18.1756 109.975 18.092 109.984 18.092C109.993 18.092 110.001 18.806 110.001 19.6788V21.2656H111.191H112.381V16.5525V11.8394H111.191H110.001V13.9882V16.137L109.803 16.212C109.293 16.4044 109.001 16.4515 108.298 16.4547C107.664 16.4575 107.576 16.4476 107.367 16.3498C106.997 16.1767 106.844 16.03 106.679 15.689L106.524 15.3706L106.509 13.605L106.495 11.8394H105.308H104.121L104.121 13.6276ZM114.213 16.5407L114.225 21.2419L115.426 21.2546L116.627 21.2672L116.64 19.1027L116.652 16.9382L118.494 19.1019L120.336 21.2656H121.799C122.654 21.2656 123.25 21.2479 123.235 21.2229C123.221 21.1995 122.243 20.0665 121.062 18.7053C119.881 17.3441 118.915 16.2176 118.916 16.202C118.916 16.1745 119.866 15.1649 122.007 12.9171L123.033 11.8394H121.516H119.998L118.325 13.6857L116.652 15.532L116.639 13.6857L116.627 11.8394H115.414H114.201L114.213 16.5407ZM75.843 13.7144C75.2269 13.8826 74.6665 14.361 74.3774 14.9657C74.284 15.1611 74.1941 15.3796 74.1777 15.4512L74.1478 15.5815H76.5098C77.8088 15.5815 78.8717 15.5747 78.8717 15.5664C78.8717 15.5581 78.8382 15.4355 78.7973 15.2941C78.5655 14.4934 77.9903 13.9131 77.2225 13.7057C76.9115 13.6216 76.1656 13.6263 75.843 13.7144ZM49.0607 13.8972C48.7039 13.9849 48.3988 14.1947 48.2336 14.4659C48.1068 14.674 48.0924 14.737 48.0926 15.0804C48.0927 15.4102 48.1101 15.4931 48.2181 15.6799C48.4268 16.0407 48.7543 16.2157 49.3782 16.3C49.7051 16.3442 49.9573 16.3443 50.5023 16.3008C50.8887 16.2699 51.2239 16.2327 51.2471 16.2182C51.2705 16.2035 51.2893 15.6634 51.2893 15.0103V13.8289L50.2976 13.8329C49.668 13.8355 49.2163 13.859 49.0607 13.8972ZM127.065 13.904C126.283 14.0962 125.595 14.7426 125.299 15.5631C125.176 15.9046 125.13 16.7972 125.214 17.2094C125.361 17.9281 125.96 18.6961 126.622 19.0148C127.305 19.344 128.166 19.344 128.85 19.0148C129.551 18.6769 130.119 17.9186 130.282 17.1003C130.472 16.1445 130.196 15.2407 129.497 14.5386C128.894 13.9316 127.953 13.6861 127.065 13.904ZM86.7357 13.943C86.0182 14.1235 85.3559 14.7275 85.0569 15.4742C84.8273 16.0479 84.807 16.9429 85.0105 17.5283C85.2883 18.3273 86.0283 19.0098 86.7963 19.1755C87.1469 19.2511 87.8114 19.2415 88.1339 19.1563C88.796 18.9813 89.4078 18.4558 89.7154 17.798C89.9147 17.3717 89.9793 17.0668 89.9793 16.5525C89.9793 15.7359 89.7458 15.1431 89.2139 14.6096C88.668 14.062 88.202 13.8732 87.4143 13.8803C87.1694 13.8825 86.8641 13.9107 86.7357 13.943ZM97.5452 13.9511C96.6811 14.187 95.9299 14.9991 95.7416 15.9009C95.4285 17.4006 96.2694 18.8287 97.6619 19.162C98.0656 19.2586 98.7106 19.2277 99.0882 19.0936C99.8831 18.8113 100.584 17.9961 100.756 17.1541C100.829 16.7966 100.819 16.1696 100.736 15.8445C100.503 14.9399 99.7682 14.1744 98.9148 13.9488C98.5728 13.8583 97.8807 13.8595 97.5452 13.9511Z" fill="white"/>
</svg>
