<svg width="109" height="22" viewBox="0 0 109 22" fill="none" xmlns="http://www.w3.org/2000/svg">
<path fill-rule="evenodd" clip-rule="evenodd" d="M2.86707 0.438783C2.82479 0.563851 2.52125 2.84721 2.19218 5.51301C1.8633 8.1788 1.36551 12.1812 1.08613 14.4072C0.806544 16.6331 0.610739 18.485 0.650679 18.5225C0.850575 18.7093 4.22192 18.9855 4.3246 18.8233C4.44383 18.6354 6.45526 2.75275 6.52735 1.43192L6.56846 0.676947L5.39948 0.538002C4.75654 0.461592 3.94098 0.356861 3.58716 0.305351C3.18484 0.246618 2.915 0.296797 2.86707 0.438783ZM86.3515 3.23211C86.3515 6.2733 86.2532 6.54245 85.4563 5.68293C83.893 3.99659 80.0683 4.0348 77.7431 5.76029C74.3003 8.31508 73.9138 13.9069 76.9738 16.8922C79.3988 19.258 83.5799 19.565 85.8 17.5403C86.4291 16.9665 86.7412 17.1043 86.7412 17.9557V18.5911L88.4947 18.5951L90.2482 18.5991V9.49012V0.381H88.2999H86.3515V3.23211ZM35.8904 4.62099C35.0104 4.86866 33.4993 5.70593 33.2651 6.07544C33.1961 6.18435 33.0136 6.2733 32.8591 6.2733C32.6615 6.2733 32.5783 6.04826 32.5783 5.51301V4.75271H30.7251H28.8717L28.9229 11.6429L28.974 18.5331L30.8249 18.5451L32.6757 18.557L32.7771 14.1734C32.8482 11.0997 32.9549 9.64294 33.1346 9.29834C33.5741 8.45574 34.3151 8.17405 36.0923 8.17405C38.0614 8.17405 38.8852 8.56826 39.1957 9.65909C39.3054 10.0446 39.3958 12.1989 39.3964 14.4465L39.3978 18.5331L40.7899 18.5895C41.5555 18.6207 42.4264 18.5937 42.7253 18.5297L43.2683 18.4133L43.3299 14.0065C43.3838 10.1398 43.4345 9.53783 43.7419 9.0961C44.2705 8.33675 45.0124 8.12577 46.8861 8.2018C48.3717 8.26205 48.5996 8.32154 49.0592 8.77012C49.7756 9.46902 49.8999 10.3483 49.9097 14.7791L49.9182 18.6281L51.4282 18.6255C54.0467 18.6211 53.8149 19.0358 53.8149 14.3553C53.8149 8.90792 53.5117 7.56144 51.94 6.02811C50.7673 4.88405 49.6887 4.48623 47.7751 4.49155C45.8784 4.49687 44.8984 4.83539 43.519 5.96215C43.0536 6.3423 42.6098 6.65345 42.5326 6.65345C42.4557 6.65345 42.1352 6.38887 41.8205 6.06555C40.4859 4.69417 37.8826 4.06008 35.8904 4.62099ZM62.3284 4.67136C58.5713 5.5592 56.3091 8.99612 56.9353 12.8645C57.3255 15.2756 58.62 17.0615 60.693 18.0488C63.9605 19.6053 68.223 18.9385 70.4497 16.5223C71.7348 15.1279 72.2028 13.8175 72.2096 11.5954C72.2145 9.96664 72.1562 9.6686 71.6148 8.5542C70.0062 5.24329 66.36 3.71871 62.3284 4.67136ZM98.9884 4.55123C97.8614 4.76544 96.1309 5.71125 95.378 6.52401C94.9973 6.93533 94.4125 7.83838 94.0787 8.53082C93.5416 9.64484 93.4712 9.9866 93.4673 11.5003C93.4621 13.5448 93.7159 14.4514 94.6842 15.8456C96.036 17.7918 97.974 18.8201 100.366 18.8606C101.933 18.8872 102.853 18.6048 104.011 17.7424C104.499 17.379 104.946 17.1281 105.005 17.1849C105.063 17.2417 105.122 17.5683 105.136 17.9106L105.162 18.5331L106.571 18.5624C109.009 18.6129 108.757 19.4183 108.757 11.5731V4.75271H107.007C105.314 4.75271 105.254 4.76772 105.138 5.21706C105.072 5.47252 105.076 5.77189 105.146 5.88232C105.416 6.30885 104.588 6.05586 103.963 5.52118C102.847 4.56454 100.907 4.18629 98.9884 4.55123ZM14.2391 6.27673C10.3924 6.91043 7.77563 10.6021 8.36149 14.5687C8.83804 17.7967 10.9414 19.9632 14.1626 20.5443C15.7384 20.8284 17.1707 20.5511 18.403 19.7233C19.0631 19.2801 19.3515 19.4253 19.2073 20.1288C19.0725 20.7864 19.189 20.8378 21.2067 21.0094L22.7429 21.1402L23.5852 14.4509C24.0483 10.7718 24.3855 7.72091 24.3345 7.67111C24.2261 7.56543 21.9696 7.23299 21.322 7.22748C20.984 7.22463 20.8509 7.3592 20.7619 7.7939C20.6105 8.53196 20.3338 8.51333 19.5372 7.7114C18.3707 6.53732 16.2096 5.95208 14.2391 6.27673ZM62.638 8.11722C62.4008 8.16207 61.9504 8.43217 61.6373 8.71766C60.6279 9.63762 60.3728 12.3593 61.1442 13.9797C61.6246 14.989 62.4258 15.3018 64.5305 15.3018C67.6081 15.3018 68.298 14.644 68.318 11.6904C68.3377 8.81783 67.4809 7.96325 64.6279 8.0102C63.7707 8.02427 62.8753 8.07236 62.638 8.11722ZM80.389 8.25559C80.0564 8.39681 79.5761 8.79787 79.3215 9.14647C78.9123 9.707 78.8588 9.9904 78.8582 11.5908C78.8574 14.6506 79.5288 15.3018 82.6842 15.3018C84.2842 15.3018 84.6528 15.2421 85.1196 14.9082C86.0295 14.257 86.351 13.4064 86.3512 11.6494C86.3517 8.8011 85.5097 7.97808 82.6088 7.99139C81.6978 7.99557 80.7301 8.11075 80.389 8.25559ZM98.8273 8.30577C97.7123 8.87295 97.3575 9.69749 97.3712 11.6904C97.3912 14.6535 98.0774 15.3018 101.193 15.3018C102.806 15.3018 103.158 15.2439 103.629 14.9017C104.587 14.2049 104.908 13.4421 104.924 11.8221C104.942 10.0181 104.629 9.06987 103.83 8.51485C102.97 7.91783 99.8467 7.78705 98.8273 8.30577ZM13.972 9.94839C13.0898 10.3477 12.7498 10.8263 12.3988 12.1633C12.0222 13.5971 12.1022 15.1454 12.5905 15.8722C13.3626 17.022 16.7478 17.6939 18.1609 16.9779C19.2211 16.4408 19.7856 15.1496 19.8029 13.2224C19.8199 11.3582 19.52 10.7898 18.2258 10.2312C17.0914 9.74178 14.7698 9.58725 13.972 9.94839Z" fill="white"/>
</svg>
