<svg width="112" height="22" viewBox="0 0 112 22" fill="none" xmlns="http://www.w3.org/2000/svg">
<path fill-rule="evenodd" clip-rule="evenodd" d="M6.46718 0.327736C5.06822 0.462507 3.75424 1.09585 2.72901 2.12956C2.2459 2.6167 1.94755 2.99989 1.67314 3.48583C1.29988 4.14678 0.993123 5.09525 0.908487 5.85013C0.858104 6.29955 0.846432 14.8597 0.89622 14.8585C1.06957 14.8544 1.72794 14.7131 1.96843 14.6284C2.40469 14.4747 2.70431 14.2808 3.07371 13.9132C3.44201 13.5466 3.69044 13.1484 3.86494 12.6446L3.98408 12.3006L4.00777 9.20435C4.03396 5.78094 4.02271 5.92254 4.3191 5.29109C4.71907 4.43912 5.4605 3.82104 6.35725 3.59217C6.6862 3.50819 6.84248 3.50647 14.0717 3.50647H21.4504V1.89386V0.28125L14.1392 0.287098C10.118 0.290324 6.66561 0.3086 6.46718 0.327736ZM28.7191 10.6987L28.7298 17.5899L30.5231 17.6011L32.3164 17.6124V13.5169V9.4213L32.4188 9.52787C32.4751 9.58644 33.2793 10.5536 34.206 11.677C35.1327 12.8005 35.9031 13.723 35.9181 13.727C35.9332 13.731 36.1682 13.4601 36.4404 13.1249C36.7126 12.7898 37.2724 12.1092 37.6843 11.6125C38.0963 11.1158 38.6662 10.425 38.9509 10.0773C39.2356 9.72959 39.4828 9.44414 39.5003 9.44298C39.5178 9.44182 39.5322 11.2792 39.5322 13.5261V17.6114H41.3149H43.0976V10.7095V3.80749H41.3229H39.5482L38.7825 4.80731C36.6907 7.53859 36.0365 8.39461 35.9809 8.4733C35.9271 8.54946 35.9142 8.55174 35.8692 8.49317C35.8411 8.45675 35.7013 8.27261 35.5586 8.08396C35.4158 7.89526 34.9574 7.29502 34.5399 6.75013C34.1224 6.2052 33.4466 5.32072 33.038 4.7846L32.2952 3.80985L30.5018 3.80865L28.7083 3.80749L28.7191 10.6987ZM49.9293 3.92033C49.906 3.98242 49.4405 5.14832 48.8948 6.51125C48.3491 7.87419 47.6439 9.63761 47.3276 10.4299C47.0113 11.2223 46.5395 12.4027 46.279 13.0531C45.5205 14.9477 44.5363 17.4096 44.4955 17.5147L44.458 17.6114H46.2821C47.7121 17.6114 48.1065 17.5998 48.108 17.5577C48.1089 17.5281 48.2679 17.0975 48.4613 16.6009L48.8129 15.6978L51.595 15.6867C53.7893 15.678 54.3859 15.6871 54.4185 15.7297C54.4413 15.7595 54.609 16.1745 54.7913 16.652C54.9736 17.1295 55.1353 17.5409 55.1508 17.5663C55.1702 17.5982 55.7398 17.6089 57.0013 17.6011L58.8238 17.5899L56.7347 12.3651C55.5857 9.4914 54.3939 6.5113 54.0863 5.74262C53.7786 4.97394 53.4801 4.2241 53.4228 4.07626L53.3187 3.80749H51.6452H49.9716L49.9293 3.92033ZM60.2031 10.7095V17.6114H61.9856H63.7682L63.7789 12.3113L63.7897 7.01121L66.3046 7.00011L68.8195 6.98902V5.39825V3.80749H64.5113H60.2031V10.7095ZM70.7296 10.7095V17.6114H72.5331H74.3368L74.3477 14.913L74.3586 12.2146L77.0221 12.2035L79.6855 12.1924V14.9019V17.6114H81.4895H83.2934V10.7095V3.80749H81.4895H79.6855V6.38766V8.96784H77.0115H74.3374V6.38766V3.80749H72.5335H70.7296V10.7095ZM85.925 10.7095V17.6114H87.4435H88.9619L89.766 16.5041C90.2083 15.895 91.1252 14.6324 91.8038 13.6982C92.4823 12.7639 93.3997 11.4995 93.8425 10.8883L94.6475 9.77715L94.6584 13.6943L94.6692 17.6114H96.4729H98.2766V10.7095V3.80749H96.7165H95.1563L93.3964 6.2479C92.4285 7.59011 91.199 9.29788 90.6643 10.0429C90.1295 10.7879 89.6562 11.4356 89.6124 11.4823C89.5346 11.5653 89.5329 11.4823 89.5329 7.6873V3.80749H87.7289H85.925V10.7095ZM99.9744 5.3986V6.9897H102.075H104.177V12.3006V17.6114H105.98H107.784V12.3006V6.9897H109.885H111.986V5.3986V3.80749H105.98H99.9744V5.3986ZM21.04 6.62448C19.9136 6.80303 19.0613 7.43225 18.6036 8.42334C18.3272 9.02172 18.3391 8.86454 18.3113 12.2791L18.286 15.3968L18.1715 15.7408C18.0033 16.2461 17.7828 16.5982 17.3763 17.0105C16.9597 17.4332 16.5256 17.6893 15.991 17.8278C15.6722 17.9104 15.4858 17.9124 8.26432 17.9124H0.864386V19.5263V21.1402L8.43028 21.1255C16.711 21.1095 16.1556 21.1266 17.0269 20.8613C18.1109 20.5314 19.1932 19.824 19.9268 18.966C20.826 17.9145 21.3425 16.6671 21.4406 15.3099C21.4808 14.7539 21.46 6.55813 21.4184 6.56462C21.401 6.56733 21.2307 6.59425 21.04 6.62448ZM6.80675 10.7955V14.8592H8.03766H9.26858V12.813C9.26858 11.6673 9.28488 10.7731 9.30559 10.7811C9.32592 10.789 9.74834 11.285 10.2443 11.8832C10.7402 12.4815 11.1606 12.9653 11.1784 12.9583C11.1962 12.9513 11.5777 12.5005 12.0261 11.9565C12.4745 11.4126 12.8875 10.9195 12.9438 10.861L13.0462 10.7544V12.8068V14.8592H14.2771H15.5081V10.7955V6.73169L14.3302 6.73306L13.1523 6.73444L12.1761 8.02177C11.6392 8.72982 11.1866 9.30975 11.1703 9.31048C11.1467 9.3116 9.80038 7.57786 9.29307 6.89295L9.17363 6.73169H7.99017H6.80675V10.7955ZM51.4734 8.78318C51.4038 8.96754 51.0351 9.92663 50.654 10.9145C50.2729 11.9024 49.9706 12.7202 49.9821 12.7319C49.9936 12.7436 50.74 12.7481 51.6406 12.7419L53.2782 12.7306L53.0551 12.1501C52.9324 11.8308 52.5684 10.8825 52.2463 10.0429C51.9242 9.20328 51.647 8.50096 51.6303 8.48216C51.6136 8.46341 51.543 8.59887 51.4734 8.78318Z" fill="white"/>
</svg>
