<svg width="85" height="19" viewBox="0 0 85 19" fill="none" xmlns="http://www.w3.org/2000/svg">
<path fill-rule="evenodd" clip-rule="evenodd" d="M7.57704 0.404435C4.38692 1.08356 1.95472 3.10258 0.808811 6.02283C0.405928 7.04973 0.245293 7.97121 0.250105 9.22866C0.260283 11.8734 1.19069 13.9735 3.15421 15.7835C4.88317 17.3773 6.91877 18.1525 9.37484 18.1525C11.9775 18.1525 14.1105 17.2738 15.9238 15.4547C17.0314 14.3435 17.6873 13.2322 18.1691 11.6509C18.4996 10.5664 18.5852 8.65705 18.3536 7.53571C17.9607 5.63265 17.1946 4.24816 15.762 2.85205C14.4072 1.53167 13.0392 0.803336 11.2228 0.435489C10.2223 0.232815 8.45378 0.217742 7.57704 0.404435ZM49.1133 0.395355C44.5402 1.03734 40.8503 3.30489 39.4065 6.3608C38.9257 7.37826 38.7494 8.13366 38.7513 9.16873C38.7536 10.3218 38.9424 11.136 39.4344 12.114C40.8695 14.9665 43.9021 16.9788 48.0901 17.8575C49.165 18.083 49.4187 18.1015 51.4729 18.1036C53.2512 18.1056 53.878 18.0724 54.619 17.9374C61.0704 16.7611 65.1424 12.5388 64.2483 7.95278C63.5419 4.32998 59.8072 1.45022 54.5552 0.47853C53.4902 0.281486 50.2746 0.232362 49.1133 0.395355ZM22.6654 0.780544C22.1924 0.944717 21.6673 1.43125 21.4689 1.88908C21.2873 2.30832 21.2869 3.12256 21.4682 3.54089C21.5458 3.71995 21.7636 4.01352 21.9522 4.19332C22.5648 4.77709 22.7597 4.80433 26.3261 4.80433H29.5072L28.0495 6.68851C27.2478 7.72477 25.9603 9.38993 25.1886 10.3888C24.4169 11.3876 22.9471 13.2877 21.9225 14.6111C20.7846 16.081 20.0594 17.097 20.059 17.2218C20.0586 17.3342 20.1426 17.5087 20.2455 17.6097C20.4307 17.7915 20.5108 17.793 28.1801 17.7686L35.9276 17.7439L36.3065 17.5449C37.8308 16.7444 37.8339 14.6581 36.3118 13.8594C35.9348 13.6615 35.8544 13.6573 32.0181 13.6313C29.8678 13.6168 28.1086 13.5839 28.1086 13.5581C28.1086 13.5324 28.5588 12.9314 29.109 12.2225C29.6593 11.5136 30.6303 10.2594 31.2669 9.43533C31.9035 8.61129 32.8987 7.32414 33.4785 6.57501C36.9991 2.02583 37.4543 1.41118 37.4543 1.20669C37.4543 1.08783 37.371 0.90885 37.2693 0.808966C37.0873 0.630446 36.9659 0.627449 30.0749 0.634531C24.0336 0.640706 23.0104 0.660865 22.6654 0.780544ZM67.7328 0.768741L67.5271 0.910031L67.5292 8.55517C67.5311 15.809 67.54 16.2188 67.7029 16.5634C68.4211 18.0824 70.5207 18.2117 71.3903 16.7905L71.6911 16.299V12.504C71.6911 10.4166 71.7239 8.7089 71.764 8.7089C71.804 8.7089 72.1684 8.96769 72.5736 9.28405C72.9788 9.60041 74.6428 10.8951 76.2714 12.1611C77.8999 13.4271 80.0235 15.0791 80.9905 15.8324C81.9575 16.5856 82.9212 17.334 83.132 17.4955C83.5762 17.8358 83.8964 17.8682 84.1454 17.5981C84.3153 17.4139 84.3223 17.1441 84.3401 10.0841C84.3512 5.69948 84.3229 2.58028 84.2697 2.31032C84.1524 1.71437 83.8172 1.23565 83.3154 0.946988C82.498 0.476988 81.5038 0.559982 80.832 1.15438C80.1063 1.79646 80.1158 1.73299 80.1135 5.9718C80.1117 9.17073 80.092 9.71991 79.9806 9.67787C79.9086 9.65081 78.316 8.43349 76.4413 6.97282C67.5444 0.0404929 68.3174 0.627358 68.0823 0.627358C68.0032 0.627358 67.8459 0.691012 67.7328 0.768741ZM8.72323 4.44639C7.11346 4.65015 5.70429 5.65199 4.96922 7.11547C4.25682 8.53383 4.26617 9.92921 4.99754 11.3632C5.83365 13.0026 7.46776 13.9993 9.32469 14.0025C11.0712 14.0054 12.5338 13.2198 13.5043 11.7574C14.5071 10.2462 14.5079 8.17706 13.5062 6.65928C12.4611 5.07575 10.5903 4.2102 8.72323 4.44639ZM50.6401 4.44711C46.5051 4.70808 43.0064 6.89028 43.0064 9.20832C43.0064 11.2386 45.8378 13.2959 49.3926 13.8483C50.8359 14.0727 53.3659 13.9868 54.619 13.671C56.26 13.2574 57.5279 12.6739 58.5516 11.8614C59.2194 11.3313 59.8798 10.4439 60.0395 9.86238C60.265 9.04042 60.0105 8.16344 59.2881 7.27311C58.1366 5.85394 55.3386 4.6388 52.8623 4.48262C52.4035 4.45365 51.9448 4.41942 51.843 4.40643C51.7412 4.39354 51.1999 4.41179 50.6401 4.44711Z" fill="white"/>
</svg>
