<svg width="121" height="27" viewBox="0 0 121 27" fill="none" xmlns="http://www.w3.org/2000/svg">
<path fill-rule="evenodd" clip-rule="evenodd" d="M30.2396 5.5787V10.8565H31.6254H33.0112L33.0331 9.11891L33.0552 7.38128L34.2794 7.33414C35.7492 7.27758 36.2108 7.13697 36.8737 6.54394C37.6903 5.81326 38.0314 4.91169 37.9739 3.63599C37.9032 2.06861 37.2267 1.06134 35.8938 0.538777C35.4412 0.361339 35.3162 0.35271 32.8307 0.327305L30.2396 0.300781V5.5787ZM50.3568 0.525277C50.0874 0.635527 49.7463 0.774936 49.5987 0.835093L49.3304 0.944463L49.4898 1.24685C50.2498 2.68848 52.6073 3.06509 54.1482 1.99104C54.3745 1.83333 54.8862 1.15434 54.8862 1.01173C54.8862 0.94023 54.5433 0.777091 53.7649 0.478139L53.3373 0.313964L53.1773 0.620986C52.7686 1.4052 51.4192 1.3722 51.0562 0.569136C50.9919 0.42709 50.9185 0.314045 50.8929 0.317879C50.8673 0.321714 50.6261 0.415028 50.3568 0.525277ZM60.735 0.364215C60.705 0.393455 60.6806 1.10728 60.6806 1.95045V3.48348L60.0889 3.5275C58.6011 3.63815 57.4183 4.5084 57.0132 5.79041C56.6968 6.7916 56.7267 7.93125 57.0946 8.89377C57.5323 10.0389 58.9654 10.9364 60.3564 10.9364H60.6771L60.6992 12.4743L60.7214 14.0122H61.9455H63.1697L63.1919 12.4743L63.214 10.9364H63.5881C64.461 10.9364 65.523 10.5144 66.1195 9.93044C67.0553 9.01433 67.3756 7.27007 66.8882 5.74351C66.4919 4.50193 65.3482 3.67146 63.8309 3.52326L63.2513 3.46662L63.2292 1.88877L63.2071 0.310929H61.9983C61.3334 0.310929 60.7649 0.334895 60.735 0.364215ZM71.9242 1.88877L71.9021 3.46662L71.29 3.52199C70.2275 3.61801 69.5264 3.94685 68.8583 4.66235C68.3691 5.18643 68.1356 5.73928 68.0381 6.60474C67.9197 7.65674 68.1184 8.74054 68.5528 9.41282C68.8316 9.84423 69.455 10.3689 69.9367 10.5774C70.3593 10.7603 71.0515 10.9165 71.6165 10.9562L71.9021 10.9764L71.9243 12.5164L71.9464 14.0564L73.1485 14.0344L74.3504 14.0122L74.3726 12.4858L74.3947 10.9592L74.9846 10.9149C76.4716 10.8033 77.5964 10.0017 78.0703 8.7161C78.3491 7.95961 78.3555 6.51206 78.0836 5.74351C77.6346 4.47484 76.5221 3.67074 75.0117 3.52326L74.432 3.46662L74.4099 1.88877L74.3878 0.310929H73.1671H71.9463L71.9242 1.88877ZM90.4686 0.604129C90.0871 0.7576 89.744 0.912348 89.7061 0.947979C89.5323 1.11184 90.316 1.99016 90.8905 2.27513C91.1037 2.38082 91.5367 2.51081 91.8527 2.56385C92.5518 2.68121 93.3715 2.56913 93.9641 2.27513C94.5398 1.98952 95.3213 1.11287 95.1485 0.946701C95.1106 0.910271 94.7675 0.756 94.386 0.603808C93.7728 0.359181 93.6828 0.341767 93.6107 0.453215C93.5658 0.52264 93.4151 0.70503 93.2757 0.85866C93.0507 1.10664 92.9684 1.14164 92.5412 1.17088C92.1374 1.1986 92.0141 1.17367 91.7744 1.01629C91.6173 0.913147 91.4337 0.713019 91.3664 0.571532C91.299 0.430125 91.2256 0.31684 91.2031 0.319796C91.1807 0.322752 90.8502 0.450739 90.4686 0.604129ZM0.0636163 12.9936L0.084264 25.5165L12.8768 25.5367L25.6694 25.5569V13.0138V0.47071H12.8562H0.0429688L0.0636163 12.9936ZM0.777959 13.0136V24.8375H12.8564H24.9349V13.0136V1.18973H12.8564H0.777959V13.0136ZM33.0144 3.82613V5.02449H33.696C34.2704 5.02449 34.4211 4.99581 34.6538 4.84234C35.0182 4.60195 35.1337 4.35788 35.1348 3.82613C35.1365 2.96826 34.7087 2.62777 33.6291 2.62777H33.0144V3.82613ZM5.18496 2.81455C4.51959 2.96011 3.90522 3.32082 3.29069 3.92671C2.37493 4.82964 1.79418 5.9617 1.55343 7.31321C1.35928 8.403 1.35985 8.40372 1.92149 7.85967L2.41206 7.38447L4.28732 9.21885L6.16258 11.0533L6.69395 10.5378L7.22524 10.0223V8.82395V7.62559L7.75571 8.14024L8.28619 8.6549V10.0969V11.539L9.02069 12.2546C9.42466 12.6482 9.75519 13.0073 9.75519 13.0525C9.75519 13.0977 8.06584 14.7863 6.00107 16.805C3.93631 18.8236 2.24696 20.4959 2.24696 20.5212C2.24696 20.5901 5.08776 23.3544 5.19443 23.3892C5.24503 23.4057 6.98612 21.7557 9.06353 19.7224L12.8406 16.0256L16.6486 19.7325C18.7429 21.7712 20.5001 23.4491 20.5534 23.4609C20.6067 23.4728 21.3111 22.8346 22.1187 22.0426L23.5871 20.6028L19.7308 16.8271L15.8746 13.0515L16.6099 12.3352L17.345 11.6189V10.1369V8.6549L17.8755 8.14024L18.406 7.62559V8.82395V10.0223L18.9373 10.5378L19.4686 11.0533L21.342 9.22069L23.2153 7.38815L23.4018 7.55488C24.0941 8.17396 24.244 8.28988 24.2667 8.22397C24.3266 8.05021 24.0162 6.64388 23.7926 6.07642C23.3004 4.82676 22.2027 3.53357 21.245 3.07491C20.3327 2.63799 19.3784 2.65317 18.406 3.12013C17.9602 3.33416 17.566 3.6745 15.9372 5.25194C14.8712 6.28429 13.999 7.16429 13.999 7.20744C13.999 7.25066 14.1887 7.48234 14.4206 7.72233L14.8421 8.1587L13.8461 9.12458L12.85 10.0905L11.8551 9.11659L10.8601 8.14256L11.3056 7.701L11.7512 7.25936L9.87589 5.41452C8.84441 4.39991 7.81635 3.452 7.59119 3.30804C6.83343 2.8235 5.96157 2.6447 5.18496 2.81455ZM40.8961 3.54515C39.6475 4.04759 38.8904 5.43537 38.8904 7.2215C38.8904 8.92126 39.5234 10.163 40.7048 10.7806C41.1437 11.0101 41.3148 11.0526 41.91 11.0798C42.7573 11.1186 43.3341 10.9362 43.8962 10.4518L44.2671 10.1322L44.2923 10.4744L44.3175 10.8166H45.5009H46.6842V7.2215V3.6264H45.5009H44.3175L44.2767 4.00708L44.2359 4.38784L44.0142 4.11454C43.8922 3.96418 43.565 3.72994 43.287 3.59397C42.8382 3.37443 42.7032 3.34702 42.0806 3.3487C41.5276 3.35014 41.2774 3.39168 40.8961 3.54515ZM81.4914 3.42148C80.7389 3.64638 80.0703 4.22495 79.6985 4.9732C79.341 5.69254 79.2063 6.30794 79.2063 7.2215C79.2063 8.55408 79.5553 9.53234 80.2838 10.2419C80.9503 10.8911 81.3603 11.0525 82.3483 11.0546C83.2701 11.0565 83.6961 10.9109 84.2407 10.4082C84.4019 10.2593 84.5471 10.1375 84.5633 10.1375C84.5794 10.1375 84.5926 10.2993 84.5926 10.497V10.8565H85.776H86.9594V7.2215V3.58646H85.776H84.5926V3.99534V4.40414L84.2458 4.06317C83.7054 3.53181 83.2215 3.34711 82.3891 3.35445C82.0076 3.35781 81.6036 3.38793 81.4914 3.42148ZM98.61 3.50585C98.0963 3.63319 97.4015 3.90235 97.2535 4.03137C97.2061 4.07275 97.8352 5.58373 97.8999 5.58373C97.9322 5.58373 98.1934 5.47612 98.4805 5.34462C99.7165 4.77843 100.91 5.05821 100.703 5.86559C100.618 6.1969 100.448 6.26065 99.5358 6.30275L98.6706 6.3427L98.6472 7.12163L98.6239 7.90057H99.3492C100.426 7.90057 100.752 8.05764 100.752 8.57804C100.752 9.30889 99.3872 9.45908 98.1899 8.86006C97.9255 8.72784 97.6816 8.61959 97.6481 8.61959C97.5926 8.61959 96.9975 10.1102 96.9975 10.2488C96.9975 10.3499 98.0573 10.7829 98.6964 10.9429C99.4606 11.1342 100.759 11.1481 101.448 10.9724C102.251 10.7676 102.794 10.3576 103.136 9.69812C103.584 8.83218 103.203 7.66913 102.337 7.25841L101.968 7.08384L102.297 6.78705C102.715 6.40949 102.885 6.00668 102.888 5.39207C102.892 4.49498 102.431 3.84315 101.579 3.54092C100.979 3.32833 99.4012 3.30964 98.61 3.50585ZM106.782 3.46255C105.164 3.89931 104.182 5.31985 104.182 7.2215C104.182 8.74741 104.791 9.94114 105.904 10.5939C106.573 10.9863 107.236 11.1211 108.299 11.0812C109.107 11.0508 109.259 11.0202 109.789 10.7807C110.47 10.4736 111.06 9.91973 111.394 9.27477C111.742 8.60177 111.767 8.61959 110.465 8.61959H109.324L109.167 8.91918C108.814 9.59274 107.749 9.76235 107.085 9.25089C106.815 9.04317 106.584 8.60553 106.508 8.16021L106.45 7.82068H109.069H111.688V7.27422C111.688 6.62942 111.457 5.68359 111.16 5.10918C110.748 4.31354 110.023 3.7198 109.163 3.47365C108.63 3.32098 107.329 3.31499 106.782 3.46255ZM48.2757 7.22365V10.8608L49.4794 10.8387L50.6832 10.8166L51.887 8.8603L53.0907 6.90401V8.88027V10.8565H54.3557H55.6207V7.2215V3.58646L54.4169 3.5867L53.2131 3.58686L51.989 5.51654L50.7648 7.44623L50.7429 5.51638L50.7211 3.58646H49.4984H48.2757V7.22365ZM88.5916 7.22365V10.8608L89.7912 10.8387L90.9908 10.8166L92.1783 8.87867L93.3658 6.94084L93.3876 8.89865L93.4095 10.8565H94.673H95.9366V7.2215V3.58646H94.727H93.5175L92.2991 5.50776L91.0807 7.42905L91.0589 5.50776L91.037 3.58646H89.8143H88.5916V7.22365ZM112.954 3.68632C112.935 3.74129 112.927 5.36803 112.936 7.30139L112.953 10.8166L114.197 10.8386L115.442 10.8607V9.42057V7.98046H116.584H117.727V9.4185V10.8565H118.951H120.175V7.2215V3.58646H118.951H117.727V4.86471V6.14297H116.584H115.442V4.86471V3.58646H114.215C113.306 3.58646 112.979 3.61234 112.954 3.68632ZM107.395 5.0169C107.035 5.17685 106.79 5.4619 106.64 5.89523C106.465 6.40133 106.415 6.38264 107.933 6.38264C109.274 6.38264 109.321 6.37713 109.321 6.2203C109.321 5.72961 108.819 5.07323 108.346 4.94452C107.94 4.83419 107.778 4.8465 107.395 5.0169ZM60.2317 5.37601C59.9374 5.50304 59.5726 5.85105 59.3878 6.18124C59.2861 6.36283 59.2526 6.63182 59.2525 7.26743C59.2524 8.0689 59.2651 8.13233 59.5001 8.50478C59.769 8.93084 60.2514 9.25528 60.6194 9.25744L60.8438 9.25871V7.26144V5.26417L60.6602 5.26728C60.5592 5.26904 60.3664 5.31793 60.2317 5.37601ZM63.0473 7.27199V9.27973L63.3834 9.23563C63.818 9.17858 64.2545 8.8309 64.516 8.3335C64.6891 8.00411 64.7194 7.84057 64.7144 7.26352C64.7096 6.69589 64.6736 6.51582 64.4989 6.18291C64.3835 5.96321 64.2196 5.72194 64.1344 5.64669C63.9406 5.47524 63.4322 5.26417 63.2131 5.26417C63.0508 5.26417 63.0473 5.30683 63.0473 7.27199ZM71.4124 5.37593C71.0551 5.53516 70.6623 5.97304 70.5182 6.37297C70.2629 7.08121 70.3933 8.13984 70.8055 8.70659C71.0184 8.99923 71.5561 9.27637 71.8471 9.24345L72.0653 9.21877V7.26144V5.30411L71.8613 5.2855C71.7491 5.27519 71.5471 5.31594 71.4124 5.37593ZM74.228 7.26144V9.25871H74.4347C75.4342 9.25871 76.1411 7.98645 75.865 6.68455C75.701 5.91136 75.046 5.272 74.4116 5.26593L74.228 5.26417V7.26144ZM42.2351 5.6518C41.1746 6.20344 41.1746 8.23795 42.2351 8.79087C42.7778 9.07385 43.5204 8.95769 43.9203 8.52731C44.5123 7.89018 44.5566 6.64804 44.0114 5.97336C43.6437 5.5183 42.7891 5.36363 42.2351 5.6518ZM82.554 5.64381C81.5634 6.13099 81.4652 8.0554 82.3977 8.70547C82.6673 8.89337 83.2918 8.9954 83.6434 8.90895C83.951 8.83338 84.3538 8.46372 84.5208 8.10357C84.8219 7.45478 84.6849 6.38128 84.2419 5.9168C83.8342 5.48938 83.1071 5.37178 82.554 5.64381ZM31.997 15.4303C31.9789 15.4853 31.7792 16.4289 31.5532 17.5274C31.3272 18.6259 30.8641 20.8549 30.524 22.4807C30.1839 24.1064 29.875 25.5918 29.8373 25.7814L29.769 26.1261L32.7995 26.099C35.8293 26.0719 35.83 26.0718 36.375 25.8661C38.1279 25.2042 39.0635 23.9136 39.0697 22.1486C39.0738 20.9987 38.5399 20.1769 37.5438 19.7996C37.1115 19.6359 36.8797 19.6104 35.5647 19.5818C34.7455 19.564 34.0753 19.5207 34.0753 19.4857C34.0753 19.322 34.3471 18.1507 34.4138 18.0267C34.4829 17.8985 34.6848 17.8869 36.853 17.8869C38.1531 17.8869 39.2168 17.8746 39.2168 17.8596C39.2168 17.8446 39.327 17.3235 39.4617 16.7016C39.5963 16.0797 39.7065 15.5168 39.7065 15.4507C39.7065 15.3453 39.2317 15.3304 35.8682 15.3304C32.8695 15.3304 32.0227 15.3522 31.997 15.4303ZM44.5943 16.1094C44.3588 16.5377 43.0342 18.9325 41.6507 21.4308C40.2672 23.9292 39.1352 26.0054 39.1352 26.0445C39.1352 26.0837 39.83 26.1157 40.6791 26.1157H42.2229L42.7226 25.197L43.2224 24.2782H45.004H46.7856L46.8385 24.7775C46.8675 25.0522 46.9132 25.4656 46.94 25.6963L46.9887 26.1157H48.5278H50.067L50.0271 25.896C50.0052 25.7751 49.675 23.38 49.2933 20.5735C48.9117 17.7669 48.5795 15.4391 48.5551 15.4006C48.5308 15.362 47.7259 15.3304 46.7666 15.3304H45.0224L44.5943 16.1094ZM53.5507 15.3927C53.5184 15.444 51.2953 25.9816 51.2953 26.0837C51.2953 26.1013 51.9505 26.1157 52.7512 26.1157H54.2072L54.6336 24.0585C54.8681 22.927 55.0748 21.9564 55.0929 21.9015C55.1179 21.8256 55.5493 21.8016 56.8831 21.8016C58.371 21.8016 58.6403 21.8195 58.6403 21.9185C58.6403 21.9828 58.4567 22.9044 58.2322 23.9666C58.0078 25.0287 57.8242 25.9476 57.8242 26.0086C57.8242 26.0997 58.0811 26.1155 59.2728 26.0976L60.7214 26.0758L61.7951 20.9228C62.3857 18.0887 62.8897 15.671 62.9152 15.5501L62.9616 15.3304H61.4946C60.6878 15.3304 60.0277 15.3469 60.0277 15.367C60.0277 15.4069 59.3209 18.7736 59.2514 19.0653C59.2085 19.2448 59.2063 19.2451 57.4554 19.2451C55.7866 19.2451 55.7023 19.2378 55.7023 19.0931C55.7023 19.0095 55.8675 18.1631 56.0695 17.2123C56.2715 16.2614 56.4368 15.449 56.4368 15.407C56.4368 15.3148 53.6087 15.3009 53.5507 15.3927ZM65.2098 15.4303C65.1901 15.4853 65.0278 16.2492 64.8492 17.128C64.2971 19.8435 63.0455 25.8284 62.9989 25.9759C62.9579 26.1055 63.0622 26.1157 64.4237 26.1157C65.7529 26.1157 65.8966 26.1024 65.9333 25.9759C65.9556 25.899 66.1691 24.8923 66.4077 23.7389C66.6463 22.5853 66.8705 21.6511 66.9059 21.6626C66.9414 21.6742 67.429 22.6529 67.9894 23.8375C68.5499 25.0222 69.0378 26.0201 69.0737 26.0552C69.1095 26.0903 69.9112 26.1092 70.8553 26.0973L72.5717 26.0758L71.1194 23.3595L69.6673 20.6432L70.0608 20.2437C71.3523 18.933 74.6361 15.4554 74.6361 15.3983C74.6361 15.3609 73.8865 15.3304 72.9703 15.3304H71.3045L71.0822 15.5901C70.3907 16.3979 67.3424 19.7244 67.2936 19.7244C67.2618 19.7244 67.4132 18.8886 67.6301 17.867C67.8471 16.8453 68.0482 15.8567 68.077 15.67L68.1294 15.3304H66.6876C65.6075 15.3304 65.2367 15.3555 65.2098 15.4303ZM45.2436 19.9441L44.3057 21.8415L45.4451 21.8638C46.0717 21.876 46.6008 21.8701 46.6207 21.8505C46.6759 21.7964 46.2953 18.0467 46.2346 18.0467C46.2054 18.0467 45.7595 18.9006 45.2436 19.9441ZM33.3955 22.7403C33.2753 23.3006 33.1771 23.8039 33.1773 23.8588C33.1777 23.9897 34.8319 23.9969 35.2261 23.8677C35.9689 23.6241 36.3415 22.7806 35.9956 22.1259C35.8291 21.8104 35.4976 21.7217 34.4854 21.7217H33.6141L33.3955 22.7403Z" fill="white"/>
</svg>
