<svg width="70" height="32" viewBox="0 0 70 32" fill="none" xmlns="http://www.w3.org/2000/svg">
<path fill-rule="evenodd" clip-rule="evenodd" d="M51.1374 0.357037C50.6382 0.461983 50.2826 0.658303 49.9833 0.994034C49.7432 1.2635 49.6266 1.47479 49.5192 1.83508C49.4365 2.11268 49.4293 2.20165 49.4149 3.12246L49.3995 4.11164L54.1721 4.11249C58.9059 4.11331 59.6014 4.12854 60.0266 4.24062C60.9614 4.48705 61.4703 5.14095 61.5955 6.25641C61.6443 6.69165 61.6433 17.0462 61.5944 17.462C61.5232 18.0678 61.3579 18.4956 61.0665 18.8283C60.716 19.2284 60.2364 19.4523 59.566 19.529C59.1178 19.5802 53.9093 19.5824 53.4764 19.5316C52.6582 19.4354 52.186 19.1056 52.0022 18.5018C51.8447 17.9842 51.9705 17.408 52.3746 16.7954C52.435 16.7038 53.8903 14.707 55.6086 12.3579C57.3268 10.0088 58.7449 8.06608 58.7597 8.04064C58.7812 8.00377 57.8391 7.99442 54.0968 7.99442H49.4068L47.5602 10.5182C45.3517 13.5365 45.0336 13.987 44.8383 14.3733C44.2807 15.4759 44.3618 16.3597 45.1286 17.5349C45.3642 17.896 47.0937 20.2507 47.4915 20.7521C48.081 21.4949 48.7756 22.176 49.2834 22.5091C50.172 23.092 51.0524 23.3076 52.8503 23.3826C54.2877 23.4425 60.3634 23.4019 61.1084 23.3273C62.1098 23.2271 62.7985 23.1034 63.5199 22.8939C66.4378 22.0468 68.2593 19.9423 68.8945 16.6844C69.1074 15.5923 69.1141 15.4451 69.1141 11.8587C69.1141 9.39998 69.1023 8.46471 69.0674 8.16082C68.9557 7.18676 68.7547 6.25135 68.5035 5.53533C68.3292 5.03859 67.925 4.20561 67.6601 3.79732C66.5104 2.02497 64.7357 0.939306 62.3165 0.528508C61.1162 0.324718 61.1832 0.327009 56.0958 0.317024C52.2736 0.309518 51.327 0.317174 51.1374 0.357037ZM1.97856 8.03299C1.18333 8.1281 0.579046 8.53771 0.276598 9.18672C0.0759872 9.61723 0.0380859 9.89454 0.0380859 10.9327V11.8402H1.91329H3.78849V21.4732V31.1062H7.5389H11.2893V21.4732V11.8402L15.2651 11.8405C19.5068 11.8408 19.6408 11.8458 20.0936 12.0222C20.6709 12.2471 20.9746 12.7163 20.969 13.3748C20.9659 13.7472 20.8804 14.0367 20.6609 14.4176C20.5939 14.5339 19.1103 16.585 17.364 18.9756C15.6177 21.3662 14.1765 23.3429 14.1614 23.3684C14.1395 23.4052 15.0804 23.4146 18.8196 23.4146H23.5054L25.5795 20.5765C27.7344 17.6279 27.9834 17.2689 28.1824 16.8227C28.5259 16.0529 28.5123 15.2456 28.1432 14.4919C27.9644 14.1269 27.7676 13.832 26.9285 12.6722C25.5611 10.7822 25.1104 10.2168 24.4798 9.60048C23.3478 8.49415 22.3456 8.12536 20.2145 8.03084C19.2669 7.98883 2.33121 7.99083 1.97856 8.03299ZM31.73 15.6583C28.6473 19.8734 26.1128 23.3429 26.0977 23.3684C26.0758 23.4052 27.0168 23.4146 30.7559 23.4146H35.4416L41.0464 15.7507C44.129 11.5356 46.6636 8.06608 46.6786 8.04064C46.7005 8.00377 45.7595 7.99442 42.0204 7.99442H37.3348L31.73 15.6583Z" fill="white"/>
</svg>
