<svg width="102" height="28" viewBox="0 0 102 28" fill="none" xmlns="http://www.w3.org/2000/svg">
<path fill-rule="evenodd" clip-rule="evenodd" d="M13.7176 0.310852C12.7251 0.341876 11.5124 0.524804 10.5242 0.792536C7.31857 1.661 4.60274 3.57423 2.74405 6.27349C1.87088 7.54152 1.22874 8.95208 0.841702 10.4523C0.364873 12.3006 0.300219 14.1652 0.646453 16.0814C0.741885 16.6094 0.768099 16.7218 0.927958 17.2886C1.21667 18.3122 1.63633 19.3056 2.16962 20.2278C2.26104 20.3859 2.36825 20.5614 2.40787 20.6179C2.4475 20.6744 2.51298 20.7783 2.55336 20.8487C2.59374 20.9191 2.6401 20.9767 2.65638 20.9767C2.68597 20.9767 2.99142 20.8789 3.39558 20.7399C3.51342 20.6994 3.68356 20.6417 3.77368 20.6117C3.86379 20.5817 4.17572 20.4763 4.46685 20.3775C4.75798 20.2787 5.08693 20.1682 5.19783 20.1318C5.30874 20.0954 5.47596 20.0385 5.56945 20.0052L5.73942 19.9448L5.65606 19.8449C5.38174 19.5163 4.87255 18.6673 4.5831 18.0559C3.88106 16.5728 3.55839 14.9874 3.62382 13.3426C3.7187 10.9581 4.62583 8.74281 6.24551 6.9401C6.68874 6.44678 7.41246 5.79736 7.93245 5.42636C9.46048 4.33614 11.285 3.6523 13.1378 3.47535C13.6309 3.42825 14.6005 3.42282 15.1073 3.46426C16.811 3.60365 18.4859 4.16538 19.9377 5.08434L20.1587 5.22424L20.3158 5.11453C20.4022 5.05421 20.8245 4.75148 21.2543 4.44182C21.684 4.13214 22.2148 3.75121 22.4337 3.59528C22.6526 3.43938 22.8276 3.2995 22.8225 3.28447C22.805 3.23233 22.1959 2.79208 21.7137 2.48313C19.9259 1.33761 17.7593 0.588658 15.6315 0.380632C14.8209 0.301364 14.4515 0.2879 13.7176 0.310852ZM44.7466 5.38182C42.1895 5.48278 39.8921 6.48317 38.3674 8.15962C37.2358 9.40372 36.5329 11.048 36.3921 12.7804C36.2088 15.0359 36.8479 17.1458 38.2209 18.8182C38.6643 19.3582 39.3537 19.9689 39.9952 20.3898C41.1506 21.1479 42.5981 21.653 44.066 21.8102C44.4536 21.8517 45.9571 21.8521 46.3094 21.8107C48.008 21.6114 49.4517 21.0679 50.6449 20.1785C50.8871 19.9979 51.401 19.5502 51.4634 19.4654L51.5145 19.3959L51.0923 19.0925C50.5612 18.7109 49.8722 18.2175 49.5071 17.9573C49.3527 17.8473 49.2109 17.7572 49.192 17.7573C49.1731 17.7573 49.0556 17.8128 48.9308 17.8805C48.4639 18.1341 48.0899 18.3173 47.7942 18.4373C47.2693 18.6503 46.5802 18.8182 45.9746 18.8807C45.6162 18.9177 44.7392 18.8976 44.3957 18.8446C43.4492 18.6984 42.5603 18.3423 41.8514 17.8252C41.5556 17.6094 41.045 17.1033 40.8233 16.806C40.3015 16.1063 40.0183 15.4201 39.8522 14.4523C39.7805 14.0348 39.7876 13.1227 39.8659 12.6962C39.9876 12.0333 40.1385 11.5881 40.42 11.0618C41.0682 9.84987 42.2145 8.94974 43.6001 8.56479C45.2217 8.1143 46.8831 8.30169 48.204 9.08406C48.3542 9.17304 48.4998 9.26152 48.5275 9.28069C48.5739 9.31279 48.596 9.30252 48.8048 9.15167C48.9296 9.06152 49.4683 8.67584 50.0021 8.29457C50.5358 7.9133 51.009 7.57361 51.0536 7.53969L51.1346 7.47803L51.0788 7.41978C50.9746 7.31108 50.4445 6.91105 50.1715 6.73517C49.0446 6.00902 47.6434 5.54634 46.1833 5.41829C45.8688 5.3907 45.0489 5.3699 44.7466 5.38182ZM24.7028 5.78934C24.4922 5.93934 24.1066 6.21549 23.8458 6.40302C22.8665 7.1072 21.327 8.21308 20.6241 8.71728C20.3746 8.89628 19.8755 9.25462 19.515 9.51357C19.1546 9.77255 18.6289 10.1501 18.3468 10.3525C18.0647 10.555 17.696 10.8196 17.5276 10.9407C17.0241 11.3023 15.2911 12.5458 14.7636 12.9238C14.4933 13.1176 14.2576 13.2872 14.2398 13.3007C14.1899 13.3389 14.2079 13.3487 13.3269 12.8057C13.2229 12.7416 12.9166 12.5551 12.6463 12.3913C12.376 12.2276 12.0697 12.041 11.9657 11.9769C10.8751 11.3038 8.97296 10.1474 8.95648 10.1474C8.94778 10.1474 8.94357 11.0162 8.94713 12.0781L8.95358 14.0087L9.16783 14.1397C9.28567 14.2118 9.4785 14.3294 9.59634 14.4013C9.71418 14.473 9.94104 14.6116 10.1005 14.7093C10.2599 14.8069 10.6059 15.0185 10.8693 15.1794C11.1327 15.3404 11.4531 15.5362 11.5813 15.6146C12.1442 15.9589 12.306 16.0576 12.7219 16.3106C12.9645 16.4582 13.3837 16.7136 13.6533 16.8781C13.923 17.0426 14.1575 17.1823 14.1745 17.1886C14.2014 17.1986 14.7067 16.8422 16.8432 15.306C17.1066 15.1166 17.6113 14.7545 17.9648 14.5012C18.3184 14.2479 18.8968 13.8327 19.2504 13.5784C19.6039 13.3242 20.0746 12.9859 20.2964 12.8268C20.5182 12.6676 21.006 12.3171 21.3803 12.0478C21.7546 11.7786 22.286 11.3972 22.5611 11.2004C22.8363 11.0036 23.313 10.6615 23.6204 10.4401C23.9279 10.2188 24.3777 9.89545 24.6199 9.72165C24.8622 9.54782 25.3213 9.21821 25.6402 8.98918C25.959 8.76016 26.3357 8.49076 26.4773 8.39057C26.6189 8.29037 26.7352 8.19742 26.7357 8.18398C26.7372 8.14698 26.2876 7.2933 26.1064 6.98888C25.8525 6.56256 25.2503 5.69031 25.1014 5.53324C25.0927 5.52412 24.9134 5.63936 24.7028 5.78934ZM54.5203 13.617L54.5266 21.6475L58.1689 21.6548C61.9881 21.6624 62.7276 21.6493 63.4697 21.5607C65.4043 21.3297 66.8983 20.5758 67.7205 19.4158C68.2576 18.658 68.511 17.8416 68.5458 16.7572C68.5684 16.0531 68.4897 15.4924 68.2859 14.9035C67.8662 13.6914 66.9651 12.8298 65.5817 12.318C65.2697 12.2026 64.6437 12.0392 64.2815 11.9788C63.6265 11.8694 63.6761 11.8711 60.8282 11.8565L58.1059 11.8426V10.0621V8.28157L61.5718 8.2751L65.0377 8.26867L65.4196 7.99462C65.8204 7.70708 66.6751 7.0951 67.2306 6.69783C67.4108 6.56895 67.8225 6.27539 68.1453 6.04546C68.4682 5.81556 68.7383 5.61822 68.7455 5.60695C68.7527 5.59565 65.5535 5.58643 61.6363 5.58643H54.514L54.5203 13.617ZM71.8622 13.617L71.8686 21.6475H78.1198H84.3709V20.306V18.9645L79.9029 18.9584L75.435 18.9522L75.4414 16.9096L75.4479 14.867L79.2606 14.8608L83.0732 14.8546L83.0667 13.5193L83.0602 12.184L79.2476 12.1779L75.435 12.1717L75.4414 10.2266L75.4479 8.28157L78.0567 8.26937L80.6656 8.25718L81.1319 7.92232C81.76 7.47127 82.5761 6.88654 83.5371 6.199C83.9756 5.88531 84.3404 5.61914 84.3478 5.60753C84.3554 5.59568 81.6227 5.58643 78.1086 5.58643H71.8559L71.8622 13.617ZM87.6856 13.6222V21.6597H89.4752H91.2649V19.3807V17.1017L93.3381 17.0918C95.2624 17.0826 95.4414 17.0781 95.8304 17.0304C98.1995 16.7393 99.9129 15.7492 100.841 14.1348C101.467 13.0461 101.691 11.5595 101.434 10.2015C101.315 9.57033 101.168 9.1503 100.882 8.61837C100.153 7.26586 98.7975 6.30658 96.9993 5.87146C96.4654 5.74229 96.2205 5.69824 95.726 5.64251C95.4022 5.60602 94.926 5.60041 91.5232 5.59302L87.6856 5.58465V13.6222ZM91.2649 11.3407V14.4157L92.9726 14.4157C93.9676 14.4156 94.8013 14.4049 94.9702 14.3899C96.2903 14.2729 97.2126 13.7247 97.6577 12.7924C98.0431 11.9852 98.0361 10.6584 97.6423 9.86694C97.4888 9.55855 97.3503 9.37133 97.1008 9.13523C96.6666 8.72423 96.1373 8.48515 95.3357 8.33793C95.0738 8.28984 94.9534 8.28642 93.1616 8.2763L91.2649 8.26562V11.3407ZM27.1982 11.692C26.9184 11.8955 26.3982 12.2706 26.0424 12.5255C25.6866 12.7804 25.2577 13.0879 25.0893 13.2089L24.7832 13.429L24.7659 13.9284C24.7382 14.7313 24.6763 15.2206 24.5054 15.9889C24.2526 17.1256 23.7033 18.3831 23.0216 19.3856C22.3418 20.3853 21.3914 21.356 20.4099 22.0529C18.8711 23.1456 17.0695 23.8114 15.1676 23.9902C14.7073 24.0335 13.6949 24.0394 13.2765 24.0012C12.2616 23.9088 11.2885 23.6886 10.361 23.3417C9.72567 23.1041 8.8675 22.6764 8.36703 22.3478C8.28826 22.2961 8.22565 22.2699 8.21319 22.2833C8.18839 22.3102 7.99543 22.7847 7.93126 22.9768C7.90661 23.0505 7.8503 23.1987 7.80616 23.306C7.762 23.4133 7.69238 23.5944 7.65144 23.7085C7.58659 23.8892 7.44342 24.2568 7.3807 24.4036C7.36923 24.4304 7.33941 24.5127 7.31446 24.5865C7.28948 24.6603 7.22624 24.8243 7.17394 24.9509L7.07886 25.1811L7.15745 25.2372C7.20068 25.2681 7.25954 25.3004 7.28822 25.3091C7.31691 25.3178 7.38826 25.3567 7.44682 25.3954C7.59733 25.4952 8.2601 25.8226 8.67096 26.0002C9.91878 26.5395 11.3306 26.9091 12.7345 27.0639C13.215 27.1169 14.6085 27.1377 15.187 27.1006C16.919 26.9893 18.701 26.5197 20.2881 25.7564C20.6983 25.5592 20.7524 25.5307 21.1913 25.281C22.7404 24.3994 24.1878 23.1292 25.2625 21.708C26.3532 20.2658 27.1125 18.6951 27.5557 16.9645C27.7096 16.3636 27.7671 16.0587 27.8571 15.367C28.0142 14.158 28.0026 13.0599 27.819 11.7869C27.7615 11.3884 27.747 11.3173 27.7233 11.32C27.7144 11.321 27.4781 11.4884 27.1982 11.692ZM58.0933 16.7437V18.9523L60.1791 18.9523C61.406 18.9522 62.3843 18.9418 62.5548 18.9271C63.7639 18.8222 64.5562 18.4224 64.8999 17.7437C65.0711 17.4057 65.1095 17.2229 65.1095 16.745C65.1095 16.3941 65.101 16.3004 65.0543 16.1353C64.8097 15.2708 64.1778 14.8173 62.9077 14.5947C62.6954 14.5574 62.409 14.5517 60.3808 14.5439L58.0933 14.5351V16.7437Z" fill="white"/>
</svg>
