<svg width="89" height="26" viewBox="0 0 89 26" fill="none" xmlns="http://www.w3.org/2000/svg">
<path fill-rule="evenodd" clip-rule="evenodd" d="M8.89162 0.331239C7.12099 0.469482 5.92268 0.770662 4.74219 1.37418C2.42863 2.55695 1.21503 4.75406 1.33101 7.55009C1.404 9.31108 1.9218 10.667 3.02864 11.9955C3.60315 12.685 4.77239 13.6981 5.7766 14.3763C5.78724 14.3836 5.64609 14.6041 5.46287 14.8665C4.43781 16.3342 0.841797 21.5539 0.841797 21.5739C0.841797 21.587 1.75629 21.5977 2.87406 21.5977H4.90632L6.1391 19.8064C6.81714 18.8212 8.06356 17.0094 8.90891 15.7802C9.75426 14.551 10.4275 13.529 10.4049 13.5092C10.3823 13.4894 9.78684 13.0952 9.08159 12.6332C8.37634 12.1711 7.57188 11.6143 7.29391 11.3957C5.94021 10.3311 5.30506 9.2877 5.11708 7.81988C4.84985 5.73335 5.67853 4.2261 7.46407 3.55088C8.25922 3.25017 8.98737 3.16024 10.6251 3.16042L11.5512 3.16052L11.5631 12.3791L11.5751 21.5977H13.4509H15.3267V10.9492V0.300781L12.2042 0.308593C10.4867 0.312918 8.9961 0.323101 8.89162 0.331239ZM54.6973 5.91005C52.3861 6.19435 50.7324 7.35689 49.759 9.38153C49.1077 10.7364 48.8155 12.3662 48.8701 14.3396C48.9192 16.1111 49.2035 17.3737 49.8176 18.5461C50.8081 20.4376 52.5446 21.5275 55.0499 21.8301C55.5927 21.8957 57.0982 21.8952 57.713 21.8292C58.5688 21.7374 59.5584 21.5079 60.2537 21.2398C60.6264 21.0962 61.3505 20.7375 61.4996 20.6227L61.6073 20.5397L61.6001 19.1041C61.5962 18.3145 61.5908 17.653 61.5882 17.634C61.5857 17.6151 61.4791 17.6625 61.3515 17.7394C60.6296 18.1743 59.3841 18.6323 58.3851 18.8304C57.2928 19.047 55.9928 19.0578 55.1959 18.857C54.0539 18.5692 53.2892 17.8339 52.9684 16.7152C52.863 16.3478 52.7501 15.6711 52.7501 15.4071V15.1807H57.2681H61.7861L61.7595 13.5648C61.7261 11.543 61.6299 10.7867 61.2644 9.67048C60.6016 7.64663 59.2772 6.44879 57.2259 6.01783C56.8662 5.94227 56.5516 5.91716 55.8133 5.90512C55.2909 5.89656 54.7887 5.89879 54.6973 5.91005ZM83.6605 5.9485C80.5429 6.38541 78.4675 8.41903 77.8274 11.6643C77.6763 12.4304 77.6261 13.0108 77.6281 13.9717C77.6352 17.5498 78.8404 19.9676 81.1973 21.1326C81.8196 21.4401 82.8451 21.7221 83.7322 21.8296C84.2761 21.8955 85.8088 21.8959 86.354 21.8303C87.3169 21.7143 88.2675 21.4046 88.8081 21.0306L88.9387 20.9403V19.4788C88.9387 18.6749 88.9287 18.0172 88.9166 18.0172C88.9044 18.0172 88.6854 18.1315 88.4298 18.2713C87.5255 18.7657 86.533 18.9993 85.3378 18.9989C84.7912 18.9988 84.5587 18.9782 84.2608 18.9036C82.505 18.4636 81.6213 16.9744 81.4996 14.2507C81.446 13.0494 81.6156 11.8243 81.955 10.9628C82.3676 9.91512 83.1957 9.15624 84.237 8.87152C84.7092 8.74239 86.0319 8.75616 86.7066 8.89723C87.3576 9.03334 88.0746 9.26942 88.5541 9.50541L88.9387 9.69475V8.16547C88.9387 6.99865 88.9247 6.62475 88.8793 6.58801C88.6665 6.41545 87.659 6.12436 86.8253 5.99454C86.1604 5.89098 84.2674 5.86345 83.6605 5.9485ZM18.5087 13.8787V21.5977H20.3846H22.2605V18.3736V15.1495H24.7538H27.2471V18.3736V21.5977H29.123H30.999V13.8781V6.15868L29.1349 6.17082L27.2709 6.183L27.2587 9.23269L27.2465 12.2824H24.7535H22.2605V9.22106V6.15975H20.3846H18.5087V13.8787ZM35.3061 8.40336C35.278 10.638 35.2448 11.3763 35.105 12.879C34.8893 15.1995 34.4544 17.1939 33.9004 18.4027L33.7575 18.7147H33.1615H32.5655L32.5777 21.9115L32.5899 25.1084L34.3115 25.1206L36.0331 25.1328V23.3652V21.5977H40.2598H44.4866V23.3652V25.1328L46.2081 25.1206L47.9297 25.1084L47.9419 21.9115L47.9541 18.7147H47.0989H46.2438V12.4372V6.15975H40.7891H35.3344L35.3061 8.40336ZM64.2906 13.8787V21.5977H66.1662H68.0418L68.054 17.8316L68.0661 14.0655L70.8207 17.8301L73.5752 21.5946L75.7046 21.5961L77.834 21.5977L77.6236 21.307C77.5079 21.1472 76.1579 19.2834 74.6236 17.1653C73.0894 15.0472 71.8438 13.2896 71.8556 13.2593C71.8675 13.2292 73.035 11.6496 74.4503 9.74916C75.8655 7.84871 77.0352 6.26368 77.0497 6.2268C77.0723 6.1691 76.8154 6.1598 75.2068 6.16008L73.3377 6.1604L70.7019 9.70373L68.0661 13.2471L68.054 9.7034L68.0418 6.15975H66.1662H64.2906V13.8787ZM54.7922 8.83832C54.2044 8.99237 53.7734 9.29235 53.4512 9.77143C53.0784 10.3258 52.8381 11.0815 52.7736 11.9025C52.7576 12.1071 52.7346 12.3216 52.7226 12.3791L52.7008 12.4837H55.3325H57.9643L57.9468 12.0768C57.9011 11.0083 57.7967 10.4657 57.5358 9.94153C57.2458 9.35865 56.7973 8.98949 56.1916 8.83502C55.8416 8.74579 55.139 8.74741 54.7922 8.83832ZM38.5498 9.68211C38.5481 13.0908 38.0394 16.7335 37.3225 18.4706L37.2217 18.7147H39.8569H42.4919V13.8787V9.04273H40.521H38.5501L38.5498 9.68211Z" fill="white"/>
</svg>
