<svg width="0" height="0" class="hidden">
    <symbol xmlns="http://www.w3.org/2000/svg" viewBox="0 0 32 32" id="analitics">
      <path d="M30.1596 30.6653H25.2909C25.0144 30.6653 24.7852 30.436 24.7852 30.1596C24.7852 29.8831 25.0144 29.6538 25.2909 29.6538H29.6538V25.2909C29.6538 25.0144 29.8831 24.7852 30.1596 24.7852C30.436 24.7852 30.6653 25.0144 30.6653 25.2909V30.1596C30.6653 30.436 30.436 30.6653 30.1596 30.6653Z" stroke="#000B7C" stroke-width="0.666667"></path>
      <path d="M6.70644 30.6653H1.83778C1.5613 30.6653 1.33203 30.436 1.33203 30.1596V25.2909C1.33203 25.0144 1.5613 24.7852 1.83778 24.7852C2.11425 24.7852 2.34353 25.0144 2.34353 25.2909V29.6538H6.70644C6.98292 29.6538 7.21219 29.8831 7.21219 30.1596C7.21219 30.436 6.98966 30.6653 6.70644 30.6653Z" stroke="#000B7C" stroke-width="0.666667"></path>
      <path d="M1.83778 7.21219C1.5613 7.21219 1.33203 6.98292 1.33203 6.70644V1.83778C1.33203 1.5613 1.5613 1.33203 1.83778 1.33203H6.70644C6.98292 1.33203 7.21219 1.5613 7.21219 1.83778C7.21219 2.11425 6.98292 2.34353 6.70644 2.34353H2.34353V6.70644C2.34353 6.98966 2.11425 7.21219 1.83778 7.21219Z" stroke="#000B7C" stroke-width="0.666667"></path>
      <path d="M30.1596 7.21219C29.8831 7.21219 29.6538 6.98292 29.6538 6.70644V2.34353H25.2909C25.0144 2.34353 24.7852 2.11425 24.7852 1.83778C24.7852 1.5613 25.0144 1.33203 25.2909 1.33203H30.1596C30.436 1.33203 30.6653 1.5613 30.6653 1.83778V6.70644C30.6653 6.98966 30.436 7.21219 30.1596 7.21219Z" stroke="#000B7C" stroke-width="0.666667"></path>
      <path d="M15.9946 4C10.8798 4 10.9401 8.26635 10.9401 8.26635L10.9049 10.5315C10.4879 10.5267 10.3874 10.9202 10.3874 11.7121C10.3874 12.8926 11.1461 14.1308 11.8294 14.769C12.0605 15.7001 12.5077 16.5159 13.1056 17.1398C13.0855 17.1542 13.0604 17.1638 13.0403 17.1734C11.0004 18.3587 8.57363 19.165 6.98594 19.9712C6.54882 20.192 6.08156 20.5807 5.70473 21.075C5.44849 21.4157 5.2224 21.7804 5.03147 22.1596C5.02645 22.174 5.0164 22.1884 5.01138 22.198C4.98625 22.2507 4.96113 22.3035 4.93601 22.3563C4.55416 23.1386 4.2929 23.9784 4.14217 24.8182C4.13714 24.8326 4.13714 24.8518 4.13212 24.8662C4.12709 24.9046 4.11704 24.943 4.11202 24.9862C4.0869 25.1302 4.05675 25.2741 4.03665 25.4181C4.01656 25.5381 3.99646 25.7876 4.00148 25.9124C4.00148 25.922 4.00148 25.9268 4.00148 25.9364C3.94622 26.7043 5.45352 26.9538 5.45352 26.9538C6.01624 27.1122 7.05126 27.2897 8.31236 27.4529C10.5582 27.808 12.8544 27.928 15.1103 27.9904C15.3314 27.9952 15.5575 28 15.7986 28C15.8137 28 15.8288 28 15.8438 28C15.9644 28 16.085 28 16.2056 28C16.4417 28 16.6729 27.9952 16.8939 27.9904C19.1499 27.9232 21.446 27.8032 23.6868 27.4529C24.9479 27.2897 25.983 27.117 26.5507 26.9538C26.5507 26.9538 28.053 26.7043 27.9977 25.9364C27.9977 25.9268 27.9977 25.922 27.9977 25.9124C28.0078 25.7876 27.9826 25.5381 27.9625 25.4181C27.9324 25.2118 27.8972 25.0054 27.857 24.799C27.6912 23.8824 27.3948 22.9658 26.9476 22.1212C26.9426 22.1116 26.9376 22.102 26.9326 22.0924C26.7467 21.7373 26.5356 21.3965 26.2945 21.0798C25.9176 20.5855 25.4454 20.1968 25.0082 19.976C23.4205 19.1698 20.9888 18.3683 18.9539 17.1782C18.9338 17.1638 18.9087 17.1542 18.8886 17.1446C19.4865 16.5207 19.9286 15.7001 20.1648 14.7738C20.8531 14.1356 21.6068 12.8974 21.6068 11.7169C21.6068 10.9298 21.5063 10.5315 21.0893 10.5363L21.0591 8.27115C21.044 8.26155 21.1093 4 15.9946 4Z"></path>
    </symbol>
    <symbol xmlns="http://www.w3.org/2000/svg" viewBox="0 0 32 32" id="api">
      <path d="M10.3828 16.6288H11.5133L10.937 15.0469L10.3828 16.6288Z"></path>
      <path d="M18.0285 13.4219H17.0742V15.1726H18.0285C18.5093 15.1726 18.902 14.7799 18.902 14.2991C18.902 13.8146 18.5093 13.4219 18.0285 13.4219Z"></path>
      <path d="M30.6654 18.6869V13.3068L27.63 12.6976C27.3731 11.7949 27.0134 10.9251 26.5546 10.1067L28.2723 7.52679L24.4698 3.72846L21.8896 5.44596C21.0711 4.98723 20.1976 4.62758 19.291 4.37069L18.6891 1.33203H13.3083L12.6991 4.36702C11.7998 4.62391 10.9263 4.98356 10.1078 5.44229L7.52756 3.72479L3.72876 7.52679L5.44648 10.1067C4.98769 10.9251 4.62799 11.7985 4.37107 12.6976L1.33203 13.3068V18.6832L4.37107 19.2887C4.62799 20.1915 4.98769 21.0686 5.44648 21.887L3.72876 24.4669L7.53123 28.2689L10.1115 26.5514C10.93 27.0102 11.7998 27.3698 12.7027 27.6267L13.312 30.6654H18.6891L19.2947 27.6267C20.1976 27.3698 21.0748 27.0102 21.8933 26.5514L24.4735 28.2689L28.276 24.4669L26.5583 21.887C27.017 21.0686 27.3767 20.1952 27.6337 19.2887L30.6654 18.6869ZM18.0284 11.7728C19.4195 11.7728 20.5536 12.9068 20.5536 14.2977C20.5536 15.6886 19.4195 16.8226 18.0284 16.8226H17.0741V19.3988C17.0741 19.8539 16.7034 20.2246 16.2483 20.2246C15.7932 20.2246 15.4225 19.8539 15.4225 19.3988V12.5986C15.4225 12.1435 15.7932 11.7728 16.2483 11.7728H18.0284ZM21.8272 19.3952V12.5986C21.8272 12.1435 22.1979 11.7728 22.653 11.7728C23.1081 11.7728 23.4788 12.1435 23.4788 12.5986V19.3988C23.4788 19.8539 23.1081 20.2246 22.653 20.2246C22.1979 20.2209 21.8272 19.8502 21.8272 19.3952ZM13.679 20.1695C13.5873 20.2025 13.4919 20.2209 13.3964 20.2209C13.0588 20.2209 12.7431 20.0117 12.622 19.6778L12.1118 18.2795H9.7995L9.31134 19.6704C9.16086 20.0998 8.69106 20.3273 8.25796 20.1732C7.82853 20.0227 7.60097 19.553 7.75512 19.1199L10.1445 12.3196C10.2583 11.9894 10.5703 11.7692 10.919 11.7692H10.9226C11.2676 11.7692 11.5796 11.9857 11.6971 12.3123L14.1672 19.1126C14.3287 19.542 14.1085 20.0154 13.679 20.1695Z"></path>
    </symbol>
    <symbol xmlns="http://www.w3.org/2000/svg" viewBox="0 0 32 32" id="camera">
      <path d="M5.75781 19.7529C5.75781 19.8516 5.75781 19.9699 5.75781 20.0686C5.75781 25.7104 10.3462 30.287 16.0026 30.287C21.6589 30.287 26.2473 25.7104 26.2473 20.0686C26.2473 19.9699 26.2473 19.8516 26.2473 19.7529V13.9336H5.75781V19.7529ZM18.5843 17.5436C21.3531 17.5436 23.6275 19.7924 23.6275 22.5739C23.6275 25.3356 21.3729 27.6041 18.5843 27.6041C15.8154 27.6041 13.541 25.3553 13.541 22.5739C13.541 19.7924 15.8154 17.5436 18.5843 17.5436Z"></path>
      <path d="M2.53135 2C1.2397 2 0.286794 3.20608 0.585604 4.46268L1.46354 8.1547C1.97775 10.3246 3.91595 11.8633 6.1508 11.8633H25.8492C28.0841 11.8633 30.0222 10.3246 30.5365 8.1547L31.4144 4.46268C31.7132 3.20607 30.7603 2 29.4687 2H2.53135Z"></path>
    </symbol>
    <symbol xmlns="http://www.w3.org/2000/svg" viewBox="0 0 32 32" id="cloud">
      <rect x="1.33203" y="15.332" width="29.3333" height="12" rx="6"></rect>
      <circle cx="9.66406" cy="14.332" r="5"></circle>
      <circle cx="19.6654" cy="13.6654" r="8.33333"></circle>
    </symbol>
    <symbol xmlns="http://www.w3.org/2000/svg" viewBox="0 0 32 32" id="flasher">
      <path d="M23.4796 26.1875H8.51562V28.6671H23.4796V26.1875Z"></path>
      <path d="M23.1253 11.9778C22.828 12.2761 22.3523 12.2761 22.055 11.9778C21.7577 11.6794 21.7577 11.2021 22.055 10.9037L25.3055 7.64173C25.6027 7.34338 26.0784 7.34338 26.3757 7.64173C26.673 7.94008 26.673 8.41745 26.3757 8.7158L23.1253 11.9778Z"></path>
      <path d="M16.7563 8.70235C16.7563 9.12005 16.4194 9.45818 16.0032 9.45818C15.5869 9.45818 15.25 9.12005 15.25 8.70235V4.08785C15.25 3.67016 15.5869 3.33203 16.0032 3.33203C16.4194 3.33203 16.7563 3.67016 16.7563 4.08785V8.70235Z"></path>
      <path d="M9.94994 10.9037C10.2472 11.2021 10.2472 11.6794 9.94994 11.9778C9.65265 12.2761 9.17697 12.2761 8.87967 11.9778L5.62922 8.7158C5.33193 8.41745 5.33193 7.94008 5.62922 7.64173C5.92652 7.34338 6.4022 7.34338 6.69949 7.64173L9.94994 10.9037Z"></path>
      <path d="M6.68729 17.293C7.1035 17.293 7.44044 17.6311 7.44044 18.0488C7.44044 18.4665 7.1035 18.8046 6.68729 18.8046H2.08909C1.67287 18.8046 1.33594 18.4665 1.33594 18.0488C1.33594 17.6311 1.67287 17.293 2.08909 17.293H6.68729Z"></path>
      <path d="M29.9138 17.293C30.3301 17.293 30.667 17.6311 30.667 18.0488C30.667 18.4665 30.3301 18.8046 29.9138 18.8046H25.3157C24.8994 18.8046 24.5625 18.4665 24.5625 18.0488C24.5625 17.6311 24.8994 17.293 25.3157 17.293H29.9138Z"></path>
      <path d="M16.0023 12.4883C12.3555 12.4883 9.40234 15.4519 9.40234 19.1117V25.3306H22.6023V19.1117C22.6023 15.4585 19.6492 12.4883 16.0023 12.4883ZM21.5255 24.2897C21.5255 24.2897 21.5255 24.2897 19.0414 24.2897C16.5573 24.2897 22.6023 13.5358 14.0666 13.8872C14.0666 13.8872 15.3219 13.5358 16.0023 13.5358C19.0546 13.5358 21.5255 16.0155 21.5255 19.0785V24.2897Z"></path>
    </symbol>
    <symbol xmlns="http://www.w3.org/2000/svg" viewBox="0 0 32 32" id="laptop">
      <path d="M31.0857 22.7708H29.7448V6.00892C29.7448 5.27749 29.1352 4.66797 28.4038 4.66797H3.13905C2.40762 4.66797 1.7981 5.27749 1.7981 6.00892V22.7404H0.914286C0.426667 22.7404 0 23.1365 0 23.6546C0 25.727 1.70667 27.4337 3.77905 27.4337H28.221C30.2933 27.4337 32 25.727 32 23.6546C32 23.167 31.6038 22.7708 31.0857 22.7708ZM4.48 7.38035H27.0629V22.3137H4.48V7.38035Z"></path>
      <path d="M9.96655 8.69141C7.89417 8.69141 6.1875 10.3676 6.1875 12.4705C6.1875 14.5428 7.86369 16.2495 9.96655 16.2495C12.0389 16.2495 13.7456 14.5733 13.7456 12.4705H9.96655V8.69141Z"></path>
      <path d="M25.9352 9.69531H16V11.3715H25.9352V9.69531Z"></path>
      <path d="M23.2533 12.4688H16V14.1449H23.2533V12.4688Z"></path>
      <path d="M18.7124 15.2422H16V16.9184H18.7124V15.2422Z"></path>
      <path d="M22.1562 18.0156H16V19.6918H22.1562V18.0156Z"></path>
      <path d="M12.4037 18.2891H7.67991C7.19229 18.2891 6.76562 18.6853 6.76562 19.2033C6.76562 19.691 7.16182 20.1176 7.67991 20.1176H12.4037C12.8913 20.1176 13.318 19.7214 13.318 19.2033C13.2875 18.7157 12.8913 18.2891 12.4037 18.2891Z"></path>
    </symbol>
    <symbol xmlns="http://www.w3.org/2000/svg" viewBox="0 0 32 32" id="media">
      <path d="M8 0C5.79375 0 4 1.79375 4 4V28C4 30.2062 5.79375 32 8 32H24C26.2062 32 28 30.2062 28 28V10H20C18.8937 10 18 9.10625 18 8V0H8ZM20 0V8H28L20 0ZM8 18C8 16.8937 8.89375 16 10 16H16C17.1063 16 18 16.8937 18 18V24C18 25.1063 17.1063 26 16 26H10C8.89375 26 8 25.1063 8 24V18ZM22.8062 24.8687L20 23V19L22.8062 17.1313C22.9312 17.05 23.0813 17 23.2313 17C23.6563 17 24 17.3437 24 17.7687V24.2313C24 24.6563 23.6563 25 23.2313 25C23.0813 25 22.9312 24.9562 22.8062 24.8687Z"></path>
    </symbol>
    <symbol xmlns="http://www.w3.org/2000/svg" viewBox="0 0 32 32" id="mobile">
      <path d="M20.6641 1.33203H9.9974C8.1574 1.33203 6.66406 2.82536 6.66406 4.66536V27.332C6.66406 29.172 8.1574 30.6654 9.9974 30.6654H20.6641C22.5041 30.6654 23.9974 29.172 23.9974 27.332V4.66536C23.9974 2.82536 22.5041 1.33203 20.6641 1.33203ZM15.3307 29.332C14.2241 29.332 13.3307 28.4387 13.3307 27.332C13.3307 26.2254 14.2241 25.332 15.3307 25.332C16.4374 25.332 17.3307 26.2254 17.3307 27.332C17.3307 28.4387 16.4374 29.332 15.3307 29.332ZM21.3307 23.9987H9.33073V5.33203H21.3307V23.9987Z"></path>
    </symbol>
    <symbol xmlns="http://www.w3.org/2000/svg" viewBox="0 0 32 32" id="users">
      <path d="M9.65368 9.26637C8.8925 9.87531 8.77071 10.9714 9.37966 11.7326L12.6984 15.8734V25.647C12.6984 26.6213 13.49 27.4129 14.4643 27.4129C15.4386 27.4129 16.2303 26.6213 16.2303 25.647C16.2303 26.6213 17.0219 27.4129 17.9962 27.4129C18.9705 27.4129 19.7621 26.6213 19.7621 25.647V15.9039L23.0809 11.763C23.6898 11.0019 23.568 9.90576 22.8069 9.29682C22.0457 8.68787 20.9496 8.80966 20.3406 9.57084L16.7174 14.1379H15.8345L12.2112 9.57084C11.511 8.80966 10.4149 8.65743 9.65368 9.26637Z"></path>
      <path d="M19.1786 6.98382C19.1786 5.33968 17.8389 4 16.1948 4C14.5506 4 13.2109 5.33968 13.2109 6.98382C13.2109 8.62797 14.5506 9.96765 16.1948 9.96765C17.8389 9.96765 19.1786 8.62797 19.1786 6.98382Z"></path>
      <path d="M3.25491 10.5762C4.29012 10.5762 5.14264 9.72371 5.14264 8.68851C5.14264 7.6533 4.29012 6.80078 3.25491 6.80078C2.21971 6.80078 1.36719 7.6533 1.36719 8.68851C1.36719 9.72371 2.21971 10.5762 3.25491 10.5762Z"></path>
      <path d="M1.0352 18.1292V21.2958C1.0352 21.9047 1.52236 22.4223 2.16175 22.4223C2.77069 22.4223 3.2883 21.9351 3.2883 21.2958C3.2883 21.9047 3.77545 22.4223 4.41484 22.4223C5.02379 22.4223 5.54139 21.9351 5.54139 21.2958V18.1292C6.18078 17.703 6.57659 16.9723 6.57659 16.1502V13.2881C6.57659 11.9789 5.51094 10.8828 4.17127 10.8828H2.40533C1.0961 10.8828 0 11.9485 0 13.2881V16.1502C0 16.9723 0.395814 17.703 1.0352 18.1292Z"></path>
      <path d="M28.7119 10.5762C29.7472 10.5762 30.5997 9.72371 30.5997 8.68851C30.5997 7.6533 29.7472 6.80078 28.7119 6.80078C27.6767 6.80078 26.8242 7.6533 26.8242 8.68851C26.8242 9.72371 27.6463 10.5762 28.7119 10.5762Z"></path>
      <path d="M25.4219 16.1502C25.4219 16.9723 25.8177 17.703 26.4571 18.1292V21.2958C26.4571 21.9047 26.9442 22.4223 27.5836 22.4223C28.1926 22.4223 28.7102 21.9351 28.7102 21.2958C28.7102 21.9047 29.1973 22.4223 29.8367 22.4223C30.4457 22.4223 30.9633 21.9351 30.9633 21.2958V18.1292C31.6027 17.703 31.9985 16.9723 31.9985 16.1502V13.2881C31.9985 11.9789 30.9328 10.8828 29.5931 10.8828H27.8272C26.518 10.8828 25.4219 11.9485 25.4219 13.2881V16.1502Z"></path>
    </symbol>
    <symbol  xmlns="http://www.w3.org/2000/svg" viewBox="0 0 32 32" id="arrow">
      <path d="M1.0763 23.6512C1.13717 23.6512 1.19805 23.6512 1.25892 23.6512C1.86766 23.6512 2.41552 23.1947 2.50683 22.5859C2.84163 20.3641 3.78517 18.2639 5.09395 16.7725C5.58093 17.0465 6.15923 17.2291 6.76797 17.2291C8.41155 17.2291 9.75076 16.0421 10.0551 14.4898C10.6334 14.5202 11.2117 14.6724 11.8205 14.8855C12.3988 15.0985 13.0075 15.342 13.6162 15.5855C15.1381 16.1942 16.7208 16.8334 18.3339 17.2291C18.6383 18.7814 19.9775 19.938 21.6211 19.938C23.3255 19.938 24.7561 18.6596 24.9387 16.9856C26.5823 16.3464 28.0737 15.2507 29.5042 13.668V15.9812C29.5042 16.6812 30.0521 17.2291 30.7521 17.2291C31.4521 17.2291 32 16.6812 32 15.9812V9.92428C32 9.5286 31.8174 9.16336 31.513 8.91986C31.2086 8.67637 30.813 8.6155 30.4173 8.70681L24.8169 10.2286C24.1473 10.4113 23.7517 11.1113 23.9343 11.7505C24.1169 12.4201 24.8169 12.8158 25.4561 12.6331L27.5562 12.0548C26.491 13.2114 25.3952 14.0637 24.2386 14.5507C23.6299 13.7593 22.6559 13.2419 21.5906 13.2419C20.4341 13.2419 19.3992 13.8506 18.7905 14.7637C17.3599 14.3985 15.9294 13.8202 14.5293 13.2723C13.9206 13.0288 13.2814 12.7853 12.6727 12.5418C11.6074 12.1462 10.5421 11.9635 9.50727 11.9635C8.89854 11.0809 7.89413 10.5026 6.76797 10.5026C4.91133 10.5026 3.41993 11.994 3.41993 13.8506C3.41993 14.155 3.45036 14.4593 3.54167 14.7333C1.74591 16.6508 0.467567 19.3292 0.0110161 22.2207C-0.0802941 22.9208 0.406693 23.5599 1.0763 23.6512Z" ></path>
    </symbol>
    <symbol  xmlns="http://www.w3.org/2000/svg" viewBox="0 0 32 32" id="book">
      <path d="M26.2173 28.4037C26.6643 28.4037 27.0554 28.0405 27.0554 27.5656V4.43416C27.0554 3.98718 26.6922 3.59607 26.2173 3.59607H5.76778C5.3208 3.59607 4.92969 3.95924 4.92969 4.43416C4.92969 4.88115 5.29286 5.27226 5.76778 5.27226H25.4071V27.5935C25.3792 28.0405 25.7703 28.4037 26.2173 28.4037Z" ></path>
      <path d="M29.2898 2.17135C29.2898 1.72436 28.9266 1.33325 28.4517 1.33325H8.00216C7.55517 1.33325 7.16406 1.69643 7.16406 2.17135C7.16406 2.61833 7.52724 3.00944 8.00216 3.00944H27.6415V25.3307C27.6415 25.7777 28.0047 26.1688 28.4796 26.1688C28.9266 26.1688 29.3177 25.8056 29.3177 25.3307V2.17135H29.2898Z" ></path>
      <path fill-rule="evenodd" clip-rule="evenodd" d="M23.9556 30.6667H3.50606C3.03114 30.6667 2.66797 30.3036 2.66797 29.8286V24.8001V6.66927C2.66797 6.19435 3.05908 5.83118 3.50606 5.83118H23.9556C24.4305 5.83118 24.7937 6.22229 24.7937 6.66927V24.8001V29.8286C24.7937 30.3036 24.4026 30.6667 23.9556 30.6667ZM4.31622 9.71435V11.2509H23.1175V9.71435H4.31622ZM4.31623 14.0445V12.508H20.9664V14.0445H4.31623ZM4.31623 18.0953V19.6318H22.5029V18.0953H4.31623Z" ></path>
    </symbol>
    <symbol  xmlns="http://www.w3.org/2000/svg" viewBox="0 0 32 32" id="options">
      <path d="M6.05443 21.8121L4.64679 25.3993L5.3279 26.0804L5.8728 26.6253L6.55391 27.3064L10.1411 25.8988C11.0493 26.4437 12.0028 26.8523 13.0472 27.1248L14.5911 30.6666H15.59H16.362H17.3609L18.9048 27.1248C19.9492 26.8523 20.9027 26.4437 21.8109 25.8988L25.3981 27.3064L26.0792 26.6253L26.6241 26.0804L27.3052 25.3993L25.8976 21.8121C26.4425 20.9039 26.8511 19.9504 27.1236 18.906L30.6654 17.3621V16.3632V15.5913V14.5923L27.1236 13.0484C26.8511 12.004 26.4425 11.0505 25.8976 10.1423L27.3052 6.55513L26.6241 5.87402L26.0792 5.32912L25.3981 4.64801L21.8109 6.05565C20.9027 5.51075 19.9492 5.10209 18.9048 4.82964L17.3609 1.33325H16.362H15.59H14.5911L13.0472 4.87505C12.0028 5.14749 11.0493 5.55616 10.1411 6.10105L6.55391 4.69342L5.8728 5.37453L5.37331 5.87402L4.6922 6.55513L6.09983 10.1423C5.55494 11.0505 5.14627 12.004 4.87383 13.0484L1.33203 14.6377V15.6367V16.4086V17.4076L4.87383 18.9514C5.10087 19.905 5.50953 20.9039 6.05443 21.8121ZM15.9987 8.23521C20.267 8.23521 23.7634 11.6862 23.7634 15.9999C23.7634 20.3136 20.3124 23.7646 15.9987 23.7646C11.685 23.7646 8.23399 20.3136 8.23399 15.9999C8.23399 11.6862 11.685 8.23521 15.9987 8.23521Z" ></path>
      <path d="M20.0676 16.9361C20.5978 14.6908 19.2074 12.4408 16.9621 11.9106C14.7167 11.3804 12.4667 12.7708 11.9366 15.0161C11.4064 17.2615 12.7968 19.5115 15.0421 20.0417C17.2874 20.5718 19.5375 19.1814 20.0676 16.9361Z" ></path>
    </symbol>
    <symbol xmlns="http://www.w3.org/2000/svg" viewBox="0 0 32 32" id="planet">
      <path d="M22 16C22 17.3875 21.925 18.725 21.7938 20H10.2063C10.0688 18.725 10 17.3875 10 16C10 14.6125 10.075 13.275 10.2063 12H21.7938C21.9313 13.275 22 14.6125 22 16ZM23.8 12H31.4937C31.825 13.2812 32 14.6187 32 16C32 17.3813 31.825 18.7188 31.4937 20H23.8C23.9312 18.7125 24 17.375 24 16C24 14.625 23.9312 13.2875 23.8 12ZM30.8375 10H23.5438C22.9188 6.00625 21.6812 2.6625 20.0875 0.525C24.9812 1.81875 28.9625 5.36875 30.8312 10H30.8375ZM21.5187 10H10.4812C10.8625 7.725 11.45 5.7125 12.1687 4.08125C12.825 2.60625 13.5562 1.5375 14.2625 0.8625C14.9625 0.2 15.5437 0 16 0C16.4563 0 17.0375 0.2 17.7375 0.8625C18.4437 1.5375 19.175 2.60625 19.8312 4.08125C20.5562 5.70625 21.1375 7.71875 21.5187 10ZM8.45625 10H1.1625C3.0375 5.36875 7.0125 1.81875 11.9125 0.525C10.3188 2.6625 9.08125 6.00625 8.45625 10ZM0.50625 12H8.2C8.06875 13.2875 8 14.625 8 16C8 17.375 8.06875 18.7125 8.2 20H0.50625C0.175 18.7188 0 17.3813 0 16C0 14.6187 0.175 13.2812 0.50625 12ZM12.1687 27.9125C11.4437 26.2875 10.8625 24.275 10.4812 22H21.5187C21.1375 24.275 20.55 26.2875 19.8312 27.9125C19.175 29.3875 18.4437 30.4563 17.7375 31.1313C17.0375 31.8 16.4563 32 16 32C15.5437 32 14.9625 31.8 14.2625 31.1375C13.5562 30.4625 12.825 29.3938 12.1687 27.9188V27.9125ZM8.45625 22C9.08125 25.9938 10.3188 29.3375 11.9125 31.475C7.0125 30.1813 3.0375 26.6312 1.1625 22H8.45625ZM30.8375 22C28.9625 26.6312 24.9875 30.1813 20.0938 31.475C21.6875 29.3375 22.9187 25.9938 23.55 22H30.8375Z"></path>
    </symbol>
    <symbol  xmlns="http://www.w3.org/2000/svg" viewBox="0 0 32 32" id="star">
      <path d="M16 32C24.8381 32 32 24.8381 32 16C32 7.16191 24.8381 0 16 0C7.16191 0 0 7.16191 0 16C0 24.8381 7.16191 32 16 32ZM13.5619 13.4705L16 8.13714L18.4381 13.4705L24.259 14.141L19.9314 18.1029L21.0895 23.8629L15.9695 20.9981L10.8495 23.8629L12.0076 18.1029L7.68 14.141L13.5619 13.4705Z" ></path>
    </symbol>
  </svg>