<svg width="0" height="0" class="hidden">
    <symbol xmlns="http://www.w3.org/2000/svg" viewBox="0 0 60 60" id="cart">
      <path d="M11.8696 9.85629C11.7901 8.8238 10.8888 8.05119 9.85629 8.13061C8.8238 8.21004 8.05119 9.11141 8.13061 10.1439L9.83649 32.3203C9.95734 33.8915 10.0551 35.162 10.2035 36.1955C10.3565 37.2607 10.5783 38.1981 11.0048 39.0802C12.0327 41.2068 13.8255 42.8669 16.0246 43.7287C16.9368 44.0862 17.8885 44.2356 18.9623 44.3064C20.0041 44.3751 21.2783 44.3751 22.8541 44.3751L37.676 44.3752C39.8349 44.376 41.323 44.3765 42.6711 43.9631C44.4624 43.4137 46.048 42.3402 47.2234 40.881C48.108 39.7829 48.6601 38.401 49.4612 36.3962L50.5991 33.5512C51.491 31.3214 52.2004 29.548 52.6552 28.102C53.1156 26.6383 53.3847 25.3075 53.2434 23.9959C52.9102 20.903 51.0644 18.1767 48.3165 16.7186C47.1512 16.1004 45.8156 15.856 44.2856 15.7398C42.774 15.6251 40.864 15.6251 38.4623 15.6251H12.3133L11.8696 9.85629Z"></path>
      <path fill-rule="evenodd" clip-rule="evenodd" d="M3.125 10C3.125 8.96447 3.96447 8.125 5 8.125H10C11.0355 8.125 11.875 8.96447 11.875 10C11.875 11.0355 11.0355 11.875 10 11.875H5C3.96447 11.875 3.125 11.0355 3.125 10Z"></path>
      <path fill-rule="evenodd" clip-rule="evenodd" d="M13.75 48.125C12.0241 48.125 10.625 49.5241 10.625 51.25C10.625 52.9759 12.0241 54.375 13.75 54.375C15.4759 54.375 16.875 52.9759 16.875 51.25C16.875 49.5241 15.4759 48.125 13.75 48.125Z" fill="#D12C1E"></path>
      <path fill-rule="evenodd" clip-rule="evenodd" d="M43.75 48.125C42.0241 48.125 40.625 49.5241 40.625 51.25C40.625 52.9759 42.0241 54.375 43.75 54.375C45.4759 54.375 46.875 52.9759 46.875 51.25C46.875 49.5241 45.4759 48.125 43.75 48.125Z" fill="#D12C1E"></path>
    </symbol>
    <symbol xmlns="http://www.w3.org/2000/svg" viewBox="0 0 60 60" id="fin">
        <path d="M51.7504 9.59961H9.45039C5.56446 9.59961 2.40039 12.7607 2.40039 16.6496V20.8799H58.8004V16.6496C58.8004 12.7607 55.6363 9.59961 51.7504 9.59961Z" fill="#D12C1E"></path>
        <path d="M2.40039 47.6692C2.40039 51.5582 5.56446 54.7192 9.45039 54.7192H51.7504C55.6363 54.7192 58.8004 51.5582 58.8004 47.6692V23.6992H2.40039V47.6692ZM32.0104 43.4395H37.6505C38.429 43.4395 39.0604 44.0714 39.0604 44.8493C39.0604 45.6278 38.4285 46.2592 37.6505 46.2592H32.0104C31.2319 46.2592 30.6005 45.6273 30.6005 44.8493C30.6005 44.0709 31.2324 43.4395 32.0104 43.4395ZM20.7306 43.4395H26.3708C27.1492 43.4395 27.7806 44.0714 27.7806 44.8493C27.7806 45.6278 27.1487 46.2592 26.3708 46.2592H20.7306C19.9522 46.2592 19.3208 45.6273 19.3208 44.8493C19.3203 44.0709 19.9522 43.4395 20.7306 43.4395ZM9.45039 43.4395H15.0905C15.869 43.4395 16.5004 44.0714 16.5004 44.8493C16.5004 45.6273 15.8685 46.2592 15.0905 46.2592H9.45039C8.67192 46.2592 8.04052 45.6273 8.04052 44.8493C8.04052 44.0709 8.67195 43.4395 9.45039 43.4395Z"></path>
      </symbol>
    <symbol xmlns="http://www.w3.org/2000/svg" viewBox="0 0 60 60" id="horeca">
      <path d="M55.4391 4.44612C54.8287 3.86799 54.0083 3.56588 53.1687 3.60964C52.3703 3.66799 51.6243 4.03037 51.085 4.62236C50.5457 5.21431 50.2539 5.99054 50.27 6.79128V18.4083C50.2693 19.1492 49.6689 19.7496 48.928 19.7503C48.5925 19.75 48.3207 19.4782 48.3203 19.1423V8.01072C48.3203 7.17039 47.9752 6.36688 47.3656 5.78883C46.756 5.21078 45.9352 4.90858 45.0964 4.95311C44.2976 5.01146 43.5516 5.37384 43.0123 5.96583C42.473 6.55778 42.1816 7.33401 42.1977 8.13475V19.1425C42.1969 19.478 41.9252 19.7502 41.5896 19.7506C40.8487 19.7498 40.2487 19.1494 40.2476 18.4085V6.79148C40.2637 5.99109 39.9723 5.21447 39.433 4.62256C38.8936 4.03062 38.1478 3.66823 37.3489 3.60985C36.5097 3.56532 35.6893 3.86743 35.0797 4.44595C34.4701 5.02408 34.125 5.82719 34.125 6.66744V20.6106C34.1246 22.3731 34.7484 24.079 35.8867 25.4249C37.0245 26.7708 38.6027 27.6703 40.3409 27.9627L39.0138 48.5375C38.9021 50.2642 39.5101 51.9594 40.6933 53.2217C41.8764 54.4839 43.5294 55.1998 45.2592 55.1998C46.9893 55.1998 48.642 54.4839 49.8251 53.2217C51.0083 51.9594 51.6164 50.2642 51.5047 48.5375L50.1772 27.9618C51.9154 27.6692 53.4935 26.7702 54.6314 25.4243C55.7696 24.0784 56.3934 22.3724 56.393 20.61V6.66685C56.3915 5.82691 56.0472 5.02459 55.4391 4.44565L55.4391 4.44612Z" fill="#D12C1E"></path>
      <path d="M24.4604 5.89341C22.0603 4.19169 19.1351 3.39468 16.2038 3.6446C13.272 3.89413 10.5238 5.17395 8.44618 7.25737C7.75173 7.95719 7.1406 8.73532 6.62466 9.57566V9.57643C5.4319 11.53 4.80078 13.7746 4.80078 16.0637V18.7149C4.80539 21.1633 5.52862 23.5569 6.88106 25.5979C8.23351 27.6391 10.1556 29.2379 12.409 30.1965L11.2148 48.7488C11.0973 50.4187 11.6846 52.0617 12.834 53.279C13.9811 54.5021 15.5827 55.197 17.2594 55.1996C18.9351 55.2004 20.5363 54.5078 21.683 53.2859C22.8296 52.0644 23.4193 50.4225 23.3122 48.7503L22.1099 30.1971C24.3629 29.2385 26.285 27.6397 27.6374 25.5985C28.9903 23.5574 29.7135 21.1639 29.7181 18.7155V16.0643C29.7146 12.0232 27.7557 8.23302 24.4604 5.89389V5.89341Z"></path>
    </symbol>
    <symbol xmlns="http://www.w3.org/2000/svg" viewBox="0 0 60 60" id="house">
      <path fill-rule="evenodd" clip-rule="evenodd" d="M4.19637 22.9493C4 23.7978 4 24.7096 4 26.5333V47.0574C4 50.6102 4 52.3866 4.58042 53.7879C5.35431 55.6562 6.8387 57.1406 8.70704 57.9145C10.1083 58.4949 11.8847 58.4949 15.4375 58.4949L21.333 58.4949V44.0505C21.333 43.0831 21.333 42.5994 21.3768 42.1923C21.7608 38.6274 24.5766 35.8116 28.1414 35.4277C28.5485 35.3838 29.0323 35.3838 29.9997 35.3838C30.9671 35.3838 31.4508 35.3838 31.8579 35.4277C35.4228 35.8116 38.2385 38.6274 38.6225 42.1923C38.6663 42.5994 38.6663 43.0831 38.6663 44.0505V58.4949L44.5625 58.4949C48.1153 58.4949 49.8917 58.4949 51.293 57.9145C53.1613 57.1406 54.6457 55.6562 55.4196 53.7879C56 52.3866 56 50.6102 56 47.0574V26.5333C56 24.7096 56 23.7978 55.8036 22.9493C55.5418 21.8181 55.0251 20.7616 54.2929 19.8604C53.7437 19.1845 53.024 18.6247 51.5845 17.505L37.0219 6.17865C34.7923 4.44447 33.6775 3.57739 32.4746 3.16467C30.8708 2.61438 29.1293 2.61438 27.5254 3.16467C26.3225 3.57739 25.2077 4.44447 22.9781 6.17865L8.41555 17.505L8.41554 17.505C6.97604 18.6247 6.25628 19.1845 5.70712 19.8604C4.97491 20.7616 4.45819 21.8181 4.19637 22.9493Z" ></path>
    </symbol>
    <symbol xmlns="http://www.w3.org/2000/svg" viewBox="0 0 80 80" id="settings">
      <circle cx="40" cy="40" r="8" fill="#E20000"></circle>
      <path fill-rule="evenodd" clip-rule="evenodd" d="M46.069 6.6A2.438 2.438 0 0 0 43.773 5h-7.329a2.436 2.436 0 0 0-2.296 1.606l-2.31 6.444c-1.207.43-2.166.83-2.884 1.21-.602.32-1.267.715-2.002 1.205L20.31 12.72a2.457 2.457 0 0 0-2.625.483l-4.914 4.64a2.39 2.39 0 0 0-.525 2.766l2.849 6.02a31.48 31.48 0 0 0-1.099 2.492c-.235.633-.5 1.501-.805 2.618l-6.573 3.157a2.408 2.408 0 0 0-1.372 2.079l-.245 6.723a2.415 2.415 0 0 0 1.715 2.39l6.265 1.908c.322.956.672 1.903 1.05 2.838.324.765.677 1.517 1.057 2.254l-2.86 6.23a2.39 2.39 0 0 0 .543 2.74l4.92 4.617a2.458 2.458 0 0 0 2.643.466l6.65-2.842c.71.366 1.43.708 2.163 1.025.896.364 1.801.703 2.716 1.015l2.68 7.095a2.44 2.44 0 0 0 2.342 1.564l6.65-.15a2.437 2.437 0 0 0 2.24-1.6l2.275-6.3 2.562-.959c.97-.37 1.917-.798 2.835-1.284l5.865 3.108a2.46 2.46 0 0 0 2.786-.336l5.691-5.082a2.39 2.39 0 0 0 .588-2.776l-2.992-6.615c.39-.886.738-1.79 1.043-2.709.189-.594.367-1.298.539-2.12l5.956-2.118a2.415 2.415 0 0 0 1.61-2.117l.462-7.263a2.405 2.405 0 0 0-1.466-2.359l-6.29-2.695a45.646 45.646 0 0 0-1.091-2.66 37.712 37.712 0 0 0-1.078-2.114l2.698-6.324a2.39 2.39 0 0 0-.483-2.604l-5.06-5.233a2.457 2.457 0 0 0-2.913-.458l-5.753 3.045c-1.12-.522-2.027-.903-2.73-1.155a24.184 24.184 0 0 0-2.29-.672l-2.47-6.85ZM40 55c8.284 0 15-6.716 15-15 0-8.284-6.716-15-15-15-8.284 0-15 6.716-15 15 0 8.284 6.716 15 15 15Z" ></path>
    </symbol>
    <symbol xmlns="http://www.w3.org/2000/svg" viewBox="0 0 60 60" id="storage">
      <path d="M7.74374 6H51.1339C53.7549 6 55.8796 8.62099 55.8796 10.7457V20.2375C55.8796 22.8585 53.7549 24.9832 51.1339 24.9832H7.74374C5.12275 24.9832 2.99805 22.3622 2.99805 20.2375V10.7457C2.99805 8.12471 5.12275 6 7.74374 6Z" fill="#D12C1E"></path>
      <path d="M7.74477 27.695C7.38156 27.6959 7.01927 27.6687 6.66016 27.6133V49.2543C6.66606 50.511 7.16773 51.715 8.05671 52.6035C8.94519 53.4924 10.1492 53.9941 11.4058 54H47.4751C48.7317 53.9941 49.9358 53.4925 50.8242 52.6035C51.7131 51.715 52.2148 50.511 52.2208 49.2543V27.6133C51.8616 27.6687 51.4993 27.6959 51.1361 27.695H7.74477ZM36.2198 37.4579H22.6599H22.6604C21.9335 37.4579 21.262 37.0702 20.8988 36.4409C20.5356 35.8117 20.5356 35.0362 20.8988 34.407C21.262 33.7777 21.9335 33.39 22.6604 33.39H36.2203H36.2198C36.9467 33.39 37.6181 33.7777 37.9813 34.407C38.3445 35.0362 38.3445 35.8117 37.9813 36.4409C37.6181 37.0702 36.9467 37.4579 36.2198 37.4579Z"></path>
    </symbol>
  </svg>