<svg xmlns="http://www.w3.org/2000/svg" width="150" height="32" viewBox="0 0 150 32" fill="none">
    <g clip-path="url(#clip0_2910_4903)">
      <path d="M117.603 29.055H122.041C122.485 29.055 122.818 28.7259 122.818 28.3967C122.929 27.8482 122.485 27.4094 122.041 27.4094H118.602C118.158 27.4094 117.825 27.7385 117.825 28.0676L117.603 29.055ZM117.16 31.3588H121.598C122.041 31.3588 122.374 31.0297 122.374 30.7006C122.485 30.1521 122.041 29.7132 121.598 29.7132H118.158C117.714 29.7132 117.382 30.0423 117.382 30.3715L117.16 31.3588ZM139.349 20.4978H119.822C119.379 20.4978 119.046 20.8269 119.046 21.156C118.935 21.7046 119.379 22.1434 119.822 22.1434H138.35C138.794 22.1434 139.127 21.8143 139.127 21.4852L139.349 20.4978ZM141.457 8.97852H121.93C121.487 8.97852 121.154 9.30764 121.154 9.63676C121.043 10.1853 121.487 10.6241 121.93 10.6241H140.458C140.902 10.6241 141.235 10.295 141.235 9.96588L141.457 8.97852ZM141.901 18.1939H121.819C121.376 18.1939 121.043 18.5231 121.043 18.8522C120.932 19.4007 121.376 19.8396 121.819 19.8396H140.902C141.346 19.8396 141.679 19.5104 141.679 19.1813L141.901 18.1939ZM143.232 11.2824H121.487C121.043 11.2824 120.71 11.6115 120.71 11.9406C120.599 12.4892 121.043 12.928 121.487 12.928H142.234C142.677 12.928 143.01 12.5989 143.01 12.2697L143.232 11.2824ZM118.269 25.2152L118.158 25.8735C118.047 26.422 118.491 26.8608 118.935 26.8608H122.374C122.818 26.8608 123.151 26.5317 123.151 26.2026C123.262 25.654 122.818 25.2152 122.374 25.2152H118.824H118.269ZM135.799 31.3588H141.013C141.457 31.3588 141.79 31.0297 141.79 30.7006C141.901 30.1521 141.457 29.7132 141.013 29.7132H136.797C136.353 29.7132 136.021 30.0423 136.021 30.3715L135.799 31.3588ZM136.908 13.5862L136.797 14.2445C136.686 14.793 137.13 15.2318 137.574 15.2318H144.009C144.453 15.2318 144.785 14.9027 144.785 14.5736C144.896 14.0251 144.453 13.5862 144.009 13.5862H136.908ZM140.237 27.4094H135.022C134.578 27.4094 134.245 27.7385 134.245 28.0676C134.135 28.6162 134.578 29.055 135.022 29.055H139.238C139.682 29.055 140.015 28.7259 140.015 28.3967L140.237 27.4094ZM136.132 17.5357H143.565C144.009 17.5357 144.342 17.2066 144.342 16.8775C144.453 16.3289 144.009 15.8901 143.565 15.8901H137.13C136.686 15.8901 136.353 16.2192 136.353 16.5483L136.132 17.5357ZM136.686 22.8017H131.472C131.028 22.8017 130.695 23.1308 130.695 23.4599C130.584 24.0084 131.028 24.4473 131.472 24.4473H135.688C136.132 24.4473 136.464 24.1181 136.464 23.789L136.686 22.8017ZM138.461 25.1055H133.247C132.803 25.1055 132.47 25.4346 132.47 25.7638C132.359 26.3123 132.803 26.7511 133.247 26.7511H137.463C137.907 26.7511 138.24 26.422 138.24 26.0929L138.461 25.1055ZM118.491 24.4473H122.929C123.373 24.4473 123.706 24.1181 123.706 23.789C123.816 23.2405 123.373 22.8017 122.929 22.8017H119.49C119.046 22.8017 118.713 23.1308 118.713 23.4599L118.491 24.4473Z" fill="#D12C1E"/>
      <path d="M114.719 0.531751L113.609 6.56566H119.157L119.268 6.23654C120.266 -0.0167861 114.719 0.531751 114.719 0.531751ZM85.3181 15.5617C84.6524 19.182 87.3151 22.0344 91.3092 22.0344H97.966C100.518 22.0344 101.849 23.1315 101.516 24.8868C101.294 26.313 99.6302 27.4101 97.855 27.4101H83.8757C84.3195 26.6421 84.7633 25.6547 84.8743 24.7771C85.5399 20.8276 83.2101 18.1946 78.7722 18.1946H71.4497C69.7855 18.1946 68.5651 16.9879 68.8979 15.5617C69.0089 14.684 70.1183 13.0384 72.1154 13.0384H82.2115C85.6509 13.0384 86.3166 8.97922 86.3166 8.97922H71.0059C66.4571 8.97922 62.9068 11.7219 62.1302 15.5617C61.4645 19.182 64.1272 22.0344 68.1213 22.0344H74.7781C77.3299 22.0344 78.6612 23.1315 78.3284 24.8868C78.1065 26.313 76.4423 27.4101 74.6672 27.4101H62.1302L57.3595 8.97922H51.8121C51.8121 8.97922 49.8151 12.3802 48.4837 14.3549C45.4882 19.0723 48.9275 22.2538 48.9275 22.3635H43.824L40.3846 28.178L37.3891 22.3635C41.0503 21.5956 43.6021 19.182 44.1568 15.7811C44.8225 12.051 42.4926 8.97922 38.8314 8.97922H4.10503C0.554734 8.97922 0 13.0384 0 13.0384H10.2071L6.98965 31.3595C6.98965 31.3595 12.0932 31.7984 13.2027 25.9839C13.9793 21.9247 15.5325 13.0384 15.5325 13.0384H33.9497C36.6124 13.0384 38.0547 14.1355 37.7219 16.0005C37.3891 17.7558 35.2811 19.182 32.9512 19.182H24.8521C21.0799 19.182 19.9704 23.0218 19.9704 23.0218L18.4172 31.4692H23.6317L25.1849 22.9121H31.3979L35.7249 31.4692H44.1568L47.1524 26.4227H56.4719L57.4704 31.4692H99.8521C103.846 31.4692 107.396 28.6168 108.062 24.7771C108.728 20.8276 106.398 18.1946 101.96 18.1946H94.6376C92.9734 18.1946 91.753 16.9879 92.0858 15.5617C92.1967 14.684 92.8624 13.9161 93.9719 13.4772C94.4157 13.2578 94.8595 13.1481 95.1923 13.1481H113.055L109.837 31.4692C109.837 31.4692 114.386 31.9081 115.717 27.0809C115.717 26.8615 115.828 26.5324 115.828 26.313L118.935 9.08893H94.0828C89.534 8.97922 85.9837 11.7219 85.3181 15.5617ZM49.0385 22.3635L53.6982 14.5743L55.3624 22.3635H49.0385Z" fill="#000B7C"/>
      <path d="M147.67 6.78516C149.001 6.78516 149.999 7.88223 149.999 9.19872C149.999 10.5152 149.001 11.6123 147.67 11.6123C146.338 11.6123 145.34 10.5152 145.34 9.19872C145.229 7.77252 146.338 6.78516 147.67 6.78516ZM147.67 7.11428C146.671 7.11428 145.783 7.99194 145.783 9.08901C145.783 10.1861 146.671 11.0637 147.67 11.0637C148.779 11.0637 149.556 10.1861 149.556 9.08901C149.556 7.99194 148.668 7.11428 147.67 7.11428ZM147.226 10.5152H146.782V7.88223C147.004 7.88223 147.226 7.77252 147.559 7.77252C148.002 7.77252 148.224 7.88223 148.446 7.99194C148.557 8.10165 148.668 8.32106 148.668 8.54048C148.668 8.8696 148.446 9.08901 148.113 9.19872C148.335 9.19872 148.557 9.41814 148.557 9.85697C148.668 10.2958 148.668 10.4055 148.779 10.5152H148.335C148.224 10.4055 148.224 10.1861 148.113 9.85697C148.002 9.52784 147.891 9.41814 147.559 9.41814H147.226V10.5152ZM147.226 8.97931H147.559C147.891 8.97931 148.224 8.8696 148.224 8.54048C148.224 8.32106 148.002 8.10165 147.559 8.10165C147.448 8.10165 147.337 8.10165 147.226 8.10165V8.97931Z" fill="#000B7C"/>
    </g>
    <defs>
      <clipPath id="clip0_2910_4903">
        <rect width="150" height="30.9375" fill="white" transform="translate(0 0.53125)"/>
      </clipPath>
    </defs>
  </svg>