<svg width="0" height="0" class="hidden">
  <symbol xmlns="http://www.w3.org/2000/svg" fill="none" viewBox="0 0 15 16" id="angle">
    <path d="M2.5 6L7.5 11L12.5 6" stroke-width="2" stroke-linecap="round"></path>
  </symbol>
  <symbol xmlns="http://www.w3.org/2000/svg" viewBox="0 0 32 32" id="search">
    <path
      d="M25.4766 23.6486L21.6094 19.7927C22.8571 18.2031 23.5341 16.2402 23.5316 14.2194C23.5316 12.4197 22.9979 10.6605 21.9981 9.16412C20.9982 7.66775 19.5771 6.50147 17.9144 5.81276C16.2518 5.12406 14.4222 4.94386 12.6571 5.29496C10.892 5.64606 9.27069 6.51268 7.99813 7.78524C6.72557 9.0578 5.85895 10.6791 5.50785 12.4442C5.15675 14.2093 5.33695 16.0389 6.02565 17.7016C6.71436 19.3642 7.88064 20.7853 9.37701 21.7852C10.8734 22.785 12.6326 23.3187 14.4323 23.3187C16.4531 23.3212 18.416 22.6442 20.0056 21.3965L23.8614 25.2637C23.9672 25.3703 24.093 25.4549 24.2316 25.5126C24.3702 25.5704 24.5188 25.6001 24.669 25.6001C24.8192 25.6001 24.9678 25.5704 25.1064 25.5126C25.245 25.4549 25.3708 25.3703 25.4766 25.2637C25.5832 25.1579 25.6678 25.0321 25.7255 24.8935C25.7833 24.7549 25.813 24.6063 25.813 24.4561C25.813 24.306 25.7833 24.1573 25.7255 24.0187C25.6678 23.8801 25.5832 23.7543 25.4766 23.6486ZM7.60783 14.2194C7.60783 12.8697 8.00808 11.5502 8.75796 10.4279C9.50785 9.30566 10.5737 8.43095 11.8207 7.91442C13.0677 7.3979 14.4399 7.26275 15.7637 7.52607C17.0875 7.7894 18.3035 8.43936 19.2579 9.39378C20.2123 10.3482 20.8623 11.5642 21.1256 12.888C21.389 14.2118 21.2538 15.584 20.7373 16.831C20.2208 18.078 19.346 19.1439 18.2238 19.8937C17.1015 20.6436 15.7821 21.0439 14.4323 21.0439C12.6223 21.0439 10.8865 20.3249 9.60667 19.045C8.32684 17.7652 7.60783 16.0294 7.60783 14.2194Z"></path>
  </symbol>
  <symbol fill="none" xmlns="http://www.w3.org/2000/svg" viewBox="0 0 19 20" id="phone">
    <path
      d="M17.3332 14.1014V16.6014C17.3341 16.8335 17.2866 17.0632 17.1936 17.2758C17.1006 17.4885 16.9643 17.6794 16.7933 17.8363C16.6222 17.9932 16.4203 18.1126 16.2005 18.187C15.9806 18.2613 15.7477 18.2889 15.5165 18.268C12.9522 17.9894 10.489 17.1132 8.32486 15.7097C6.31139 14.4303 4.60431 12.7232 3.32486 10.7097C1.91651 8.53572 1.04007 6.06054 0.76653 3.48472C0.745705 3.25427 0.773092 3.02202 0.846947 2.80274C0.920801 2.58346 1.03951 2.38196 1.1955 2.21107C1.3515 2.04018 1.54137 1.90364 1.75302 1.81015C1.96468 1.71666 2.19348 1.66827 2.42486 1.66805H4.92486C5.32928 1.66407 5.72136 1.80728 6.028 2.07099C6.33464 2.33471 6.53493 2.70092 6.59153 3.10138C6.69705 3.90144 6.89274 4.68699 7.17486 5.44305C7.28698 5.74132 7.31125 6.06548 7.24478 6.37712C7.17832 6.68875 7.02392 6.97481 6.79986 7.20138L5.74153 8.25972C6.92783 10.346 8.65524 12.0734 10.7415 13.2597L11.7999 12.2014C12.0264 11.9773 12.3125 11.8229 12.6241 11.7565C12.9358 11.69 13.2599 11.7143 13.5582 11.8264C14.3143 12.1085 15.0998 12.3042 15.8999 12.4097C16.3047 12.4668 16.6744 12.6707 16.9386 12.9826C17.2029 13.2945 17.3433 13.6927 17.3332 14.1014Z" stroke-width="1.5" stroke-linecap="round" stroke-linejoin="round"></path>
  </symbol>
  <symbol fill="none" xmlns="http://www.w3.org/2000/svg" viewBox="0 0 24 24" id="user">
    <path
      d="M20 21V19C20 17.9391 19.5786 16.9217 18.8284 16.1716C18.0783 15.4214 17.0609 15 16 15H8C6.93913 15 5.92172 15.4214 5.17157 16.1716C4.42143 16.9217 4 17.9391 4 19V21"
      stroke-width="2" stroke-linecap="round" stroke-linejoin="round"></path>
    <path
      d="M12 11C14.2091 11 16 9.20914 16 7C16 4.79086 14.2091 3 12 3C9.79086 3 8 4.79086 8 7C8 9.20914 9.79086 11 12 11Z"
      stroke-width="2" stroke-linecap="round" stroke-linejoin="round"></path>
  </symbol>
  <symbol xmlns="http://www.w3.org/2000/svg" viewBox="0 0 22 6" id="forward">
    <path fill-rule="evenodd" clip-rule="evenodd"
      d="M0.333008 0.782222C0.333008 0.350213 0.683221 0 1.11523 0H21.4833L15.9221 5.60007C15.6177 5.90661 15.1224 5.90834 14.8159 5.60393C14.5094 5.29952 14.5076 4.80424 14.812 4.4977L17.7249 1.56444H1.11523C0.683221 1.56444 0.333008 1.21423 0.333008 0.782222Z"></path>
  </symbol>
  <symbol fill="none" xmlns="http://www.w3.org/2000/svg" viewBox="0 0 20 16" id="mail">
    <path
      d="M3.33329 1.33301H16.6666C17.5833 1.33301 18.3333 2.08301 18.3333 2.99967V12.9997C18.3333 13.9163 17.5833 14.6663 16.6666 14.6663H3.33329C2.41663 14.6663 1.66663 13.9163 1.66663 12.9997V2.99967C1.66663 2.08301 2.41663 1.33301 3.33329 1.33301Z"
      stroke-width="1.5" stroke-linecap="round" stroke-linejoin="round"></path>
    <path d="M18.3333 3L9.99996 8.83333L1.66663 3" stroke-width="1.5" stroke-linecap="round"
      stroke-linejoin="round"></path>
  </symbol>
  <symbol xmlns="http://www.w3.org/2000/svg" viewBox="0 0 25 25" id="fb">
    <g clip-path="url(#clip0_2933_3411)">
      <path fill-rule="evenodd" clip-rule="evenodd" d="M12.3144 0C8.37097 0.00034341 7.88081 0.0158258 6.29212 0.0879941C4.80512 0.155994 3.99712 0.402994 3.46112 0.612994C2.79789 0.856776 2.19806 1.24675 1.70612 1.75399C1.20065 2.24681 0.811235 2.84597 0.56612 3.50799C0.35812 4.04599 0.10912 4.85299 0.0411197 6.33899C-0.0295171 7.91753 -0.0462543 8.41038 -0.0468628 12.2745L2.43535 12.0856H2.43536C5.63338 11.8423 7.23238 11.7206 8.479 11.0369C9.5777 10.4344 10.4815 9.53063 11.084 8.43193C11.7677 7.18531 11.8893 5.5863 12.1327 2.38828L12.3144 0ZM-0.046875 12.632C-0.0465509 16.5825 -0.0310847 17.0723 0.0421197 18.662C0.11012 20.149 0.35712 20.957 0.56712 21.494C0.810723 22.1565 1.20036 22.7556 1.70712 23.247C2.19953 23.753 2.7988 24.1425 3.46112 24.387C3.99812 24.596 4.80612 24.844 6.29312 24.912C7.88164 24.9852 8.37245 24.9997 12.3215 25L12.1327 22.5182C11.8893 19.3202 11.7677 17.7212 11.084 16.4746C10.4815 15.3759 9.5777 14.4721 8.479 13.8696C7.23238 13.1859 5.63337 13.0642 2.43535 12.8209L-0.046875 12.632ZM12.6791 25C16.5427 24.9994 17.0374 24.9836 18.6141 24.912C20.1011 24.844 20.9091 24.597 21.4461 24.387C22.1085 24.1427 22.7079 23.7531 23.2001 23.247C23.7062 22.7551 24.0957 22.1561 24.3401 21.494C24.5481 20.957 24.7971 20.149 24.8651 18.662C24.9373 17.0715 24.9528 16.5813 24.9531 12.6392L22.5653 12.8209C19.3673 13.0642 17.7683 13.1859 16.5216 13.8696C15.4229 14.4721 14.5192 15.3759 13.9166 16.4746C13.233 17.7212 13.1113 19.3202 12.868 22.5182L12.6791 25ZM24.9531 12.2673C24.9525 8.40989 24.9367 7.91583 24.8651 6.33899C24.7971 4.85199 24.5501 4.04399 24.3401 3.50699C24.096 2.84445 23.7065 2.24508 23.2001 1.75299C22.6661 1.21999 22.1581 0.888994 21.4461 0.612994C20.9071 0.404994 20.1011 0.155994 18.6141 0.0879941C17.0375 0.0173979 16.5433 0.000639301 12.6862 1.26391e-05L12.868 2.38828V2.38829C13.1113 5.5863 13.233 7.18531 13.9166 8.43193C14.5192 9.53063 15.4229 10.4344 16.5216 11.0369C17.7683 11.7206 19.3673 11.8423 22.5653 12.0856L24.9531 12.2673Z"></path>
    </g>
    <defs>
      <clipPath id="clip0_2933_3411">
        <rect width="25" height="25"></rect>
      </clipPath>
    </defs>
  </symbol>
  <symbol xmlns="http://www.w3.org/2000/svg" viewBox="0 0 25 25" id="tg">
    <g clip-path="url(#clip0_2933_3407)">
      <path fill-rule="evenodd" clip-rule="evenodd" d="M3.508 24.387C4.045 24.596 4.853 24.844 6.34 24.912C7.946 24.986 8.43 25 12.5 25C16.571 25 17.054 24.985 18.661 24.912C20.148 24.844 20.956 24.597 21.493 24.387C22.1554 24.1427 22.7547 23.7531 23.247 23.247C23.7531 22.7551 24.1426 22.1561 24.387 21.494C24.595 20.957 24.844 20.149 24.912 18.662C24.985 17.053 25 16.57 25 12.5C25 8.429 24.985 7.947 24.912 6.339C24.844 4.852 24.597 4.044 24.387 3.507C24.1429 2.84446 23.7534 2.24508 23.247 1.753C22.713 1.22 22.205 0.889 21.493 0.613C20.954 0.405 20.148 0.156 18.661 0.088C17.053 0.016 16.571 0 12.499 0C8.429 0 7.946 0.015 6.339 0.088C4.852 0.156 4.044 0.403 3.508 0.613C2.84477 0.856782 2.24494 1.24676 1.753 1.754C1.24753 2.24681 0.858115 2.84597 0.613 3.508C0.405 4.046 0.156 4.853 0.088 6.339C0.016 7.948 0 8.429 0 12.502C0 16.572 0.015 17.055 0.089 18.662C0.157 20.149 0.404 20.957 0.614 21.494C0.857603 22.1565 1.24724 22.7556 1.754 23.247C2.24641 23.753 2.84568 24.1425 3.508 24.387ZM17.2871 7.00155C16.607 7.04481 14.8398 7.77452 7.03533 11.2348C5.48044 11.9242 5.42859 11.9492 5.23032 12.1038C4.9418 12.3287 4.92256 12.6093 5.18272 12.7978C5.35353 12.9216 5.49635 12.9784 6.22232 13.2113C7.60675 13.6556 8.12684 13.7494 8.56865 13.6347C8.92099 13.5432 9.10051 13.4443 9.83924 12.9353C12.4599 11.1294 13.5598 10.38 14.1561 9.99398C14.4899 9.77789 14.5684 9.74523 14.6833 9.77476C14.7729 9.7978 14.8378 9.92837 14.8043 10.0183C14.7608 10.1352 14.317 10.5991 13.2974 11.5935C13.131 11.7559 12.6827 12.1849 12.0239 12.8126C10.7514 14.0251 10.616 14.1898 10.6369 14.5012C10.6554 14.7763 10.8225 14.9568 11.4632 15.394C11.6527 15.5233 12.0917 15.8266 12.4387 16.068C12.7857 16.3094 13.2952 16.6597 13.571 16.8465C13.8468 17.0334 14.1965 17.2754 14.348 17.3845C15.0151 17.8648 15.3028 17.9965 15.6924 18C15.9864 18.0026 16.1616 17.9028 16.3296 17.6374C16.4961 17.3742 16.5731 17.112 16.7139 16.3288C17.2784 13.1876 17.8225 9.65257 17.9829 8.08454C18.03 7.62417 17.9798 7.32309 17.8304 7.17047C17.7217 7.05952 17.4932 6.98845 17.2871 7.00155Z"></path>
    </g>
    <defs>
      <clipPath id="clip0_2933_3407">
        <rect width="25" height="25"></rect>
      </clipPath>
    </defs>
  </symbol>
  <symbol xmlns="http://www.w3.org/2000/svg" viewBox="0 0 25 25" id="vk">
    <g clip-path="url(#clip0_2933_3409)">
      <path fill-rule="evenodd" clip-rule="evenodd" d="M3.508 24.387C4.045 24.596 4.853 24.844 6.34 24.912C7.946 24.986 8.43 25 12.5 25C16.571 25 17.054 24.985 18.661 24.912C20.148 24.844 20.956 24.597 21.493 24.387C22.1554 24.1427 22.7547 23.7531 23.247 23.247C23.7531 22.7551 24.1426 22.1561 24.387 21.494C24.595 20.957 24.844 20.149 24.912 18.662C24.985 17.053 25 16.57 25 12.5C25 8.429 24.985 7.947 24.912 6.339C24.844 4.852 24.597 4.044 24.387 3.507C24.1429 2.84446 23.7534 2.24508 23.247 1.753C22.713 1.22 22.205 0.889 21.493 0.613C20.954 0.405 20.148 0.156 18.661 0.088C17.053 0.016 16.571 0 12.499 0C8.429 0 7.946 0.015 6.339 0.088C4.852 0.156 4.044 0.403 3.508 0.613C2.84477 0.856782 2.24494 1.24676 1.753 1.754C1.24753 2.24681 0.858115 2.84597 0.613 3.508C0.405 4.046 0.156 4.853 0.088 6.339C0.016 7.948 0 8.429 0 12.502C0 16.572 0.015 17.055 0.089 18.662C0.157 20.149 0.404 20.957 0.614 21.494C0.857603 22.1565 1.24724 22.7556 1.754 23.247C2.24641 23.753 2.84568 24.1425 3.508 24.387ZM4.00852 8.23154C4.16595 12.5122 5.91358 15.6264 8.97689 17.0849C10.2575 17.6946 11.7477 17.9995 13.4498 17.9999L13.7016 18V16.2117V14.4233L13.742 14.4295C13.7642 14.4328 13.8272 14.4412 13.8819 14.4481C15.6863 14.6755 17.232 15.9624 17.9155 17.8066L17.985 17.9941L19.4925 17.9971C20.3216 17.9988 21 17.9967 21 17.9925C21 17.9883 20.9751 17.9051 20.9446 17.8078C20.4866 16.3439 19.617 15.0534 18.4074 14.0425C17.9506 13.6608 17.3643 13.2767 16.9001 13.055C16.7505 12.9836 16.7452 12.979 16.7882 12.9575C17.0959 12.8038 17.696 12.3479 18.1281 11.9397C19.3143 10.8191 20.0802 9.47897 20.3579 8.0381L20.3653 8H18.9922H17.6191L17.6054 8.04982C17.5728 8.16918 17.4269 8.56056 17.3509 8.73271C16.5938 10.4481 15.117 11.7693 13.7606 11.9446L13.7016 11.9522V9.9761V8H12.3028H10.9041V11.4584C10.9041 14.5864 10.9022 14.9168 10.8846 14.9168C10.8447 14.9168 10.4872 14.7972 10.3392 14.7343C9.00588 14.1679 7.95406 12.8841 7.39586 11.1419C7.11746 10.2729 6.96944 9.35614 6.91837 8.18464L6.91031 8H5.45516H4L4.00852 8.23154Z"></path>
    </g>
    <defs>
      <clipPath id="clip0_2933_3409">
        <rect width="25" height="25"></rect>
      </clipPath>
    </defs>
  </symbol>
  <symbol xmlns="http://www.w3.org/2000/svg" viewBox="0 0 18 18" id="menu">
    <path d="M1.00049 14.225C1.00049 12.9962 1.99666 12 3.22549 12V12C4.45432 12 5.45049 12.9962 5.45049 14.225V14.225C5.45049 15.4538 4.45432 16.45 3.22549 16.45V16.45C1.99666 16.45 1.00049 15.4538 1.00049 14.225V14.225Z" ></path>
    <path d="M12.0005 3.225C12.0005 1.99617 12.9967 1 14.2255 1V1C15.4543 1 16.4505 1.99617 16.4505 3.225V3.225C16.4505 4.45383 15.4543 5.45 14.2255 5.45V5.45C12.9967 5.45 12.0005 4.45383 12.0005 3.225V3.225Z" ></path>
    <path d="M1.00049 3.225C1.00049 1.99617 1.99666 1 3.22549 1V1C4.45432 1 5.45049 1.99617 5.45049 3.225V3.225C5.45049 4.45383 4.45432 5.45 3.22549 5.45V5.45C1.99666 5.45 1.00049 4.45383 1.00049 3.225V3.225Z" ></path>
    <path d="M12.0005 14.225C12.0005 12.9962 12.9967 12 14.2255 12V12C15.4543 12 16.4505 12.9962 16.4505 14.225V14.225C16.4505 15.4538 15.4543 16.45 14.2255 16.45V16.45C12.9967 16.45 12.0005 15.4538 12.0005 14.225V14.225Z" ></path>
  </symbol>
  <symbol xmlns="http://www.w3.org/2000/svg" viewBox="0 0 18 18" id="menu-cross">
    <path d="M4.79841 15.7988C3.9295 16.6677 2.5207 16.6677 1.65179 15.7988V15.7988C0.782869 14.9298 0.782869 13.521 1.65178 12.6521L12.6917 1.61224C13.5606 0.74332 14.9694 0.743318 15.8383 1.61223V1.61223C16.7072 2.48115 16.7072 3.88994 15.8383 4.75886L4.79841 15.7988Z" ></path>
    <path d="M15.7939 12.6484C16.6628 13.5173 16.6628 14.9261 15.7939 15.795V15.795C14.925 16.6639 13.5162 16.6639 12.6473 15.795L1.65506 4.8028C0.786146 3.93389 0.786146 2.5251 1.65506 1.65618V1.65618C2.52398 0.787263 3.93277 0.787263 4.80169 1.65618L15.7939 12.6484Z" ></path>
  </symbol>
</svg>