<svg width="16" height="21" viewBox="0 0 16 21" fill="none" xmlns="http://www.w3.org/2000/svg">
<path d="M7.95817 9.89583C7.2675 9.89583 6.60512 9.62147 6.11675 9.13309C5.62837 8.64472 5.354 7.98234 5.354 7.29167C5.354 6.601 5.62837 5.93862 6.11675 5.45024C6.60512 4.96187 7.2675 4.6875 7.95817 4.6875C8.64884 4.6875 9.31122 4.96187 9.79959 5.45024C10.288 5.93862 10.5623 6.601 10.5623 7.29167C10.5623 7.63365 10.495 7.97229 10.3641 8.28824C10.2332 8.60419 10.0414 8.89127 9.79959 9.13309C9.55778 9.37491 9.27069 9.56673 8.95474 9.6976C8.63879 9.82848 8.30016 9.89583 7.95817 9.89583ZM7.95817 0C6.0243 0 4.16964 0.768227 2.80218 2.13568C1.43473 3.50313 0.666504 5.3578 0.666504 7.29167C0.666504 12.7604 7.95817 20.8333 7.95817 20.8333C7.95817 20.8333 15.2498 12.7604 15.2498 7.29167C15.2498 5.3578 14.4816 3.50313 13.1142 2.13568C11.7467 0.768227 9.89204 0 7.95817 0Z" fill="#E20000"/>
</svg>
