<svg width="80" height="80" fill="none" xmlns="http://www.w3.org/2000/svg"><path d="m38.923 53.773-6.873 2.344a3.333 3.333 0 0 1-4.074-1.7l-3.35-6.884a3.333 3.333 0 0 0-1.433-1.49l-6.667-3.533a3.334 3.334 0 0 1-1.616-3.936l2.366-7.577a3.332 3.332 0 0 0 0-1.987l-2.366-7.577a3.333 3.333 0 0 1 1.62-3.94l6.663-3.533a3.333 3.333 0 0 0 1.433-1.487l3.35-6.893a3.334 3.334 0 0 1 4.074-1.697l6.873 2.344a3.333 3.333 0 0 0 2.153 0l6.874-2.344a3.333 3.333 0 0 1 4.073 1.7l3.35 6.887c.308.636.81 1.158 1.433 1.49l6.667 3.534a3.333 3.333 0 0 1 1.617 3.936l-2.367 7.577a3.334 3.334 0 0 0 0 1.986l2.367 7.577a3.333 3.333 0 0 1-1.62 3.94l-6.664 3.534a3.333 3.333 0 0 0-1.433 1.486l-3.35 6.89a3.334 3.334 0 0 1-4.073 1.697l-6.874-2.343a3.334 3.334 0 0 0-2.153 0Z" fill="#050081"/><path d="M30.223 62.117a4.076 4.076 0 0 1-3.556-.443v12.98L40 70.127l13.333 4.527v-12.98a4.087 4.087 0 0 1-3.556.443l-8.454-2.88a4.1 4.1 0 0 0-2.647 0l-8.453 2.88Z" fill="#E20000"/></svg>