<svg width="126" height="80" fill="none" xmlns="http://www.w3.org/2000/svg"><path d="M119.082 37.285h-4.083V26.397a5.445 5.445 0 0 0-5.445-5.445H98.665V16.87a6.806 6.806 0 0 0-13.61 0v4.083H74.166a5.444 5.444 0 0 0-5.444 5.444v10.345h4.083a7.32 7.32 0 0 1 7.35 7.35 7.32 7.32 0 0 1-7.35 7.35h-4.083v10.344a5.444 5.444 0 0 0 5.444 5.444H84.51v-4.083a7.32 7.32 0 0 1 7.35-7.35 7.32 7.32 0 0 1 7.35 7.35v4.083h10.344a5.445 5.445 0 0 0 5.445-5.444v-10.89h4.083a6.804 6.804 0 1 0 0-13.61Z" fill="#E20000"/><path d="M27.222 20.951H16.333a5.444 5.444 0 0 0-5.444 5.445v10.888H6.805a6.805 6.805 0 1 0 0 13.611h4.084v10.889a5.444 5.444 0 0 0 5.448 5.444h10.345v-4.083a7.32 7.32 0 0 1 7.574-7.347 7.318 7.318 0 0 1 7.121 7.347v4.083h10.349a5.444 5.444 0 0 0 5.444-5.444V50.895h4.083a6.805 6.805 0 0 0 0-13.61H57.17v-10.89a5.444 5.444 0 0 0-5.449-5.444H40.837v4.078a6.806 6.806 0 0 1-6.81 6.806 6.805 6.805 0 0 1-6.805-6.805v-4.08Z" fill="#050081"/></svg>