<svg xmlns="http://www.w3.org/2000/svg" width="61" height="60" viewBox="0 0 61 60" fill="none">
    <g clip-path="url(#clip0_200_62)">
      <path d="M12.0916 22.7382V49.4532H0.333008V24.496C0.333008 23.5257 1.12051 22.7382 2.09082 22.7382H12.0916ZM0.333008 52.9688H12.0916V60H2.09082C1.12051 60 0.333008 59.2125 0.333008 58.2422V52.9688ZM60.333 25.6679V49.4533H48.4572V18.6882L59.3557 24.0929C59.9545 24.3893 60.333 24.9999 60.333 25.6679ZM48.4572 52.9688H60.333V58.2422C60.333 59.2125 59.5455 60 58.5752 60H48.4572V52.9688Z" fill="#E20000"/>
      <path d="M20.8407 3.52094C21.8115 3.52094 22.5984 2.734 22.5984 1.76325C22.5984 0.792501 21.8115 0.0055542 20.8407 0.0055542C19.87 0.0055542 19.083 0.792501 19.083 1.76325C19.083 2.734 19.87 3.52094 20.8407 3.52094Z" fill="#000B7C"/>
      <path d="M2.0907 3.52094C3.06145 3.52094 3.8484 2.734 3.8484 1.76325C3.8484 0.792501 3.06145 0.0055542 2.0907 0.0055542C1.11995 0.0055542 0.333008 0.792501 0.333008 1.76325C0.333008 2.734 1.11995 3.52094 2.0907 3.52094Z" fill="#000B7C"/>
      <path d="M2.0907 17.5822C3.06145 17.5822 3.8484 16.7952 3.8484 15.8245C3.8484 14.8537 3.06145 14.0668 2.0907 14.0668C1.11995 14.0668 0.333008 14.8537 0.333008 15.8245C0.333008 16.7952 1.11995 17.5822 2.0907 17.5822Z" fill="#000B7C"/>
      <path d="M56.2313 17.5822C57.2021 17.5822 57.989 16.7952 57.989 15.8245C57.989 14.8537 57.2021 14.0668 56.2313 14.0668C55.2606 14.0668 54.4736 14.8537 54.4736 15.8245C54.4736 16.7952 55.2606 17.5822 56.2313 17.5822Z" fill="#000B7C"/>
      <path d="M11.4657 3.52094C12.4365 3.52094 13.2234 2.734 13.2234 1.76325C13.2234 0.792501 12.4365 0.0055542 11.4657 0.0055542C10.495 0.0055542 9.70801 0.792501 9.70801 1.76325C9.70801 2.734 10.495 3.52094 11.4657 3.52094Z" fill="#000B7C"/>
      <path d="M56.2313 3.52094C57.2021 3.52094 57.989 2.734 57.989 1.76325C57.989 0.792501 57.2021 0.0055542 56.2313 0.0055542C55.2606 0.0055542 54.4736 0.792501 54.4736 1.76325C54.4736 2.734 55.2606 3.52094 56.2313 3.52094Z" fill="#000B7C"/>
      <path d="M6.7782 10.5516C7.74895 10.5516 8.5359 9.76464 8.5359 8.79389C8.5359 7.82314 7.74895 7.03619 6.7782 7.03619C5.80745 7.03619 5.02051 7.82314 5.02051 8.79389C5.02051 9.76464 5.80745 10.5516 6.7782 10.5516Z" fill="#000B7C"/>
      <path d="M51.5438 10.5516C52.5146 10.5516 53.3015 9.76464 53.3015 8.79389C53.3015 7.82314 52.5146 7.03619 51.5438 7.03619C50.5731 7.03619 49.7861 7.82314 49.7861 8.79389C49.7861 9.76464 50.5731 10.5516 51.5438 10.5516Z" fill="#000B7C"/>
      <path d="M25.0598 46.9384V60H28.5754V46.9384H25.0598ZM32.091 46.9384V60H35.6066V46.9384H32.091ZM42.6086 0.10235L16.7887 9.86524C16.4435 9.9848 16.1443 10.209 15.9325 10.5066C15.7208 10.8043 15.6072 11.1605 15.6074 11.5258V60H21.5441V45.1806C21.5441 44.2091 22.3316 43.4228 23.302 43.4228H37.3645C38.3348 43.4228 39.1223 44.2091 39.1223 45.1806V60H44.9418V1.7629C44.9746 0.592194 43.7055 -0.312494 42.6086 0.10235ZM25.0598 36.9787C25.0598 37.9502 24.2723 38.7365 23.302 38.7365C22.3316 38.7365 21.5441 37.9502 21.5441 36.9787V15.3647C21.5441 14.3944 22.3316 13.6069 23.302 13.6069C24.2723 13.6069 25.0598 14.3944 25.0598 15.3647V36.9787ZM32.091 36.9799C32.091 37.9502 31.3035 38.7377 30.3332 38.7377C29.3629 38.7377 28.5754 37.9502 28.5754 36.9799V12.9039C28.5754 11.9336 29.3629 11.1473 30.3332 11.1473C31.3035 11.1473 32.091 11.9336 32.091 12.9039V36.9799ZM39.1223 36.9787C39.1223 37.9502 38.3348 38.7365 37.3645 38.7365C36.3941 38.7365 35.6066 37.9502 35.6066 36.9787V10.443C35.6066 9.47266 36.3941 8.68516 37.3645 8.68516C38.3348 8.68516 39.1223 9.47266 39.1223 10.443V36.9787ZM32.091 60H35.6066V46.9384H32.091V60ZM25.0598 60H28.5754V46.9384H25.0598V60Z" fill="#000B7C"/>
    </g>
    <defs>
      <clipPath id="clip0_200_62">
        <rect width="60" height="60" fill="white" transform="translate(0.333008 6.10352e-05)"/>
      </clipPath>
    </defs>
  </svg>