<svg xmlns="http://www.w3.org/2000/svg" width="60" height="60" viewBox="0 0 60 60" fill="none">
    <g clip-path="url(#clip0_200_339)">
      <path d="M38.9617 10.9026L38.4361 6.10352e-05H27.1322L26.6066 10.9026H38.9617ZM3.51562 24.7266H22.1484V31.1133H3.51562V24.7266ZM56.0033 10.9026L55.4777 6.10352e-05H44.1732L43.6478 10.9026H56.0033ZM42.6736 31.1133H56.9774L56.1727 14.4182H43.4784L42.6736 31.1133ZM25.6324 31.1133H39.9357L39.1315 14.4182H26.4373L25.6324 31.1133ZM22.5783 51.5626H60V60.0001H22.5783V51.5626ZM11 44.0626H19.0627V60.0001H11.0002L11 44.0626Z" fill="#000B7C"/>
      <path d="M7.48441 40.5469H22.5783V48.0469H60V34.629H0V60.0001H7.48441V40.5469ZM46.3573 40.5272H49.9118V44.0818H46.3573V40.5272ZM40.6737 40.5272H44.2282V44.0818H40.6737V40.5272ZM34.9901 40.5272H38.5446V44.0818H34.9901V40.5272ZM29.3065 40.5272H32.861V44.0818H29.3065V40.5272Z" fill="#000B7C"/>
      <path d="M26.5 14.5001L25.5 31.0001H40L39 14.5001H26.5Z" fill="#E20000" stroke="#E20000"/>
      <path d="M43.5 14.5001L42.5 31.0001H57L56 14.5001H43.5Z" fill="#E20000" stroke="#E20000"/>
      <path d="M27 6.10352e-05L26.5 11.0001H39L38.5 6.10352e-05H27Z" fill="#E20000" stroke="#E20000"/>
      <path d="M44 6.10352e-05L43.5 11.0001H56L55.5 6.10352e-05H44Z" fill="#E20000" stroke="#E20000"/>
    </g>
    <defs>
      <clipPath id="clip0_200_339">
        <rect width="60" height="60" fill="white"/>
      </clipPath>
    </defs>
  </svg>