<svg xmlns="http://www.w3.org/2000/svg" width="60" height="60" viewBox="0 0 60 60" fill="none">
    <g clip-path="url(#clip0_200_204)">
      <mask id="mask0_200_204" style="mask-type:luminance" maskUnits="userSpaceOnUse" x="0" y="0" width="60" height="60">
        <path d="M0 0.000240326H59.9998V60.0001H0V0.000240326Z" fill="white"/>
      </mask>
      <g mask="url(#mask0_200_204)">
        <path d="M59.9998 18.9506V24.224C59.9998 25.6005 58.4828 26.4353 57.3185 25.724L29.9999 9.09045L2.68136 25.724C1.50797 26.4393 0 25.5937 0 24.224V18.9506C1.29207e-05 18.6492 0.0776368 18.3528 0.225394 18.0901C0.373152 17.8274 0.586065 17.6072 0.843631 17.4506L29.081 0.258059C29.3579 0.0896282 29.6758 0.000545502 29.9999 0.000545502C30.324 0.000545502 30.6419 0.0896282 30.9188 0.258059L59.1562 17.4506C59.4137 17.6072 59.6266 17.8274 59.7744 18.0901C59.9222 18.3528 59.9998 18.6492 59.9998 18.9506Z" fill="#E20000"/>
        <path d="M13.2959 32.3298H23.7724V60.0001H13.2959V32.3298ZM36.2271 32.3298H46.7036V45.9376H36.2271V32.3298Z" fill="#000B7C"/>
        <path d="M50.2192 47.6954C50.2192 48.6657 49.4317 49.4532 48.4614 49.4532H34.4692C33.4978 49.4532 32.7114 48.6657 32.7114 47.6954V30.572C32.7114 29.6005 33.4978 28.8142 34.4692 28.8142H48.4614C49.4317 28.8142 50.2192 29.6005 50.2192 30.572V47.6954ZM29.9997 13.2096C2.55567 29.9205 4.38144 28.833 3.9209 29.038V58.2423C3.9209 59.2126 4.71074 60.0001 5.68339 60.0001H9.78026V30.572C9.78026 29.6005 10.5678 28.8142 11.5381 28.8142H25.5302C26.5017 28.8142 27.288 29.6005 27.288 30.572V60.0001H54.3149C55.2887 60.0001 56.0774 59.2126 56.0774 58.2423V29.0369C55.6274 28.8377 57.4989 29.9533 29.9997 13.2096Z" fill="#000B7C"/>
        <path d="M18.5447 1.75804V2.55374L7.96973 8.992V1.75804C7.96973 0.787732 8.75933 0.000234604 9.73222 0.000234604H16.7822C17.7563 0.000234604 18.5447 0.787732 18.5447 1.75804Z" fill="#000B7C"/>
      </g>
    </g>
    <defs>
      <clipPath id="clip0_200_204">
        <rect width="60" height="60" fill="white"/>
      </clipPath>
    </defs>
  </svg>