<svg xmlns="http://www.w3.org/2000/svg" width="61" height="60" viewBox="0 0 61 60" fill="none">
    <path d="M25.4068 35.0408C24.9913 34.8914 24.632 34.6176 24.3778 34.2566C24.1236 33.8956 23.9869 33.465 23.9863 33.0235V32.2149C23.9861 31.9365 24.0414 31.6608 24.1489 31.4039C24.2564 31.147 24.4139 30.9142 24.6124 30.7189C24.8109 30.5236 25.0463 30.3698 25.3049 30.2665C25.5635 30.1632 25.84 30.1125 26.1184 30.1173H32.8409C33.1536 30.1129 33.4633 30.1775 33.7482 30.3065C34.033 30.4355 34.2859 30.6257 34.4888 30.8636C35.6042 29.5107 36.3826 27.9124 36.7598 26.2V20.8955C34.9706 20.8497 33.1884 20.6533 31.4321 20.3087C28.2738 19.6928 23.7806 18.3011 20.1225 15.1641C18.7441 15.2623 17.6186 15.2749 16.9116 15.2683L16.6381 19.7497C16.6381 19.7548 16.6374 19.7599 16.6369 19.765C16.623 19.9396 16.5661 20.1081 16.4714 20.2555C16.3767 20.4029 16.2471 20.5246 16.0941 20.6099C15.9411 20.6951 15.7694 20.7413 15.5942 20.7443C15.4191 20.7473 15.2459 20.707 15.09 20.6271L13.6656 19.8956C13.4561 19.7877 13.2699 19.6396 13.1177 19.4597C12.9082 19.5457 12.7226 19.6808 12.5765 19.8536C12.4303 20.0265 12.3279 20.232 12.278 20.4528C12.2062 20.7466 12.1955 21.0521 12.2466 21.3503C12.2977 21.6484 12.4095 21.9329 12.575 22.1861C12.7406 22.4392 12.9564 22.6557 13.2091 22.822C13.4618 22.9883 13.7459 23.1009 14.0439 23.1529C14.2348 23.186 14.408 23.2851 14.5332 23.4329C14.6583 23.5807 14.7276 23.7678 14.7288 23.9615V23.9796C14.7325 26.8463 15.8469 29.6002 17.8379 31.6627C19.829 33.7253 22.5419 34.936 25.4068 35.0408ZM30.9004 21.6264C30.9004 21.4089 30.9868 21.2002 31.1407 21.0464C31.2945 20.8925 31.5032 20.8061 31.7207 20.8061C31.9383 20.8061 32.1469 20.8925 32.3008 21.0464C32.4546 21.2002 32.541 21.4089 32.541 21.6264V23.3833C32.541 23.6009 32.4546 23.8095 32.3008 23.9634C32.1469 24.1172 31.9383 24.2036 31.7207 24.2036C31.5032 24.2036 31.2945 24.1172 31.1407 23.9634C30.9868 23.8095 30.9004 23.6009 30.9004 23.3833V21.6264ZM19.5332 21.6264C19.5332 21.4089 19.6196 21.2002 19.7735 21.0464C19.9273 20.8925 20.136 20.8061 20.3535 20.8061C20.5711 20.8061 20.7797 20.8925 20.9336 21.0464C21.0874 21.2002 21.1738 21.4089 21.1738 21.6264V23.3833C21.1738 23.6009 21.0874 23.8095 20.9336 23.9634C20.7797 24.1172 20.5711 24.2036 20.3535 24.2036C20.136 24.2036 19.9273 24.1172 19.7735 23.9634C19.6196 23.8095 19.5332 23.6009 19.5332 23.3833V21.6264Z" fill="#000B7C"/>
    <path d="M32.8566 31.7579H26.1317C25.8529 31.7579 25.627 31.9838 25.627 32.2626V33.1281C25.627 33.4069 25.8529 33.6329 26.1317 33.6329H32.8566C33.1354 33.6329 33.3613 33.4069 33.3613 33.1281V32.2626C33.3613 31.9838 33.1354 31.7579 32.8566 31.7579Z" fill="#000B7C"/>
    <path d="M26.5831 14.1599C25.2562 14.4917 23.911 14.7452 22.5544 14.9191C22.5297 14.9224 22.4998 14.9256 22.4752 14.9287C27.8043 18.7073 34.5332 19.1993 36.7598 19.2528V18.8302C30.9004 18.2291 27.6296 15.2735 26.5831 14.1599ZM36.3225 31.7579C36.579 31.7619 36.8337 31.7148 37.0718 31.6192C37.3099 31.5237 37.5265 31.3817 37.709 31.2014C37.8916 31.0212 38.0364 30.8064 38.135 30.5696C38.2335 30.3328 38.2839 30.0787 38.2832 29.8222V29.0626H37.5734C37.5607 29.0626 37.5486 29.0236 37.5361 29.023C37.0917 30.0091 36.5136 30.9294 35.8183 31.7579H36.3225ZM38.4004 16.7278V19.6876H39.2207V18.1305C39.215 17.8461 39.1366 17.5679 38.9931 17.3224C38.8495 17.0769 38.6454 16.8722 38.4004 16.7278ZM30.3145 39.3318V35.8439C27.4122 36.9632 24.1987 36.971 21.291 35.8657V39.3318C22.7138 39.954 24.2499 40.2751 25.8027 40.2751C27.3556 40.2751 28.8917 39.954 30.3145 39.3318ZM38.4004 27.422H40.2796C40.6827 27.4145 41.0669 27.2501 41.3507 26.9637C41.6344 26.6774 41.7952 26.2916 41.7988 25.8884V22.7956C41.7957 22.5994 41.7539 22.4058 41.6758 22.2258C41.5977 22.0458 41.4849 21.8829 41.3438 21.7466C41.2026 21.6103 41.036 21.5032 40.8534 21.4314C40.6708 21.3596 40.4758 21.3245 40.2796 21.3282H38.4004V27.422Z" fill="#000B7C"/>
    <path d="M25.5679 2.69995C19.3804 2.69995 14.3765 7.73444 14.3765 13.9219V18.3191C14.3743 18.3425 14.3789 18.366 14.3899 18.3869C14.4009 18.4077 14.4177 18.4248 14.4383 18.4362L15.0656 18.7644L15.3268 14.3783C15.3398 14.163 15.4371 13.9614 15.5977 13.8174C15.7583 13.6734 15.9692 13.5985 16.1846 13.6089C18.2539 13.6694 20.3246 13.5621 22.3766 13.2883C25.5069 12.8764 29.8911 11.8843 33.0041 9.49683C33.0893 9.42863 33.1873 9.37813 33.2923 9.34829C33.3973 9.31845 33.5072 9.30987 33.6156 9.32305C33.7239 9.33622 33.8286 9.3709 33.9234 9.42504C34.0182 9.47917 34.1012 9.55169 34.1676 9.63832C34.234 9.72496 34.2825 9.82399 34.3101 9.92959C34.3378 10.0352 34.344 10.1452 34.3286 10.2533C34.3132 10.3614 34.2763 10.4653 34.2202 10.5589C34.1641 10.6526 34.0899 10.7341 34.0019 10.7987C32.4785 11.9668 30.6029 12.9134 28.4086 13.6334C29.7164 14.7871 32.4234 16.6905 36.7593 17.1781V13.9219C36.7593 7.73444 31.7554 2.69995 25.5679 2.69995ZM42.5015 53.4743L46.8375 51.0147V46.0952L42.5015 48.5547V53.4743Z" fill="#000B7C"/>
    <path d="M41.7206 38.8629C39.8974 38.8629 38.1151 39.4035 36.5991 40.4164C35.0831 41.4294 33.9015 42.8691 33.2037 44.5536C32.506 46.238 32.3234 48.0916 32.679 49.8798C33.0347 51.668 33.9126 53.3106 35.2018 54.5999C36.491 55.8892 38.1336 56.7672 39.9218 57.123C41.71 57.4788 43.5636 57.2963 45.2481 56.5986C46.9326 55.901 48.3724 54.7195 49.3854 53.2036C50.3984 51.6876 50.9392 49.9054 50.9393 48.0821C50.9367 45.6379 49.9646 43.2946 48.2363 41.5662C46.5081 39.8379 44.1648 38.8656 41.7206 38.8629ZM48.4784 51.4884C48.4747 51.6338 48.4333 51.7758 48.3582 51.9004C48.283 52.0249 48.1768 52.1278 48.0498 52.1988L42.1399 55.6055C42.014 55.6776 41.8714 55.7155 41.7264 55.7155C41.5813 55.7155 41.4387 55.6776 41.3128 55.6055L35.412 52.1988C35.2873 52.1268 35.1837 52.0232 35.1117 51.8985C35.0397 51.7738 35.0018 51.6324 35.0018 51.4884V44.6749C35.0016 44.531 35.0393 44.3895 35.1111 44.2648C35.1829 44.1401 35.2863 44.0365 35.4109 43.9645L41.3111 40.5577C41.4357 40.4856 41.5772 40.4477 41.7212 40.4477C41.8652 40.4477 42.0067 40.4856 42.1314 40.5577L48.0503 43.9645C48.1772 44.0356 48.2834 44.1384 48.3584 44.263C48.4335 44.3875 48.4748 44.5295 48.4784 44.6749V51.4884Z" fill="#000B7C"/>
    <path d="M44.6129 43.885L40.3532 46.3443L41.7208 47.1338L45.9804 44.6747L44.6129 43.885ZM36.6426 51.0147L40.8613 53.4743V48.5547L36.6426 46.0952V51.0147ZM10.3926 53.7892H32.4941C31.3367 51.9284 30.7715 49.7602 30.8733 47.5712C30.975 45.3822 31.7389 43.2758 33.0639 41.5304L31.2108 40.741C29.5175 41.5144 27.6777 41.9147 25.8161 41.9149C23.9545 41.9151 22.1147 41.5152 20.4211 40.7422L13.4016 43.7385C12.5665 44.164 11.8527 44.7939 11.3266 45.5695C10.8004 46.3452 10.4791 47.2413 10.3926 48.1746V53.7892ZM42.9722 42.9378L41.7208 42.2154L37.4611 44.6747L38.7126 45.3971L42.9722 42.9378Z" fill="#000B7C"/>
    <path d="M36.666 46.0001V51.0001L40.666 53.5001V48.5001L36.666 46.0001Z" fill="#E20000" stroke="#E20000" stroke-width="0.5"/>
    <path d="M42.666 53.5001V48.5001L46.666 46.0001V51.0001L42.666 53.5001Z" fill="#E20000" stroke="#E20000" stroke-width="0.5"/>
  </svg>