<svg xmlns="http://www.w3.org/2000/svg" width="61" height="60" viewBox="0 0 61 60" fill="none">
    <g clip-path="url(#clip0_200_141)">
      <path d="M58.9709 1.69466C56.6777 -0.598466 52.948 -0.560146 50.7025 1.77974L38.4112 14.588L8.41574 4.66138L2.11914 10.9581L27.1213 26.3524L14.4702 39.5353L6.35723 38.2034L0.666016 43.8946L12.5934 48.0722L16.771 59.9995L22.4622 54.3083L21.1302 46.1953L34.3131 33.5443L49.7075 58.5464L56.0042 52.2497L46.0777 22.2543L58.8857 9.96306C61.2257 7.71751 61.264 3.9879 58.9709 1.69466Z" fill="#000B7C"/>
      <path d="M2.16602 11L27.166 26L38.166 14.5L8.66602 4.5L2.16602 11Z" fill="#E20000"/>
    </g>
    <defs>
      <clipPath id="clip0_200_141">
        <rect width="60" height="60" fill="white" transform="translate(0.666016 6.10352e-05)"/>
      </clipPath>
    </defs>
  </svg>