<svg xmlns="http://www.w3.org/2000/svg" width="61" height="60" viewBox="0 0 61 60" fill="none">
    <g clip-path="url(#clip0_200_324)">
      <path d="M0.333008 19.157V23.1869C0.333008 25.1362 1.91891 26.7221 3.8682 26.7221C5.8175 26.7221 7.40328 25.1362 7.40328 23.1869H10.9189C10.9189 25.1362 12.5048 26.7221 14.4541 26.7221C16.4034 26.7221 17.9893 25.1362 17.9893 23.1869H21.5049C21.5049 25.1362 23.0907 26.7221 25.04 26.7221C26.9893 26.7221 28.5752 25.1362 28.5752 23.1869H32.0908C32.0908 25.1362 33.6767 26.7221 35.626 26.7221C37.5753 26.7221 39.1611 25.1362 39.1611 23.1869H42.6767C42.6767 25.1362 44.2626 26.7221 46.2119 26.7221C48.1612 26.7221 49.7471 25.1362 49.7471 23.1869H53.2627C53.2627 25.1362 54.8485 26.7221 56.7978 26.7221C58.7471 26.7221 60.333 25.1362 60.333 23.1869V19.157H0.333008ZM60.333 29.2835C59.2601 29.9094 58.04 30.2387 56.7978 30.2377C54.6908 30.2377 52.798 29.3075 51.5049 27.8375C50.2118 29.3075 48.3189 30.2377 46.2119 30.2377C44.1049 30.2377 42.2121 29.3075 40.9189 27.8375C39.6259 29.3075 37.733 30.2377 35.626 30.2377C34.3839 30.2387 33.1638 29.9094 32.0908 29.2835V43.6466H60.333V29.2835ZM0.333008 4.59583H60.333V15.6413H0.333008V4.59583ZM32.0908 47.1622H60.333V55.4043H32.0908V47.1622ZM8.68074 38.732H20.2273V55.4043H8.68074V38.732Z" fill="#000B7C"/>
      <path d="M0.333008 4.00012V16.0001H60.333V4.00012H0.333008Z" fill="#E20000"/>
      <path d="M25.04 30.2378C22.933 30.2378 21.0402 29.3075 19.7471 27.8375C18.4539 29.3075 16.5611 30.2378 14.4541 30.2378C12.3471 30.2378 10.4543 29.3075 9.16109 27.8375C7.86805 29.3075 5.97523 30.2378 3.8682 30.2378C2.62604 30.2387 1.40596 29.9094 0.333008 29.2835L0.333008 55.4044H5.16512V35.2164H23.743V55.4044H28.5752V29.2835C27.5022 29.9094 26.2822 30.2387 25.04 30.2378Z" fill="#000B7C"/>
    </g>
    <defs>
      <clipPath id="clip0_200_324">
        <rect width="60" height="60" fill="white" transform="translate(0.333008 6.10352e-05)"/>
      </clipPath>
    </defs>
  </svg>