<svg xmlns="http://www.w3.org/2000/svg" width="32" height="32" viewBox="0 0 32 32" fill="none">
    <path d="M30.1596 30.6653H25.2909C25.0144 30.6653 24.7852 30.436 24.7852 30.1596C24.7852 29.8831 25.0144 29.6538 25.2909 29.6538H29.6538V25.2909C29.6538 25.0144 29.8831 24.7852 30.1596 24.7852C30.436 24.7852 30.6653 25.0144 30.6653 25.2909V30.1596C30.6653 30.436 30.436 30.6653 30.1596 30.6653Z" fill="#000B7C" stroke="#000B7C" stroke-width="0.666667"/>
    <path d="M6.70644 30.6653H1.83778C1.5613 30.6653 1.33203 30.436 1.33203 30.1596V25.2909C1.33203 25.0144 1.5613 24.7852 1.83778 24.7852C2.11425 24.7852 2.34353 25.0144 2.34353 25.2909V29.6538H6.70644C6.98292 29.6538 7.21219 29.8831 7.21219 30.1596C7.21219 30.436 6.98966 30.6653 6.70644 30.6653Z" fill="#000B7C" stroke="#000B7C" stroke-width="0.666667"/>
    <path d="M1.83778 7.21219C1.5613 7.21219 1.33203 6.98292 1.33203 6.70644V1.83778C1.33203 1.5613 1.5613 1.33203 1.83778 1.33203H6.70644C6.98292 1.33203 7.21219 1.5613 7.21219 1.83778C7.21219 2.11425 6.98292 2.34353 6.70644 2.34353H2.34353V6.70644C2.34353 6.98966 2.11425 7.21219 1.83778 7.21219Z" fill="#000B7C" stroke="#000B7C" stroke-width="0.666667"/>
    <path d="M30.1596 7.21219C29.8831 7.21219 29.6538 6.98292 29.6538 6.70644V2.34353H25.2909C25.0144 2.34353 24.7852 2.11425 24.7852 1.83778C24.7852 1.5613 25.0144 1.33203 25.2909 1.33203H30.1596C30.436 1.33203 30.6653 1.5613 30.6653 1.83778V6.70644C30.6653 6.98966 30.436 7.21219 30.1596 7.21219Z" fill="#000B7C" stroke="#000B7C" stroke-width="0.666667"/>
    <path d="M15.9946 4C10.8798 4 10.9401 8.26635 10.9401 8.26635L10.9049 10.5315C10.4879 10.5267 10.3874 10.9202 10.3874 11.7121C10.3874 12.8926 11.1461 14.1308 11.8294 14.769C12.0605 15.7001 12.5077 16.5159 13.1056 17.1398C13.0855 17.1542 13.0604 17.1638 13.0403 17.1734C11.0004 18.3587 8.57363 19.165 6.98594 19.9712C6.54882 20.192 6.08156 20.5807 5.70473 21.075C5.44849 21.4157 5.2224 21.7804 5.03147 22.1596C5.02645 22.174 5.0164 22.1884 5.01138 22.198C4.98625 22.2507 4.96113 22.3035 4.93601 22.3563C4.55416 23.1386 4.2929 23.9784 4.14217 24.8182C4.13714 24.8326 4.13714 24.8518 4.13212 24.8662C4.12709 24.9046 4.11704 24.943 4.11202 24.9862C4.0869 25.1302 4.05675 25.2741 4.03665 25.4181C4.01656 25.5381 3.99646 25.7876 4.00148 25.9124C4.00148 25.922 4.00148 25.9268 4.00148 25.9364C3.94622 26.7043 5.45352 26.9538 5.45352 26.9538C6.01624 27.1122 7.05126 27.2897 8.31236 27.4529C10.5582 27.808 12.8544 27.928 15.1103 27.9904C15.3314 27.9952 15.5575 28 15.7986 28C15.8137 28 15.8288 28 15.8438 28C15.9644 28 16.085 28 16.2056 28C16.4417 28 16.6729 27.9952 16.8939 27.9904C19.1499 27.9232 21.446 27.8032 23.6868 27.4529C24.9479 27.2897 25.983 27.117 26.5507 26.9538C26.5507 26.9538 28.053 26.7043 27.9977 25.9364C27.9977 25.9268 27.9977 25.922 27.9977 25.9124C28.0078 25.7876 27.9826 25.5381 27.9625 25.4181C27.9324 25.2118 27.8972 25.0054 27.857 24.799C27.6912 23.8824 27.3948 22.9658 26.9476 22.1212C26.9426 22.1116 26.9376 22.102 26.9326 22.0924C26.7467 21.7373 26.5356 21.3965 26.2945 21.0798C25.9176 20.5855 25.4454 20.1968 25.0082 19.976C23.4205 19.1698 20.9888 18.3683 18.9539 17.1782C18.9338 17.1638 18.9087 17.1542 18.8886 17.1446C19.4865 16.5207 19.9286 15.7001 20.1648 14.7738C20.8531 14.1356 21.6068 12.8974 21.6068 11.7169C21.6068 10.9298 21.5063 10.5315 21.0893 10.5363L21.0591 8.27115C21.044 8.26155 21.1093 4 15.9946 4Z" fill="#000B7C"/>
  </svg>