<svg xmlns="http://www.w3.org/2000/svg" width="32" height="32" viewBox="0 0 32 32" fill="none">
    <path d="M10.3828 16.6288H11.5133L10.937 15.0469L10.3828 16.6288Z" fill="#000B7C"/>
    <path d="M18.0285 13.4219H17.0742V15.1726H18.0285C18.5093 15.1726 18.902 14.7799 18.902 14.2991C18.902 13.8146 18.5093 13.4219 18.0285 13.4219Z" fill="#000B7C"/>
    <path d="M30.6654 18.6869V13.3068L27.63 12.6976C27.3731 11.7949 27.0134 10.9251 26.5546 10.1067L28.2723 7.52679L24.4698 3.72846L21.8896 5.44596C21.0711 4.98723 20.1976 4.62758 19.291 4.37069L18.6891 1.33203H13.3083L12.6991 4.36702C11.7998 4.62391 10.9263 4.98356 10.1078 5.44229L7.52756 3.72479L3.72876 7.52679L5.44648 10.1067C4.98769 10.9251 4.62799 11.7985 4.37107 12.6976L1.33203 13.3068V18.6832L4.37107 19.2887C4.62799 20.1915 4.98769 21.0686 5.44648 21.887L3.72876 24.4669L7.53123 28.2689L10.1115 26.5514C10.93 27.0102 11.7998 27.3698 12.7027 27.6267L13.312 30.6654H18.6891L19.2947 27.6267C20.1976 27.3698 21.0748 27.0102 21.8933 26.5514L24.4735 28.2689L28.276 24.4669L26.5583 21.887C27.017 21.0686 27.3767 20.1952 27.6337 19.2887L30.6654 18.6869ZM18.0284 11.7728C19.4195 11.7728 20.5536 12.9068 20.5536 14.2977C20.5536 15.6886 19.4195 16.8226 18.0284 16.8226H17.0741V19.3988C17.0741 19.8539 16.7034 20.2246 16.2483 20.2246C15.7932 20.2246 15.4225 19.8539 15.4225 19.3988V12.5986C15.4225 12.1435 15.7932 11.7728 16.2483 11.7728H18.0284ZM21.8272 19.3952V12.5986C21.8272 12.1435 22.1979 11.7728 22.653 11.7728C23.1081 11.7728 23.4788 12.1435 23.4788 12.5986V19.3988C23.4788 19.8539 23.1081 20.2246 22.653 20.2246C22.1979 20.2209 21.8272 19.8502 21.8272 19.3952ZM13.679 20.1695C13.5873 20.2025 13.4919 20.2209 13.3964 20.2209C13.0588 20.2209 12.7431 20.0117 12.622 19.6778L12.1118 18.2795H9.7995L9.31134 19.6704C9.16086 20.0998 8.69106 20.3273 8.25796 20.1732C7.82853 20.0227 7.60097 19.553 7.75512 19.1199L10.1445 12.3196C10.2583 11.9894 10.5703 11.7692 10.919 11.7692H10.9226C11.2676 11.7692 11.5796 11.9857 11.6971 12.3123L14.1672 19.1126C14.3287 19.542 14.1085 20.0154 13.679 20.1695Z" fill="#000B7C"/>
  </svg>