<svg width="32" height="32" viewBox="0 0 32 32" fill="none" xmlns="http://www.w3.org/2000/svg">
    <path d="M1.0763 23.6512C1.13717 23.6512 1.19805 23.6512 1.25892 23.6512C1.86766 23.6512 2.41552 23.1947 2.50683 22.5859C2.84163 20.3641 3.78517 18.2639 5.09395 16.7725C5.58093 17.0465 6.15923 17.2291 6.76797 17.2291C8.41155 17.2291 9.75076 16.0421 10.0551 14.4898C10.6334 14.5202 11.2117 14.6724 11.8205 14.8855C12.3988 15.0985 13.0075 15.342 13.6162 15.5855C15.1381 16.1942 16.7208 16.8334 18.3339 17.2291C18.6383 18.7814 19.9775 19.938 21.6211 19.938C23.3255 19.938 24.7561 18.6596 24.9387 16.9856C26.5823 16.3464 28.0737 15.2507 29.5042 13.668V15.9812C29.5042 16.6812 30.0521 17.2291 30.7521 17.2291C31.4521 17.2291 32 16.6812 32 15.9812V9.92428C32 9.5286 31.8174 9.16336 31.513 8.91986C31.2086 8.67637 30.813 8.6155 30.4173 8.70681L24.8169 10.2286C24.1473 10.4113 23.7517 11.1113 23.9343 11.7505C24.1169 12.4201 24.8169 12.8158 25.4561 12.6331L27.5562 12.0548C26.491 13.2114 25.3952 14.0637 24.2386 14.5507C23.6299 13.7593 22.6559 13.2419 21.5906 13.2419C20.4341 13.2419 19.3992 13.8506 18.7905 14.7637C17.3599 14.3985 15.9294 13.8202 14.5293 13.2723C13.9206 13.0288 13.2814 12.7853 12.6727 12.5418C11.6074 12.1462 10.5421 11.9635 9.50727 11.9635C8.89854 11.0809 7.89413 10.5026 6.76797 10.5026C4.91133 10.5026 3.41993 11.994 3.41993 13.8506C3.41993 14.155 3.45036 14.4593 3.54167 14.7333C1.74591 16.6508 0.467567 19.3292 0.0110161 22.2207C-0.0802941 22.9208 0.406693 23.5599 1.0763 23.6512Z" fill="#000B7C"/>
    </svg>
    