<svg width="32" height="32" viewBox="0 0 32 32" fill="none" xmlns="http://www.w3.org/2000/svg">
    <path d="M26.2173 28.4037C26.6643 28.4037 27.0554 28.0405 27.0554 27.5656V4.43416C27.0554 3.98718 26.6922 3.59607 26.2173 3.59607H5.76778C5.3208 3.59607 4.92969 3.95924 4.92969 4.43416C4.92969 4.88115 5.29286 5.27226 5.76778 5.27226H25.4071V27.5935C25.3792 28.0405 25.7703 28.4037 26.2173 28.4037Z" fill="#000B7C"/>
    <path d="M29.2898 2.17135C29.2898 1.72436 28.9266 1.33325 28.4517 1.33325H8.00216C7.55517 1.33325 7.16406 1.69643 7.16406 2.17135C7.16406 2.61833 7.52724 3.00944 8.00216 3.00944H27.6415V25.3307C27.6415 25.7777 28.0047 26.1688 28.4796 26.1688C28.9266 26.1688 29.3177 25.8056 29.3177 25.3307V2.17135H29.2898Z" fill="#000B7C"/>
    <path fill-rule="evenodd" clip-rule="evenodd" d="M23.9556 30.6667H3.50606C3.03114 30.6667 2.66797 30.3036 2.66797 29.8286V24.8001V6.66927C2.66797 6.19435 3.05908 5.83118 3.50606 5.83118H23.9556C24.4305 5.83118 24.7937 6.22229 24.7937 6.66927V24.8001V29.8286C24.7937 30.3036 24.4026 30.6667 23.9556 30.6667ZM4.31622 9.71435V11.2509H23.1175V9.71435H4.31622ZM4.31623 14.0445V12.508H20.9664V14.0445H4.31623ZM4.31623 18.0953V19.6318H22.5029V18.0953H4.31623Z" fill="#000B7C"/>
    </svg>
    