<svg xmlns="http://www.w3.org/2000/svg" width="32" height="32" viewBox="0 0 32 32" fill="none">
  <path d="M5.75781 19.7529C5.75781 19.8516 5.75781 19.9699 5.75781 20.0686C5.75781 25.7104 10.3462 30.287 16.0026 30.287C21.6589 30.287 26.2473 25.7104 26.2473 20.0686C26.2473 19.9699 26.2473 19.8516 26.2473 19.7529V13.9336H5.75781V19.7529ZM18.5843 17.5436C21.3531 17.5436 23.6275 19.7924 23.6275 22.5739C23.6275 25.3356 21.3729 27.6041 18.5843 27.6041C15.8154 27.6041 13.541 25.3553 13.541 22.5739C13.541 19.7924 15.8154 17.5436 18.5843 17.5436Z" fill="#000B7C"/>
  <path d="M2.53135 2C1.2397 2 0.286794 3.20608 0.585604 4.46268L1.46354 8.1547C1.97775 10.3246 3.91595 11.8633 6.1508 11.8633H25.8492C28.0841 11.8633 30.0222 10.3246 30.5365 8.1547L31.4144 4.46268C31.7132 3.20607 30.7603 2 29.4687 2H2.53135Z" fill="#000B7C"/>
  </svg>