<svg xmlns="http://www.w3.org/2000/svg" width="32" height="32" viewBox="0 0 32 32" fill="none">
    <path d="M23.4796 26.1875H8.51562V28.6671H23.4796V26.1875Z" fill="#000B7C"/>
    <path d="M23.1253 11.9778C22.828 12.2761 22.3523 12.2761 22.055 11.9778C21.7577 11.6794 21.7577 11.2021 22.055 10.9037L25.3055 7.64173C25.6027 7.34338 26.0784 7.34338 26.3757 7.64173C26.673 7.94008 26.673 8.41745 26.3757 8.7158L23.1253 11.9778Z" fill="#000B7C"/>
    <path d="M16.7563 8.70235C16.7563 9.12005 16.4194 9.45818 16.0032 9.45818C15.5869 9.45818 15.25 9.12005 15.25 8.70235V4.08785C15.25 3.67016 15.5869 3.33203 16.0032 3.33203C16.4194 3.33203 16.7563 3.67016 16.7563 4.08785V8.70235Z" fill="#000B7C"/>
    <path d="M9.94994 10.9037C10.2472 11.2021 10.2472 11.6794 9.94994 11.9778C9.65265 12.2761 9.17697 12.2761 8.87967 11.9778L5.62922 8.7158C5.33193 8.41745 5.33193 7.94008 5.62922 7.64173C5.92652 7.34338 6.4022 7.34338 6.69949 7.64173L9.94994 10.9037Z" fill="#000B7C"/>
    <path d="M6.68729 17.293C7.1035 17.293 7.44044 17.6311 7.44044 18.0488C7.44044 18.4665 7.1035 18.8046 6.68729 18.8046H2.08909C1.67287 18.8046 1.33594 18.4665 1.33594 18.0488C1.33594 17.6311 1.67287 17.293 2.08909 17.293H6.68729Z" fill="#000B7C"/>
    <path d="M29.9138 17.293C30.3301 17.293 30.667 17.6311 30.667 18.0488C30.667 18.4665 30.3301 18.8046 29.9138 18.8046H25.3157C24.8994 18.8046 24.5625 18.4665 24.5625 18.0488C24.5625 17.6311 24.8994 17.293 25.3157 17.293H29.9138Z" fill="#000B7C"/>
    <path d="M16.0023 12.4883C12.3555 12.4883 9.40234 15.4519 9.40234 19.1117V25.3306H22.6023V19.1117C22.6023 15.4585 19.6492 12.4883 16.0023 12.4883ZM21.5255 24.2897C21.5255 24.2897 21.5255 24.2897 19.0414 24.2897C16.5573 24.2897 22.6023 13.5358 14.0666 13.8872C14.0666 13.8872 15.3219 13.5358 16.0023 13.5358C19.0546 13.5358 21.5255 16.0155 21.5255 19.0785V24.2897Z" fill="#000B7C"/>
  </svg>