<svg xmlns="http://www.w3.org/2000/svg" width="32" height="32" viewBox="0 0 32 32" fill="none">
    <path d="M31.0857 22.7708H29.7448V6.00892C29.7448 5.27749 29.1352 4.66797 28.4038 4.66797H3.13905C2.40762 4.66797 1.7981 5.27749 1.7981 6.00892V22.7404H0.914286C0.426667 22.7404 0 23.1365 0 23.6546C0 25.727 1.70667 27.4337 3.77905 27.4337H28.221C30.2933 27.4337 32 25.727 32 23.6546C32 23.167 31.6038 22.7708 31.0857 22.7708ZM4.48 7.38035H27.0629V22.3137H4.48V7.38035Z" fill="#000B7C"/>
    <path d="M9.96655 8.69141C7.89417 8.69141 6.1875 10.3676 6.1875 12.4705C6.1875 14.5428 7.86369 16.2495 9.96655 16.2495C12.0389 16.2495 13.7456 14.5733 13.7456 12.4705H9.96655V8.69141Z" fill="#000B7C"/>
    <path d="M25.9352 9.69531H16V11.3715H25.9352V9.69531Z" fill="#000B7C"/>
    <path d="M23.2533 12.4688H16V14.1449H23.2533V12.4688Z" fill="#000B7C"/>
    <path d="M18.7124 15.2422H16V16.9184H18.7124V15.2422Z" fill="#000B7C"/>
    <path d="M22.1562 18.0156H16V19.6918H22.1562V18.0156Z" fill="#000B7C"/>
    <path d="M12.4037 18.2891H7.67991C7.19229 18.2891 6.76562 18.6853 6.76562 19.2033C6.76562 19.691 7.16182 20.1176 7.67991 20.1176H12.4037C12.8913 20.1176 13.318 19.7214 13.318 19.2033C13.2875 18.7157 12.8913 18.2891 12.4037 18.2891Z" fill="#000B7C"/>
  </svg>