<svg width="32" height="32" viewBox="0 0 32 32" fill="none" xmlns="http://www.w3.org/2000/svg">
  <path d="M8 0C5.79375 0 4 1.79375 4 4V28C4 30.2062 5.79375 32 8 32H24C26.2062 32 28 30.2062 28 28V10H20C18.8937 10 18 9.10625 18 8V0H8ZM20 0V8H28L20 0ZM8 18C8 16.8937 8.89375 16 10 16H16C17.1063 16 18 16.8937 18 18V24C18 25.1063 17.1063 26 16 26H10C8.89375 26 8 25.1063 8 24V18ZM22.8062 24.8687L20 23V19L22.8062 17.1313C22.9312 17.05 23.0813 17 23.2313 17C23.6563 17 24 17.3437 24 17.7687V24.2313C24 24.6563 23.6563 25 23.2313 25C23.0813 25 22.9312 24.9562 22.8062 24.8687Z" fill="#000B7C"/>
  </svg>
  