<svg xmlns="http://www.w3.org/2000/svg" width="32" height="32" viewBox="0 0 32 32" fill="none">
    <path d="M20.6641 1.33203H9.9974C8.1574 1.33203 6.66406 2.82536 6.66406 4.66536V27.332C6.66406 29.172 8.1574 30.6654 9.9974 30.6654H20.6641C22.5041 30.6654 23.9974 29.172 23.9974 27.332V4.66536C23.9974 2.82536 22.5041 1.33203 20.6641 1.33203ZM15.3307 29.332C14.2241 29.332 13.3307 28.4387 13.3307 27.332C13.3307 26.2254 14.2241 25.332 15.3307 25.332C16.4374 25.332 17.3307 26.2254 17.3307 27.332C17.3307 28.4387 16.4374 29.332 15.3307 29.332ZM21.3307 23.9987H9.33073V5.33203H21.3307V23.9987Z" fill="#000B7C"/>
  </svg>