<svg width="32" height="32" viewBox="0 0 32 32" fill="none" xmlns="http://www.w3.org/2000/svg">
    <path d="M6.05443 21.8121L4.64679 25.3993L5.3279 26.0804L5.8728 26.6253L6.55391 27.3064L10.1411 25.8988C11.0493 26.4437 12.0028 26.8523 13.0472 27.1248L14.5911 30.6666H15.59H16.362H17.3609L18.9048 27.1248C19.9492 26.8523 20.9027 26.4437 21.8109 25.8988L25.3981 27.3064L26.0792 26.6253L26.6241 26.0804L27.3052 25.3993L25.8976 21.8121C26.4425 20.9039 26.8511 19.9504 27.1236 18.906L30.6654 17.3621V16.3632V15.5913V14.5923L27.1236 13.0484C26.8511 12.004 26.4425 11.0505 25.8976 10.1423L27.3052 6.55513L26.6241 5.87402L26.0792 5.32912L25.3981 4.64801L21.8109 6.05565C20.9027 5.51075 19.9492 5.10209 18.9048 4.82964L17.3609 1.33325H16.362H15.59H14.5911L13.0472 4.87505C12.0028 5.14749 11.0493 5.55616 10.1411 6.10105L6.55391 4.69342L5.8728 5.37453L5.37331 5.87402L4.6922 6.55513L6.09983 10.1423C5.55494 11.0505 5.14627 12.004 4.87383 13.0484L1.33203 14.6377V15.6367V16.4086V17.4076L4.87383 18.9514C5.10087 19.905 5.50953 20.9039 6.05443 21.8121ZM15.9987 8.23521C20.267 8.23521 23.7634 11.6862 23.7634 15.9999C23.7634 20.3136 20.3124 23.7646 15.9987 23.7646C11.685 23.7646 8.23399 20.3136 8.23399 15.9999C8.23399 11.6862 11.685 8.23521 15.9987 8.23521Z" fill="#000B7C"/>
    <path d="M20.0676 16.9361C20.5978 14.6908 19.2074 12.4408 16.9621 11.9106C14.7167 11.3804 12.4667 12.7708 11.9366 15.0161C11.4064 17.2615 12.7968 19.5115 15.0421 20.0417C17.2874 20.5718 19.5375 19.1814 20.0676 16.9361Z" fill="#000B7C"/>
    </svg>
    