<svg xmlns="http://www.w3.org/2000/svg" width="32" height="32" viewBox="0 0 32 32" fill="none">
    <path d="M9.65368 9.26637C8.8925 9.87531 8.77071 10.9714 9.37966 11.7326L12.6984 15.8734V25.647C12.6984 26.6213 13.49 27.4129 14.4643 27.4129C15.4386 27.4129 16.2303 26.6213 16.2303 25.647C16.2303 26.6213 17.0219 27.4129 17.9962 27.4129C18.9705 27.4129 19.7621 26.6213 19.7621 25.647V15.9039L23.0809 11.763C23.6898 11.0019 23.568 9.90576 22.8069 9.29682C22.0457 8.68787 20.9496 8.80966 20.3406 9.57084L16.7174 14.1379H15.8345L12.2112 9.57084C11.511 8.80966 10.4149 8.65743 9.65368 9.26637Z" fill="#000B7C"/>
    <path d="M19.1786 6.98382C19.1786 5.33968 17.8389 4 16.1948 4C14.5506 4 13.2109 5.33968 13.2109 6.98382C13.2109 8.62797 14.5506 9.96765 16.1948 9.96765C17.8389 9.96765 19.1786 8.62797 19.1786 6.98382Z" fill="#000B7C"/>
    <path d="M3.25491 10.5762C4.29012 10.5762 5.14264 9.72371 5.14264 8.68851C5.14264 7.6533 4.29012 6.80078 3.25491 6.80078C2.21971 6.80078 1.36719 7.6533 1.36719 8.68851C1.36719 9.72371 2.21971 10.5762 3.25491 10.5762Z" fill="#000B7C"/>
    <path d="M1.0352 18.1292V21.2958C1.0352 21.9047 1.52236 22.4223 2.16175 22.4223C2.77069 22.4223 3.2883 21.9351 3.2883 21.2958C3.2883 21.9047 3.77545 22.4223 4.41484 22.4223C5.02379 22.4223 5.54139 21.9351 5.54139 21.2958V18.1292C6.18078 17.703 6.57659 16.9723 6.57659 16.1502V13.2881C6.57659 11.9789 5.51094 10.8828 4.17127 10.8828H2.40533C1.0961 10.8828 0 11.9485 0 13.2881V16.1502C0 16.9723 0.395814 17.703 1.0352 18.1292Z" fill="#000B7C"/>
    <path d="M28.7119 10.5762C29.7472 10.5762 30.5997 9.72371 30.5997 8.68851C30.5997 7.6533 29.7472 6.80078 28.7119 6.80078C27.6767 6.80078 26.8242 7.6533 26.8242 8.68851C26.8242 9.72371 27.6463 10.5762 28.7119 10.5762Z" fill="#000B7C"/>
    <path d="M25.4219 16.1502C25.4219 16.9723 25.8177 17.703 26.4571 18.1292V21.2958C26.4571 21.9047 26.9442 22.4223 27.5836 22.4223C28.1926 22.4223 28.7102 21.9351 28.7102 21.2958C28.7102 21.9047 29.1973 22.4223 29.8367 22.4223C30.4457 22.4223 30.9633 21.9351 30.9633 21.2958V18.1292C31.6027 17.703 31.9985 16.9723 31.9985 16.1502V13.2881C31.9985 11.9789 30.9328 10.8828 29.5931 10.8828H27.8272C26.518 10.8828 25.4219 11.9485 25.4219 13.2881V16.1502Z" fill="#000B7C"/>
  </svg>