<svg width="150" height="154" viewBox="0 0 150 154" fill="none" xmlns="http://www.w3.org/2000/svg">
    <path opacity="0.75" d="M45.4451 154V134.201L97.9704 82.7099C102.994 77.6379 107.18 73.1309 110.529 69.1909C113.878 65.2509 116.39 61.4339 118.064 57.7409C119.739 54.0469 120.576 50.1069 120.576 45.9199C120.576 41.1431 119.493 37.0553 117.326 33.6571C115.159 30.2096 112.179 27.55 108.387 25.6785C104.595 23.807 100.285 22.8713 95.4587 22.8713C90.4844 22.8713 86.1258 23.9055 82.3827 25.974C78.6397 27.9933 75.734 30.8744 73.6655 34.6174C71.6462 38.3605 70.6366 42.8176 70.6366 47.9889H44.5586C44.5586 38.3851 46.7502 30.0372 51.1335 22.9451C55.5168 15.8531 61.5499 10.3617 69.2329 6.47097C76.9652 2.58017 85.8303 0.634766 95.828 0.634766C105.974 0.634766 114.888 2.53087 122.571 6.32317C130.254 10.1155 136.213 15.3114 140.449 21.9109C144.734 28.5104 146.876 36.0457 146.876 44.5169C146.876 50.1809 145.793 55.7459 143.626 61.2129C141.459 66.6789 137.642 72.7369 132.175 79.3859C126.757 86.0349 119.148 94.0869 109.347 103.543L83.2692 130.064V131.099H149.166V154H45.4451Z" fill="#F0F4FD"/>
    <path d="M69.2062 49V110H37.8139V95.7031C37.8132 94.8612 37.0232 94.1783 36.0479 94.1783H20.7935V49.0001L69.2062 49ZM63.4132 55.1719C63.3578 55.1692 63.303 55.1692 63.2476 55.1719H28.0768C27.6046 55.166 27.1489 55.324 26.8121 55.6107C26.4759 55.8974 26.2863 56.2883 26.2863 56.6968C26.2863 57.1047 26.4759 57.4962 26.8121 57.7829C27.1489 58.0696 27.6046 58.2275 28.0768 58.2217H63.2476C63.7162 58.2408 64.1737 58.0983 64.5203 57.826C64.867 57.5531 65.0745 57.1728 65.096 56.7681C65.1182 56.3638 64.9532 55.9681 64.6373 55.6687C64.322 55.3692 63.8818 55.1905 63.4132 55.1719ZM63.4132 63.3686C63.3578 63.3665 63.303 63.3665 63.2476 63.3686H28.0768C27.6046 63.3628 27.1489 63.5207 26.8121 63.8074C26.4759 64.0941 26.2863 64.4856 26.2863 64.8935C26.2863 65.302 26.4759 65.6929 26.8121 65.9796C27.1489 66.2663 27.6046 66.4243 28.0768 66.4184H63.2476C63.7162 66.4376 64.1737 66.295 64.5203 66.0227C64.867 65.7499 65.0745 65.3696 65.096 64.9653C65.1182 64.5606 64.9532 64.1649 64.6373 63.866C64.322 63.5665 63.8818 63.3872 63.4132 63.3686ZM63.4132 71.5654C63.3578 71.5632 63.303 71.5632 63.2476 71.5654H28.0768C27.6046 71.5595 27.1489 71.7175 26.8121 72.0042C26.4759 72.2908 26.2863 72.6823 26.2863 73.0903C26.2863 73.4987 26.4759 73.8897 26.8121 74.1764C27.1489 74.463 27.6046 74.621 28.0768 74.6152H63.2476C63.7162 74.6343 64.1737 74.4918 64.5203 74.2195C64.867 73.9466 65.0745 73.5663 65.096 73.1621C65.1182 72.7573 64.9532 72.3621 64.6373 72.0627C64.322 71.7633 63.8818 71.5845 63.4132 71.5654ZM63.4132 79.7621C63.3578 79.76 63.303 79.76 63.2476 79.7621H28.0768C27.6046 79.7562 27.1489 79.9147 26.8121 80.2014C26.4759 80.4876 26.2863 80.8791 26.2863 81.2875C26.2863 81.6955 26.4759 82.0869 26.8121 82.3731C27.1489 82.6598 27.6046 82.8183 28.0768 82.8124H63.2476C63.7162 82.8316 64.1737 82.689 64.5203 82.4162C64.867 82.1439 65.0745 81.763 65.096 81.3588C65.1182 80.954 64.9532 80.5589 64.6373 80.2594C64.322 79.96 63.8818 79.7812 63.4132 79.7621ZM63.5788 87.9828C63.5234 87.9807 63.4686 87.9807 63.4132 87.9828C63.3578 87.9807 63.303 87.9807 63.2476 87.9828H43.2473C42.775 87.9769 42.3194 88.1355 41.9832 88.4221C41.6464 88.7083 41.4567 89.0998 41.4567 89.5077C41.4567 89.9162 41.6464 90.3071 41.9832 90.5938C42.3194 90.8805 42.775 91.039 43.2473 91.0331H63.2476C64.2229 91.1119 65.0874 90.4933 65.1785 89.6508C65.2703 88.8089 64.5535 88.062 63.5788 87.9828Z" fill="#050081"/>
    <path d="M34.2815 97.2285H21.7002L34.2815 108.979V97.2285Z" fill="#E20000"/>
    </svg>
    