<svg width="163" height="157" viewBox="0 0 163 157" fill="none" xmlns="http://www.w3.org/2000/svg">
    <path opacity="0.75" d="M106.743 156.069C96.1055 156.069 86.6495 154.246 78.3754 150.602C70.1506 146.957 63.6496 141.884 58.8724 135.383C54.0951 128.882 51.5587 121.372 51.2632 112.851H79.0403C79.2866 116.939 80.6409 120.51 83.1034 123.563C85.566 126.568 88.8411 128.907 92.9289 130.582C97.0166 132.256 101.597 133.093 106.67 133.093C112.087 133.093 116.889 132.158 121.075 130.286C125.262 128.365 128.537 125.706 130.901 122.308C133.265 118.909 134.422 114.994 134.373 110.561C134.422 105.981 133.24 101.943 130.827 98.4459C128.414 94.9489 124.917 92.2159 120.337 90.2459C115.806 88.2759 110.339 87.2909 103.936 87.2909H90.5648V66.1619H103.936C109.206 66.1619 113.811 65.2509 117.751 63.4289C121.74 61.6069 124.868 59.0459 127.133 55.7459C129.399 52.3969 130.507 48.5309 130.457 44.1469C130.507 39.8626 129.546 36.1442 127.576 32.9922C125.656 29.7909 122.922 27.3038 119.376 25.5308C115.879 23.7578 111.767 22.8713 107.039 22.8713C102.409 22.8713 98.1248 23.7085 94.1847 25.383C90.2447 27.0575 87.0681 29.4462 84.6548 32.5489C82.2416 35.6024 80.9611 39.247 80.8133 43.4829H54.4398C54.6368 35.0114 57.0747 27.5747 61.7535 21.1721C66.4815 14.7204 72.7855 9.69677 80.6656 6.10157C88.5456 2.45707 97.386 0.634766 107.187 0.634766C117.283 0.634766 126.05 2.53087 133.486 6.32317C140.973 10.0662 146.759 15.1144 150.847 21.4676C154.935 27.8209 156.979 34.8391 156.979 42.5221C157.028 51.0419 154.516 58.1839 149.444 63.9459C144.42 69.7079 137.82 73.4759 129.645 75.2489V76.4309C140.283 77.9079 148.434 81.8479 154.098 88.2509C159.811 94.6039 162.643 102.509 162.593 111.965C162.593 120.436 160.18 128.021 155.354 134.719C150.576 141.367 143.977 146.588 135.555 150.38C127.182 154.172 117.579 156.069 106.743 156.069Z" fill="#F0F4FD"/>
    <path d="M20.8188 50.3865L14.779 47.5216C13.601 46.9627 12.7083 46.3359 11.6378 48.6507L1.22671 70.7645C0.669898 71.947 1.17416 73.3595 2.35159 73.9177L8.3914 76.7826C9.56947 77.3415 10.9766 76.8353 11.5326 75.6534L21.9424 53.5396C22.5011 52.3571 21.9982 50.9453 20.8188 50.3865Z" fill="#E20000"/>
    <path d="M75.3286 92.7866C74.1493 94.2479 72.4179 95.0071 70.672 95.0071C70.4252 95.0071 70.179 94.987 69.9328 94.9562C69.8995 96.2619 69.4448 97.511 68.6146 98.5396C67.6155 99.778 66.1886 100.554 64.5986 100.723C64.3813 100.746 64.1647 100.758 63.9486 100.758C63.4581 100.758 62.9765 100.696 62.5092 100.58C62.378 101.65 61.9572 102.697 61.2319 103.596C60.2327 104.835 58.8059 105.611 57.2146 105.78C56.9973 105.803 56.7806 105.815 56.5646 105.815C55.2031 105.815 53.8968 105.357 52.8274 104.494L52.6051 104.315C52.4192 104.963 52.1039 105.586 51.6536 106.144C50.6275 107.416 49.1189 108.077 47.5992 108.077C46.4857 108.077 45.3666 107.723 44.4234 106.994L44.277 106.903L43.7759 107.545C42.4922 109.19 40.0977 109.485 38.453 108.203C37.0456 107.104 36.6305 105.194 37.3427 103.634L37.0896 103.958C35.7162 105.718 33.152 106.035 31.3918 104.661C29.9826 103.562 29.5002 101.698 30.0686 100.096C28.6443 101.53 26.3231 101.707 24.6928 100.435L24.5728 100.341C22.9652 99.0866 22.5632 96.8384 23.5517 95.1183C21.993 96.3951 19.6926 96.4767 18.0417 95.1887C16.13 93.6972 15.7859 90.9119 17.2786 88.9997L19.3736 86.3157L13.856 79.1213C13.4742 78.6233 13.402 77.9532 13.6701 77.3848L14.7007 75.1993L20.2378 81.9283L21.6194 83.73C23.1686 82.616 25.3359 82.5959 26.9109 83.8249C28.8226 85.3164 29.1667 88.1016 27.6739 90.0138L27.4498 90.3008C28.8785 89.2464 30.8981 89.2181 32.3627 90.3611L32.4826 90.4553C33.998 91.6379 34.4421 93.7014 33.6608 95.3757C35.092 94.2886 37.1387 94.2484 38.6182 95.4027C40.0796 96.5431 40.5431 98.5024 39.8724 100.142L40.2825 100.384C41.5322 99.8087 43.0532 99.9299 44.2075 100.83C45.1577 101.571 45.6538 102.684 45.6588 103.81L46.2793 104.196C46.3364 104.232 46.3923 104.271 46.4444 104.315C47.2376 104.954 48.4032 104.829 49.0431 104.036C49.6829 103.243 49.558 102.078 48.7649 101.438C48.7567 101.431 48.7479 101.424 48.7398 101.417L42.0006 95.758C41.9824 95.743 41.9667 95.726 41.9498 95.7109C41.929 95.6921 41.9071 95.6726 41.887 95.6519C41.8681 95.6318 41.8499 95.6117 41.8311 95.591C41.8122 95.5703 41.7921 95.5489 41.7739 95.5257C41.757 95.5049 41.7406 95.483 41.7249 95.4604C41.708 95.4371 41.691 95.4151 41.676 95.3925C41.6609 95.3693 41.6477 95.3454 41.6339 95.3222C41.6201 95.299 41.6056 95.2751 41.5931 95.2512C41.5799 95.2261 41.5692 95.201 41.5579 95.1765C41.5466 95.1526 41.5347 95.1288 41.5246 95.1036C41.5146 95.0779 41.5058 95.0515 41.4963 95.0264C41.4875 95.0013 41.4781 94.9762 41.4712 94.9517C41.4631 94.9259 41.4574 94.8989 41.4511 94.8725C41.4448 94.8468 41.4379 94.8217 41.4329 94.7953C41.4279 94.7683 41.4241 94.7413 41.421 94.7155C41.4172 94.6898 41.4128 94.6628 41.4097 94.6364C41.4065 94.6094 41.4065 94.5837 41.4047 94.5567C41.4034 94.5297 41.4015 94.5026 41.4015 94.4756C41.4015 94.4486 41.4034 94.4229 41.4047 94.3959C41.4059 94.3689 41.4065 94.3419 41.4097 94.3149C41.4128 94.2879 41.4166 94.2621 41.421 94.2351C41.4248 94.2081 41.4279 94.1811 41.4329 94.1554C41.4379 94.1284 41.4448 94.1026 41.4518 94.0762C41.458 94.0505 41.4637 94.0241 41.4719 93.9984C41.48 93.9714 41.4901 93.9456 41.4989 93.9192C41.5076 93.8941 41.5158 93.869 41.5259 93.8445C41.5372 93.8175 41.5497 93.7917 41.5617 93.7654C41.573 93.7415 41.5836 93.7183 41.5956 93.6944C41.6094 93.6674 41.6257 93.6423 41.6414 93.6165C41.6546 93.5946 41.6672 93.5726 41.6816 93.5506C41.6986 93.5248 41.7174 93.5004 41.7369 93.4759C41.7501 93.4589 41.7607 93.4407 41.7739 93.425C41.7771 93.4212 41.7808 93.4181 41.784 93.4137C41.7877 93.4087 41.7909 93.4049 41.7953 93.3999C41.811 93.381 41.8286 93.3641 41.8455 93.3459C41.8637 93.3258 41.8813 93.305 41.9008 93.2856C41.9215 93.2649 41.9435 93.2454 41.9667 93.2253C41.9868 93.2071 42.0057 93.1895 42.027 93.1732C42.0502 93.1543 42.0741 93.138 42.098 93.1204C42.1187 93.1053 42.1401 93.0896 42.1608 93.0752C42.1859 93.0595 42.211 93.0444 42.2368 93.03C42.2587 93.0168 42.2795 93.0042 42.3027 92.9917C42.3285 92.9779 42.3555 92.9659 42.3825 92.9534C42.4057 92.9433 42.4277 92.9326 42.4503 92.9226C42.4773 92.9113 42.5056 92.9025 42.5326 92.8924C42.5558 92.8843 42.5797 92.8755 42.6029 92.8686C42.6299 92.8604 42.6582 92.8548 42.6858 92.8479C42.7109 92.8416 42.7348 92.8347 42.7599 92.8309C42.7869 92.8259 42.8139 92.8221 42.8422 92.8177C42.8679 92.8139 42.8943 92.8095 42.92 92.8064C42.947 92.8033 42.9728 92.8033 42.9998 92.8014C43.0268 92.8001 43.0538 92.7982 43.0808 92.7982C43.1066 92.7982 43.1329 92.8001 43.1587 92.8014C43.1869 92.8026 43.2146 92.8033 43.2416 92.8064C43.2667 92.8083 43.2924 92.8133 43.3176 92.8165C43.3458 92.8202 43.3735 92.8246 43.4017 92.8296C43.4268 92.8347 43.452 92.8416 43.4764 92.8479C43.5047 92.8548 43.5317 92.861 43.5593 92.8686C43.5845 92.8767 43.6096 92.8855 43.6341 92.8943C43.6598 92.9031 43.6868 92.9125 43.7132 92.9232C43.739 92.9333 43.7634 92.9465 43.7892 92.9571C43.8143 92.9691 43.8394 92.9804 43.8633 92.9929C43.8884 93.0061 43.9135 93.0218 43.938 93.0369C43.9613 93.0507 43.9851 93.0639 44.0071 93.079C44.0322 93.0947 44.0548 93.1141 44.0793 93.1317C44.0975 93.1449 44.1151 93.1568 44.1333 93.1707L54.9338 101.887C55.4751 102.323 56.1584 102.524 56.8574 102.449C57.5564 102.374 58.1831 102.035 58.6189 101.494C59.4529 100.459 59.3694 98.981 58.477 98.0427L49.4087 90.7252C49.334 90.6649 49.2674 90.5989 49.2065 90.5292L46.984 88.7344C46.263 88.1522 46.15 87.096 46.7322 86.3756C47.3143 85.6546 48.3706 85.5416 49.091 86.1238L60.3329 95.1972C60.4729 95.3103 60.6061 95.4296 60.7329 95.5521L62.3168 96.8307C62.8581 97.2678 63.5433 97.4656 64.2404 97.3921C64.9394 97.3174 65.5661 96.9783 66.0019 96.4369C66.9094 95.3128 66.7329 93.6593 65.6088 92.7518L51.6621 81.4904C50.9411 80.9082 50.8281 79.852 51.4103 79.1316C51.9924 78.4106 53.0487 78.2976 53.7691 78.8798L66.0962 88.828L69.0315 91.0725C69.5728 91.5083 70.2542 91.7086 70.9551 91.6339C71.6541 91.5592 72.2808 91.2201 72.7166 90.6787C73.1525 90.1374 73.3528 89.4541 73.2781 88.7551C73.2034 88.0561 72.8642 87.4294 72.3229 86.9936L43.9922 63.7673C41.6943 65.0296 39.9159 67.5605 39.9159 67.5605C34.6671 81.256 28.9265 73.4655 28.9265 73.4655C30.5668 71.3327 32.0427 61.8197 32.0427 61.8197C32.9552 60.1982 35.3497 58.6156 37.946 57.2981L33.1084 57.1021L33.1166 57.0871L23.5351 56.4547L24.4947 54.42C24.7817 53.8096 25.4072 53.4334 26.0804 53.4585L45.4595 54.2429C45.9858 54.0796 46.3701 53.9779 46.561 53.9458C57.8287 52.0631 63.8646 56.8159 63.8646 56.8159L75.3464 80.0245L73.4554 83.5796L74.4439 84.3897C76.9968 86.452 77.4 90.2213 75.33 92.7862L75.3286 92.7866ZM88.0953 73.2821L77.4802 51.2471C76.9119 50.069 75.4963 49.5735 74.3182 50.1418L68.2762 53.0525C67.0981 53.6209 66.6026 55.0364 67.1709 56.2145L77.786 78.2479C78.3543 79.4261 79.7699 79.9215 80.948 79.3532L86.99 76.4425C88.1675 75.8766 88.6623 74.4608 88.0953 73.2821Z" fill="#050081"/>
    </svg>
    